<svg width="123" height="33" viewBox="0 0 123 33" fill="none" xmlns="http://www.w3.org/2000/svg">
<path d="M7.39858 21.9939H3.82019V4.19375L0.360107 5.65517V2.61541C1.60219 1.91393 2.45982 1.56319 3.82019 0.657104H7.39858V21.9939Z" fill="white"/>
<path d="M18.7538 21.9939H15.1754V4.19375L11.7153 5.65517V2.61541C13.1053 1.94316 13.8742 1.44627 15.1754 0.657104H18.7538V21.9939Z" fill="white"/>
<path d="M29.9926 21.9939H26.4142V4.19375L22.9541 5.65517V2.61541C24.4328 1.82624 25.113 1.4755 26.4142 0.657104H29.9926V21.9939Z" fill="white"/>
<path d="M56.0754 5.68409C52.8815 4.07652 49.6284 3.25813 46.2866 3.25813C44.0686 3.25813 42.3829 3.52118 41.2296 4.01807C40.0466 4.51495 39.4552 5.24566 39.4552 6.15175C39.4552 7.08706 40.0762 7.78854 41.3183 8.22697C42.2055 8.54848 43.6841 8.75308 45.6951 8.86999C48.682 9.07459 50.6339 9.22073 51.6098 9.33765C54.301 9.68839 56.312 10.3606 57.6132 11.3252C58.9144 12.2897 59.5651 13.6635 59.5651 15.4172C59.5651 17.6678 58.5596 19.4215 56.519 20.6491C54.508 21.8767 51.5802 22.5197 47.7948 22.5197C42.2942 22.5197 38.0061 21.3213 34.9304 18.9246L36.9118 16.3525C40.2832 18.3985 43.9207 19.4215 47.8244 19.4215C50.3382 19.4215 52.3196 19.0707 53.7095 18.3985C55.0403 17.7262 55.6909 16.8201 55.6909 15.651C55.6909 14.3065 54.8037 13.4004 53.0589 12.9327C52.1421 12.6989 49.6875 12.4359 45.6656 12.202C42.1168 11.9682 39.603 11.5006 38.1835 10.7991C36.5274 9.98067 35.6698 8.57771 35.6698 6.64863C35.6698 4.63187 36.6161 3.05353 38.5088 1.91362C40.4015 0.744481 43.0927 0.159912 46.5528 0.159912C51.1958 0.159912 55.0995 1.21213 58.2343 3.31658L56.0754 5.68409Z" fill="white"/>
<path d="M87.5711 21.9939H82.9577L72.607 10.7994L66.1008 15.5344V21.9939H62.5225V0.657104H66.1008V11.7347L81.2128 0.657104H86.3586L75.3277 8.75339L87.5711 21.9939Z" fill="white"/>
<path d="M93.5442 0.657104H89.9658V21.9939H93.5442V0.657104Z" fill="white"/>
<path d="M122.5 21.9939H118.064L101.591 4.51526V21.9939H97.9834V0.657104H102.449L118.921 18.165V0.657104H122.5V21.9939Z" fill="white"/>
<path d="M7.99016 32.7789H7.36912V30.6452H4.41178V32.7789H3.82031V28.0146H4.41178V29.9437H7.36912V28.0146H7.99016V32.7789Z" fill="white"/>
<path d="M16.5083 32.779H15.8281L15.4141 31.7268H12.9299L12.5159 32.779H11.8357L13.7875 28.0148H14.5564L16.5083 32.779ZM15.1183 30.9961L14.172 28.687L13.2256 30.9961H15.1183Z" fill="white"/>
<path d="M24.5515 32.7789H23.8417L22.8362 30.9667H20.9731V32.7789H20.3521V28.0146H23.2798C23.6643 28.0146 23.96 28.1608 24.1966 28.4238C24.4036 28.6869 24.5219 29.0669 24.5219 29.5345C24.5219 29.9437 24.4332 30.2652 24.2557 30.4991C24.0783 30.7329 23.8713 30.879 23.5755 30.9375L24.5515 32.7789ZM23.1911 30.236C23.6643 30.236 23.9009 30.0022 23.9009 29.5053C23.9009 28.9792 23.6347 28.7161 23.1319 28.7161H20.9731V30.236H23.1911Z" fill="white"/>
<path d="M32.1825 32.779H28.7224V28.0148H29.3435V32.0483H32.1825V32.779Z" fill="white"/>
<path d="M39.9293 32.7789H36.0552V28.0146H39.7814V28.7161H36.6762V29.9437H38.8351V30.6452H36.6762V32.0482H39.9293V32.7789Z" fill="white"/>
<path d="M47.9441 28.0146L45.9035 30.879V32.7789H45.312V30.879L43.2715 28.0146H44.0404L45.6078 30.236L47.1752 28.0146H47.9441Z" fill="white"/>
<path d="M58.1761 29.1249C57.6438 28.7741 57.0819 28.5987 56.4904 28.5987C56.106 28.5987 55.8103 28.6572 55.6328 28.7741C55.4258 28.891 55.3371 29.0372 55.3371 29.2418C55.3371 29.4464 55.4554 29.5925 55.6624 29.7094C55.8103 29.7679 56.0764 29.8263 56.4017 29.8556C56.9045 29.8848 57.2594 29.9432 57.4072 29.9432C57.8804 30.0309 58.2057 30.1771 58.4423 30.3817C58.6493 30.5863 58.7676 30.9078 58.7676 31.2878C58.7676 31.7846 58.5902 32.1938 58.2353 32.4569C57.8804 32.72 57.3777 32.8661 56.727 32.8661C55.7807 32.8661 55.0414 32.603 54.509 32.0477L54.8343 31.4631C55.4258 31.9308 56.0468 32.1354 56.6975 32.1354C57.1411 32.1354 57.4664 32.0477 57.703 31.9016C57.9395 31.7554 58.0283 31.5508 58.0283 31.2878C58.0283 30.9955 57.8804 30.7909 57.5847 30.674C57.4368 30.6155 56.9932 30.557 56.313 30.4986C55.692 30.4401 55.2779 30.3524 55.0414 30.1771C54.7456 30.0017 54.5977 29.6802 54.5977 29.2418C54.5977 28.8033 54.7456 28.4526 55.1005 28.1895C55.4258 27.9265 55.899 27.8096 56.4609 27.8096C57.2594 27.8096 57.9395 28.0434 58.4719 28.5111L58.1761 29.1249Z" fill="white"/>
<path d="M66.2199 28.7161H64.4455V32.7789H63.854V28.7161H62.0796V28.0146H66.2199V28.7161Z" fill="white"/>
<path d="M67.5785 32.0481H66.78V32.7504H67.5785V32.0481Z" fill="white"/>
<path d="M79.943 32.7789H76.4829V28.0146H77.104V32.0482H79.943V32.7789Z" fill="white"/>
<path d="M88.0467 30.3821C88.0467 31.1712 87.8101 31.785 87.3073 32.2819C86.8637 32.6911 86.3314 32.9249 85.6808 32.9249C85.0302 32.9249 84.4683 32.7203 84.0543 32.2819C83.5515 31.8143 83.3149 31.1712 83.3149 30.3821C83.3149 29.6221 83.5811 28.9791 84.0839 28.5114C84.5275 28.073 85.0598 27.8684 85.7104 27.8684C86.361 27.8684 86.8933 28.073 87.3369 28.5114C87.7805 28.9791 88.0467 29.6221 88.0467 30.3821ZM87.3961 30.3821C87.3961 29.8267 87.2186 29.3883 86.8342 29.0375C86.5089 28.7453 86.1244 28.5991 85.6512 28.5991C85.1485 28.5991 84.7049 28.7745 84.3796 29.096C84.0543 29.4467 83.9064 29.8559 83.9064 30.3821C83.9064 30.9082 84.0543 31.3466 84.3796 31.6973C84.7049 32.0189 85.1189 32.1942 85.6512 32.1942C86.1836 32.1942 86.5976 32.0189 86.8933 31.6973C87.2482 31.3466 87.3961 30.9082 87.3961 30.3821Z" fill="white"/>
<path d="M96.6518 32.7789H95.8829L93.0734 28.8623V32.7789H92.4524V28.0146H93.2213L96.0308 31.902V28.0146H96.6518V32.7789Z" fill="white"/>
<path d="M103.334 28.0146C103.984 28.0146 104.487 28.2485 104.872 28.6869C105.256 29.1253 105.434 29.7099 105.434 30.4698C105.434 31.1421 105.227 31.7267 104.842 32.1651C104.458 32.5743 104.014 32.8081 103.452 32.8081H100.998V28.0439H103.334V28.0146ZM103.511 32.0482C103.866 32.0482 104.191 31.902 104.428 31.5805C104.665 31.2882 104.783 30.879 104.783 30.4114C104.783 29.8853 104.665 29.4761 104.398 29.1838C104.162 28.8623 103.807 28.7161 103.393 28.7161H101.619V32.0482H103.511Z" fill="white"/>
<path d="M114.126 30.4116C114.126 31.2008 113.889 31.8146 113.387 32.3115C112.943 32.7206 112.411 32.9545 111.76 32.9545C111.11 32.9545 110.548 32.7499 110.134 32.3115C109.631 31.8146 109.394 31.2008 109.394 30.4116C109.394 29.6517 109.66 29.0086 110.163 28.541C110.607 28.1026 111.139 27.8979 111.79 27.8979C112.44 27.8979 112.973 28.1026 113.416 28.541C113.889 29.0379 114.126 29.6517 114.126 30.4116ZM113.505 30.4116C113.505 29.8563 113.328 29.3886 112.943 29.0671C112.618 28.7748 112.233 28.6287 111.76 28.6287C111.257 28.6287 110.814 28.804 110.489 29.1255C110.163 29.4763 110.015 29.8855 110.015 30.4116C110.015 30.9377 110.163 31.3761 110.489 31.7269C110.814 32.0484 111.228 32.2238 111.76 32.2238C112.292 32.2238 112.707 32.0484 113.032 31.7269C113.328 31.3761 113.505 30.9669 113.505 30.4116Z" fill="white"/>
<path d="M122.528 32.7789H121.759L118.92 28.8623V32.7789H118.328V28.0146H119.068L121.907 31.902V28.0146H122.528V32.7789Z" fill="white"/>
</svg>
