<svg width="144" height="55" viewBox="0 0 144 55" fill="none" xmlns="http://www.w3.org/2000/svg">
<path d="M30.3349 50.1113H27.9136V37.8894H32.3837C33.4267 37.9276 34.7305 37.9276 35.7736 38.9588C36.4441 39.6463 36.8166 40.7539 36.8166 41.7851C36.8166 42.9691 36.3323 44.1149 35.5873 44.8788C34.507 45.9482 33.2777 45.9864 32.123 46.0246H30.2976L30.3349 50.1113ZM30.3349 43.924H31.6014C31.8994 43.924 32.1975 43.8858 32.4955 43.8858C32.9797 43.8476 33.911 43.7712 34.358 42.8163C34.507 42.549 34.5443 42.2053 34.5443 41.8997C34.5443 41.4796 34.4698 41.174 34.3953 40.9831C33.9483 39.9137 32.868 39.9137 32.0484 39.8755H30.3721C30.3349 39.8755 30.3349 43.924 30.3349 43.924Z" fill="white"/>
<path d="M46.5391 50.1114H44.0433L43.5218 48.3927H38.9399L38.4184 50.1114H35.9971L39.8339 37.9277H42.6278L46.5391 50.1114ZM42.9258 46.3303L41.175 40.6013L39.4987 46.3303H42.9258Z" fill="white"/>
<path d="M56.6343 50.1114H53.8404L51.4191 45.4518H49.6683V50.1114H47.2097V37.9277H51.3818C52.4249 37.9277 53.8404 37.8895 54.9207 38.768C55.703 39.3791 56.2617 40.5249 56.2617 41.8235C56.2617 42.7401 55.9637 43.6185 55.405 44.2678C54.8462 44.9171 54.3247 45.0699 53.9149 45.2227L56.6343 50.1114ZM49.7055 43.504H51.0093C51.8661 43.4658 52.3876 43.4658 52.7974 43.2748C53.2816 43.0456 53.7659 42.5873 53.7659 41.6325C53.7659 41.2506 53.6542 40.6777 53.0581 40.2957C52.5366 39.952 51.9034 39.952 51.3073 39.9138H49.6683L49.7055 43.504Z" fill="white"/>
<path d="M60.5827 50.1114H58.1614V37.9277H60.5827V50.1114Z" fill="white"/>
<path d="M68.8154 42.8164C69.6722 42.9692 70.7152 43.1984 71.4975 43.9622C72.3915 44.8407 72.466 45.8337 72.466 46.3302C72.466 47.6288 71.9073 48.7364 70.9387 49.4621C70.0447 50.1114 68.8154 50.4551 67.3626 50.4551C63.9728 50.4551 62.5945 48.5073 62.1475 47.8962L64.2335 46.4066C64.5688 46.9795 65.3138 48.2781 67.5116 48.2781C69.2252 48.2781 70.0074 47.5142 70.0074 46.674C70.0074 45.6428 68.8154 45.4136 68.0704 45.2226L66.4313 44.8789C65.5746 44.6879 64.6433 44.4588 63.8983 43.8095C63.1905 43.1984 62.818 42.3581 62.818 41.4415C62.818 39.5318 64.3825 37.5076 67.4371 37.5076C68.4802 37.5076 69.7094 37.7749 70.7897 38.4242C71.6465 38.9589 71.9818 39.379 72.2425 39.7992L70.4917 41.2887C70.1937 40.8304 69.2997 39.6082 67.4371 39.6082C65.9098 39.6082 65.2393 40.4867 65.2393 41.0596C65.2393 42.0526 66.4686 42.2817 67.2509 42.4727L68.8154 42.8164Z" fill="white"/>
<path d="M85.5039 50.1114H83.1943V42.931C83.2316 41.747 82.7101 41.747 81.8533 41.7088H80.4377V40.1047C81.5925 40.1047 82.1513 40.1047 82.8218 39.6082C83.4551 39.1499 83.5668 38.6534 83.6786 38.1187H85.4666L85.5039 50.1114Z" fill="white"/>
<path d="M95.1517 44.4587C95.636 45.0316 95.8595 45.8718 95.8595 46.6357C95.8595 48.8891 94.146 50.3787 91.4639 50.3787C88.7818 50.3787 87.031 48.8509 87.031 46.6739C87.031 44.6879 88.2975 44.0386 88.6701 43.8476C88.2603 43.6184 87.2545 43.0837 87.2545 41.4796C87.2545 39.4936 88.8191 37.9658 91.3894 37.9658C93.9597 37.9658 95.5243 39.4936 95.5243 41.365C95.5243 42.931 94.593 43.4275 94.1087 43.6948C94.4067 43.8476 94.7792 44.0386 95.1517 44.4587ZM91.3894 44.8788C90.0483 44.8788 89.1916 45.7191 89.1916 46.6739C89.1916 47.6287 89.9366 48.4308 91.4639 48.4308C92.2462 48.4308 92.7677 48.2016 93.0657 47.9343C93.2892 47.7815 93.6245 47.3614 93.6245 46.6739C93.6617 45.4899 92.5069 44.8788 91.3894 44.8788ZM91.3521 39.8755C90.0111 39.8755 89.4151 40.7157 89.4151 41.4414C89.4151 41.9379 89.6758 42.3581 90.0111 42.5872C90.3836 42.8546 90.9051 42.931 91.3521 42.931C93.1029 42.931 93.3264 41.8615 93.2892 41.365C93.2892 40.4866 92.5069 39.8755 91.3521 39.8755Z" fill="white"/>
<path d="M97.2006 41.4414C97.3496 40.7157 97.6103 39.6463 98.6534 38.8443C99.4356 38.2332 100.404 37.9658 101.373 37.9658C103.608 37.9658 105.47 39.2262 105.47 41.3268C105.47 41.9761 105.247 42.6254 104.8 43.1219C104.465 43.4657 104.167 43.5802 103.869 43.6948C104.241 43.8476 104.651 44.0004 105.061 44.3823C105.843 45.1844 105.88 46.2156 105.88 46.5211C105.88 47.9725 105.21 48.8891 104.614 49.4238C103.757 50.1113 102.565 50.3787 101.447 50.3787C100.367 50.3787 99.3239 50.1495 98.5043 49.5766C97.0888 48.66 97.0143 47.285 96.9771 46.5975L99.3239 46.2538V46.4829C99.3239 47.5524 100.181 48.3926 101.447 48.3926C102.714 48.3926 103.608 47.5142 103.608 46.4829C103.608 45.8337 103.235 45.1844 102.639 44.8788C102.08 44.5351 101.335 44.5351 100.516 44.5351V42.8164C100.926 42.8164 101.224 42.8164 101.633 42.7782C102.006 42.74 103.272 42.6636 103.272 41.4414C103.272 40.4102 102.378 39.8373 101.373 39.8373C99.8081 39.8373 99.5101 41.1741 99.3611 41.8615L97.2006 41.4414Z" fill="white"/>
<path d="M114.485 50.1115H112.25V47.3998H107.035V45.6429C109.531 42.3964 110.127 41.5562 112.474 38.0806H114.485V45.4901H116.161V47.3616H114.485V50.1115ZM112.25 45.4901V41.327C110.984 43.1985 110.648 43.695 109.233 45.4901H112.25Z" fill="white"/>
<path d="M19.9791 30.5562H16.254L15.4718 27.9591H8.5803L7.83528 30.5562H4.22192L9.95859 12.2998H14.1307L19.9791 30.5562ZM14.5405 24.9036L11.9329 16.3101L9.43708 24.9036H14.5405Z" fill="white"/>
<path d="M21.8418 12.2998H25.5297V23.7196C25.5669 24.6363 25.5669 25.7057 26.2747 26.5841C27.1687 27.6535 28.5843 27.6535 28.994 27.6535C29.3293 27.6535 30.5586 27.6535 31.4154 26.7751C32.2721 25.8966 32.3094 24.789 32.3094 23.8342V12.2998H35.96V24.5217C35.8855 26.2022 35.7737 27.9591 34.0229 29.4486C32.8309 30.4798 31.0056 31.0909 28.845 31.0909C26.2747 31.0909 24.7102 30.3271 23.7789 29.5632C21.9163 28.0737 21.8418 26.2404 21.7673 24.5599C21.8418 24.5981 21.8418 12.2998 21.8418 12.2998Z" fill="white"/>
<path d="M46.7627 12.2998H53.0209C55.0324 12.338 57.4538 12.4144 59.5771 14.5914C61.8121 16.9212 61.8866 20.0531 61.8866 21.3898C61.8866 22.7266 61.7376 24.0634 61.2906 25.4001C59.6143 30.6326 55.3677 30.5944 52.5739 30.5944H46.7627C46.7627 30.5562 46.7627 12.2998 46.7627 12.2998ZM50.3761 27.157H52.5739C53.8404 27.1188 55.4049 27.1188 56.5597 26.0876C57.3793 25.3237 58.087 23.8342 58.087 21.3898C58.087 20.5496 58.0498 18.6399 56.895 17.1504C55.6285 15.5462 54.1012 15.4699 52.6484 15.3935H50.3761V27.157Z" fill="white"/>
<path d="M78.3145 30.5562H64.6433V12.2998H77.7929V15.3553H68.2567V18.9454H75.3716V22.1919H68.2567V27.1952H78.3145V30.5562Z" fill="white"/>
<path d="M84.5355 30.5563H80.9221V12.2617H87.6273C89.2291 12.2999 91.1662 12.2999 92.6935 13.8658C93.6992 14.8971 94.2953 16.5394 94.2953 18.1053C94.2953 19.8622 93.5875 21.6191 92.47 22.7267C90.8309 24.369 88.9684 24.4072 87.2548 24.4454H84.5355V30.5563ZM84.5355 21.3135H86.4353C86.8823 21.3135 87.3293 21.2754 87.8136 21.2754C88.5213 21.199 89.9369 21.0844 90.5702 19.7094C90.7564 19.2893 90.8682 18.7928 90.8682 18.3345C90.8682 17.6852 90.7564 17.265 90.6074 16.9213C89.9369 15.3172 88.2978 15.279 87.0686 15.279H84.5355V21.3135Z" fill="white"/>
<path d="M109.307 30.5562H105.582L104.8 27.9591H97.9084L97.1634 30.5562H93.55L99.2867 12.2998H103.459L109.307 30.5562ZM103.869 24.9036L101.261 16.3101L98.7652 24.9036H103.869Z" fill="white"/>
<path d="M125.437 30.5564H121.265L117.615 23.6052H115.007V30.5564H111.356V12.2999H117.615C119.216 12.2999 121.302 12.2617 122.904 13.5603C124.059 14.4769 124.916 16.1956 124.916 18.1053C124.916 19.5185 124.506 20.7789 123.612 21.7719C122.793 22.7267 122.01 22.9941 121.377 23.185L125.437 30.5564ZM115.044 20.6643H117.019C118.322 20.6261 119.067 20.6261 119.701 20.3205C120.446 19.9768 121.153 19.2511 121.153 17.8762C121.153 17.2651 120.967 16.4248 120.11 15.8519C119.365 15.3172 118.36 15.3172 117.503 15.279H115.044V20.6643Z" fill="white"/>
<path d="M134.713 30.5562H131.099V15.3553H126.108V12.2998H139.779V15.3553H134.713V30.5562Z" fill="white"/>
<path d="M73.8795 3.76451L68.0063 8.08203L70.0467 10.9998L75.9199 6.68225L73.8795 3.76451Z" fill="white"/>
</svg>
