<svg width="205" height="23" viewBox="0 0 205 23" fill="none" xmlns="http://www.w3.org/2000/svg">
<g clip-path="url(#clip0_373_609)">
<path d="M167.316 19.0974C166.514 21.0884 165.002 22.0087 163.187 22.3634C161.681 22.6559 160.121 22.7204 158.58 22.7634C156.357 22.8257 154.129 22.7784 151.791 22.7784C151.761 22.2731 151.715 21.8603 151.713 21.4475C151.707 18.2954 151.696 15.1454 151.724 11.9933C151.731 11.3096 151.556 10.8839 150.905 10.542C150.559 10.3592 150.222 9.79805 150.214 9.40243C150.153 6.575 150.196 3.74542 150.162 0.915842C150.153 0.266501 150.415 0.122442 150.989 0.126742C153.904 0.146093 156.821 0.0815892 159.734 0.165445C163.731 0.281552 166.208 3.06598 165.842 6.88892C165.689 8.51012 164.766 9.63249 163.371 10.557C163.82 10.9054 164.192 11.1677 164.535 11.4644C166.113 12.8211 166.484 14.6273 166.205 16.5409C166.037 17.702 165.715 18.7426 167.316 19.0995V19.0974ZM156.134 12.8512C156.095 12.9437 156.056 13.034 156.017 13.1265C156.953 13.507 157.037 14.2402 156.955 15.0594C156.921 15.4121 156.949 15.7733 156.949 16.1302C156.953 18.3921 156.955 18.448 159.226 18.3255C160.084 18.2803 161.002 18.0524 161.748 17.646C162.521 17.2246 162.45 16.5989 161.674 16.2184C161.033 15.9044 160.834 15.4787 160.806 14.7993C160.769 13.8876 160.255 13.2211 159.319 13.0899C158.267 12.9416 157.195 12.9243 156.132 12.8512H156.134ZM155.415 4.59042C155.415 5.83965 155.387 6.97277 155.441 8.09944C155.449 8.30156 155.788 8.64128 155.987 8.65203C156.951 8.70148 157.923 8.72083 158.883 8.63698C159.989 8.54022 160.572 7.72532 160.527 6.52555C160.482 5.36447 159.9 4.65923 158.807 4.60117C157.74 4.54312 156.668 4.58827 155.415 4.58827V4.59042Z" fill="white"/>
<path d="M43.278 11.5699C45.6354 12.9094 46.4089 14.8617 46.1993 17.272C45.9573 20.0522 44.3735 21.8841 41.5558 22.4388C40.227 22.7011 38.8484 22.7742 37.4914 22.8065C35.227 22.8624 32.9603 22.8172 30.6937 22.8086C30.5921 22.8086 30.4906 22.7527 30.3069 22.6968C30.2788 22.4066 30.2226 22.0926 30.2226 21.7809C30.2183 19.276 30.1946 16.7689 30.2594 14.264C30.2702 13.8232 30.5749 13.2642 30.9249 12.9868C31.5169 12.5159 31.7698 12.0343 31.7589 11.271C31.7201 7.94261 31.7741 4.61205 31.7222 1.28579C31.7071 0.378428 31.8908 0.0236559 32.8933 0.0537578C35.4819 0.131163 38.0727 0.0645085 40.6613 0.109661C42.4504 0.141913 44.1336 0.56119 45.6656 1.87062C45.2313 2.2727 44.8575 2.62102 44.7149 2.75433C45.1189 4.43573 45.6721 5.94083 45.8039 7.48248C45.9508 9.21334 44.8445 10.4733 43.2801 11.5677L43.278 11.5699ZM35.4819 16.0013C35.4819 16.4657 35.5057 16.9323 35.4755 17.3946C35.4322 18.0955 35.644 18.4675 36.4413 18.403C37.2257 18.3385 38.023 18.4095 38.8095 18.3493C40.2118 18.2418 40.8558 17.4978 40.8363 16.0981C40.8169 14.7306 40.1125 13.9845 38.736 13.892C38.3774 13.8684 38.0187 13.8791 37.66 13.8748C36.2123 13.8619 35.4863 14.5708 35.4819 16.0013ZM35.7672 9.4735C35.8298 9.54876 35.8903 9.62401 35.953 9.69711C36.7309 9.69711 37.5109 9.74657 38.2844 9.68637C40.1902 9.53801 40.8471 8.693 40.3869 6.83098C40.2226 6.16874 40.3761 5.82257 40.8903 5.52155C41.1042 5.39684 41.3376 5.30439 41.5623 5.19688C41.491 5.01197 41.4197 4.82491 41.3484 4.64C40.281 4.56904 39.2114 4.52604 38.1483 4.41853C37.217 4.32608 36.921 4.65935 36.9016 5.61401C36.8735 6.96214 37.5174 8.53819 35.7672 9.4692V9.4735Z" fill="white"/>
<path d="M82.3942 8.5554C82.3942 6.08274 82.4353 3.61008 82.3726 1.13958C82.351 0.247272 82.6708 0.0193573 83.494 0.0602099C84.5723 0.113963 85.657 0.116113 86.733 0.0623601C87.5671 0.0215075 87.8458 0.285974 87.8372 1.15463C87.7896 5.3818 87.8091 9.61111 87.8134 13.8383C87.8134 14.5177 87.8134 15.2036 87.8998 15.8766C88.1137 17.5623 89.1401 18.3751 90.9638 18.3643C92.7637 18.3536 93.7533 17.6161 93.8722 15.8874C94.0234 13.7114 93.9997 11.5226 94.0148 9.33805C94.0342 6.57942 94.0385 3.81865 94.0083 1.06002C93.9997 0.331127 94.2049 0.0215075 94.985 0.0580598C96.1712 0.111813 97.3618 0.103213 98.5481 0.0645102C99.2265 0.0408587 99.4296 0.331127 99.4275 0.954666C99.4037 5.89998 99.5009 10.8474 99.3519 15.7885C99.22 20.1425 96.7114 22.6947 92.338 22.9699C90.5813 23.0796 88.7188 22.9076 87.029 22.4302C84.2028 21.6325 82.5584 19.1921 82.4612 16.0787C82.3834 13.5738 82.4461 11.0625 82.4461 8.5554C82.4288 8.5554 82.4115 8.5554 82.3942 8.5554Z" fill="white"/>
<path d="M186.476 22.813C184.689 22.813 183.01 22.8409 181.335 22.7807C181.106 22.7721 180.793 22.3658 180.694 22.0819C180.365 21.138 180.088 20.1726 179.844 19.2008C179.689 18.5815 179.388 18.3171 178.721 18.3386C177.392 18.3837 176.059 18.3794 174.73 18.3429C174.166 18.3278 173.881 18.5084 173.738 19.0567C173.464 20.0931 173.168 21.1251 172.811 22.1357C172.716 22.4066 172.377 22.7743 172.141 22.7829C170.495 22.8388 168.844 22.813 167.003 22.813C167.515 21.1595 167.977 19.6394 168.457 18.1257C170.253 12.4665 172.066 6.81383 173.835 1.14823C174.09 0.331176 174.473 -0.0859504 175.354 0.0753098C175.493 0.101111 175.642 0.0753098 175.784 0.0796101C176.964 0.120463 178.431 -0.24506 179.244 0.320425C180 0.849359 180.076 2.3609 180.423 3.44887C182.375 9.54666 184.319 15.6466 186.26 21.7465C186.353 22.0411 186.385 22.355 186.478 22.8151L186.476 22.813ZM175.056 13.6276H178.481C177.939 11.5011 177.429 9.5015 176.919 7.50188C176.821 7.50618 176.726 7.51263 176.629 7.51693C176.119 9.50365 175.607 11.4882 175.056 13.6276Z" fill="white"/>
<path d="M62.7593 22.8044C63.4421 20.6349 64.06 18.6676 64.6845 16.7002C66.3051 11.585 67.9537 6.47843 69.5268 1.34821C69.8336 0.344097 70.2982 -0.0429276 71.3483 0.0559787C72.3466 0.150585 73.3643 0.0194264 74.3669 0.0968312C74.691 0.122633 75.1772 0.434403 75.2701 0.71822C77.5778 7.83087 79.8423 14.9564 82.111 22.0798C82.1629 22.2432 82.1629 22.4238 82.2126 22.7765C80.4105 22.7765 78.6754 22.7937 76.9425 22.7485C76.7826 22.7442 76.5687 22.3615 76.4909 22.1185C76.1711 21.1338 75.8729 20.1382 75.6072 19.1363C75.4559 18.5665 75.175 18.3214 74.5484 18.3429C73.2195 18.388 71.8842 18.3902 70.5553 18.3407C69.8682 18.3149 69.6089 18.6116 69.4598 19.2244C69.2221 20.1963 68.9326 21.1553 68.6149 22.1056C68.5263 22.3701 68.2649 22.7679 68.0747 22.7743C66.3677 22.8259 64.6586 22.8044 62.7636 22.8044H62.7593ZM74.2588 13.6577C73.7165 11.5377 73.2001 9.51657 72.6836 7.4976C72.5799 7.5105 72.4762 7.5234 72.3725 7.53415C71.8712 9.54668 71.3699 11.5571 70.847 13.6577H74.2588Z" fill="white"/>
<path d="M52.971 18.2118C55.4667 18.2118 57.7679 18.244 60.0648 18.1946C60.9118 18.1774 61.2294 18.4311 61.1689 19.289C61.1019 20.2157 61.2013 21.1531 61.1214 22.0777C61.0976 22.34 60.7043 22.7808 60.4753 22.783C56.3807 22.826 52.2839 22.8152 48.1028 22.8152V0.139875C48.5004 0.120523 48.885 0.083971 49.2674 0.0818209C52.8651 0.0775206 56.4628 0.103322 60.0604 0.0581694C60.9204 0.0474187 61.2186 0.316186 61.1603 1.16119C61.1019 2.01694 61.1041 2.8813 61.1667 3.73705C61.2294 4.57345 60.8707 4.76697 60.095 4.75191C58.0444 4.70891 55.9939 4.76267 53.9433 4.72396C53.1892 4.70891 52.9018 4.96048 52.9515 5.71088C53.0012 6.45912 53.0056 7.21597 52.9559 7.96422C52.904 8.74687 53.267 8.94683 53.9822 8.93608C55.996 8.90813 58.0142 8.97048 60.0259 8.90813C60.9528 8.88018 61.2316 9.2156 61.1624 10.0843C61.1019 10.8303 61.0976 11.5915 61.1646 12.3376C61.2489 13.2557 60.9679 13.6062 59.9783 13.5675C58.0034 13.4901 56.0198 13.5782 54.0427 13.5245C53.1784 13.5008 52.8997 13.7932 52.9494 14.6425C53.0164 15.7757 52.9667 16.9174 52.9667 18.2118H52.971Z" fill="white"/>
<path d="M9.47061 0.0344238C11.8215 0.45155 14.0817 0.838575 16.3354 1.2686C16.6141 1.32236 16.8971 1.57177 17.0916 1.80184C18.5026 3.46819 19.9157 5.13455 21.2684 6.8482C21.573 7.23308 21.7913 7.79641 21.8021 8.28449C21.8518 10.3959 21.8388 12.5117 21.7761 14.6231C21.7632 15.0789 21.5514 15.6057 21.2619 15.9669C19.9633 17.5881 18.6366 19.1878 17.245 20.7316C16.8734 21.1445 16.277 21.4756 15.7282 21.5895C13.723 22.0067 11.6984 22.3614 9.6694 22.6409C9.11409 22.7162 8.44209 22.5786 7.94512 22.3141C6.26837 21.4218 4.66076 20.3962 2.99481 19.4845C2.22342 19.0631 1.71132 18.5127 1.44123 17.6784C0.991789 16.2916 0.486171 14.9241 0 13.5308C2.07217 13.2019 2.37684 13.3674 2.99049 15.066C3.25411 15.7949 3.52852 16.5217 3.79646 17.2484C3.91098 17.2527 4.02766 17.2549 4.14218 17.2592C4.28695 16.5625 4.47494 15.8723 4.56137 15.1671C4.64996 14.4425 4.95462 14.0168 5.69144 13.806C6.6573 13.5287 7.58643 13.1287 8.53716 12.7998C10.3717 12.1655 11.1819 11.0152 11.1085 9.06929C11.0804 8.32105 10.9291 7.57065 10.9615 6.8267C10.9918 6.12146 11.0912 5.38611 11.3375 4.72817C11.5687 4.11323 12.029 3.58215 12.4978 2.8425C10.5359 2.93066 9.49438 2.09425 9.47061 0.0344238ZM10.134 20.2263C11.8539 19.9339 13.481 19.6845 15.0929 19.3641C15.4019 19.3018 15.7001 18.9943 15.9291 18.7341C19.5895 14.5908 19.57 14.5887 19.5052 9.05639C19.4944 8.15979 19.1054 7.34488 18.3946 7.21803C17.5086 7.06107 17.0441 7.98132 16.9447 8.76827C16.8258 9.71003 16.908 10.6797 16.9447 11.6344C17.0614 14.6209 15.7649 16.5926 12.9602 17.6505C12.4568 17.8397 11.9663 18.087 11.4455 18.1923C10.3911 18.4073 10.0411 19.0545 10.134 20.2263ZM7.46975 19.4802C7.57995 19.4114 7.68799 19.3405 7.79818 19.2717C7.88894 18.8954 8.04235 18.5234 8.05964 18.1429C8.10501 17.1968 8.54797 16.6851 9.4771 16.4271C10.5467 16.1303 11.5817 15.7003 12.621 15.3047C13.8159 14.851 14.4231 13.9092 14.5765 12.703C14.6608 12.0386 14.5916 11.3484 14.5311 10.6754C14.3626 8.81558 14.6327 7.09762 16.0739 5.74948C16.4067 5.43771 16.9036 5.26785 16.465 4.65507C16.0739 4.10678 15.6785 3.91112 15.0173 4.19279C13.6603 4.77117 13.0272 5.9989 13.3016 7.73621C13.8159 11.0173 12.7182 14.092 8.91098 15.1198C8.46154 15.2402 8.02939 15.4229 7.59291 15.5842C6.81936 15.8702 6.17329 17.0678 6.38073 18.274C6.45635 18.7234 7.09162 19.0782 7.46975 19.4759V19.4802Z" fill="white"/>
<path d="M185.855 0.0795992C187.8 0.0795992 189.522 0.0344464 191.238 0.118302C191.577 0.135503 192.009 0.578431 192.199 0.933203C193.291 2.98228 194.319 5.06146 195.49 7.36856C195.808 6.81167 196.037 6.44185 196.234 6.05698C197.117 4.33472 198.014 2.62106 198.855 0.877299C199.146 0.273111 199.518 0.0430469 200.192 0.0623982C201.726 0.107551 203.265 0.0774491 205 0.0774491C204.79 0.57413 204.678 0.894501 204.524 1.19552C201.089 8.0093 197.638 14.8145 194.228 21.639C193.79 22.5163 193.267 22.9183 192.241 22.8495C190.845 22.7528 189.438 22.8259 187.841 22.8259C187.999 22.398 188.083 22.0755 188.23 21.7874C189.514 19.2674 190.793 16.7453 192.111 14.2447C192.431 13.6384 192.405 13.1589 192.091 12.5482C190.123 8.72529 188.196 4.883 186.26 1.04286C186.136 0.799895 186.048 0.541878 185.855 0.0838995V0.0795992Z" fill="white"/>
<path d="M119.695 0.0903469C121.653 0.0903469 123.407 0.0580949 125.158 0.122599C125.439 0.13335 125.802 0.511773 125.959 0.810642C126.971 2.70706 127.934 4.62928 128.917 6.5386C129.043 6.77942 129.2 7.00303 129.419 7.35781C130.534 5.15607 131.616 3.10054 132.612 1.00415C132.941 0.313961 133.336 0.0387437 134.092 0.060245C135.62 0.105398 137.152 0.0731458 138.898 0.0731458C138.444 1.01706 138.109 1.75025 137.744 2.47055C134.438 8.98546 131.117 15.4939 127.837 22.0217C127.535 22.6238 127.213 22.856 126.543 22.8366C124.978 22.7893 123.41 22.8216 121.614 22.8216C122.303 21.4304 122.88 20.2543 123.468 19.0846C124.239 17.5473 124.97 15.9884 125.817 14.492C126.266 13.6986 126.195 13.0514 125.804 12.2924C123.997 8.79195 122.217 5.27862 120.436 1.7653C120.188 1.27292 119.987 0.756889 119.695 0.0946472V0.0903469Z" fill="white"/>
<path d="M112.599 22.8194C110.886 22.8194 109.378 22.8065 107.869 22.8258C107.159 22.8344 107.174 22.3722 107.174 21.8884C107.172 19.5963 107.165 17.3064 107.163 15.0144C107.161 12.0795 107.118 9.14238 107.18 6.20745C107.202 5.22484 106.871 4.97542 105.946 5.02488C104.654 5.09583 103.356 5.02488 102.061 5.04853C101.471 5.05928 101.206 4.85501 101.223 4.24008C101.251 3.13061 101.247 2.02114 101.227 0.911666C101.216 0.33973 101.404 0.0645128 102.031 0.0666629C107.247 0.0795637 112.465 0.0623626 117.681 0.103215C117.949 0.103215 118.423 0.550443 118.442 0.81491C118.526 1.99103 118.464 3.17576 118.483 4.35618C118.492 4.96682 118.144 5.04638 117.649 5.03993C116.389 5.02488 115.127 5.09153 113.872 5.02273C112.917 4.96897 112.556 5.22054 112.567 6.2569C112.623 11.2323 112.595 16.2099 112.597 21.1853C112.597 21.6777 112.597 22.1701 112.597 22.8172L112.599 22.8194Z" fill="white"/>
</g>
<defs>
<clipPath id="clip0_373_609">
<rect width="205" height="23" fill="white"/>
</clipPath>
</defs>
</svg>
