<svg width="108" height="69" viewBox="0 0 108 69" fill="none" xmlns="http://www.w3.org/2000/svg">
<g clip-path="url(#clip0_120_1270)">
<path fill-rule="evenodd" clip-rule="evenodd" d="M48.6283 1.01235C52.072 0.150039 54.1004 3.70747 54.4546 6.03999C54.818 8.4304 54.4546 12.6399 54.4546 15.1811C54.4546 18.5466 54.7996 21.5449 54.3013 23.8652C53.6834 26.7462 51.3636 29.6958 47.8617 28.7405C43.6714 27.5979 44.8412 20.5973 44.9486 15.7906C45.0789 9.98287 43.9198 2.19156 48.6283 1.01235ZM49.0883 3.45C49.5314 3.66938 49.3275 4.5317 50.0082 4.51646C50.5142 3.79279 50.6139 2.63491 49.7016 2.23117C49.6004 2.74003 49.2247 2.97618 49.0883 3.45ZM49.3949 6.49705C49.1742 6.58236 49.0208 6.73472 48.935 6.9541C49.073 11.5491 48.7816 15.5788 48.7816 19.2947C48.7816 20.5775 48.3845 22.1101 49.2416 23.2558C50.9726 23.3442 50.2765 21.1336 50.3149 20.0564C50.4667 15.7966 50.6445 10.379 50.3149 6.49705H49.3949ZM52.6147 11.5247C53.2388 10.8985 53.4595 9.63094 52.4614 9.23939C51.8496 9.89298 51.983 10.9793 52.6147 11.5247ZM47.0951 11.8294C47.1518 11.3266 47.4539 11.0676 47.7084 10.7629C47.4508 10.3074 47.3987 9.6477 46.7884 9.5441C46.3515 10.2906 46.0816 11.4927 47.0951 11.8294ZM52.3081 20.0564C53.3813 19.7852 53.4043 18.181 52.4614 17.7711C51.8849 18.5238 51.7653 19.185 52.3081 20.0564ZM46.9418 20.8182C47.0184 20.1844 47.4784 19.9284 47.5551 19.2947C47.2162 19.0722 47.2515 18.4796 46.7884 18.3805C46.1353 19.0052 45.9482 20.3931 46.9418 20.8182ZM49.3949 27.217C50.4498 26.8529 50.4927 25.2577 49.5483 24.7794C48.9748 25.5533 48.8353 26.3471 49.3949 27.217Z" fill="white"/>
<path fill-rule="evenodd" clip-rule="evenodd" d="M58.9009 1.16475C60.2962 4.60335 60.9969 8.7321 62.8873 11.6771C63.2906 8.6742 62.8137 4.79836 63.194 1.77416C64.5279 1.97222 65.5843 2.44603 67.0271 2.53592C66.5165 11.5491 67.4978 19.3983 67.0271 27.5217C64.1155 27.7365 64.0955 23.6748 63.3473 21.58C62.4872 19.1698 61.4568 16.6803 60.7408 14.5718C60.0463 18.408 60.6105 23.9399 60.4342 27.8264C59.0726 27.8447 57.5915 27.7442 56.4478 27.9788C56.9798 19.2094 56.2101 9.276 56.6011 1.46946C56.6869 1.25007 56.8403 1.09772 57.061 1.0124C57.8323 0.905751 58.1297 1.2714 58.9009 1.16475ZM57.981 5.27827C58.5774 5.21123 58.6081 4.58202 58.9009 4.2118C58.5115 3.98937 58.6035 3.28854 58.1343 3.14533C57.4398 3.75931 57.521 4.46471 57.981 5.27827ZM65.1872 6.34473C65.7836 6.2777 65.8143 5.64848 66.1071 5.27827C65.5874 5.18533 65.8618 4.30321 65.1872 4.36415C64.5509 4.99032 64.8514 5.59516 65.1872 6.34473ZM57.521 24.4747C57.7786 24.9302 57.8307 25.5899 58.441 25.6935C58.9653 25.0506 59.0711 23.8576 58.1343 23.5606C57.9703 23.9049 57.7863 24.2309 57.521 24.4747ZM64.8805 24.627C65.27 24.8495 65.178 25.5503 65.6472 25.6935C66.3386 25.1542 66.4 23.9567 65.4938 23.5606C65.3512 23.978 65.0231 24.2096 64.8805 24.627Z" fill="white"/>
<path fill-rule="evenodd" clip-rule="evenodd" d="M42.9552 1.16479C42.808 11.1485 42.4707 20.9676 42.3419 30.5688C40.9129 30.8766 39.6342 31.3321 38.2021 31.6353C38.7802 21.2616 38.7648 12.3475 39.1221 1.4695C40.3717 1.34 41.5983 1.18765 42.9552 1.16479ZM40.962 6.04008C41.1567 5.52208 41.5063 5.15948 41.7286 4.6689C41.2855 4.44952 41.4894 3.5872 40.8086 3.60244C40.3824 4.33982 40.1279 5.52512 40.962 6.04008ZM39.5821 27.6741C40.0252 27.8935 39.8212 28.7558 40.502 28.7406C40.5787 28.1068 41.0386 27.8509 41.1153 27.2171C40.7918 26.9291 40.7718 26.3395 40.3487 26.1506C40.0942 26.6595 39.8366 27.1653 39.5821 27.6741Z" fill="white"/>
<path fill-rule="evenodd" clip-rule="evenodd" d="M33.756 2.07886C34.7526 2.32414 34.0856 3.39823 34.0626 3.90709C33.6962 12.224 33.5244 19.575 33.1427 27.9788C33.9292 28.2119 34.9687 27.4867 35.9025 27.3694C35.6618 28.8563 35.7706 30.6922 35.7492 32.397C33.4094 33.0171 31.4331 33.9998 29.0029 34.5299C29.3694 24.0009 29.9612 13.3362 30.3828 2.53591C31.5435 2.4186 32.675 2.27539 33.756 2.07886ZM31.9161 7.25884C32.8866 6.98004 33.1733 5.14267 32.0694 4.8212C31.5312 5.63019 31.3304 6.36301 31.9161 7.25884ZM31.1495 31.4829C31.7873 30.7821 32.3024 29.2631 31.1495 28.7405C30.688 29.6272 30.2387 30.747 31.1495 31.4829Z" fill="white"/>
<path fill-rule="evenodd" clip-rule="evenodd" d="M23.9432 30.8737C24.7911 31.1189 25.6895 30.1987 26.703 30.1119C26.4669 31.8228 26.6448 34.1797 26.3964 35.4442C24.0674 36.2273 22.0374 37.309 19.6501 38.0342C20.2466 27.237 20.9442 15.5348 21.6433 4.36431C23.0647 4.20282 24.1686 3.72443 25.4764 3.4502C24.9659 12.2348 24.3296 22.1225 23.9432 30.8737ZM23.0233 9.39194C23.4894 8.64846 24.3464 7.09447 23.0233 6.6496C22.5526 7.54543 22.1478 8.61952 23.0233 9.39194ZM21.6433 34.8348C22.0926 33.9542 22.9221 32.4977 21.6433 31.9401C21.0331 32.9807 20.6912 33.9512 21.6433 34.8348Z" fill="white"/>
<path fill-rule="evenodd" clip-rule="evenodd" d="M78.8329 28.8929C77.6002 28.544 76.0854 28.4755 74.8465 28.1311C74.7116 24.0877 74.8956 21.6089 74.5399 17.4665C73.9618 17.5838 73.807 17.2806 73.3133 17.3141C72.5513 20.7161 73.3025 24.5752 73.1599 28.1311C71.8981 27.8615 70.3817 27.8447 69.0202 27.6741C69.0754 23.041 69.2165 18.7066 69.0202 14.2671C68.8592 10.6395 68.1003 5.97909 70.2468 4.5165C73.6 2.23274 77.9084 5.88767 78.5263 9.23943C78.8406 10.9427 78.4542 12.7923 78.5263 14.4194C78.7348 19.1439 78.8804 23.8348 78.8329 28.8929ZM73.3133 7.25885C73.8744 7.20705 74.0155 6.7378 74.2332 6.34473C73.9036 6.06288 73.8284 5.52812 73.4666 5.27826C72.7 5.79931 72.9116 6.47575 73.3133 7.25885ZM73.0066 13.9624C73.347 14.1817 73.7456 14.3448 74.3865 14.2671C74.4034 11.7898 74.5951 10.6106 74.3865 8.93472C74.0048 8.80675 73.5647 8.73514 73.0066 8.78237V13.9624ZM71.0134 16.2476C71.6742 15.7586 71.5255 14.488 70.7068 14.2671C70.0076 14.7942 70.3143 15.9064 71.0134 16.2476ZM76.0731 16.2476C76.3383 16.4914 76.5223 16.8174 76.6864 17.1618C77.2015 17.1145 77.2981 16.6529 77.453 16.2476C77.0728 16.0161 77.1786 15.3015 76.5331 15.3335C76.4717 15.7296 76.0762 15.7936 76.0731 16.2476ZM71.1667 25.9982C71.202 25.4238 71.7448 25.3538 71.78 24.7794C71.2603 24.6865 71.5347 23.8043 70.8601 23.8653C70.2422 24.6011 70.4569 25.4756 71.1667 25.9982ZM76.0731 25.5411C76.3153 25.858 76.5729 26.1612 76.6864 26.6076C77.7351 26.4202 77.522 24.8921 76.6864 24.627C76.4978 24.947 76.2617 25.2212 76.0731 25.5411Z" fill="white"/>
<path fill-rule="evenodd" clip-rule="evenodd" d="M80.6727 5.8877C82.1155 6.18021 83.3819 6.64946 84.6591 7.10652C84.7634 15.6215 84.8784 22.5596 85.1191 29.9594C83.664 29.7811 82.4681 29.3439 80.9793 29.1976C81.0023 21.0727 80.5792 14.4682 80.6727 5.8877ZM82.6659 10.1536C83.4923 9.65537 83.2531 8.63156 82.5126 8.17298C81.7659 8.63613 82.1722 9.68432 82.6659 10.1536ZM82.2059 26.6076C82.5202 26.8544 82.5923 27.3405 82.8192 27.6741C84.518 27.4227 82.7211 24.723 82.2059 26.6076Z" fill="white"/>
<path fill-rule="evenodd" clip-rule="evenodd" d="M86.959 7.86841C90.4639 8.73834 93.6837 11.0145 95.5451 14.1149C96.9096 16.388 98.2512 20.4619 96.005 22.0372C98.1516 24.3743 97.1963 29.7919 97.6916 33.7683C96.1369 33.587 95.1434 32.8466 93.7052 32.5495C93.0137 28.7316 94.711 23.8563 91.5587 22.0372C90.3965 24.4047 91.6368 28.369 91.252 31.6354C89.8108 31.3414 88.4569 30.9605 87.2656 30.4166C87.3637 22.7014 86.9022 15.5424 86.959 7.86841ZM90.6387 11.2202C90.7307 11.7884 91.2152 11.9682 91.252 12.5913C91.6721 12.4512 91.8929 12.1114 92.0186 11.6772C91.6062 11.4776 91.712 10.7631 91.0987 10.7631C91.0128 10.9825 90.8595 11.1348 90.6387 11.2202ZM91.4053 18.6854C91.7656 18.7342 91.9803 18.9262 92.4786 18.8378C93.4859 17.2061 92.1873 14.6496 91.0987 13.6578C91.2597 15.2758 90.7506 17.5595 91.4053 18.6854ZM88.1855 15.029C88.2193 15.6049 88.667 15.7694 88.7988 16.2478C89.2803 16.3194 89.2036 15.838 89.5654 15.7907C89.4014 14.9939 88.782 14.159 88.1855 15.029ZM94.9318 18.3807C94.9793 18.0212 95.4638 18.0974 95.3917 17.619C95.1587 17.2411 95.0774 16.7125 94.6251 16.5525C93.8892 17.0065 94.2924 18.0562 94.9318 18.3807ZM91.252 20.0566C91.3563 20.9555 92.3483 22.0082 92.6319 20.666C92.2915 20.0581 91.8837 19.1638 91.252 20.0566ZM88.4922 28.1313C88.6854 28.599 88.7252 29.2206 89.2588 29.3501C90.0484 29.0119 89.5792 27.7443 88.9522 27.5219C88.7988 27.7245 88.6992 27.982 88.4922 28.1313ZM94.7784 30.1119C94.8796 30.6207 95.2553 30.8569 95.3917 31.3307C95.8732 31.4023 95.7965 30.9209 96.1584 30.8736C95.9759 30.3434 95.8241 29.7843 95.2384 29.6548C95.1525 29.8742 94.9992 30.0266 94.7784 30.1119Z" fill="white"/>
<path fill-rule="evenodd" clip-rule="evenodd" d="M1.09797 46.2612C0.768323 43.5661 0.941579 40.4734 1.25129 37.4248C1.85999 31.4175 2.27089 25.4164 2.6312 19.4472C2.76919 17.168 2.51774 12.1419 3.39782 10.7631C3.80566 10.1247 6.69887 9.01103 7.38422 9.08721C12.841 9.68748 13.5325 20.1053 10.7573 24.0178C12.8747 28.7849 10.3081 36.0475 8.30416 39.7101C6.41675 43.1593 5.1595 45.4461 1.09797 46.2612ZM5.08437 15.486C5.38489 14.4744 6.1929 13.1474 4.93105 12.5913C4.51401 13.3836 3.79799 15.0777 5.08437 15.486ZM6.31096 23.5607C9.22257 22.8507 8.22904 17.0233 6.92425 15.3337C6.49802 17.8566 6.27876 20.5837 6.31096 23.5607ZM10.2974 19.4472C10.7405 18.6595 11.6374 17.0065 10.2974 16.5525C9.77914 17.4255 9.43722 18.7007 10.2974 19.4472ZM3.55114 29.5024C4.41282 28.9936 5.04911 27.1516 4.01111 26.4554C3.42695 27.2857 3.04671 28.3689 3.55114 29.5024ZM6.46428 28.5883C4.82373 30.3602 5.23617 34.9856 5.2377 37.8818C6.53328 35.7169 7.16344 32.8892 7.69087 29.9595C7.2769 29.507 7.10364 28.8153 6.46428 28.5883ZM9.37743 32.8542C9.56755 32.1793 9.97232 31.7192 10.144 31.026C9.86346 30.6436 9.82513 30.022 9.37743 29.8071C9.02785 30.7091 8.29957 32.2158 9.37743 32.8542ZM2.78453 42.9095C3.25216 41.8552 4.20583 40.4977 2.93785 39.7101C2.42268 40.6303 1.74653 42.0761 2.78453 42.9095Z" fill="white"/>
<path fill-rule="evenodd" clip-rule="evenodd" d="M99.0715 12.7437C101.39 13.7416 103.573 14.872 105.664 16.0954C105.595 17.3325 105.73 18.3655 105.818 19.4472C104.869 19.2217 104.344 18.5742 103.365 18.3807C103.029 19.3634 103.227 20.2089 103.211 21.2754C103.659 21.7949 104.574 21.8513 105.051 22.3419V25.0842C104.412 25.008 104.157 24.551 103.518 24.4748C103.115 27.0099 103.518 29.1977 103.671 32.5495C104.283 33.363 105.465 33.6114 106.431 34.073C106.56 35.2644 106.63 36.5152 106.584 37.8818C104.366 36.7346 101.989 35.7443 99.6848 34.6824C99.464 27.1029 99.1712 19.9164 99.0715 12.7437ZM100.298 15.0289C100.494 15.5454 100.757 15.9964 101.065 16.4001C101.169 16.0467 101.574 15.9918 101.678 15.6384C101.232 15.4205 101.332 14.6618 100.758 14.5719C100.608 14.7273 100.455 14.8796 100.298 15.0289ZM100.451 21.7324C100.859 22.0387 100.822 22.7852 101.371 22.9513C102.078 22.4165 101.612 21.4613 100.911 21.123C100.867 21.4338 100.496 21.4216 100.451 21.7324ZM101.831 33.7683C102.051 33.7317 102.09 33.5169 102.291 33.4636C102.055 32.9365 102.023 32.2067 101.371 32.0924C100.648 32.5327 101.186 33.4514 101.831 33.7683Z" fill="white"/>
<path fill-rule="evenodd" clip-rule="evenodd" d="M63.9605 30.2642C62.8535 34.7494 64.4189 41.8932 60.2807 43.3665C59.7379 47.381 59.4037 51.202 59.2074 55.25C57.9625 55.4861 56.8447 55.8472 55.5277 56.0117C55.8543 52.0186 56.3066 48.1519 56.6009 44.1282C56.3863 43.5798 55.6304 43.5691 55.0677 43.3665C53.2616 40.1168 54.9359 34.6732 55.0677 30.5689C56.3679 30.5917 57.3568 30.3038 58.7475 30.4165C58.6233 33.6022 57.2664 38.2703 58.4408 40.7765C60.5076 38.7167 59.4896 33.5915 60.2807 30.2642H63.9605ZM61.5073 33.3112C62.1037 33.2442 62.1344 32.615 62.4272 32.2447C62.0838 32.0787 62.1574 31.4967 61.8139 31.3306C61.308 31.8501 61.0151 32.5632 61.5073 33.3112ZM56.4476 33.7683C56.9137 33.0476 57.3154 32.2386 56.4476 31.6353C55.9187 32.2341 55.5737 33.2731 56.4476 33.7683ZM60.894 39.4053C61.5334 39.3794 61.4291 38.6161 61.8139 38.3388C61.4705 38.1728 61.5441 37.5908 61.2006 37.4247C60.6947 37.9443 60.4018 38.6573 60.894 39.4053ZM55.0677 39.253C55.3698 39.3581 55.4771 39.6597 55.5277 40.0147C56.1379 39.9111 56.19 39.2514 56.4476 38.7959C56.072 38.6603 56.282 37.9458 55.681 38.0341C55.6473 38.61 55.1996 38.7746 55.0677 39.253ZM58.2875 44.5853C58.7137 43.982 59.2918 42.8652 58.2875 42.4524C57.8797 43.1715 57.3691 44.046 58.2875 44.5853ZM57.3676 54.0312C57.6788 53.6305 57.895 53.1323 58.1342 52.66C57.7739 52.5107 57.8797 51.8967 57.3676 51.8982C57.018 52.6752 56.4139 53.4583 57.3676 54.0312Z" fill="white"/>
<path fill-rule="evenodd" clip-rule="evenodd" d="M69.1735 30.2642C70.282 30.5171 69.336 32.3407 69.4801 33.4636C69.1597 34.2436 68.5157 34.0532 68.1002 34.8347C67.3995 36.1541 67.9331 38.3145 67.4869 40.0147C67.6019 40.6622 68.4789 40.5525 69.0202 40.7765C68.9312 47.2896 68.6782 53.6396 63.0405 54.6406C62.602 53.6076 63.1095 52.3004 63.0405 51.1365C65.6332 50.2589 65.0015 46.1789 65.3404 43.0618C65.2423 42.5499 64.606 42.5727 63.9605 42.6047C64.1092 36.9128 63.8256 30.7898 69.1735 30.2642ZM67.9469 33.1589C68.666 33.037 69.1167 31.4662 68.1002 31.3306C67.562 31.777 67.5973 32.5373 67.9469 33.1589ZM66.7203 43.0618C66.8568 42.588 67.2324 42.3518 67.3336 41.843C66.958 41.7074 67.168 40.9928 66.567 41.0812C66.107 41.7074 65.9568 42.6245 66.7203 43.0618ZM64.1138 53.117C65.092 52.9449 65.2576 51.5752 64.4205 51.1365C64.0463 51.7139 63.5266 52.4071 64.1138 53.117Z" fill="white"/>
<path fill-rule="evenodd" clip-rule="evenodd" d="M80.5194 31.7876C80.8414 32.3818 80.5961 33.5397 80.6727 34.3776C79.4753 34.6092 78.3253 34.8895 77.7596 35.7488C77.7366 37.6212 77.6875 39.8791 77.7596 42.3C77.8209 44.378 77.4851 47.0914 77.9129 48.5464C78.3269 49.9557 79.9521 49.8048 80.9794 50.527C80.9058 51.3177 81.1449 52.4177 80.826 52.9646C77.9896 53.7355 74.9246 52.2303 74.3865 49.3082C74.1059 47.7892 74.3497 45.1459 74.2331 42.6047C74.0936 39.5378 73.8759 35.5812 74.3865 34.0729C75.1178 31.9095 78.1475 30.9207 80.5194 31.7876ZM75.3064 34.8347C75.3064 35.3435 75.8047 35.3542 75.7664 35.9011C76.2815 35.8539 76.3781 35.3923 76.533 34.987C76.2493 34.7616 76.303 34.1994 75.7664 34.2253C75.613 34.4279 75.6207 34.792 75.3064 34.8347ZM76.3797 49.7652C76.8795 49.168 76.8856 48.3956 76.073 48.0893C75.5763 48.5784 75.426 49.6312 76.3797 49.7652Z" fill="white"/>
<path fill-rule="evenodd" clip-rule="evenodd" d="M49.8549 31.7878C54.5512 31.4358 53.297 39.4953 52.7681 44.2807C52.4446 47.2043 52.4676 50.3001 51.8481 52.8124C51.0278 56.1398 47.7728 59.3102 44.9486 58.2971C41.7779 57.1605 43.331 50.8943 43.8753 46.4136C44.5683 40.7019 44.2341 32.2083 49.8549 31.7878ZM48.7817 34.3778C49.1834 34.4859 48.9289 35.2477 49.395 35.2919C49.6525 34.8379 50.0021 34.4737 50.1616 33.9207C49.8013 33.7714 49.9071 33.1574 49.395 33.1589C49.3612 33.7348 48.9135 33.8994 48.7817 34.3778ZM48.7817 37.1201C47.5305 41.8187 47.4416 47.672 46.7885 52.9648C48.7403 53.3136 48.3447 51.0604 48.475 49.9177C48.9595 45.6793 49.7307 40.8604 49.7016 37.1201C49.3812 36.788 49.2646 37.1963 48.7817 37.1201ZM51.2348 40.3195C52.0781 39.9935 52.4614 38.6924 51.5415 38.1866C51.0278 38.8554 50.8193 39.41 51.2348 40.3195ZM46.3285 41.386C46.6612 40.743 47.3926 39.6492 46.3285 39.253C45.7428 39.7954 45.4898 40.9259 46.3285 41.386ZM50.4682 50.2224C50.7795 49.8217 50.9957 49.3235 51.2348 48.8512C50.8592 48.7156 51.0692 48.0011 50.4682 48.0895C50.0604 48.8086 49.5498 49.6831 50.4682 50.2224ZM44.9486 51.4412C45.7505 51.2234 46.261 49.6313 45.2552 49.3083C44.8413 49.8781 44.369 50.6947 44.9486 51.4412ZM46.9418 56.6212C47.8587 56.2541 48.3462 54.921 47.2484 54.4883C46.8697 55.023 46.2978 55.9402 46.9418 56.6212Z" fill="white"/>
<path fill-rule="evenodd" clip-rule="evenodd" d="M81.4395 31.9399C82.6062 32.1517 83.7884 32.3482 84.9659 32.5494C85.0104 38.2245 85.3339 44.0581 85.4259 49.6128C85.9947 49.9617 86.9514 49.9252 87.879 49.9175C87.8208 51.2308 88.0308 52.4374 88.0324 53.2693C85.7386 52.9631 83.6504 53.0301 81.8994 53.1169C81.72 46.8553 81.5774 38.7577 81.4395 31.9399ZM82.3594 34.6823C82.7197 34.8316 82.6139 35.4456 83.126 35.444C83.4158 35.4273 83.2318 34.9398 83.586 34.987C83.4557 34.5071 83.3008 34.05 82.8194 33.9205C82.6814 34.1902 82.4499 34.3654 82.3594 34.6823ZM82.8194 50.3746C82.781 50.9215 83.2793 50.9322 83.2793 51.4411C83.865 51.4654 83.7776 50.8195 84.0459 50.5269C83.6856 50.3776 83.7914 49.7637 83.2793 49.7652C83.126 49.9678 83.0263 50.2253 82.8194 50.3746Z" fill="white"/>
<path fill-rule="evenodd" clip-rule="evenodd" d="M88.1855 33.1589C89.5118 33.2641 90.3965 33.8064 91.712 33.9207C91.8408 37.8026 92.0355 42.5682 92.172 46.566C92.2133 47.7802 91.8392 49.712 93.2452 50.0701C94.3982 49.581 93.7558 48.1657 93.7052 47.1754C93.5089 43.2949 93.5089 38.6238 93.3985 34.3778C94.6343 34.6733 95.6263 35.2111 96.925 35.4442C97.0522 40.8863 97.2945 45.7844 97.5383 51.5936C96.5141 53.0425 95.1035 54.31 93.0919 54.0312C90.9852 53.7387 89.754 51.2919 88.6455 50.0701C88.5658 44.2441 88.2377 38.9407 88.1855 33.1589ZM89.1055 35.1395C89.2389 35.6164 89.4857 35.9805 89.8721 36.206C90.4486 35.6392 90.2477 34.9354 89.4121 34.6825C89.4198 34.9445 89.2941 35.0725 89.1055 35.1395ZM94.9318 37.5772C95.9284 37.5558 95.4745 36.11 94.7784 36.0536C94.1514 36.5259 94.7692 37.0409 94.9318 37.5772ZM89.4121 45.8042C89.751 46.0266 89.7157 46.6193 90.1787 46.7183C90.2263 46.3588 90.7108 46.4349 90.6387 45.9565C90.3704 45.7158 90.3198 45.2572 89.8721 45.1948C89.8276 45.5056 89.4566 45.4934 89.4121 45.8042ZM94.7784 46.8707C95.1296 47.0809 95.1388 47.6294 95.5451 47.7848C95.6309 47.5654 95.7842 47.413 96.005 47.3277C95.8716 46.8509 95.6248 46.4867 95.2384 46.2612C95.194 46.572 94.8229 46.5599 94.7784 46.8707ZM92.4786 51.8983C92.8297 52.1085 92.8389 52.657 93.2452 52.8124C93.3817 52.4909 93.7113 52.3614 93.7052 51.8983C93.4231 51.6698 93.3234 51.263 92.9386 51.1365C92.8006 51.4062 92.5691 51.5814 92.4786 51.8983Z" fill="white"/>
<path fill-rule="evenodd" clip-rule="evenodd" d="M32.2227 62.1059C32.9969 53.3792 34.5378 44.0933 35.4424 34.9872C36.4758 34.5636 37.8803 33.744 38.9689 33.7684C43.4996 33.872 44.8764 42.7617 41.882 46.1089C44.2049 51.6256 39.1375 59.7247 36.0557 61.3442C34.8736 61.9658 33.4186 62.0176 32.2227 62.1059ZM36.2091 37.5772C36.3287 38.0677 36.5295 38.4776 36.8224 38.796C37.0769 38.2871 37.3345 37.7813 37.589 37.2725C37.2133 37.1369 37.4234 36.4223 36.8224 36.5107C36.7656 37.0135 36.4636 37.2725 36.2091 37.5772ZM37.8956 45.1948C40.4837 44.8291 39.9823 40.0148 38.5089 38.796C38.3311 40.9548 37.9738 42.9369 37.8956 45.1948ZM41.4221 42.1477C42.0108 41.9207 42.0936 41.1894 42.342 40.6242C42.0031 40.5039 42.1427 39.9082 41.7287 39.8625C41.2473 40.4551 40.8793 41.3418 41.4221 42.1477ZM34.9825 48.6989C35.3259 48.865 35.2523 49.447 35.5958 49.613C35.8012 49.0554 36.1815 48.6715 36.3624 48.0895C36.1401 47.8031 36.137 47.2973 35.7491 47.1754C35.5682 47.7574 35.1879 48.1413 34.9825 48.6989ZM37.8956 49.156C36.4007 50.5149 36.8776 53.8317 36.3624 56.1642C37.6365 54.8143 40.2323 50.7435 37.8956 49.156ZM40.1955 52.6601C41.0142 52.459 41.5248 50.8669 40.5021 50.5271C40.1617 51.1701 39.6159 51.9135 40.1955 52.6601ZM33.6026 58.9065C34.0043 59.0147 33.7498 59.7765 34.2159 59.8206C34.6114 59.199 35.5084 57.9924 34.3692 57.5353C34.1469 58.0259 33.7973 58.3885 33.6026 58.9065Z" fill="white"/>
<path fill-rule="evenodd" clip-rule="evenodd" d="M106.584 48.394C109.117 51.7275 107.708 56.5631 103.365 56.4687C101.597 56.4306 100.318 55.5195 98.9182 54.7928C98.6284 48.8008 98.2988 42.6945 98.1516 36.2058C102.394 36.2789 108.312 42.3563 107.504 47.0228C107.382 47.7282 107.379 48.1213 106.584 48.394ZM100.298 39.5576C100.33 39.3869 100.468 39.3199 100.605 39.2529C100.474 38.7729 100.32 38.3174 99.8382 38.1864C99.2908 38.5825 99.671 39.4616 100.298 39.5576ZM103.365 45.4993C104.102 43.9286 102.94 41.951 101.985 41.0811C102.425 42.5741 101.307 45.6151 103.365 45.4993ZM105.664 45.1946C105.75 44.9752 105.904 44.8229 106.124 44.7375C105.936 44.2653 105.787 43.7534 105.204 43.6711C104.685 44.1997 105.25 44.7756 105.664 45.1946ZM100.605 47.1752C101.18 46.744 100.74 45.804 100.145 45.6517C99.5208 46.1316 100.136 46.8979 100.605 47.1752ZM102.751 52.8122C104.243 51.825 104.709 48.6987 102.445 48.2417C102.182 49.5397 102.138 51.8814 102.751 52.8122ZM106.124 52.5075C106.169 52.1967 106.54 52.2089 106.584 51.8981C106.172 51.6985 106.278 50.984 105.664 50.984C105.089 51.4152 105.651 52.2348 106.124 52.5075ZM100.145 53.1169C100.145 53.6258 100.643 53.6365 100.605 54.1834C101.054 54.1727 101.174 53.8345 101.371 53.574C101.02 53.3637 101.011 52.8153 100.605 52.6599C100.519 52.8793 100.366 53.0316 100.145 53.1169Z" fill="white"/>
<path fill-rule="evenodd" clip-rule="evenodd" d="M17.0437 41.2334C17.4622 41.3766 17.3948 42.0013 17.5036 42.4522C17.2031 42.7112 16.737 42.8072 16.5837 43.214C15.9566 42.6015 16.369 41.436 17.0437 41.2334Z" fill="white"/>
<path fill-rule="evenodd" clip-rule="evenodd" d="M17.5035 50.2222C17.203 50.8895 16.119 50.7753 15.357 50.984C15.2957 50.0577 16.8504 49.9328 17.5035 50.2222Z" fill="white"/>
<path fill-rule="evenodd" clip-rule="evenodd" d="M11.064 51.2888C10.9153 51.7413 9.46177 52.0322 9.22412 51.4411C9.32838 50.6443 10.6669 51.0511 11.064 51.2888Z" fill="white"/>
<path fill-rule="evenodd" clip-rule="evenodd" d="M16.1238 51.8982C16.2035 52.5259 15.2943 52.6737 14.8972 52.3553V51.8982C15.1993 51.5966 15.7727 51.8007 16.1238 51.8982Z" fill="white"/>
<path fill-rule="evenodd" clip-rule="evenodd" d="M11.064 52.8123C10.9505 53.2465 10.0797 53.4339 9.68408 53.117C9.76994 52.3172 10.6102 52.5244 11.064 52.8123Z" fill="white"/>
<path fill-rule="evenodd" clip-rule="evenodd" d="M11.9839 53.4216C12.1081 54.4165 12.5727 55.0716 12.9039 55.8593C12.6555 56.1213 12.263 56.2371 11.6773 56.164C11.1299 55.4205 11.55 54.0798 11.9839 53.4216Z" fill="white"/>
<path fill-rule="evenodd" clip-rule="evenodd" d="M14.2838 57.6877C14.1489 58.7923 12.9898 58.0442 12.2906 57.9924C12.079 56.9823 14.1412 56.9823 14.2838 57.6877Z" fill="white"/>
<path fill-rule="evenodd" clip-rule="evenodd" d="M7.53763 61.9534C7.85501 62.1972 7.72622 62.8827 7.9976 63.1722C7.20952 63.646 6.36931 62.8645 5.69775 62.7152C5.87101 61.9305 6.5947 61.5573 7.53763 61.9534Z" fill="white"/>
<path fill-rule="evenodd" clip-rule="evenodd" d="M19.0369 5.27832C18.3132 16.2401 17.2767 26.8895 17.0437 38.3388C25.3415 38.1179 28.6042 42.9002 28.3896 51.1364C28.2823 51.953 29.1485 51.8037 29.1562 52.5076C28.6978 54.5384 29.5181 55.2758 30.3828 56.3164C29.8584 57.8171 29.4966 60.6462 28.5429 61.9534C27.5433 63.3216 25.5485 64.3073 24.0965 65.3052C22.4897 66.4082 21.2309 67.9348 19.4968 68.1999C18.3991 68.1009 19.8004 67.1806 19.3435 66.8287C18.0709 67.2035 16.1253 67.6743 14.7438 67.4381C14.0048 67.2081 14.2501 65.9984 12.9039 66.3717C12.099 66.3549 12.953 67.1974 12.1373 67.2858C11.2971 67.3589 11.4535 66.4417 11.0641 66.0669C8.98501 65.5429 6.62843 65.2945 5.69775 63.6293C7.96847 64.8527 12.3566 66.5103 16.1237 65.1528C15.7941 63.8548 14.3176 63.6979 13.9772 62.4105C11.3492 61.8727 7.95161 62.0997 6.46437 60.4299C8.94207 61.1673 11.4412 61.8834 14.7438 61.8011C15.1624 61.6076 15.3556 61.1901 15.6638 60.887C14.5353 59.5645 11.1806 60.3735 8.91754 59.5158C8.24599 58.3031 8.20306 56.4672 8.15093 54.6405C9.46031 55.9294 9.86815 58.1142 10.9107 59.6681C15.4154 60.3705 18.7808 59.0816 21.0301 56.9258C20.564 54.8569 21.9638 51.0755 18.8836 50.9841C18.8498 46.4226 11.7801 47.6811 8.76422 48.5464C8.99574 50.2543 8.0896 51.6498 8.76422 53.574C7.90561 53.7812 7.20645 52.6081 7.38431 51.2888C6.5303 53.4674 7.72929 55.9447 7.53763 58.4493C4.37764 51.6925 6.58703 41.6555 12.9039 39.8623C13.413 28.995 14.3866 17.6752 15.0505 6.49714C16.4028 6.11321 17.6079 5.58455 19.0369 5.27832ZM16.737 11.3724C17.1725 10.2983 17.8655 9.24558 16.737 8.47772C16.136 9.32328 15.5825 10.7325 16.737 11.3724ZM14.2839 36.0535C14.4586 36.5898 14.6212 37.1413 15.0505 37.4247C15.2943 36.7528 15.6116 36.1541 15.8171 35.4441C15.4276 35.2217 15.5196 34.5208 15.0505 34.3776C14.8067 34.949 14.6043 35.5584 14.2839 36.0535ZM25.4765 46.2611C24.8877 48.6988 23.0969 45.9107 22.7166 44.89C21.7277 42.2329 19.8418 38.0173 16.2771 39.5576C16.7156 39.5272 17.1142 39.5393 17.0437 40.0147C15.8079 41.4773 14.891 43.2583 13.3639 44.4329C17.174 44.0855 22.1739 44.96 23.4833 47.4799C22.0512 47.6582 20.6452 46.0356 18.5769 45.4994C14.3988 44.4161 7.70936 45.3379 6.77102 48.6988C7.36744 48.8725 7.09606 50.7052 7.38431 50.6794C7.27698 49.913 7.64496 49.6175 7.53763 48.8511C10.1779 46.9589 15.9781 46.9254 18.8836 48.0894C18.7026 47.8045 17.637 47.6125 17.9636 47.3276C20.932 47.8319 22.7718 50.268 22.5633 53.4217C22.5863 53.0439 22.5924 52.6828 22.2567 52.6599C22.2321 53.1993 21.7292 54.6999 22.41 54.9452C22.8439 54.9696 22.2827 54.0067 22.7166 54.0311C22.847 55.6917 21.8841 57.1071 20.8768 58.1446C20.0028 59.045 18.3776 59.3284 17.9636 60.5823C20.8829 59.9744 23.0264 57.2869 23.6366 53.8788C24.0705 54.2459 24.0092 56.6089 24.2499 56.164C24.0076 53.8727 22.6446 47.8349 25.9364 48.8511C26.976 49.1726 26.355 50.6443 27.4697 51.1364C27.6751 50.2543 27.7196 49.2488 27.623 48.3941C27.2489 45.0652 25.1591 41.0796 22.7166 40.7764C23.0447 42.4325 26.0024 44.0825 25.4765 46.2611ZM14.4372 41.2335C14.7638 40.8465 15.4767 40.845 15.5104 40.167C14.7699 40.0695 13.8546 40.9791 14.4372 41.2335ZM11.3707 41.3859C11.8338 41.7576 11.337 42.4599 10.9107 42.4523C10.8264 42.2314 11.0901 41.6647 10.7574 41.6906C9.90801 42.7768 8.26439 43.8844 8.45757 45.4994C9.21806 45.0865 10.0261 44.7208 11.2174 44.7376C11.0855 44.0566 10.3818 43.9423 10.2975 43.2141C11.2159 42.5498 12.838 41.7789 12.5973 40.4717C12.2646 40.8511 11.613 40.9166 11.3707 41.3859ZM11.524 43.3664C11.7172 43.4289 11.8368 43.563 11.8307 43.8235C13.0987 43.7626 13.4758 42.818 13.8239 41.8429C12.8258 42.1202 12.4823 43.048 11.524 43.3664ZM26.2431 53.4217C26.7812 52.9189 26.6693 51.1593 25.6298 51.2888C25.3093 51.9683 25.3799 53.4247 26.2431 53.4217ZM25.4765 56.164C26.8272 55.5318 29.5365 54.1378 28.3896 52.5076C28.2961 54.5064 25.5041 54.6055 25.4765 56.164ZM27.3163 58.4493C25.8858 59.9744 23.865 61.7219 21.7967 62.1058C22.2275 60.9601 23.6289 60.7788 23.7899 59.3634C22.8991 58.5179 24.0797 57.1284 23.9432 56.6211C22.318 58.3061 20.8936 60.1922 18.7302 61.344C18.8314 62.1637 17.864 63.1738 18.4236 63.477C19.4125 63.189 20.5732 62.2642 21.4901 62.4105C20.5778 63.9934 17.3549 63.2789 16.8904 65.3052C18.5662 65.4972 19.6486 64.2905 20.8768 64.5434C21.3536 65.2062 20.2987 65.4301 20.2635 66.0669C22.8761 62.8188 29.2773 62.5369 27.7763 55.707H27.3163C26.9698 56.4139 27.5095 57.4027 27.3163 58.4493Z" fill="white"/>
</g>
<defs>
<clipPath id="clip0_120_1270">
<rect width="106.92" height="67.32" fill="white" transform="translate(0.920166 0.879883)"/>
</clipPath>
</defs>
</svg>
