<svg width="145" height="30" viewBox="0 0 145 30" fill="none" xmlns="http://www.w3.org/2000/svg">
<g id="brightpearl-seeklogo 1" clip-path="url(#clip0_465_624)">
<path id="path8" d="M13.752 10.3541C13.5493 10.1919 13.3362 10.0426 13.1141 9.90721C13.9754 8.84918 14.443 7.53369 14.4396 6.17867C14.4431 5.28988 14.2433 4.41169 13.8551 3.609C13.4668 2.8063 12.9001 2.09961 12.1966 1.54115C10.9388 0.576763 9.36614 0.0968212 7.77383 0.19142H0V22.3255H8.76485C10.5595 22.4341 12.3328 21.8951 13.752 20.8099C14.5451 20.1802 15.1841 19.3834 15.6218 18.4783C16.0595 17.5732 16.2848 16.5831 16.2808 15.5809C16.2844 14.5792 16.0591 13.5894 15.6214 12.6847C15.1837 11.78 14.5449 10.9835 13.752 10.3541ZM3.88951 3.77746H7.06241C8.85287 3.77746 9.43899 4.15306 9.80764 4.56022C10.2304 5.00713 10.4649 5.59507 10.4637 6.20532C10.4626 6.81557 10.2259 7.40265 9.80143 7.84801C9.43692 8.25517 8.85287 8.62467 7.06242 8.62467H3.88951V3.77746ZM11.4065 17.7379C10.8753 18.26 10.1028 18.7435 8.06068 18.7435H3.88951V12.2097H8.06068C10.1017 12.2097 10.8732 12.6912 11.4003 13.2093C11.9987 13.8159 12.3339 14.6274 12.335 15.4723C12.3362 16.3173 12.0033 17.1297 11.4065 17.7379Z" fill="white"/>
<path id="rect10" d="M32.5503 7.24414H28.9031V22.3273H32.5503V7.24414Z" fill="white"/>
<path id="path12" d="M30.7112 0.191431C30.4091 0.190031 30.1099 0.247946 29.8309 0.361779C29.552 0.475611 29.299 0.643067 29.0867 0.854319C28.8745 1.06557 28.7074 1.31636 28.5951 1.59197C28.4828 1.86758 28.4277 2.16246 28.433 2.4593C28.4331 3.05661 28.6746 3.62941 29.1044 4.05171C29.5341 4.47402 30.1169 4.71126 30.7246 4.71126C31.3323 4.71126 31.9151 4.47402 32.3448 4.05171C32.7746 3.62941 33.0161 3.05661 33.0163 2.4593C33.0155 1.85842 32.7724 1.28236 32.3403 0.857284C31.9083 0.432209 31.3225 0.192777 30.7112 0.191431Z" fill="white"/>
<path id="path14" d="M46.3716 8.2104C45.1277 7.35783 43.6421 6.91226 42.1259 6.93701C40.8066 6.9218 39.5075 7.25581 38.3648 7.90401C37.1584 8.61815 36.161 9.6276 35.47 10.8338C34.779 12.04 34.4181 13.4017 34.4225 14.786C34.4056 16.1646 34.7581 17.5234 35.4444 18.7258C36.1308 19.9283 37.1269 20.932 38.3327 21.6364C39.5094 22.2887 40.8371 22.6322 42.188 22.6339C43.6475 22.6619 45.079 22.2385 46.2805 21.4237V21.5316C46.3815 22.754 46.1192 23.9789 45.5256 25.0576C45.1578 25.5632 44.6637 25.9673 44.0909 26.2308C43.5181 26.4943 42.886 26.6084 42.2553 26.562C41.3469 26.5662 40.4522 26.3443 39.6544 25.9172C38.8567 25.4901 38.1818 24.8715 37.6927 24.1191L37.4649 23.8218L34.7952 26.2587L34.9485 26.4948C35.8011 27.6315 36.9248 28.545 38.2207 29.1548C39.5166 29.7647 40.9451 30.0523 42.3806 29.9923C43.7331 30.0478 45.074 29.7261 46.2483 29.0643C47.4227 28.4026 48.3827 27.4278 49.0174 26.2526C49.7145 24.7226 50.027 23.0504 49.9287 21.3769V7.24442H46.3716V8.2104ZM46.2784 17.3714C45.8453 17.9305 45.289 18.3858 44.6512 18.7031C44.0134 19.0205 43.3107 19.1916 42.596 19.2036C42.0022 19.2119 41.4126 19.1036 40.8619 18.8849C40.3112 18.6663 39.8105 18.3418 39.3891 17.9304C38.9677 17.519 38.6341 17.0291 38.4079 16.4893C38.1817 15.9495 38.0674 15.3708 38.0717 14.787C38.0503 14.2117 38.1477 13.6382 38.358 13.1009C38.5683 12.5637 38.8872 12.0739 39.2954 11.6611C39.7036 11.2483 40.1927 10.9212 40.7331 10.6993C41.2735 10.4775 41.854 10.3656 42.4396 10.3704C43.1777 10.3759 43.9052 10.5433 44.5691 10.8603C45.233 11.1772 45.8166 11.6358 46.2774 12.2026L46.2784 17.3714Z" fill="white"/>
<path id="path16" d="M59.6214 6.93789C58.2048 6.93935 56.8223 7.36546 55.6584 8.15936V0.182129H52.0112V22.3254H55.6584V12.2075C56.1253 11.6393 56.7143 11.1796 57.3831 10.8615C58.052 10.5433 58.7842 10.3745 59.5272 10.3672C60.0559 10.364 60.5785 10.478 61.0563 10.7005C61.534 10.9231 61.9547 11.2486 62.2869 11.6528C62.7012 12.1556 63.0843 12.8834 63.0843 14.7838V22.3254H66.7325V14.9395C66.8881 13.0441 66.3538 11.156 65.2248 9.61189C64.5603 8.77547 63.7098 8.09963 62.7386 7.63614C61.7674 7.17264 60.7011 6.9338 59.6214 6.93789Z" fill="white"/>
<path id="path18" d="M90.6266 7.90499C89.4835 7.2569 88.1841 6.9229 86.8645 6.938C85.3482 6.91317 83.8626 7.35875 82.6188 8.21138V7.24438H79.0679V29.6869H82.7151V21.4236C83.9155 22.2363 85.345 22.6586 86.8024 22.6309C88.1533 22.6291 89.481 22.2856 90.6577 21.6333C91.8637 20.9291 92.86 19.9253 93.5465 18.7229C94.233 17.5205 94.5857 16.1617 94.5689 14.7829C94.5727 13.3993 94.2114 12.0384 93.5205 10.8329C92.8296 9.62749 91.8325 8.6187 90.6266 7.90499ZM86.3975 19.2036C85.6827 19.1916 84.98 19.0204 84.3422 18.7031C83.7045 18.3857 83.1481 17.9304 82.7151 17.3714V12.2036C83.1759 11.6368 83.7595 11.1783 84.4234 10.8613C85.0873 10.5444 85.8147 10.377 86.5528 10.3713C87.1384 10.3666 87.7189 10.4785 88.2593 10.7003C88.7997 10.9222 89.2888 11.2493 89.697 11.6621C90.1052 12.0749 90.4241 12.5646 90.6344 13.1019C90.8448 13.6391 90.9421 14.2127 90.9207 14.788C90.9248 15.3715 90.8103 15.9499 90.584 16.4894C90.3577 17.0289 90.0242 17.5185 89.6029 17.9297C89.1817 18.3408 88.6812 18.6652 88.1307 18.8838C87.5803 19.1023 86.991 19.2107 86.3975 19.2026V19.2036Z" fill="white"/>
<path id="path20" d="M103.621 6.93799C99.2839 6.93799 96.1358 10.239 96.1358 14.7859C96.1079 15.8189 96.2933 16.8466 96.6807 17.8071C97.0682 18.7676 97.6496 19.641 98.39 20.3745C99.1304 21.108 100.014 21.6863 100.988 22.0747C101.963 22.463 103.007 22.6533 104.058 22.6339C105.281 22.6845 106.5 22.4555 107.619 21.9648C108.737 21.4742 109.725 20.7353 110.504 19.8062L110.695 19.566L108.282 17.3093L108.047 17.5658C107.574 18.1503 106.972 18.621 106.286 18.9419C105.601 19.2628 104.849 19.4254 104.09 19.4174C103.034 19.4207 102.013 19.0506 101.212 18.3746C100.411 17.6986 99.8843 16.7619 99.7281 15.7356H110.947L110.981 15.4364C111.005 15.2204 111.016 15.0032 111.014 14.7859C111.012 10.3143 107.834 6.93799 103.621 6.93799ZM100.067 12.6097C100.352 11.8864 100.853 11.2648 101.504 10.8266C102.155 10.3884 102.926 10.1541 103.715 10.1545C104.468 10.1803 105.196 10.4281 105.805 10.866C106.413 11.3039 106.873 11.9114 107.125 12.6097H100.067Z" fill="white"/>
<path id="path22" d="M124.471 8.2104C123.228 7.35783 121.742 6.91226 120.226 6.93701C118.906 6.9218 117.607 7.25581 116.465 7.90401C115.258 8.61815 114.261 9.6276 113.57 10.8338C112.879 12.04 112.518 13.4017 112.522 14.786C112.506 16.1647 112.858 17.5236 113.545 18.726C114.231 19.9284 115.228 20.9322 116.434 21.6364C117.61 22.2887 118.938 22.6322 120.289 22.6339C121.782 22.6459 123.242 22.2044 124.47 21.3697V22.3255H128.024V7.24442H124.47L124.471 8.2104ZM124.378 17.3714C123.945 17.9305 123.389 18.3858 122.751 18.7031C122.113 19.0205 121.411 19.1916 120.696 19.2036C120.102 19.2119 119.512 19.1036 118.962 18.8849C118.411 18.6663 117.91 18.3418 117.489 17.9304C117.068 17.519 116.734 17.0291 116.508 16.4893C116.282 15.9495 116.167 15.3708 116.172 14.787C116.15 14.2117 116.248 13.6382 116.458 13.1009C116.668 12.5637 116.987 12.0739 117.395 11.6611C117.803 11.2483 118.293 10.9212 118.833 10.6993C119.373 10.4775 119.954 10.3656 120.539 10.3704C121.278 10.3759 122.005 10.5433 122.669 10.8603C123.333 11.1772 123.916 11.6358 124.377 12.2026L124.378 17.3714Z" fill="white"/>
<path id="rect24" d="M144.545 0H140.897V22.3275H144.545V0Z" fill="white"/>
<path id="path26" d="M76.9825 19.0184H76.968C76.3755 19.1534 75.7692 19.2217 75.161 19.2219C74.756 19.2404 74.3514 19.1767 73.9725 19.0349C73.5935 18.893 73.2483 18.6761 72.9584 18.3975C72.5729 17.8017 72.409 17.0932 72.4945 16.3922V10.4782H76.967V7.24439H72.4945V0.191406H68.8493V16.2181C68.7244 17.819 69.2181 19.4074 70.2318 20.6663C70.842 21.3184 71.5895 21.832 72.4221 22.1712C73.2548 22.5105 74.1527 22.6674 75.0533 22.6309C75.7001 22.6299 76.3455 22.5713 76.9815 22.4558L76.9825 19.0184Z" fill="white"/>
<path id="path28" d="M26.9863 7.09987C26.4828 6.99198 25.969 6.93738 25.4537 6.93701C24.0371 6.93847 22.6546 7.36459 21.4907 8.15848V7.24238H17.8435V22.3255H21.4907V12.2077C21.9581 11.6394 22.5477 11.1799 23.2171 10.8621C23.8865 10.5442 24.6192 10.376 25.3626 10.3693C25.9276 10.3703 26.4845 10.5018 26.9884 10.7531L26.9863 7.09987Z" fill="white"/>
<path id="path30" d="M139.254 7.09987C138.75 6.99198 138.237 6.93738 137.721 6.93701C136.305 6.93847 134.922 7.36459 133.758 8.15848V7.24238H130.111V22.3255H133.758V12.2077C134.225 11.6394 134.814 11.1798 135.483 10.8616C136.152 10.5434 136.884 10.3746 137.627 10.3673C138.192 10.3683 138.749 10.4997 139.253 10.7511L139.254 7.09987Z" fill="white"/>
</g>
<defs>
<clipPath id="clip0_465_624">
<rect width="144.545" height="30" fill="white"/>
</clipPath>
</defs>
</svg>
