<svg width="226" height="40" viewBox="0 0 226 40" fill="none" xmlns="http://www.w3.org/2000/svg">
<path d="M90.2571 38.7514V39.7968H85.9961V33.6606H90.1801V34.7061H87.189V36.1851H89.7729V37.1535H87.189V38.7536H90.2571V38.7514Z" fill="white"/>
<path d="M94.5406 35.8638V39.7968H93.3477V33.6606H94.272L97.47 37.6883V33.6694H98.6629V39.7968H97.6945L94.5406 35.8638Z" fill="white"/>
<path d="M106.368 39.106C105.879 39.5968 105.307 39.8411 104.658 39.8411C104.255 39.8411 103.877 39.7597 103.522 39.599C103.168 39.4384 102.86 39.2161 102.598 38.9344C102.336 38.6527 102.129 38.3203 101.975 37.9351C101.823 37.5522 101.746 37.1384 101.746 36.696C101.746 36.2757 101.823 35.8795 101.975 35.5075C102.127 35.1356 102.338 34.8098 102.607 34.5303C102.875 34.2508 103.19 34.0285 103.553 33.8656C103.916 33.7006 104.31 33.6191 104.737 33.6191C105.314 33.6191 105.807 33.7402 106.221 33.9823C106.632 34.2244 106.942 34.5501 107.149 34.9595L106.26 35.6154C106.104 35.3094 105.886 35.0761 105.609 34.9155C105.329 34.7548 105.025 34.6734 104.698 34.6734C104.438 34.6734 104.2 34.7284 103.984 34.8384C103.769 34.9485 103.584 35.0982 103.432 35.2874C103.28 35.4767 103.161 35.6968 103.078 35.9455C102.994 36.192 102.952 36.4561 102.952 36.7312C102.952 37.0196 102.998 37.2881 103.091 37.539C103.183 37.7899 103.309 38.0078 103.472 38.1905C103.632 38.3753 103.824 38.5206 104.046 38.6262C104.268 38.7319 104.508 38.7869 104.768 38.7869C105.362 38.7869 105.897 38.5074 106.375 37.9484V37.517H105.14V36.6432H107.361V39.7971H106.375V39.106H106.368Z" fill="white"/>
<path d="M110.531 39.7968V33.6606H111.724V38.7514H114.854V39.7968H110.531Z" fill="white"/>
<path d="M119.489 33.6606H120.543L122.876 39.7968H121.648L121.078 38.2672H118.934L118.373 39.7968H117.145L119.489 33.6606ZM120.862 37.4286L120.015 35.0164L119.132 37.4286H120.862Z" fill="white"/>
<path d="M126.9 35.8638V39.7968H125.707V33.6606H126.631L129.829 37.6883V33.6694H131.022V39.7968H130.054L126.9 35.8638Z" fill="white"/>
<path d="M134.465 39.7968V33.6606H136.694C137.196 33.6606 137.634 33.7421 138.013 33.9027C138.389 34.0634 138.706 34.2835 138.959 34.5586C139.212 34.8359 139.404 35.1595 139.529 35.5314C139.657 35.9034 139.718 36.2996 139.718 36.7199C139.718 37.1865 139.648 37.6091 139.507 37.9855C139.366 38.364 139.164 38.6853 138.898 38.9539C138.633 39.2224 138.314 39.4293 137.942 39.5767C137.57 39.7242 137.154 39.7968 136.694 39.7968H134.465ZM138.519 36.7199C138.519 36.4272 138.479 36.1565 138.398 35.9078C138.316 35.6613 138.2 35.4478 138.044 35.2673C137.887 35.089 137.696 34.9504 137.469 34.8513C137.24 34.7545 136.983 34.7039 136.694 34.7039H135.658V38.7492H136.694C136.989 38.7492 137.249 38.6964 137.476 38.5929C137.702 38.4895 137.894 38.3464 138.046 38.1659C138.198 37.9833 138.314 37.7698 138.396 37.5211C138.479 37.2746 138.519 37.0082 138.519 36.7199Z" fill="white"/>
<path d="M59.3056 10.9032C59.2682 10.8614 59.2242 10.8262 59.1846 10.7844C59.1076 10.7052 59.0327 10.6281 58.9557 10.5511L58.9491 10.5533C58.9469 10.5511 58.9447 10.5489 58.9425 10.5467C59.2352 10.2099 59.4927 9.8622 59.7128 9.50345C61.2403 7.0076 61.1192 2.81484 58.2844 1.2764C57.3622 0.774589 56.1737 0.521484 54.7167 0.521484H48.0039C48.6884 1.29841 49.0317 2.21179 49.0317 3.26163V21.0715C49.0317 22.1213 48.6884 23.0347 48.0039 23.8117H54.7167C55.749 23.8117 56.6403 23.6752 57.3974 23.4067C58.1766 23.1382 58.8148 22.731 59.3079 22.1808C59.6226 21.8286 59.8823 21.4303 60.0936 20.9989C60.4699 20.233 60.6812 19.3438 60.7318 18.3226H60.7429V17.8648V15.2148V14.7571H60.7274C60.6526 13.1702 60.1816 11.8826 59.3056 10.9032ZM52.4542 5.5704V3.60718C52.4542 3.54775 54.8268 3.58077 55.0513 3.60938C55.9558 3.72383 56.7922 4.08258 57.1003 5.00476C57.1487 5.15223 57.1862 5.31289 57.2126 5.48677C57.2214 5.54619 57.2258 5.60782 57.2324 5.66944C57.2302 5.78829 57.2236 5.90274 57.2126 6.01719C57.1597 6.54541 57.0013 7.03182 56.7944 7.4698C56.7394 7.58645 56.6821 7.6987 56.6205 7.80654C56.3806 8.23352 56.1033 8.60107 55.848 8.89599C55.6169 9.1601 55.4056 9.36699 55.2582 9.50125L52.4564 11.6802V11.0045V9.11169C52.4564 9.11169 52.4564 5.5704 52.4542 5.5704ZM57.3182 17.9352C57.3182 18.0716 57.3116 18.2037 57.3028 18.3292C57.217 19.5155 56.724 20.2572 55.8282 20.5543C55.5267 20.6555 55.1789 20.7084 54.785 20.7084H54.2215H52.5246V19.1853V15.5516L54.1797 14.264L54.5142 14.0043L55.0293 13.6038L56.2023 12.6926C56.9463 13.1064 57.3204 13.9229 57.3204 15.1488V17.9352H57.3182Z" fill="white"/>
<path d="M24.1322 3.12762C24.0397 2.09979 24.2356 1.23262 24.7154 0.523926C22.4793 0.523926 17.4568 0.523926 17.1794 0.523926C17.6592 1.23262 17.8529 2.09979 17.7627 3.12762L16.5874 9.72818L14.5427 21.2126C14.3138 22.2184 13.823 23.0856 13.0703 23.8163H18.5506C18.0026 23.0394 17.8199 22.126 18.0026 21.0761L18.2425 19.705H23.6546L23.8945 21.0761C24.0771 22.126 23.8945 23.0394 23.3464 23.8163H28.8267C28.074 23.0856 27.581 22.2184 27.3543 21.2126L24.1322 3.12762ZM18.7883 16.6215L20.9452 4.05201L23.1021 16.6215H18.7883Z" fill="white"/>
<path d="M82.8653 0.523926H77.385C77.911 1.11817 78.2324 1.79606 78.3534 2.55098C78.3908 2.78207 78.4106 3.01757 78.4106 3.26407V21.0739C78.4106 22.1238 78.0673 23.0372 77.3828 23.8141H82.8631C82.1786 23.0372 81.8353 22.1238 81.8353 21.0739V3.26407C81.8375 2.21423 82.1808 1.30085 82.8653 0.523926Z" fill="white"/>
<path d="M91.4667 0.523926H84.7539C85.4384 1.30085 85.7817 2.21423 85.7817 3.26407V21.0739C85.7817 22.1238 85.4384 23.0372 84.7539 23.8141H91.4667C93.5224 23.8141 95.0278 23.2771 95.9874 22.2052C96.947 21.1312 97.4268 19.694 97.4268 17.8892V6.10767C97.4268 2.38591 95.4394 0.523926 91.4667 0.523926ZM94 17.9574C94 19.8062 93.1548 20.7328 91.4645 20.7328H89.2042V3.60742H91.4645C93.1548 3.60742 94 4.41736 94 6.03944V17.9574Z" fill="white"/>
<path d="M115.004 3.26383V21.0737C115.004 22.1235 114.661 23.0369 113.977 23.8139H124.937V20.0459C124.411 20.5037 123.498 20.7304 122.197 20.7304H118.431V13.5377H120.828C122.129 13.5377 123.042 13.7666 123.568 14.2222V9.76976C123.042 10.2276 122.129 10.4543 120.828 10.4543H118.431V3.60498H122.199C123.5 3.60498 124.413 3.83387 124.939 4.28946V0.521484H113.979C114.663 1.30061 115.004 2.21399 115.004 3.26383Z" fill="white"/>
<path d="M156.617 3.12762C156.524 2.09979 156.72 1.23262 157.2 0.523926H149.664C150.144 1.23262 150.337 2.09979 150.247 3.12762L147.027 21.2126C146.798 22.2184 146.307 23.0856 145.555 23.8163H151.035C150.487 23.0394 150.304 22.126 150.487 21.0761L150.727 19.705H156.139L156.379 21.0761C156.562 22.126 156.379 23.0394 155.831 23.8163H161.311C160.558 23.0856 160.065 22.2184 159.839 21.2126L156.617 3.12762ZM151.275 16.6215L153.432 4.05201L155.589 16.6215H151.275Z" fill="white"/>
<path d="M160.422 4.63549C161.199 3.95101 162.112 3.60766 163.162 3.60766H164.19V23.8165H167.614V3.60766H168.642C169.692 3.60766 170.606 3.95101 171.382 4.63549V0.526367H160.422V4.63549Z" fill="white"/>
<path d="M200.345 0.523926H194.865C195.549 1.30085 195.893 2.21423 195.893 3.26407V10.4567H191.097V3.26407C191.097 2.21423 191.44 1.30085 192.125 0.523926H186.645C187.329 1.30085 187.672 2.21423 187.672 3.26407V21.0739C187.672 22.1238 187.329 23.0372 186.645 23.8141H192.125C191.44 23.0372 191.097 22.1238 191.097 21.0739V13.538H195.893V21.0739C195.893 22.1238 195.549 23.0372 194.865 23.8141H200.345C199.661 23.0372 199.317 22.1238 199.317 21.0739V3.26407C199.32 2.21423 199.661 1.30085 200.345 0.523926Z" fill="white"/>
<path d="M203.18 3.26383V21.0737C203.18 22.1235 202.837 23.0369 202.152 23.8139H213.113V20.0459C212.587 20.5037 211.674 20.7304 210.373 20.7304H206.605V13.5377H209.002C210.302 13.5377 211.216 13.7666 211.742 14.2222V9.76976C211.216 10.2276 210.302 10.4543 209.002 10.4543H206.605V3.60498H210.373C211.674 3.60498 212.587 3.83387 213.113 4.28946V0.521484H202.152C202.837 1.30061 203.18 2.21399 203.18 3.26383Z" fill="white"/>
<path d="M222.971 20.7328H219.203V3.26407C219.203 1.96333 219.432 1.04995 219.887 0.523926H215.094C215.549 1.04995 215.778 1.96333 215.778 3.26407V21.0739C215.778 22.3747 215.549 23.2881 215.094 23.8141H225.711V20.0461C225.185 20.5039 224.272 20.7328 222.971 20.7328Z" fill="white"/>
<path d="M46.2061 0.534668H42.1982L37.814 13.1394L33.3945 0.534668H29.4219C30.1064 1.31159 30.4497 2.22498 30.4497 3.27482V21.0847C30.4497 22.1345 30.1064 23.0479 29.4219 23.8248H34.9022C34.2177 23.0479 33.8743 22.1345 33.8743 21.0847V10.912C34.7525 13.2164 37.3782 20.0987 37.814 21.2343C38.7516 18.7539 41.7316 10.8636 41.7536 10.8086V21.0847C41.7536 22.1345 41.4103 23.0479 40.7258 23.8248H46.2061C45.5216 23.0479 45.1783 22.1345 45.1783 21.0847V3.27482C45.1783 2.22498 45.5216 1.31159 46.2061 0.534668Z" fill="white"/>
<path d="M75.7794 23.2086C75.4053 22.7816 75.1059 22.293 74.866 21.778C74.6173 21.2454 74.4721 20.6731 74.3246 20.1031C74.1992 19.6189 72.2205 12.0015 72.2205 12.0015C73.0151 11.2532 73.77 10.4344 74.3554 9.51005C75.5725 7.58865 75.7068 4.63281 74.4501 2.68939C74.0649 2.09514 73.5323 1.61314 72.9116 1.2764C71.9894 0.774589 70.8009 0.521484 69.3439 0.521484H62.6311C63.1219 1.07612 63.4322 1.70338 63.5709 2.39887C63.6259 2.67619 63.6567 2.96231 63.6567 3.26163C63.6567 6.93057 63.6567 21.0297 63.6567 21.0715C63.6567 22.1213 63.3134 23.0347 62.6289 23.8117H62.6773H67.1342H68.1576C68.151 23.8051 68.1466 23.7962 68.14 23.7896C67.515 23.0721 67.1826 22.238 67.1386 21.2872C67.1386 21.2872 67.1496 16.4782 67.1518 16.476V15.9962C67.9001 15.4217 68.6462 14.8429 69.4099 14.2905L69.4298 14.3719L71.2169 21.3048C71.3908 22.1588 71.2917 22.9489 70.9198 23.6752C70.9176 23.6774 70.9176 23.6818 70.9154 23.684C70.9 23.7126 70.889 23.7412 70.8736 23.7698H75.643H76.3539C76.1514 23.6048 75.9599 23.4155 75.7794 23.2086ZM71.842 6.01719C71.7892 6.54541 71.6307 7.03182 71.4238 7.4698C71.3688 7.58645 71.3116 7.6987 71.2499 7.80654C71.01 8.23352 70.7327 8.60107 70.4774 8.89599C70.2463 9.1601 70.035 9.36699 69.8876 9.50125L67.132 11.645V10.9869V9.09628V3.60718H69.3439C69.7005 3.60718 70.0196 3.64679 70.3013 3.71943C71.0298 3.9065 71.5052 4.33568 71.7297 5.00696C71.7781 5.15443 71.8156 5.3151 71.842 5.48457V5.48677C71.8508 5.54619 71.8552 5.60782 71.8618 5.66944C71.8596 5.78829 71.853 5.90274 71.842 6.01719Z" fill="white"/>
<path d="M112.273 15.9457C112.273 14.8804 112.273 13.3464 112.273 12.444L112.286 12.411H106.366V16.3617C106.874 15.9193 107.75 15.675 108.945 15.6354C108.95 15.6354 108.952 15.6354 108.956 15.6354C108.956 15.6354 108.963 17.3565 108.956 18.0916C108.943 19.6719 107.675 21.1487 106.062 21.1487C104.33 21.1487 103.221 19.7511 103.203 18.0234C103.203 18.008 103.201 6.54775 103.201 6.51473C103.201 6.41569 103.205 6.31665 103.212 6.21981C103.311 4.85304 104.108 3.73937 105.353 3.43124C105.576 3.37622 105.811 3.3432 106.06 3.3432C107.583 3.3432 108.584 4.43046 108.866 5.92489L108.958 6.4201H112.297L112.216 5.74221C111.828 2.46944 109.357 0 106.06 0C102.468 0 99.8555 2.92063 99.8555 6.51253C99.8555 6.54335 99.8555 17.9441 99.8555 17.9771C99.8555 21.569 102.468 24.4897 106.06 24.4897C108.875 24.4897 111.082 22.6871 111.91 20.123C112.39 18.501 112.273 16.7358 112.273 15.9457Z" fill="white"/>
<path d="M142.786 12.6841H142.773C141.486 11.5594 139.941 10.8111 138.499 9.91092C137.729 9.42892 136.925 8.9139 136.399 8.15458C135.024 6.17155 136.597 3.23332 139.016 3.29494C141.134 3.34777 142.751 5.74017 141.561 7.63517C141.55 7.65498 141.435 7.82004 141.387 7.88167H145.15V7.74301C145.15 6.12753 145.104 4.54067 144.257 3.09686C142.813 0.638431 139.765 -0.600687 137.033 0.288486C134.297 1.17986 132.504 3.97503 132.675 6.82082C132.836 9.48394 134.724 11.434 136.886 12.7699C138.882 14.0024 142.8 15.6333 141.82 18.6618C141.796 18.7344 141.772 18.8048 141.743 18.8753C141.325 19.9339 140.346 20.7175 139.206 20.8319C136.923 21.063 134.978 18.5738 136.274 16.5071C136.285 16.4873 136.298 16.4697 136.311 16.4499C136.355 16.3838 136.399 16.3222 136.448 16.2606H132.684V16.386C132.684 18.0345 132.728 19.6126 133.591 21.0674C135.044 23.5192 138.092 24.7429 140.817 23.8472C143.559 22.9448 145.318 20.1562 145.159 17.3104C145.062 15.4661 144.166 13.8836 142.786 12.6841Z" fill="white"/>
<path d="M8.88073 17.9841C8.88073 19.6942 7.79347 21.083 6.08335 21.083C4.37323 21.083 3.28598 19.692 3.28598 17.9841C3.28598 17.9841 3.28598 6.51066 3.28598 6.50626C3.28598 5.01844 4.20597 3.59224 5.76642 3.42497C7.35769 3.2533 8.90934 4.36036 8.90934 6.03306C8.90934 6.21354 8.90934 6.39622 8.88073 6.5921C8.8191 6.99707 8.68925 7.38003 8.47136 7.71677C8.45815 7.73658 8.44714 7.75418 8.43394 7.77399C8.38992 7.83782 8.3437 7.90165 8.29308 7.96327H12.1469V7.84002V7.76959V6.03086C12.1469 4.49022 11.5328 3.01119 10.4412 1.92394C9.35392 0.841085 7.8617 0.18741 6.32545 0.127985C4.7606 0.0685599 3.21115 0.605588 2.05346 1.66423C0.957402 2.66565 0.272915 4.05663 0.0682286 5.52025C0.0220092 5.84378 0 6.17392 0 6.50626V17.9841C0 21.5122 2.55747 24.3711 6.08335 24.3711C9.60923 24.3711 12.1667 21.5122 12.1667 17.9841V16.6085H8.88073V17.9841Z" fill="white"/>
<path d="M182.197 17.7875C182.197 19.491 181.114 20.8754 179.411 20.8754C177.707 20.8754 176.624 19.491 176.624 17.7875C176.624 17.7875 176.624 6.36914 176.624 6.35154C176.624 4.88352 177.599 3.45292 179.125 3.27905C181.398 3.01714 183.053 5.61203 181.79 7.55985C181.779 7.57965 181.662 7.74252 181.614 7.80415H185.454C185.454 7.80415 185.454 5.87834 185.454 5.87614C185.454 2.49112 182.135 -0.251232 178.836 0.021682C175.691 0.281391 173.352 3.29225 173.352 6.35374V17.7897C173.352 21.3046 175.898 24.1526 179.413 24.1526C182.928 24.1526 185.474 21.3046 185.474 17.7897V16.4186H182.199V17.7875H182.197Z" fill="white"/>
</svg>
