<svg width="183" height="24" viewBox="0 0 183 24" fill="none" xmlns="http://www.w3.org/2000/svg">
<g clip-path="url(#clip0_120_1169)">
<path d="M8.21312 17.7291V13.9518H12.425V17.9488C12.425 21.1636 10.8862 23.8801 6.66596 23.8801H5.8966C1.7409 23.8801 0 21.5065 0 17.9167V6.08356C0 2.36779 1.73528 0.152265 5.75901 0.152265H6.54522C10.8638 0.152265 12.4418 2.18026 12.4418 6.04605V8.86168H8.22997V6.23894C8.22997 4.61547 7.74139 3.74212 6.30094 3.74212C4.92506 3.74212 4.40279 4.586 4.40279 6.23894V17.6997C4.40279 19.3526 4.92506 20.2286 6.30094 20.2286C7.72454 20.2286 8.21312 19.291 8.21312 17.7291ZM23.2073 19.3365H18.7905L18.0689 23.6229H14.2417L18.3328 0.369264H23.7661L28.1183 23.5988H23.929L23.2073 19.3365ZM20.9835 6.0139L19.3465 15.8565H22.6205L20.9835 6.0139ZM39.5914 14.8894C39.5269 13.8178 39.5269 12.5158 39.5269 10.603V0.369264H43.2895V23.5988H39.5914L35.5986 12.6417C34.7815 10.3914 34.3884 9.23673 34.1581 8.30177C34.2255 9.55018 34.2564 10.7664 34.2564 12.6417V23.5988H30.4461V0.369264H34.6355L38.1706 10.6111C38.9232 12.765 39.2826 13.858 39.5914 14.8894ZM46.2237 0.369264H53.0694C57.0285 0.369264 58.5981 1.89897 58.5981 5.77012V18.0694C58.5981 21.8494 57.0285 23.5961 53.0694 23.5961H46.2237V0.369264ZM50.576 20.0706H52.1147C53.6843 20.0706 54.2094 19.1972 54.2094 17.5738V6.17732C54.2094 4.49224 53.6843 3.6805 52.1793 3.6805H50.576V20.0706ZM64.6155 14.7126L60.2436 0.369264H64.5621L66.8534 9.64394L69.1446 0.369264H73.2666L68.9818 14.7956V23.5988H64.6295L64.6155 14.7126ZM80.0281 23.6095V0.369264H84.3466V10.7048L88.7466 0.369264H93.0006L88.3535 11.2031L93.4583 23.5988H89.0106L84.3607 12.4837V23.5988L80.0281 23.6095ZM99.9895 23.6095H95.6372V0.369264H99.9895V23.6095ZM106.394 4.05288H102.435V0.369264H114.672V4.05288H110.741V23.6095H106.42L106.394 4.05288ZM120.715 4.05288H116.755V0.369264H128.995V4.05288H125.064V23.6095H120.74L120.715 4.05288ZM142.175 0.369264V3.99126H135.717V9.73771H141.097V13.4535H135.728V19.8831H142.361V23.5988H131.474V0.369264H142.175ZM154.028 14.8894C153.963 13.8178 153.963 12.5158 153.963 10.603V0.369264H157.726V23.5988H154.028L150.035 12.6417C149.218 10.3914 148.825 9.23673 148.597 8.30177C148.662 9.55018 148.695 10.7664 148.695 12.6417V23.5988H144.888V0.369264H149.1L152.632 10.6111C153.373 12.765 153.736 13.858 154.028 14.8894ZM160.345 19.1035V15.2323H164.599V18.4176C164.599 19.6982 165.318 20.3224 166.565 20.3224C167.812 20.3224 168.497 19.6044 168.497 18.1364V17.8872C168.497 16.3548 167.972 15.5431 166.663 14.4206L163.49 11.6719C161.558 10.019 160.511 8.48662 160.511 5.92818V5.27182C160.508 1.8695 162.578 0.120117 166.433 0.120117H167.118C170.687 0.120117 172.748 1.58821 172.748 4.61547V7.67488H168.558V5.4272C168.558 4.02341 167.969 3.46082 166.792 3.46082C165.481 3.46082 164.925 4.11718 164.925 5.33612V5.5558C164.925 6.89529 165.416 7.55433 166.728 8.74112L169.878 11.5166C172.04 13.4535 173.02 14.8573 173.02 17.6059V18.2596C173.02 21.5065 171.156 23.8506 166.933 23.8506H166.214C162.373 23.8506 160.345 22.1013 160.345 19.1035ZM179.257 2.26331C179.832 2.26279 180.395 2.4253 180.873 2.73025C181.352 3.0352 181.725 3.46885 181.945 3.97624C182.165 4.48363 182.222 5.04191 182.109 5.58031C181.996 6.11871 181.718 6.613 181.31 7.0005C180.903 7.38801 180.383 7.65129 179.819 7.75698C179.254 7.86267 178.669 7.806 178.138 7.59416C177.607 7.38232 177.154 7.02485 176.836 6.56705C176.519 6.10926 176.35 5.57175 176.353 5.02268C176.357 4.29008 176.664 3.58866 177.208 3.07164C177.752 2.55461 178.489 2.26401 179.257 2.26331ZM179.257 2.82858C178.799 2.82858 178.352 2.95805 177.971 3.20061C177.591 3.44317 177.294 3.78794 177.119 4.1913C176.944 4.59467 176.898 5.03852 176.987 5.46673C177.077 5.89494 177.297 6.28828 177.621 6.597C177.944 6.90573 178.356 7.11597 178.805 7.20115C179.254 7.28632 179.719 7.24261 180.142 7.07553C180.565 6.90845 180.926 6.62551 181.18 6.26249C181.435 5.89947 181.57 5.47267 181.57 5.03607C181.572 4.74496 181.514 4.45637 181.398 4.18697C181.282 3.91757 181.112 3.67269 180.896 3.46646C180.681 3.26024 180.425 3.09674 180.143 2.98542C179.861 2.8741 179.559 2.81715 179.254 2.81786L179.257 2.82858ZM178.771 6.42111H177.987V3.51172H179.24C179.442 3.50829 179.643 3.53634 179.835 3.59477C179.993 3.63888 180.131 3.73343 180.225 3.86267C180.282 3.94759 180.318 4.04384 180.329 4.14397C180.35 4.27773 180.344 4.41408 180.312 4.54582C180.286 4.64321 180.238 4.73367 180.169 4.81029C180.101 4.8869 180.016 4.94764 179.919 4.98785L179.779 5.04411C179.835 5.07358 179.9 5.10037 179.959 5.13519C180.066 5.21011 180.154 5.30835 180.214 5.42185C180.293 5.56383 180.366 5.70582 180.442 5.84781L180.722 6.36753L180.742 6.40236H179.933C179.925 6.4027 179.916 6.40026 179.909 6.3954C179.902 6.39055 179.896 6.38357 179.894 6.37557C179.768 6.13446 179.644 5.89067 179.518 5.64956C179.483 5.5854 179.443 5.52442 179.397 5.46739C179.363 5.42253 179.319 5.38538 179.268 5.35854C179.217 5.3317 179.16 5.31581 179.102 5.31201C178.995 5.31201 178.889 5.31201 178.782 5.31201L178.771 6.42111ZM178.771 4.81371H179.094C179.156 4.81369 179.218 4.80831 179.279 4.79764C179.34 4.79196 179.398 4.76864 179.444 4.73082C179.491 4.69299 179.524 4.64246 179.54 4.586C179.567 4.49222 179.567 4.39313 179.54 4.29935C179.529 4.25253 179.505 4.20943 179.47 4.17456C179.436 4.13968 179.392 4.11431 179.344 4.1011C179.285 4.08675 179.225 4.07778 179.164 4.07431C179.04 4.07431 178.917 4.07431 178.793 4.07431H178.771V4.81371Z" fill="white"/>
</g>
<defs>
<clipPath id="clip0_120_1169">
<rect width="182.16" height="23.76" fill="white" transform="translate(0 0.120117)"/>
</clipPath>
</defs>
</svg>
