<svg width="88" height="37" viewBox="0 0 88 37" fill="none" xmlns="http://www.w3.org/2000/svg">
<g clip-path="url(#clip0_120_1173)">
<path d="M33.3335 22.2434C33.3335 23.9394 34.6697 24.3693 36.176 24.3693C39.7958 24.3693 39.9416 21.5506 39.9416 20.5473V18.8513C39.1642 19.5202 37.5122 19.568 36.0788 19.8068C34.6454 20.0935 33.3335 20.5712 33.3335 22.2434Z" fill="white"/>
<path d="M72.0357 13.3572C69.0961 13.3572 68.2457 15.6026 68.1729 16.8926H75.7285C75.2912 14.5754 74.2951 13.3572 72.0357 13.3572Z" fill="white"/>
<path d="M18.5639 0.840088C8.57886 0.840088 0.440186 8.84236 0.440186 18.6601C0.440186 28.4778 8.57886 36.4801 18.5639 36.4801H87.2446V0.840088H18.5639ZM19.1956 27.4267C14.0937 27.4267 10.6682 23.8914 10.6682 18.899C10.6682 13.7393 13.8022 9.91733 19.2928 9.91733C23.2771 9.91733 26.9455 11.9716 27.237 16.2236H22.694C22.4024 14.3604 21.1877 13.3571 19.2685 13.3571C16.3046 13.3571 15.3084 16.3192 15.3084 18.7556C15.3084 21.1444 16.2559 23.987 19.1713 23.987C21.3335 23.987 22.5725 22.6493 22.8641 20.6189H27.3342C26.7512 25.0142 23.6414 27.4267 19.1956 27.4267ZM40.4533 26.9729C40.2833 26.4473 40.1617 25.9218 40.1374 25.3724C38.6555 26.8773 36.5176 27.4267 34.4526 27.4267C31.2456 27.4267 28.6948 25.8502 28.6948 22.4343C28.6948 18.684 31.5615 17.7762 34.4526 17.3941C37.295 16.9879 39.9431 17.0836 39.9431 15.2203C39.9431 13.2615 38.5583 12.9749 36.9306 12.9749C35.1571 12.9749 34.0152 13.6915 33.8695 15.4831H29.2292C29.4964 11.2072 33.3835 9.91733 37.1735 9.91733C40.5504 9.91733 44.5834 10.6578 44.5834 14.647V23.2943C44.5834 24.7992 44.7534 26.3041 45.1664 26.9968H40.4533V26.9729ZM54.4955 27.4267C50.5841 27.4267 46.7456 25.9697 46.5512 21.5744H50.9728C50.9971 23.557 52.6978 24.3692 54.5441 24.3692C55.8803 24.3692 57.5809 23.8437 57.5809 22.2432C57.5809 20.8577 55.6617 20.38 52.309 19.6634C49.6366 19.0901 46.94 18.1585 46.94 15.2203C46.94 10.9684 50.657 9.89345 54.3011 9.89345C57.9939 9.89345 61.3952 11.1116 61.7596 15.1964H57.338C57.2165 13.4288 55.8317 12.951 54.1554 12.951C53.1108 12.951 51.5802 13.1421 51.5802 14.5037C51.5802 16.1519 54.2039 16.3669 56.8521 16.988C59.5731 17.6091 62.2212 18.5646 62.2212 21.646C62.2212 26.0174 58.3584 27.4267 54.4955 27.4267ZM80.3692 19.7828H68.1734C68.2948 22.6732 69.7525 23.987 72.3277 23.987C74.1984 23.987 75.7046 22.8643 75.9962 21.8371H80.0777C78.7658 25.7547 75.9962 27.4267 72.1577 27.4267C66.8372 27.4267 63.5331 23.8198 63.5331 18.684C63.5331 13.6915 67.0315 9.91733 72.1577 9.91733C77.9155 9.91733 80.685 14.6709 80.3692 19.7828Z" fill="white"/>
</g>
<defs>
<clipPath id="clip0_120_1173">
<rect width="87.12" height="35.64" fill="white" transform="translate(0.440186 0.840088)"/>
</clipPath>
</defs>
</svg>
