<svg width="204" height="42" viewBox="0 0 204 42" fill="none" xmlns="http://www.w3.org/2000/svg">
<path d="M182.484 26.7487V13.2446H184.686V18.2566H184.724C185.008 17.8027 185.413 17.4308 185.941 17.1408C186.482 16.8508 187.074 16.7058 187.718 16.7058C188.825 16.7058 189.687 16.9895 190.305 17.5569C190.936 18.1243 191.251 18.9501 191.251 20.0345V26.7487H189.05V20.6019C189.05 19.1393 188.4 18.408 187.1 18.408C186.379 18.408 185.793 18.6538 185.342 19.1456C184.905 19.6373 184.686 20.2488 184.686 20.9802V26.7487H182.484Z" fill="white"/>
<path d="M181.853 20.2424H179.652C179.472 19.0193 178.712 18.4078 177.373 18.4078C176.639 18.4078 176.041 18.6284 175.577 19.0697C174.946 19.675 174.631 20.6395 174.631 21.9635C174.631 22.8839 174.831 23.6467 175.23 24.252C175.706 24.9581 176.388 25.3111 177.277 25.3111C177.92 25.3111 178.448 25.1157 178.86 24.7248C179.285 24.3213 179.549 23.7728 179.652 23.0793H181.853C181.428 25.702 179.903 27.0133 177.277 27.0133C175.758 27.0133 174.56 26.5279 173.685 25.557C172.848 24.6491 172.43 23.4513 172.43 21.9635C172.43 20.4126 172.842 19.1643 173.666 18.2186C174.541 17.2099 175.77 16.7056 177.354 16.7056C178.577 16.7056 179.587 16.9956 180.386 17.5756C181.261 18.206 181.75 19.0949 181.853 20.2424Z" fill="white"/>
<path d="M162.984 26.7485V16.9704H165.07V18.4078L165.109 18.4456C165.817 17.2856 166.853 16.7056 168.218 16.7056C169.325 16.7056 170.187 16.9893 170.805 17.5567C171.436 18.1241 171.751 18.9499 171.751 20.0343V26.7485H169.55V20.6017C169.55 19.1391 168.9 18.4078 167.6 18.4078C166.879 18.4078 166.293 18.6536 165.842 19.1454C165.405 19.6371 165.186 20.2487 165.186 20.98V26.7485H162.984Z" fill="white"/>
<path d="M161.822 16.9707V26.7489H159.659V25.3871H159.62C159.35 25.8662 158.944 26.2571 158.404 26.5597C157.876 26.8623 157.335 27.0137 156.782 27.0137C154.297 27.0137 153.055 25.7339 153.055 23.1743V16.9707H155.256V22.9662C155.256 24.5297 155.893 25.3115 157.168 25.3115C158.803 25.3115 159.62 24.4225 159.62 22.6447V16.9707H161.822Z" fill="white"/>
<path d="M149.642 23.4576V21.85C149.359 22.0265 148.947 22.1589 148.406 22.2472C147.917 22.3102 147.428 22.3732 146.939 22.4363C145.741 22.638 145.143 23.1802 145.143 24.0628C145.143 24.4915 145.387 24.8194 145.877 25.0463C146.25 25.2228 146.681 25.3111 147.17 25.3111C147.763 25.3111 148.297 25.1724 148.773 24.895C149.353 24.5546 149.642 24.0754 149.642 23.4576ZM151.844 19.5426V24.5735C151.844 25.0652 152.017 25.3111 152.365 25.3111C152.571 25.3111 152.751 25.2985 152.906 25.2733V26.7674C152.429 26.9313 151.966 27.0133 151.515 27.0133C150.537 27.0133 149.97 26.6161 149.816 25.8218C148.992 26.6161 147.84 27.0133 146.359 27.0133C145.394 27.0133 144.602 26.7737 143.984 26.2946C143.289 25.7776 142.941 25.0652 142.941 24.1574C142.941 23.073 143.353 22.2913 144.177 21.8122C144.679 21.5221 145.548 21.2889 146.784 21.1124C148.175 20.9106 148.87 20.8097 148.87 20.8097C149.475 20.6332 149.777 20.2739 149.777 19.7317C149.777 18.8491 149.089 18.4078 147.711 18.4078C146.334 18.4078 145.6 18.9247 145.51 19.9587H143.308C143.437 17.7899 144.95 16.7056 147.846 16.7056C148.941 16.7056 149.848 16.9199 150.569 17.3486C151.419 17.853 151.844 18.5843 151.844 19.5426Z" fill="white"/>
<path d="M133.859 26.7487V13.2446H136.273V24.7061H143.283V26.7487H133.859Z" fill="white"/>
<path d="M122.188 34.7194V6.75474C122.188 3.0242 125.275 8.52952e-07 129.084 0H179.981C180.743 0 181.36 0.60484 181.36 1.35095C181.36 2.09706 180.743 2.7019 179.981 2.7019H129.084C126.799 2.7019 124.946 4.51642 124.946 6.75474V34.7194C124.946 36.9577 126.799 38.7722 129.084 38.7722H196.533C198.818 38.7722 200.671 36.9577 200.671 34.7194V21.345C200.671 20.5989 201.289 19.994 202.05 19.994C202.812 19.994 203.43 20.5989 203.43 21.345V34.7194C203.43 38.4499 200.342 41.4741 196.533 41.4741H129.084C125.275 41.4741 122.188 38.4499 122.188 34.7194Z" fill="white"/>
<path d="M114.113 26.5761H97.3404C97.3404 28.4494 97.8406 29.9913 98.8411 31.2017C99.9298 32.5275 101.475 33.1903 103.476 33.1903C106.3 33.1903 108.154 31.951 109.037 29.4725H113.804C113.274 31.8646 112.053 33.7379 110.14 35.0925C108.257 36.4182 106.036 37.0811 103.476 37.0811C99.974 37.0811 97.2374 36.0003 95.2659 33.8388C93.2944 31.6773 92.3086 28.8385 92.3086 25.3224C92.3086 22.0369 93.2944 19.2701 95.2659 17.0222C97.3551 14.6877 100.048 13.5205 103.343 13.5205C106.551 13.5205 109.184 14.6733 111.244 16.9789C113.215 19.1405 114.201 21.7919 114.201 24.9333C114.201 25.4809 114.172 26.0285 114.113 26.5761ZM97.3404 23.3338H109.081C108.993 21.691 108.419 20.2933 107.36 19.1405C106.33 17.9876 104.991 17.4112 103.343 17.4112C101.636 17.4112 100.224 17.9732 99.1059 19.0972C97.9877 20.2212 97.3992 21.6334 97.3404 23.3338Z" fill="white"/>
<path d="M85.9883 36.4758V5.60938H91.0201V36.4758H85.9883Z" fill="white"/>
<path d="M73.4258 36.4758V14.1257H78.1486V18.4488H78.2369C78.5311 17.2095 79.3403 16.0855 80.6645 15.0768C81.9886 14.0393 83.4011 13.5205 84.9018 13.5205C85.2843 13.5205 85.9169 13.5637 86.7997 13.6502V18.4055C85.6227 18.2614 84.9017 18.1894 84.6369 18.1894C82.842 18.1894 81.3854 18.8523 80.2672 20.178C79.0608 21.5614 78.4576 23.4491 78.4576 25.8412V36.4758H73.4258Z" fill="white"/>
<path d="M66.0699 28.9537V25.2792C65.4226 25.6826 64.4809 25.9853 63.2451 26.187C62.1269 26.3311 61.0087 26.4752 59.8905 26.6193C57.154 27.0804 55.7857 28.3197 55.7857 30.3371C55.7857 31.317 56.3448 32.0663 57.4629 32.5851C58.3163 32.9886 59.302 33.1903 60.4202 33.1903C61.7738 33.1903 62.9949 32.8733 64.0837 32.2393C65.4078 31.4611 66.0699 30.3659 66.0699 28.9537ZM71.1017 20.0051V31.5043C71.1017 32.6283 71.4989 33.1903 72.2934 33.1903C72.7642 33.1903 73.1762 33.1615 73.5293 33.1039V36.5191C72.4405 36.8937 71.3812 37.0811 70.3513 37.0811C68.115 37.0811 66.8203 36.1732 66.4672 34.3575C64.5839 36.1732 61.9503 37.0811 58.5664 37.0811C56.3595 37.0811 54.5498 36.5335 53.1374 35.4383C51.5484 34.2567 50.7539 32.6283 50.7539 30.5533C50.7539 28.0747 51.6955 26.2879 53.5788 25.1927C54.7264 24.5298 56.7126 23.9967 59.5374 23.5932C62.7154 23.1321 64.3044 22.9015 64.3044 22.9015C65.6874 22.498 66.3789 21.6766 66.3789 20.4374C66.3789 18.4199 64.8046 17.4112 61.6561 17.4112C58.5075 17.4112 56.8303 18.5929 56.6243 20.9561H51.5925C51.8868 15.999 55.3443 13.5205 61.9651 13.5205C64.4662 13.5205 66.5407 14.0105 68.1886 14.9903C70.1306 16.1431 71.1017 17.8147 71.1017 20.0051Z" fill="white"/>
<path d="M29.7344 36.4758V5.60938H34.7661V17.0654H34.8544C35.5018 16.0279 36.4287 15.1777 37.6351 14.5148C38.871 13.852 40.2246 13.5205 41.6959 13.5205C44.2265 13.5205 46.198 14.169 47.6104 15.4659C49.0523 16.7628 49.7732 18.6505 49.7732 21.1291V36.4758H44.7414V22.426C44.7414 19.0828 43.2554 17.4113 40.2834 17.4113C38.6356 17.4113 37.2967 17.9733 36.2669 19.0972C35.2664 20.2212 34.7661 21.619 34.7661 23.2906V36.4758H29.7344Z" fill="white"/>
<path d="M28.4692 15.4227H22.9519C21.8926 11.3302 19.2737 9.28401 15.0953 9.28401C11.9468 9.28401 9.50446 10.5089 7.76835 12.9586C6.26765 15.0913 5.51729 17.786 5.51729 21.0427C5.51729 24.2993 6.26765 26.994 7.76835 29.1267C9.50446 31.5765 11.9468 32.8013 15.0953 32.8013C17.4494 32.8013 19.3473 32.0088 20.7892 30.4237C22.1133 28.9826 22.8931 27.0805 23.1285 24.7172H28.5134C28.278 28.4351 26.9244 31.4468 24.4526 33.7524C22.0103 36.058 18.8912 37.2108 15.0953 37.2108C10.5049 37.2108 6.81202 35.6113 4.01659 32.4122C1.33886 29.3861 0 25.5963 0 21.0427C0 16.4602 1.33886 12.656 4.01659 9.62985C6.81202 6.45962 10.5049 4.87451 15.0953 4.87451C18.7147 4.87451 21.7455 5.79676 24.1878 7.64125C26.7184 9.57221 28.1456 12.166 28.4692 15.4227Z" fill="white"/>
</svg>
