<svg width="216" height="41" viewBox="0 0 216 41" fill="none" xmlns="http://www.w3.org/2000/svg">
<path d="M194.914 26.443V13.0933H197.046V20.6843L200.897 16.7766H203.515L199.813 20.329L203.87 26.443H201.271L198.317 21.75L197.046 22.984V26.443H194.914Z" fill="white"/>
<path d="M185.762 23.3391H187.893C187.993 24.4609 188.722 25.0218 190.081 25.0218C191.552 25.0218 192.268 24.598 192.231 23.7504C192.206 23.1521 191.645 22.7221 190.548 22.4603C188.716 22.0116 187.725 21.7498 187.575 21.675C186.503 21.2014 185.967 20.4036 185.967 19.2818C185.967 18.322 186.422 17.5991 187.332 17.113C188.055 16.7141 188.946 16.5146 190.006 16.5146C191.09 16.5146 191.982 16.739 192.68 17.1877C193.465 17.7113 193.92 18.4778 194.045 19.4875H191.82C191.658 18.6274 191.003 18.1974 189.856 18.1974C188.685 18.1974 188.099 18.5277 188.099 19.1883C188.099 19.6371 188.429 19.9798 189.09 20.2167C189.214 20.2665 189.931 20.441 191.24 20.7402C192.212 20.9646 192.929 21.2388 193.39 21.5629C194.038 22.0365 194.362 22.7034 194.362 23.5634C194.362 24.6229 193.895 25.4332 192.96 25.9941C192.175 26.4677 191.203 26.7046 190.043 26.7046C188.772 26.7046 187.762 26.4303 187.014 25.8819C186.192 25.2836 185.774 24.436 185.762 23.3391Z" fill="white"/>
<path d="M185.783 22.1612H178.678C178.678 22.9714 178.89 23.6382 179.314 24.1617C179.775 24.7351 180.43 25.0218 181.277 25.0218C182.474 25.0218 183.259 24.4858 183.633 23.4139H185.652C185.428 24.4484 184.911 25.2586 184.1 25.8445C183.303 26.4179 182.362 26.7046 181.277 26.7046C179.794 26.7046 178.635 26.2371 177.8 25.3023C176.964 24.3674 176.547 23.1396 176.547 21.6189C176.547 20.198 176.964 19.0014 177.8 18.0291C178.685 17.0195 179.825 16.5146 181.221 16.5146C182.58 16.5146 183.695 17.0132 184.568 18.0104C185.403 18.9453 185.821 20.092 185.821 21.4507C185.821 21.6875 185.808 21.9243 185.783 22.1612ZM178.678 20.7589H183.652C183.614 20.0484 183.371 19.4439 182.923 18.9453C182.486 18.4467 181.919 18.1974 181.221 18.1974C180.498 18.1974 179.9 18.4404 179.426 18.9266C178.953 19.4127 178.703 20.0235 178.678 20.7589Z" fill="white"/>
<path d="M167.282 15.0004V24.5359H169.582C171.277 24.5359 172.48 24.0747 173.191 23.1523C173.752 22.4044 174.032 21.2763 174.032 19.7681C174.032 18.2599 173.752 17.1318 173.191 16.3839C172.48 15.4616 171.277 15.0004 169.582 15.0004H167.282ZM164.945 26.443V13.0933H170.48C172.437 13.0933 173.932 13.7477 174.967 15.0565C175.902 16.2281 176.369 17.7987 176.369 19.7681C176.369 21.7375 175.902 23.3081 174.967 24.4798C173.932 25.7886 172.437 26.443 170.48 26.443H164.945Z" fill="white"/>
<path d="M161.836 21.6189C161.836 20.6841 161.612 19.8926 161.163 19.2444C160.664 18.5464 159.997 18.1974 159.162 18.1974C158.29 18.1974 157.617 18.5028 157.143 19.1135C156.682 19.7243 156.451 20.5594 156.451 21.6189C156.451 22.6161 156.694 23.4326 157.18 24.0683C157.667 24.704 158.327 25.0218 159.162 25.0218C160.06 25.0218 160.752 24.6666 161.238 23.9561C161.637 23.3453 161.836 22.5663 161.836 21.6189ZM154.395 30.0139V16.7764H156.414V18.0852H156.451C157.025 17.0382 158.022 16.5146 159.443 16.5146C160.901 16.5146 162.035 17.0195 162.846 18.0291C163.593 18.9515 163.967 20.1606 163.967 21.6563C163.967 23.0649 163.631 24.2303 162.958 25.1527C162.197 26.1873 161.144 26.7046 159.798 26.7046C158.277 26.7046 157.199 26.1997 156.563 25.1901H156.526V30.0139H154.395Z" fill="white"/>
<path d="M151.004 26.443V13.0933H153.135V26.443H151.004Z" fill="white"/>
<path d="M150.451 22.1612H143.346C143.346 22.9714 143.558 23.6382 143.982 24.1617C144.443 24.7351 145.098 25.0218 145.945 25.0218C147.142 25.0218 147.927 24.4858 148.301 23.4139H150.32C150.096 24.4484 149.579 25.2586 148.768 25.8445C147.971 26.4179 147.03 26.7046 145.945 26.7046C144.462 26.7046 143.303 26.2371 142.468 25.3023C141.632 24.3674 141.215 23.1396 141.215 21.6189C141.215 20.198 141.632 19.0014 142.468 18.0291C143.353 17.0195 144.493 16.5146 145.889 16.5146C147.248 16.5146 148.363 17.0132 149.236 18.0104C150.071 18.9453 150.489 20.092 150.489 21.4507C150.489 21.6875 150.476 21.9243 150.451 22.1612ZM143.346 20.7589H148.32C148.282 20.0484 148.039 19.4439 147.591 18.9453C147.154 18.4467 146.587 18.1974 145.889 18.1974C145.166 18.1974 144.568 18.4404 144.094 18.9266C143.621 19.4127 143.371 20.0235 143.346 20.7589Z" fill="white"/>
<path d="M129.551 26.443V13.0933H131.888V18.4032H137.964V13.0933H140.302V26.443H137.964V20.4225H131.888V26.443H129.551Z" fill="white"/>
<path d="M118.305 34.3225V6.67752C118.305 2.98963 121.294 0 124.982 0H186.549C187.287 0 187.884 0.597926 187.884 1.33551C187.884 2.07308 187.287 2.67101 186.549 2.67101H124.982C122.769 2.67101 120.976 4.46479 120.976 6.67752V34.3225C120.976 36.5352 122.769 38.329 124.982 38.329H208.985C211.198 38.329 212.992 36.5352 212.992 34.3225V21.101C212.992 20.3634 213.59 19.7655 214.327 19.7655C215.065 19.7655 215.663 20.3634 215.663 21.101V34.3225C215.663 38.0104 212.673 41 208.985 41H124.982C121.294 41 118.305 38.0104 118.305 34.3225Z" fill="white"/>
<path d="M110.487 26.272H94.2469C94.2469 28.1239 94.7313 29.6482 95.6999 30.8448C96.7541 32.1554 98.2499 32.8107 100.187 32.8107C102.922 32.8107 104.717 31.5856 105.572 29.1354H110.188C109.675 31.5001 108.492 33.352 106.64 34.6911C104.817 36.0016 102.666 36.6569 100.187 36.6569C96.7968 36.6569 94.1472 35.5885 92.2383 33.4517C90.3294 31.3149 89.375 28.5086 89.375 25.0327C89.375 21.7847 90.3294 19.0496 92.2383 16.8274C94.2612 14.5196 96.8681 13.3657 100.059 13.3657C103.165 13.3657 105.714 14.5054 107.709 16.7846C109.618 18.9214 110.572 21.5426 110.572 24.6481C110.572 25.1894 110.544 25.7307 110.487 26.272ZM94.2469 23.0668H105.615C105.529 21.4429 104.974 20.0611 103.948 18.9214C102.951 17.7818 101.655 17.212 100.059 17.212C98.4066 17.212 97.039 17.7675 95.9564 18.8787C94.8737 19.9898 94.3039 21.3859 94.2469 23.0668Z" fill="white"/>
<path d="M83.2578 36.0585V5.54492H88.1297V36.0585H83.2578Z" fill="white"/>
<path d="M71.0938 36.0586V13.964H75.6665V18.2376H75.752C76.0369 17.0125 76.8204 15.9014 78.1025 14.9042C79.3846 13.8786 80.7521 13.3657 82.2052 13.3657C82.5755 13.3657 83.1881 13.4085 84.0428 13.4939V18.1949C82.9032 18.0525 82.2051 17.9812 81.9487 17.9812C80.2108 17.9812 78.8005 18.6365 77.7179 19.9471C76.5497 21.3146 75.9657 23.1808 75.9657 25.5455V36.0586H71.0938Z" fill="white"/>
<path d="M63.9701 28.6225V24.99C63.3433 25.3888 62.4316 25.688 61.235 25.8874C60.1523 26.0299 59.0697 26.1723 57.987 26.3148C55.3374 26.7706 54.0125 27.9957 54.0125 29.9901C54.0125 30.9588 54.5539 31.6995 55.6365 32.2124C56.4628 32.6112 57.4172 32.8107 58.4998 32.8107C59.8104 32.8107 60.9928 32.4973 62.0469 31.8705C63.329 31.1012 63.9701 30.0186 63.9701 28.6225ZM68.842 19.7761V31.144C68.842 32.2551 69.2266 32.8107 69.9959 32.8107C70.4517 32.8107 70.8506 32.7822 71.1925 32.7252V36.1014C70.1383 36.4717 69.1127 36.6569 68.1155 36.6569C65.9502 36.6569 64.6966 35.7595 64.3547 33.9646C62.5313 35.7595 59.9814 36.6569 56.7049 36.6569C54.5681 36.6569 52.8159 36.1156 51.4484 35.033C49.9099 33.8648 49.1406 32.2551 49.1406 30.2038C49.1406 27.7536 50.0523 25.9871 51.8757 24.9045C52.9869 24.2492 54.91 23.7221 57.6451 23.3232C60.7221 22.8674 62.2606 22.6395 62.2606 22.6395C63.5997 22.2406 64.2692 21.4286 64.2692 20.2035C64.2692 18.2092 62.745 17.212 59.6965 17.212C56.6479 17.212 55.024 18.3801 54.8245 20.7163H49.9526C50.2375 15.8159 53.5852 13.3657 59.9956 13.3657C62.4173 13.3657 64.4259 13.8501 66.0214 14.8188C67.9018 15.9584 68.842 17.6108 68.842 19.7761Z" fill="white"/>
<path d="M28.7891 36.0585V5.54492H33.661V16.87H33.7465C34.3733 15.8443 35.2707 15.0039 36.4388 14.3486C37.6354 13.6933 38.946 13.3656 40.3706 13.3656C42.8208 13.3656 44.7297 14.0067 46.0972 15.2888C47.4933 16.5709 48.1913 18.437 48.1913 20.8872V36.0585H43.3194V22.1693C43.3194 18.8644 41.8806 17.2119 39.003 17.2119C37.4075 17.2119 36.1112 17.7675 35.114 18.8786C34.1453 19.9897 33.661 21.3715 33.661 23.024V36.0585H28.7891Z" fill="white"/>
<path d="M27.5648 15.246H22.2228C21.1971 11.2003 18.6615 9.17745 14.6158 9.17745C11.5673 9.17745 9.20252 10.3883 7.52156 12.81C6.06853 14.9183 5.34202 17.5822 5.34202 20.8017C5.34202 24.0211 6.06853 26.685 7.52156 28.7933C9.20252 31.2151 11.5673 32.4259 14.6158 32.4259C16.895 32.4259 18.7327 31.6424 20.1287 30.0754C21.4108 28.6509 22.1658 26.7705 22.3937 24.4343H27.6076C27.3796 28.1096 26.0691 31.0868 23.6758 33.3661C21.3111 35.6454 18.2911 36.785 14.6158 36.785C10.1712 36.785 6.59561 35.2038 3.88899 32.0413C1.29633 29.0498 0 25.3032 0 20.8017C0 16.2716 1.29633 12.5109 3.88899 9.51933C6.59561 6.38535 10.1712 4.81836 14.6158 4.81836C18.1201 4.81836 21.0547 5.73006 23.4194 7.55347C25.8696 9.46235 27.2514 12.0265 27.5648 15.246Z" fill="white"/>
</svg>
