<svg width="197" height="41" viewBox="0 0 197 41" fill="none" xmlns="http://www.w3.org/2000/svg">
<path d="M184.449 21.6191C184.449 20.6843 184.225 19.8928 183.776 19.2446C183.278 18.5466 182.611 18.1976 181.776 18.1976C180.903 18.1976 180.23 18.5029 179.756 19.1137C179.295 19.7245 179.064 20.5596 179.064 21.6191C179.064 22.6163 179.308 23.4327 179.794 24.0684C180.28 24.7041 180.94 25.022 181.776 25.022C182.673 25.022 183.365 24.6667 183.851 23.9563C184.25 23.3455 184.449 22.5664 184.449 21.6191ZM177.008 26.443V13.0933H179.139V18.0293H179.177C179.463 17.5681 179.875 17.2004 180.411 16.9262C180.947 16.6519 181.495 16.5148 182.056 16.5148C183.514 16.5148 184.649 17.0196 185.459 18.0293C186.207 18.9517 186.581 20.1608 186.581 21.6565C186.581 23.065 186.244 24.2305 185.571 25.1529C184.811 26.1874 183.757 26.7047 182.411 26.7047C180.716 26.7047 179.6 26.175 179.064 25.1155H179.027V26.443H177.008Z" fill="white"/>
<path d="M173.652 23.1895V21.6003C173.378 21.7748 172.979 21.9056 172.455 21.9929C171.982 22.0552 171.508 22.1175 171.034 22.1799C169.875 22.3793 169.296 22.9153 169.296 23.7878C169.296 24.2116 169.532 24.5357 170.006 24.7601C170.367 24.9346 170.785 25.0218 171.259 25.0218C171.832 25.0218 172.349 24.8847 172.811 24.6105C173.371 24.2739 173.652 23.8003 173.652 23.1895ZM175.783 19.3192V24.2926C175.783 24.7788 175.952 25.0218 176.288 25.0218C176.488 25.0218 176.662 25.0093 176.812 24.9844V26.4615C176.351 26.6235 175.902 26.7046 175.466 26.7046C174.518 26.7046 173.97 26.3119 173.82 25.5266C173.022 26.3119 171.907 26.7046 170.473 26.7046C169.539 26.7046 168.772 26.4677 168.174 25.9941C167.501 25.483 167.164 24.7788 167.164 23.8813C167.164 22.8093 167.563 22.0365 168.361 21.5629C168.847 21.2762 169.688 21.0456 170.885 20.8711C172.231 20.6716 172.904 20.5719 172.904 20.5719C173.49 20.3974 173.783 20.0422 173.783 19.5062C173.783 18.6336 173.116 18.1974 171.782 18.1974C170.449 18.1974 169.738 18.7084 169.651 19.7305H167.519C167.644 17.5866 169.109 16.5146 171.913 16.5146C172.973 16.5146 173.851 16.7265 174.549 17.1503C175.372 17.6489 175.783 18.3719 175.783 19.3192Z" fill="white"/>
<path d="M158.371 26.443V13.0933H160.708V24.4237H167.495V26.443H158.371Z" fill="white"/>
<path d="M157.572 22.1612H150.467C150.467 22.9714 150.679 23.6382 151.103 24.1617C151.564 24.7351 152.219 25.0218 153.066 25.0218C154.263 25.0218 155.048 24.4858 155.422 23.4139H157.441C157.217 24.4484 156.7 25.2586 155.89 25.8445C155.092 26.4179 154.151 26.7046 153.066 26.7046C151.583 26.7046 150.424 26.2371 149.589 25.3023C148.754 24.3674 148.336 23.1396 148.336 21.6189C148.336 20.198 148.754 19.0014 149.589 18.0291C150.474 17.0195 151.614 16.5146 153.01 16.5146C154.369 16.5146 155.484 17.0132 156.357 18.0104C157.192 18.9453 157.61 20.092 157.61 21.4507C157.61 21.6875 157.597 21.9243 157.572 22.1612ZM150.467 20.7589H155.441C155.403 20.0484 155.16 19.4439 154.712 18.9453C154.275 18.4467 153.708 18.1974 153.01 18.1974C152.287 18.1974 151.689 18.4404 151.215 18.9266C150.742 19.4127 150.492 20.0235 150.467 20.7589Z" fill="white"/>
<path d="M142.727 18.3657V16.7765H144.335V13.8784H146.466V16.7765H148.392V18.3657H146.466V23.5261C146.466 24.0247 146.516 24.355 146.616 24.5171C146.753 24.7414 147.046 24.8536 147.494 24.8536C147.893 24.8536 148.192 24.8287 148.392 24.7788V26.4242C147.457 26.4989 146.996 26.5363 147.008 26.5363C145.961 26.5363 145.238 26.3244 144.839 25.9006C144.503 25.5516 144.335 24.9409 144.335 24.0683V18.3657H142.727Z" fill="white"/>
<path d="M140.367 26.443V16.7766H142.499V26.443H140.367ZM140.367 15.1125V13.0933H142.499V15.1125H140.367Z" fill="white"/>
<path d="M128.805 21.993H131.142C131.142 22.9653 131.472 23.7007 132.133 24.1993C132.719 24.6356 133.516 24.8537 134.526 24.8537C135.486 24.8537 136.215 24.6418 136.714 24.218C137.137 23.8565 137.349 23.3953 137.349 22.8344C137.349 22.0117 136.982 21.4633 136.246 21.1891C136.146 21.1517 134.819 20.784 132.264 20.0859C130.294 19.55 129.31 18.4219 129.31 16.7018C129.31 15.4428 129.821 14.4519 130.843 13.7289C131.753 13.0932 132.868 12.7754 134.189 12.7754C135.648 12.7754 136.851 13.1369 137.798 13.8598C138.808 14.6451 139.312 15.7046 139.312 17.0383H136.975C136.876 15.4678 135.916 14.6825 134.096 14.6825C133.448 14.6825 132.906 14.8009 132.469 15.0377C131.921 15.3494 131.647 15.8105 131.647 16.4213C131.647 17.2814 132.176 17.8548 133.236 18.1414C134.295 18.4157 135.579 18.7585 137.087 19.1698C137.923 19.4191 138.577 19.8803 139.051 20.5534C139.474 21.1641 139.686 21.8372 139.686 22.5727C139.686 23.9687 139.132 25.0407 138.022 25.7885C137.063 26.4367 135.847 26.7608 134.376 26.7608C132.756 26.7608 131.453 26.3806 130.469 25.6203C129.384 24.7851 128.83 23.5761 128.805 21.993Z" fill="white"/>
<path d="M118.305 34.3225V6.67752C118.305 2.98963 121.294 8.43201e-07 124.982 0H174.262C175 0 175.598 0.597926 175.598 1.33551C175.598 2.07308 175 2.67101 174.262 2.67101H124.982C122.769 2.67101 120.976 4.46479 120.976 6.67752V34.3225C120.976 36.5352 122.769 38.329 124.982 38.329H190.288C192.501 38.329 194.295 36.5352 194.295 34.3225V21.101C194.295 20.3634 194.893 19.7655 195.63 19.7655C196.368 19.7655 196.966 20.3634 196.966 21.101V34.3225C196.966 38.0104 193.976 41 190.288 41H124.982C121.294 41 118.305 38.0104 118.305 34.3225Z" fill="white"/>
<path d="M110.487 26.272H94.2469C94.2469 28.1239 94.7313 29.6482 95.6999 30.8448C96.7541 32.1554 98.2499 32.8107 100.187 32.8107C102.922 32.8107 104.717 31.5856 105.572 29.1354H110.188C109.675 31.5001 108.492 33.352 106.64 34.6911C104.817 36.0016 102.666 36.6569 100.187 36.6569C96.7968 36.6569 94.1472 35.5885 92.2383 33.4517C90.3294 31.3149 89.375 28.5086 89.375 25.0327C89.375 21.7847 90.3294 19.0496 92.2383 16.8274C94.2612 14.5196 96.8681 13.3657 100.059 13.3657C103.165 13.3657 105.714 14.5054 107.709 16.7846C109.618 18.9214 110.572 21.5426 110.572 24.6481C110.572 25.1894 110.544 25.7307 110.487 26.272ZM94.2469 23.0668H105.615C105.529 21.4429 104.974 20.0611 103.948 18.9214C102.951 17.7818 101.655 17.212 100.059 17.212C98.4066 17.212 97.039 17.7675 95.9564 18.8787C94.8737 19.9898 94.3039 21.3859 94.2469 23.0668Z" fill="white"/>
<path d="M83.2578 36.0585V5.54492H88.1297V36.0585H83.2578Z" fill="white"/>
<path d="M71.0938 36.0586V13.964H75.6665V18.2376H75.752C76.0369 17.0125 76.8204 15.9014 78.1025 14.9042C79.3846 13.8786 80.7521 13.3657 82.2052 13.3657C82.5755 13.3657 83.1881 13.4085 84.0428 13.4939V18.1949C82.9032 18.0525 82.2051 17.9812 81.9487 17.9812C80.2108 17.9812 78.8005 18.6365 77.7179 19.9471C76.5497 21.3146 75.9657 23.1808 75.9657 25.5455V36.0586H71.0938Z" fill="white"/>
<path d="M63.9701 28.6225V24.99C63.3433 25.3888 62.4316 25.688 61.235 25.8874C60.1523 26.0299 59.0697 26.1723 57.987 26.3148C55.3374 26.7706 54.0125 27.9957 54.0125 29.9901C54.0125 30.9588 54.5539 31.6995 55.6365 32.2124C56.4628 32.6112 57.4172 32.8107 58.4998 32.8107C59.8104 32.8107 60.9928 32.4973 62.0469 31.8705C63.329 31.1012 63.9701 30.0186 63.9701 28.6225ZM68.842 19.7761V31.144C68.842 32.2551 69.2266 32.8107 69.9959 32.8107C70.4517 32.8107 70.8506 32.7822 71.1925 32.7252V36.1014C70.1383 36.4717 69.1127 36.6569 68.1155 36.6569C65.9502 36.6569 64.6966 35.7595 64.3547 33.9646C62.5313 35.7595 59.9814 36.6569 56.7049 36.6569C54.5681 36.6569 52.8159 36.1156 51.4484 35.033C49.9099 33.8648 49.1406 32.2551 49.1406 30.2038C49.1406 27.7536 50.0523 25.9871 51.8757 24.9045C52.9869 24.2492 54.91 23.7221 57.6451 23.3232C60.7221 22.8674 62.2606 22.6395 62.2606 22.6395C63.5997 22.2406 64.2692 21.4286 64.2692 20.2035C64.2692 18.2092 62.745 17.212 59.6965 17.212C56.6479 17.212 55.024 18.3801 54.8245 20.7163H49.9526C50.2375 15.8159 53.5852 13.3657 59.9956 13.3657C62.4173 13.3657 64.4259 13.8501 66.0214 14.8188C67.9018 15.9584 68.842 17.6108 68.842 19.7761Z" fill="white"/>
<path d="M28.7891 36.0585V5.54492H33.661V16.87H33.7465C34.3733 15.8443 35.2707 15.0039 36.4388 14.3486C37.6354 13.6933 38.946 13.3656 40.3706 13.3656C42.8208 13.3656 44.7297 14.0067 46.0972 15.2888C47.4933 16.5709 48.1913 18.437 48.1913 20.8872V36.0585H43.3194V22.1693C43.3194 18.8644 41.8806 17.2119 39.003 17.2119C37.4075 17.2119 36.1112 17.7675 35.114 18.8786C34.1453 19.9897 33.661 21.3715 33.661 23.024V36.0585H28.7891Z" fill="white"/>
<path d="M27.5648 15.246H22.2228C21.1971 11.2003 18.6615 9.17745 14.6158 9.17745C11.5673 9.17745 9.20252 10.3883 7.52156 12.81C6.06853 14.9183 5.34202 17.5822 5.34202 20.8017C5.34202 24.0211 6.06853 26.685 7.52156 28.7933C9.20252 31.2151 11.5673 32.4259 14.6158 32.4259C16.895 32.4259 18.7327 31.6424 20.1287 30.0754C21.4108 28.6509 22.1658 26.7705 22.3937 24.4343H27.6076C27.3796 28.1096 26.0691 31.0868 23.6758 33.3661C21.3111 35.6454 18.2911 36.785 14.6158 36.785C10.1712 36.785 6.59561 35.2038 3.88899 32.0413C1.29633 29.0498 0 25.3032 0 20.8017C0 16.2716 1.29633 12.5109 3.88899 9.51933C6.59561 6.38535 10.1712 4.81836 14.6158 4.81836C18.1201 4.81836 21.0547 5.73006 23.4194 7.55347C25.8696 9.46235 27.2514 12.0265 27.5648 15.246Z" fill="white"/>
</svg>
