<svg width="189" height="41" viewBox="0 0 189 41" fill="none" xmlns="http://www.w3.org/2000/svg">
<path d="M168.379 26.4428V16.7764H170.398V18.1974L170.436 18.2348C171.121 17.088 172.125 16.5146 173.446 16.5146C174.518 16.5146 175.353 16.7951 175.951 17.356C176.562 17.9169 176.867 18.7334 176.867 19.8053V26.4428H174.736V20.3662C174.736 18.9203 174.106 18.1974 172.848 18.1974C172.149 18.1974 171.582 18.4404 171.146 18.9266C170.722 19.4127 170.51 20.0172 170.51 20.7402V26.4428H168.379Z" fill="white"/>
<path d="M165.047 26.443V16.7766H167.178V26.443H165.047ZM165.047 15.1125V13.0933H167.178V15.1125H165.047Z" fill="white"/>
<path d="M161.687 23.1895V21.6003C161.413 21.7748 161.014 21.9056 160.49 21.9929C160.017 22.0552 159.543 22.1175 159.07 22.1799C157.91 22.3793 157.331 22.9153 157.331 23.7878C157.331 24.2116 157.568 24.5357 158.041 24.7601C158.403 24.9346 158.82 25.0218 159.294 25.0218C159.867 25.0218 160.385 24.8847 160.846 24.6105C161.407 24.2739 161.687 23.8003 161.687 23.1895ZM163.819 19.3192V24.2926C163.819 24.7788 163.987 25.0218 164.323 25.0218C164.523 25.0218 164.697 25.0093 164.847 24.9844V26.4615C164.386 26.6235 163.937 26.7046 163.501 26.7046C162.553 26.7046 162.005 26.3119 161.855 25.5266C161.058 26.3119 159.942 26.7046 158.509 26.7046C157.574 26.7046 156.807 26.4677 156.209 25.9941C155.536 25.483 155.199 24.7788 155.199 23.8813C155.199 22.8093 155.598 22.0365 156.396 21.5629C156.882 21.2762 157.723 21.0456 158.92 20.8711C160.266 20.6716 160.939 20.5719 160.939 20.5719C161.525 20.3974 161.818 20.0422 161.818 19.5062C161.818 18.6336 161.151 18.1974 159.817 18.1974C158.484 18.1974 157.773 18.7084 157.686 19.7305H155.554C155.679 17.5866 157.144 16.5146 159.948 16.5146C161.008 16.5146 161.887 16.7265 162.585 17.1503C163.407 17.6489 163.819 18.3719 163.819 19.3192Z" fill="white"/>
<path d="M149.648 18.3657V16.7765H151.256V13.8784H153.388V16.7765H155.314V18.3657H153.388V23.5261C153.388 24.0247 153.438 24.355 153.537 24.5171C153.675 24.7414 153.967 24.8536 154.416 24.8536C154.815 24.8536 155.114 24.8287 155.314 24.7788V26.4242C154.379 26.4989 153.918 26.5363 153.93 26.5363C152.883 26.5363 152.16 26.3244 151.761 25.9006C151.425 25.5516 151.256 24.9409 151.256 24.0683V18.3657H149.648Z" fill="white"/>
<path d="M150.123 22.1612H143.018C143.018 22.9714 143.23 23.6382 143.654 24.1617C144.115 24.7351 144.769 25.0218 145.617 25.0218C146.814 25.0218 147.599 24.4858 147.973 23.4139H149.992C149.768 24.4484 149.251 25.2586 148.44 25.8445C147.643 26.4179 146.702 26.7046 145.617 26.7046C144.134 26.7046 142.975 26.2371 142.139 25.3023C141.304 24.3674 140.887 23.1396 140.887 21.6189C140.887 20.198 141.304 19.0014 142.139 18.0291C143.024 17.0195 144.165 16.5146 145.561 16.5146C146.92 16.5146 148.035 17.0132 148.908 18.0104C149.743 18.9453 150.16 20.092 150.16 21.4507C150.16 21.6875 150.148 21.9243 150.123 22.1612ZM143.018 20.7589H147.992C147.954 20.0484 147.711 19.4439 147.262 18.9453C146.826 18.4467 146.259 18.1974 145.561 18.1974C144.838 18.1974 144.24 18.4404 143.766 18.9266C143.292 19.4127 143.043 20.0235 143.018 20.7589Z" fill="white"/>
<path d="M131.947 15.0004V19.1698H135.779C137.3 19.1698 138.06 18.4593 138.06 17.0383C138.06 15.6797 137.288 15.0004 135.742 15.0004H131.947ZM129.609 26.443V13.0933H135.985C137.431 13.0933 138.528 13.4111 139.276 14.0468C140.024 14.67 140.398 15.555 140.398 16.7018C140.398 18.4344 139.662 19.5562 138.191 20.0673V20.1047C139.513 20.2916 140.173 21.2327 140.173 22.9279C140.173 24.7478 140.416 25.9195 140.902 26.443H138.397C138.16 26.0566 138.042 25.4022 138.042 24.4798C138.042 23.1959 137.867 22.2985 137.518 21.7874C137.132 21.2265 136.421 20.946 135.387 20.946H131.947V26.443H129.609Z" fill="white"/>
<path d="M118.305 34.3225V6.67752C118.305 2.98963 121.294 8.08785e-07 124.982 0H170.523C171.261 0 171.858 0.597926 171.858 1.33551C171.858 2.07308 171.261 2.67101 170.523 2.67101H124.982C122.769 2.67101 120.976 4.46479 120.976 6.67752V34.3225C120.976 36.5352 122.769 38.329 124.982 38.329H182.275C184.488 38.329 186.282 36.5352 186.282 34.3225V21.101C186.282 20.3634 186.88 19.7655 187.617 19.7655C188.355 19.7655 188.953 20.3634 188.953 21.101V34.3225C188.953 38.0104 185.963 41 182.275 41H124.982C121.294 41 118.305 38.0104 118.305 34.3225Z" fill="white"/>
<path d="M110.487 26.272H94.2469C94.2469 28.1239 94.7313 29.6482 95.6999 30.8448C96.7541 32.1554 98.2499 32.8107 100.187 32.8107C102.922 32.8107 104.717 31.5856 105.572 29.1354H110.188C109.675 31.5001 108.492 33.352 106.64 34.6911C104.817 36.0016 102.666 36.6569 100.187 36.6569C96.7968 36.6569 94.1472 35.5885 92.2383 33.4517C90.3294 31.3149 89.375 28.5086 89.375 25.0327C89.375 21.7847 90.3294 19.0496 92.2383 16.8274C94.2612 14.5196 96.8681 13.3657 100.059 13.3657C103.165 13.3657 105.714 14.5054 107.709 16.7846C109.618 18.9214 110.572 21.5426 110.572 24.6481C110.572 25.1894 110.544 25.7307 110.487 26.272ZM94.2469 23.0668H105.615C105.529 21.4429 104.974 20.0611 103.948 18.9214C102.951 17.7818 101.655 17.212 100.059 17.212C98.4066 17.212 97.039 17.7675 95.9564 18.8787C94.8737 19.9898 94.3039 21.3859 94.2469 23.0668Z" fill="white"/>
<path d="M83.2578 36.0585V5.54492H88.1297V36.0585H83.2578Z" fill="white"/>
<path d="M71.0938 36.0586V13.964H75.6665V18.2376H75.752C76.0369 17.0125 76.8204 15.9014 78.1025 14.9042C79.3846 13.8786 80.7521 13.3657 82.2052 13.3657C82.5755 13.3657 83.1881 13.4085 84.0428 13.4939V18.1949C82.9032 18.0525 82.2051 17.9812 81.9487 17.9812C80.2108 17.9812 78.8005 18.6365 77.7179 19.9471C76.5497 21.3146 75.9657 23.1808 75.9657 25.5455V36.0586H71.0938Z" fill="white"/>
<path d="M63.9701 28.6225V24.99C63.3433 25.3888 62.4316 25.688 61.235 25.8874C60.1523 26.0299 59.0697 26.1723 57.987 26.3148C55.3374 26.7706 54.0125 27.9957 54.0125 29.9901C54.0125 30.9588 54.5539 31.6995 55.6365 32.2124C56.4628 32.6112 57.4172 32.8107 58.4998 32.8107C59.8104 32.8107 60.9928 32.4973 62.0469 31.8705C63.329 31.1012 63.9701 30.0186 63.9701 28.6225ZM68.842 19.7761V31.144C68.842 32.2551 69.2266 32.8107 69.9959 32.8107C70.4517 32.8107 70.8506 32.7822 71.1925 32.7252V36.1014C70.1383 36.4717 69.1127 36.6569 68.1155 36.6569C65.9502 36.6569 64.6966 35.7595 64.3547 33.9646C62.5313 35.7595 59.9814 36.6569 56.7049 36.6569C54.5681 36.6569 52.8159 36.1156 51.4484 35.033C49.9099 33.8648 49.1406 32.2551 49.1406 30.2038C49.1406 27.7536 50.0523 25.9871 51.8757 24.9045C52.9869 24.2492 54.91 23.7221 57.6451 23.3232C60.7221 22.8674 62.2606 22.6395 62.2606 22.6395C63.5997 22.2406 64.2692 21.4286 64.2692 20.2035C64.2692 18.2092 62.745 17.212 59.6965 17.212C56.6479 17.212 55.024 18.3801 54.8245 20.7163H49.9526C50.2375 15.8159 53.5852 13.3657 59.9956 13.3657C62.4173 13.3657 64.4259 13.8501 66.0214 14.8188C67.9018 15.9584 68.842 17.6108 68.842 19.7761Z" fill="white"/>
<path d="M28.7891 36.0585V5.54492H33.661V16.87H33.7465C34.3733 15.8443 35.2707 15.0039 36.4388 14.3486C37.6354 13.6933 38.946 13.3656 40.3706 13.3656C42.8208 13.3656 44.7297 14.0067 46.0972 15.2888C47.4933 16.5709 48.1913 18.437 48.1913 20.8872V36.0585H43.3194V22.1693C43.3194 18.8644 41.8806 17.2119 39.003 17.2119C37.4075 17.2119 36.1112 17.7675 35.114 18.8786C34.1453 19.9897 33.661 21.3715 33.661 23.024V36.0585H28.7891Z" fill="white"/>
<path d="M27.5648 15.246H22.2228C21.1971 11.2003 18.6615 9.17745 14.6158 9.17745C11.5673 9.17745 9.20252 10.3883 7.52156 12.81C6.06853 14.9183 5.34202 17.5822 5.34202 20.8017C5.34202 24.0211 6.06853 26.685 7.52156 28.7933C9.20252 31.2151 11.5673 32.4259 14.6158 32.4259C16.895 32.4259 18.7327 31.6424 20.1287 30.0754C21.4108 28.6509 22.1658 26.7705 22.3937 24.4343H27.6076C27.3796 28.1096 26.0691 31.0868 23.6758 33.3661C21.3111 35.6454 18.2911 36.785 14.6158 36.785C10.1712 36.785 6.59561 35.2038 3.88899 32.0413C1.29633 29.0498 0 25.3032 0 20.8017C0 16.2716 1.29633 12.5109 3.88899 9.51933C6.59561 6.38535 10.1712 4.81836 14.6158 4.81836C18.1201 4.81836 21.0547 5.73006 23.4194 7.55347C25.8696 9.46235 27.2514 12.0265 27.5648 15.246Z" fill="white"/>
</svg>
