<svg width="193" height="41" viewBox="0 0 193 41" fill="none" xmlns="http://www.w3.org/2000/svg">
<path d="M173.832 26.443V13.0933H175.964V18.048H176.001C176.275 17.5993 176.668 17.2315 177.179 16.9449C177.702 16.6582 178.276 16.5148 178.899 16.5148C179.971 16.5148 180.806 16.7953 181.404 17.3562C182.015 17.9171 182.321 18.7335 182.321 19.8055V26.443H180.189V20.3664C180.189 18.9205 179.56 18.1976 178.301 18.1976C177.603 18.1976 177.035 18.4406 176.599 18.9267C176.175 19.4129 175.964 20.0174 175.964 20.7404V26.443H173.832Z" fill="white"/>
<path d="M173.222 20.011H171.09C170.916 18.8019 170.18 18.1974 168.884 18.1974C168.174 18.1974 167.594 18.4155 167.145 18.8518C166.535 19.4501 166.229 20.4036 166.229 21.7124C166.229 22.6224 166.422 23.3765 166.809 23.9748C167.27 24.6728 167.931 25.0218 168.791 25.0218C169.414 25.0218 169.925 24.8286 170.324 24.4422C170.735 24.0433 170.991 23.5011 171.09 22.8156H173.222C172.81 25.4082 171.333 26.7046 168.791 26.7046C167.32 26.7046 166.161 26.2247 165.313 25.2649C164.503 24.3674 164.098 23.1833 164.098 21.7124C164.098 20.1793 164.497 18.9453 165.294 18.0104C166.142 17.0132 167.332 16.5146 168.865 16.5146C170.05 16.5146 171.028 16.8013 171.801 17.3747C172.648 17.9979 173.122 18.8767 173.222 20.011Z" fill="white"/>
<path d="M159.113 26.4428V16.7764H161.114V18.6461H161.151C161.276 18.1101 161.619 17.624 162.18 17.1877C162.741 16.739 163.339 16.5146 163.975 16.5146C164.137 16.5146 164.405 16.5333 164.778 16.5707V18.6274C164.28 18.5651 163.975 18.5339 163.862 18.5339C163.102 18.5339 162.485 18.8206 162.011 19.394C161.5 19.9923 161.245 20.8087 161.245 21.8433V26.4428H159.113Z" fill="white"/>
<path d="M155.812 23.1895V21.6003C155.538 21.7748 155.139 21.9056 154.615 21.9929C154.142 22.0552 153.668 22.1175 153.195 22.1799C152.035 22.3793 151.456 22.9153 151.456 23.7878C151.456 24.2116 151.693 24.5357 152.166 24.7601C152.528 24.9346 152.945 25.0218 153.419 25.0218C153.992 25.0218 154.51 24.8847 154.971 24.6105C155.532 24.2739 155.812 23.8003 155.812 23.1895ZM157.944 19.3192V24.2926C157.944 24.7788 158.112 25.0218 158.448 25.0218C158.648 25.0218 158.822 25.0093 158.972 24.9844V26.4615C158.511 26.6235 158.062 26.7046 157.626 26.7046C156.678 26.7046 156.13 26.3119 155.98 25.5266C155.183 26.3119 154.067 26.7046 152.634 26.7046C151.699 26.7046 150.932 26.4677 150.334 25.9941C149.661 25.483 149.324 24.7788 149.324 23.8813C149.324 22.8093 149.723 22.0365 150.521 21.5629C151.007 21.2762 151.848 21.0456 153.045 20.8711C154.391 20.6716 155.064 20.5719 155.064 20.5719C155.65 20.3974 155.943 20.0422 155.943 19.5062C155.943 18.6336 155.276 18.1974 153.942 18.1974C152.609 18.1974 151.898 18.7084 151.811 19.7305H149.679C149.804 17.5866 151.269 16.5146 154.073 16.5146C155.133 16.5146 156.012 16.7265 156.71 17.1503C157.532 17.6489 157.944 18.3719 157.944 19.3192Z" fill="white"/>
<path d="M149.346 22.1612H142.241C142.241 22.9714 142.453 23.6382 142.877 24.1617C143.338 24.7351 143.992 25.0218 144.84 25.0218C146.036 25.0218 146.822 24.4858 147.196 23.4139H149.215C148.99 24.4484 148.473 25.2586 147.663 25.8445C146.865 26.4179 145.924 26.7046 144.84 26.7046C143.356 26.7046 142.197 26.2371 141.362 25.3023C140.527 24.3674 140.109 23.1396 140.109 21.6189C140.109 20.198 140.527 19.0014 141.362 18.0291C142.247 17.0195 143.388 16.5146 144.784 16.5146C146.142 16.5146 147.258 17.0132 148.13 18.0104C148.966 18.9453 149.383 20.092 149.383 21.4507C149.383 21.6875 149.371 21.9243 149.346 22.1612ZM142.241 20.7589H147.214C147.177 20.0484 146.934 19.4439 146.485 18.9453C146.049 18.4467 145.482 18.1974 144.784 18.1974C144.061 18.1974 143.462 18.4404 142.989 18.9266C142.515 19.4127 142.266 20.0235 142.241 20.7589Z" fill="white"/>
<path d="M129.07 21.993H131.407C131.407 22.9653 131.738 23.7007 132.398 24.1993C132.984 24.6356 133.782 24.8537 134.792 24.8537C135.751 24.8537 136.481 24.6418 136.979 24.218C137.403 23.8565 137.615 23.3953 137.615 22.8344C137.615 22.0117 137.247 21.4633 136.512 21.1891C136.412 21.1517 135.085 20.784 132.529 20.0859C130.56 19.55 129.575 18.4219 129.575 16.7018C129.575 15.4428 130.086 14.4519 131.108 13.7289C132.018 13.0932 133.134 12.7754 134.455 12.7754C135.913 12.7754 137.116 13.1369 138.064 13.8598C139.073 14.6451 139.578 15.7046 139.578 17.0383H137.241C137.141 15.4678 136.181 14.6825 134.362 14.6825C133.713 14.6825 133.171 14.8009 132.735 15.0377C132.186 15.3494 131.912 15.8105 131.912 16.4213C131.912 17.2814 132.442 17.8548 133.502 18.1414C134.561 18.4157 135.845 18.7585 137.353 19.1698C138.188 19.4191 138.843 19.8803 139.316 20.5534C139.74 21.1641 139.952 21.8372 139.952 22.5727C139.952 23.9687 139.397 25.0407 138.288 25.7885C137.328 26.4367 136.113 26.7608 134.642 26.7608C133.022 26.7608 131.719 26.3806 130.734 25.6203C129.65 24.7851 129.095 23.5761 129.07 21.993Z" fill="white"/>
<path d="M118.57 34.3225V6.67752C118.57 2.98963 121.56 5.37756e-07 125.248 0H172.391C173.129 0 173.727 0.597926 173.727 1.33551C173.727 2.07308 173.129 2.67101 172.391 2.67101H125.248C123.035 2.67101 121.241 4.46479 121.241 6.67752V34.3225C121.241 36.5352 123.035 38.329 125.248 38.329H186.28C188.493 38.329 190.287 36.5352 190.287 34.3225V21.101C190.287 20.3634 190.885 19.7655 191.622 19.7655C192.36 19.7655 192.958 20.3634 192.958 21.101V34.3225C192.958 38.0104 189.968 41 186.28 41H125.248C121.56 41 118.57 38.0104 118.57 34.3225Z" fill="white"/>
<path d="M110.487 26.272H94.2469C94.2469 28.1239 94.7313 29.6482 95.6999 30.8448C96.7541 32.1554 98.2499 32.8107 100.187 32.8107C102.922 32.8107 104.717 31.5856 105.572 29.1354H110.188C109.675 31.5001 108.492 33.352 106.64 34.6911C104.817 36.0016 102.666 36.6569 100.187 36.6569C96.7968 36.6569 94.1472 35.5885 92.2383 33.4517C90.3294 31.3149 89.375 28.5086 89.375 25.0327C89.375 21.7847 90.3294 19.0496 92.2383 16.8274C94.2612 14.5196 96.8681 13.3657 100.059 13.3657C103.165 13.3657 105.714 14.5054 107.709 16.7846C109.618 18.9214 110.572 21.5426 110.572 24.6481C110.572 25.1894 110.544 25.7307 110.487 26.272ZM94.2469 23.0668H105.615C105.529 21.4429 104.974 20.0611 103.948 18.9214C102.951 17.7818 101.655 17.212 100.059 17.212C98.4066 17.212 97.039 17.7675 95.9564 18.8787C94.8737 19.9898 94.3039 21.3859 94.2469 23.0668Z" fill="white"/>
<path d="M83.2578 36.0585V5.54492H88.1297V36.0585H83.2578Z" fill="white"/>
<path d="M71.0938 36.0586V13.964H75.6665V18.2376H75.752C76.0369 17.0125 76.8204 15.9014 78.1025 14.9042C79.3846 13.8786 80.7521 13.3657 82.2052 13.3657C82.5755 13.3657 83.1881 13.4085 84.0428 13.4939V18.1949C82.9032 18.0525 82.2051 17.9812 81.9487 17.9812C80.2108 17.9812 78.8005 18.6365 77.7179 19.9471C76.5497 21.3146 75.9657 23.1808 75.9657 25.5455V36.0586H71.0938Z" fill="white"/>
<path d="M63.9701 28.6225V24.99C63.3433 25.3888 62.4316 25.688 61.235 25.8874C60.1523 26.0299 59.0697 26.1723 57.987 26.3148C55.3374 26.7706 54.0125 27.9957 54.0125 29.9901C54.0125 30.9588 54.5539 31.6995 55.6365 32.2124C56.4628 32.6112 57.4172 32.8107 58.4998 32.8107C59.8104 32.8107 60.9928 32.4973 62.0469 31.8705C63.329 31.1012 63.9701 30.0186 63.9701 28.6225ZM68.842 19.7761V31.144C68.842 32.2551 69.2266 32.8107 69.9959 32.8107C70.4517 32.8107 70.8506 32.7822 71.1925 32.7252V36.1014C70.1383 36.4717 69.1127 36.6569 68.1155 36.6569C65.9502 36.6569 64.6966 35.7595 64.3547 33.9646C62.5313 35.7595 59.9814 36.6569 56.7049 36.6569C54.5681 36.6569 52.8159 36.1156 51.4484 35.033C49.9099 33.8648 49.1406 32.2551 49.1406 30.2038C49.1406 27.7536 50.0523 25.9871 51.8757 24.9045C52.9869 24.2492 54.91 23.7221 57.6451 23.3232C60.7221 22.8674 62.2606 22.6395 62.2606 22.6395C63.5997 22.2406 64.2692 21.4286 64.2692 20.2035C64.2692 18.2092 62.745 17.212 59.6965 17.212C56.6479 17.212 55.024 18.3801 54.8245 20.7163H49.9526C50.2375 15.8159 53.5852 13.3657 59.9956 13.3657C62.4173 13.3657 64.4259 13.8501 66.0214 14.8188C67.9018 15.9584 68.842 17.6108 68.842 19.7761Z" fill="white"/>
<path d="M28.7891 36.0585V5.54492H33.661V16.87H33.7465C34.3733 15.8443 35.2707 15.0039 36.4388 14.3486C37.6354 13.6933 38.946 13.3656 40.3706 13.3656C42.8208 13.3656 44.7297 14.0067 46.0972 15.2888C47.4933 16.5709 48.1913 18.437 48.1913 20.8872V36.0585H43.3194V22.1693C43.3194 18.8644 41.8806 17.2119 39.003 17.2119C37.4075 17.2119 36.1112 17.7675 35.114 18.8786C34.1453 19.9897 33.661 21.3715 33.661 23.024V36.0585H28.7891Z" fill="white"/>
<path d="M27.5648 15.246H22.2228C21.1971 11.2003 18.6615 9.17745 14.6158 9.17745C11.5673 9.17745 9.20252 10.3883 7.52156 12.81C6.06853 14.9183 5.34202 17.5822 5.34202 20.8017C5.34202 24.0211 6.06853 26.685 7.52156 28.7933C9.20252 31.2151 11.5673 32.4259 14.6158 32.4259C16.895 32.4259 18.7327 31.6424 20.1287 30.0754C21.4108 28.6509 22.1658 26.7705 22.3937 24.4343H27.6076C27.3796 28.1096 26.0691 31.0868 23.6758 33.3661C21.3111 35.6454 18.2911 36.785 14.6158 36.785C10.1712 36.785 6.59561 35.2038 3.88899 32.0413C1.29633 29.0498 0 25.3032 0 20.8017C0 16.2716 1.29633 12.5109 3.88899 9.51933C6.59561 6.38535 10.1712 4.81836 14.6158 4.81836C18.1201 4.81836 21.0547 5.73006 23.4194 7.55347C25.8696 9.46235 27.2514 12.0265 27.5648 15.246Z" fill="white"/>
</svg>
