<svg width="112" height="68" viewBox="0 0 112 68" fill="none" xmlns="http://www.w3.org/2000/svg">
<g clip-path="url(#clip0_120_1252)">
<path d="M11.854 19.9172C14.7376 19.9172 16.4388 21.7392 17.089 23.8093C17.1621 24.0441 17.4075 24.1786 17.6455 24.1218L21.7057 23.1748C21.983 23.1104 22.1385 22.8168 22.0467 22.5441C20.6452 18.3206 16.7836 15.4475 11.854 15.4475C5.22311 15.4494 0.640137 20.0801 0.640137 27.1729C0.640137 34.2657 4.93457 39.0271 11.8221 39.0271C16.9372 39.0271 20.8082 35.851 22.0092 31.7771C22.0879 31.5119 21.9399 31.2335 21.6739 31.1635L17.756 30.1407C17.5143 30.0782 17.2576 30.2108 17.1827 30.4532C16.4463 32.8528 14.6083 34.5574 11.854 34.5574C7.94554 34.5574 5.86203 31.2544 5.86203 27.1407C5.86203 22.7676 8.13665 19.9172 11.854 19.9172Z" fill="white"/>
<path d="M42.0387 38.0934V34.618C42.0387 34.3529 41.8251 34.137 41.5628 34.137H31.1078C30.8455 34.137 30.6319 33.9211 30.6319 33.6559V16.3832C30.6319 16.118 30.4183 15.9021 30.1559 15.9021H26.077C25.8147 15.9021 25.6011 16.118 25.6011 16.3832V38.0934C25.6011 38.3586 25.8147 38.5745 26.077 38.5745H41.5628C41.8251 38.5745 42.0387 38.3586 42.0387 38.0934Z" fill="white"/>
<path d="M63.6663 38.0933V34.6501C63.6663 34.385 63.4527 34.1691 63.1904 34.1691H50.62C50.3577 34.1691 50.1441 33.9532 50.1441 33.688V29.4342C50.1441 29.1691 50.3577 28.9531 50.62 28.9531H58.6411C58.9034 28.9531 59.117 28.7372 59.117 28.4721V25.0289C59.117 24.7637 58.9034 24.5478 58.6411 24.5478H50.62C50.3577 24.5478 50.1441 24.3319 50.1441 24.0668V20.7202C50.1441 20.455 50.3577 20.2391 50.62 20.2391H62.7088C62.9711 20.2391 63.1847 20.0232 63.1847 19.758V16.3793C63.1847 16.1141 62.9711 15.8982 62.7088 15.8982H45.5892C45.3269 15.8982 45.1133 16.1141 45.1133 16.3793V38.0895C45.1133 38.3547 45.3269 38.5706 45.5892 38.5706H63.1904C63.4527 38.5706 63.6663 38.3547 63.6663 38.0895V38.0933Z" fill="white"/>
<path d="M80.0215 16.2279C79.9559 16.0328 79.7742 15.9021 79.5718 15.9021H73.3288C73.1264 15.9021 72.9466 16.0309 72.8791 16.2241L65.392 37.9343C65.2833 38.2468 65.5137 38.5726 65.8416 38.5726H70.1454C70.3515 38.5726 70.5352 38.4381 70.5989 38.2393L71.8598 34.2752C71.9235 34.0764 72.1053 33.9419 72.3133 33.9419H80.3007C80.5086 33.9419 80.6923 34.0783 80.7541 34.279L81.987 38.2374C82.0488 38.4381 82.2324 38.5745 82.4404 38.5745H86.9372C87.2632 38.5745 87.4937 38.2506 87.3869 37.9381L80.0234 16.2279H80.0215ZM78.6837 29.7639H73.9302C73.608 29.7639 73.3794 29.4457 73.4768 29.1351L75.8657 21.637C76.0081 21.1919 76.632 21.1919 76.7726 21.637L79.1371 29.1351C79.2346 29.4457 79.006 29.762 78.6837 29.762V29.7639Z" fill="white"/>
<path d="M110.676 15.9021H106.822C106.56 15.9021 106.346 16.118 106.346 16.3832V28.1692C106.346 28.6578 105.708 28.8358 105.462 28.4135L98.2822 16.1388C98.196 15.993 98.0405 15.9021 97.8719 15.9021H90.9918C90.7295 15.9021 90.5159 16.118 90.5159 16.3832V38.0934C90.5159 38.3586 90.7295 38.5745 90.9918 38.5745H94.8478C95.1101 38.5745 95.3237 38.3586 95.3237 38.0934V22.3529C95.3237 21.8642 95.9626 21.6862 96.2081 22.1086L105.726 38.3396C105.812 38.4855 105.968 38.5745 106.135 38.5745H110.675C110.937 38.5745 111.15 38.3586 111.15 38.0934V16.3832C111.15 16.118 110.937 15.9021 110.675 15.9021H110.676Z" fill="white"/>
<path d="M34.7876 9.59148H38.5612C38.6736 9.59148 38.7279 9.53087 38.7279 9.41155V8.55359C38.7279 8.43996 38.6717 8.38503 38.5612 8.38503H36.3484C36.2153 8.38503 36.101 8.33579 36.0092 8.2392C35.9156 8.14072 35.8706 8.02518 35.8706 7.88882V5.90207C35.8706 5.76571 35.9193 5.65207 36.0149 5.55738C36.1104 5.46268 36.2228 5.41722 36.3484 5.41722H37.9372C38.0478 5.41722 38.104 5.36041 38.104 5.24866V4.44753C38.104 4.34146 38.0478 4.29033 37.9372 4.29033H36.3484C36.2303 4.29033 36.1217 4.24487 36.0205 4.15396C35.9193 4.06306 35.8706 3.94563 35.8706 3.80169V2.2032C35.8706 2.06684 35.9174 1.95131 36.0092 1.8585C36.101 1.76381 36.2153 1.71646 36.3484 1.71646H38.4487C38.5612 1.71646 38.6155 1.65585 38.6155 1.53653V0.731608C38.6155 0.619866 38.5593 0.564941 38.4487 0.564941H34.7876C34.6752 0.564941 34.6208 0.62176 34.6208 0.733502V9.41155C34.6208 9.53276 34.6771 9.59148 34.7876 9.59148Z" fill="white"/>
<path d="M40.3468 8.04602C40.7928 9.17481 41.5741 9.7392 42.6908 9.7392C43.3972 9.7392 43.9724 9.52898 44.4164 9.10663C44.8605 8.68428 45.0816 8.11799 45.0816 7.40208C45.0816 6.76192 44.7687 6.11988 44.1429 5.47215C44.1204 5.44942 43.5396 4.94563 42.4022 3.96078C41.7689 3.42669 41.4523 2.97593 41.4523 2.60661C41.4523 2.30548 41.5554 2.03275 41.7596 1.78843C41.9638 1.54411 42.2111 1.421 42.5015 1.421C42.9775 1.421 43.3653 1.74866 43.6632 2.40207C43.7382 2.56873 43.785 2.68426 43.8075 2.75245C43.8525 2.85093 43.9162 2.88502 43.9967 2.85472L44.7106 2.60661C44.8005 2.57631 44.8286 2.5157 44.8005 2.42669C44.63 1.83957 44.3583 1.36987 43.9855 1.0157C43.5677 0.63123 43.073 0.439941 42.5015 0.439941C41.8982 0.439941 41.3961 0.623654 40.9951 0.992973C40.5548 1.39259 40.3356 1.92858 40.3356 2.60661C40.3356 3.19374 40.641 3.79601 41.2518 4.41154C41.8102 4.90018 42.3723 5.39071 42.9381 5.87935C43.5489 6.43617 43.8543 6.94374 43.8543 7.40208C43.8543 7.75624 43.7494 8.04223 43.5414 8.26003C43.3335 8.47784 43.0505 8.58769 42.6927 8.58769C42.2823 8.58769 41.9338 8.37746 41.6434 7.95511C41.4654 7.68428 41.3268 7.36799 41.2312 7.00624C41.2012 6.90776 41.1375 6.87556 41.042 6.90397L40.2157 7.19753C40.1332 7.22026 40.107 7.27708 40.137 7.36609C40.2119 7.6445 40.2813 7.86988 40.3487 8.04412L40.3468 8.04602Z" fill="white"/>
<path d="M46.0294 1.64822H47.4028C47.5284 1.64822 47.6333 1.69746 47.7157 1.79405C47.7982 1.89254 47.8375 2.00049 47.8375 2.1217V9.44558C47.8375 9.54407 47.8862 9.59142 47.9818 9.59142H48.898C48.9805 9.59142 49.0198 9.54217 49.0198 9.44558V2.1217C49.0198 2.00239 49.0685 1.89254 49.1641 1.79405C49.2615 1.69557 49.3646 1.64822 49.477 1.64822H50.8504C50.9553 1.64822 51.0059 1.59898 51.0059 1.50238V0.699352C51.0059 0.608443 50.9534 0.562988 50.8504 0.562988H46.0276C45.9301 0.562988 45.8833 0.608443 45.8833 0.699352V1.50049C45.8833 1.59898 45.932 1.64632 46.0276 1.64632L46.0294 1.64822Z" fill="white"/>
<path d="M52.4507 9.59155H53.3988C53.5112 9.59155 53.5655 9.51958 53.5655 9.37753V8.08018C53.5655 7.96655 53.5093 7.91162 53.3988 7.91162H52.4507C52.3383 7.91162 52.2839 7.96844 52.2839 8.08018V9.37753C52.2839 9.51958 52.3401 9.59155 52.4507 9.59155Z" fill="white"/>
<path d="M58.5681 9.59142H62.5984C62.6958 9.59142 62.7426 9.54217 62.7426 9.44558V8.65581C62.7426 8.55732 62.6939 8.50998 62.5984 8.50998H60.2544C60.0689 8.50998 59.9752 8.41907 59.9752 8.23914C59.9752 8.17854 60.0352 8.07816 60.1532 7.93422C60.9945 6.86603 61.5603 6.11035 61.8508 5.66527C62.514 4.63497 62.8438 3.78459 62.8438 3.11413V2.58383C62.8438 1.98913 62.6471 1.48345 62.2517 1.06488C61.8564 0.648216 61.3805 0.437988 60.8221 0.437988H60.5205C59.9546 0.437988 59.4712 0.648216 59.0684 1.07057C58.6655 1.49291 58.4651 1.99481 58.4651 2.58193V2.88686C58.4651 2.98534 58.5213 3.03269 58.6337 3.03269H59.5686C59.6661 3.03269 59.7148 2.98345 59.7148 2.88686V2.7183C59.7148 2.37928 59.8047 2.08383 59.9865 1.82625C60.1682 1.57057 60.3949 1.44367 60.6685 1.44367C60.942 1.44367 61.18 1.5611 61.3617 1.79405C61.5435 2.02701 61.6334 2.33572 61.6334 2.7183V2.9664C61.6334 3.5914 61.225 4.51944 60.4062 5.75429C60.2731 5.95694 59.6398 6.81868 58.5082 8.33952C58.4482 8.42285 58.4182 8.52702 58.4182 8.65581V9.44558C58.4182 9.54407 58.4669 9.59142 58.5625 9.59142H58.5681Z" fill="white"/>
<path d="M66.7748 9.71648H66.8198C67.4456 9.71648 67.9777 9.48542 68.4161 9.0214C68.8564 8.55928 69.0756 7.99678 69.0756 7.3339V2.82063C69.0756 2.16532 68.8564 1.60472 68.4161 1.13881C67.9777 0.672896 67.4456 0.439941 66.8198 0.439941H66.7748C66.1415 0.439941 65.6037 0.672896 65.1616 1.13881C64.7194 1.60472 64.4983 2.16532 64.4983 2.82063V7.3339C64.4983 7.9892 64.7194 8.54981 65.1616 9.01572C65.6037 9.48163 66.1415 9.71458 66.7748 9.71458V9.71648ZM65.7817 2.95699C65.7817 2.5801 65.8829 2.25055 66.0834 1.97025C66.2839 1.68805 66.5368 1.5479 66.8422 1.5479C67.1476 1.5479 67.4025 1.68805 67.6067 1.97025C67.8109 2.25245 67.914 2.58199 67.914 2.95699V7.16723C67.914 7.5517 67.8109 7.88314 67.6067 8.16534C67.4025 8.44753 67.1476 8.58769 66.8422 8.58769C66.5368 8.58769 66.2839 8.44564 66.0834 8.16534C65.8829 7.88314 65.7817 7.54981 65.7817 7.16723V2.95699Z" fill="white"/>
<path d="M70.5034 2.62928H71.4196C71.5245 2.62928 71.6014 2.66716 71.6538 2.74292C71.7063 2.81867 71.7325 2.88875 71.7325 2.95693V9.44558C71.7325 9.54407 71.7812 9.59142 71.8768 9.59142H72.793C72.9054 9.59142 72.9598 9.54217 72.9598 9.44558V0.699352C72.9598 0.608443 72.9036 0.562988 72.793 0.562988H72.3583C72.3358 0.562988 72.2122 0.665261 71.9892 0.867913C71.6463 1.19178 71.1779 1.52511 70.5821 1.8717C70.4341 1.96261 70.3591 2.01754 70.3591 2.04026V2.44746C70.3591 2.56867 70.4078 2.62739 70.5053 2.62739L70.5034 2.62928Z" fill="white"/>
<path d="M76.409 6.21836C76.677 6.21836 76.9112 6.16533 77.1117 6.06117C77.2241 6.00813 77.3496 5.91912 77.492 5.79033C77.5969 5.69185 77.6738 5.6445 77.7262 5.6445C77.8817 5.6445 77.9604 5.73162 77.9604 5.90397V7.57443C77.9604 7.86041 77.863 8.10473 77.67 8.30738C77.477 8.51193 77.2409 8.61231 76.9674 8.61231C76.6695 8.61231 76.4315 8.49678 76.2535 8.26761C76.0755 8.03844 75.9856 7.75435 75.9856 7.41534C75.9856 7.32443 75.9369 7.28086 75.8413 7.28086H74.9701C74.8726 7.28086 74.8258 7.32632 74.8258 7.41534V7.60662C74.8258 8.19375 75.0207 8.69185 75.4122 9.10284C75.8038 9.51193 76.2816 9.71837 76.8475 9.71837H77.0929C77.6588 9.71837 78.1422 9.51382 78.545 9.10284C78.946 8.69185 79.1483 8.19375 79.1483 7.60662V3.03464C79.1483 2.32063 78.9329 1.7032 78.5 1.18426C78.0822 0.688048 77.5913 0.439941 77.0255 0.439941H76.8025C76.2367 0.439941 75.7495 0.653957 75.3392 1.08388C74.9288 1.51191 74.7246 2.01381 74.7246 2.58389V4.46836C74.7246 4.94942 74.8914 5.3623 75.2267 5.70321C75.5621 6.04601 75.9556 6.21647 76.4109 6.21647L76.409 6.21836ZM75.9069 2.75434C75.9069 2.46835 76.0043 2.19941 76.1973 1.94752C76.3903 1.69563 76.6245 1.56873 76.8999 1.56873H76.9674C77.2428 1.56873 77.477 1.69563 77.67 1.94752C77.863 2.19941 77.9604 2.46835 77.9604 2.75434V3.99677C77.9604 4.28275 77.8667 4.5498 77.6812 4.79791C77.4808 5.07631 77.2409 5.21457 76.9674 5.21457H76.8999C76.6245 5.21457 76.3903 5.11041 76.1973 4.89828C76.0043 4.68806 75.9069 4.43995 75.9069 4.15396V2.75434Z" fill="white"/>
<path d="M44.6899 48.6806C47.5735 48.6806 49.2748 50.5026 49.9249 52.5727C49.998 52.8075 50.2435 52.942 50.4814 52.8852L54.5416 51.9382C54.8189 51.8738 54.9745 51.5803 54.8826 51.3075C53.4811 47.084 49.6195 44.2109 44.6899 44.2109C38.0572 44.2109 33.4761 48.8435 33.4761 55.9363C33.4761 63.0292 37.7705 67.7905 44.6581 67.7905C49.7732 67.7905 53.6442 64.6163 54.8452 60.5405C54.9239 60.2754 54.7758 59.997 54.5098 59.9269L50.592 58.9042C50.3503 58.8417 50.0936 58.9742 50.0186 59.2167C49.2823 61.6163 47.4442 63.3208 44.6899 63.3208C40.7815 63.3208 38.698 60.0178 38.698 55.9041C38.698 51.5329 40.9726 48.6825 44.6899 48.6825V48.6806Z" fill="white"/>
<path d="M68.7215 44.2109C61.9295 44.2109 57.1536 49.0689 57.1536 56.0007C57.1536 62.9326 61.9277 67.7905 68.7215 67.7905C75.5154 67.7905 80.2895 62.9326 80.2895 56.0007C80.2895 49.0689 75.5154 44.2109 68.7215 44.2109ZM68.7215 63.3208C64.9723 63.3208 62.4092 60.406 62.4092 56.0007C62.4092 51.5954 64.9723 48.6806 68.7215 48.6806C72.4707 48.6806 75.0658 51.5954 75.0658 56.0007C75.0658 60.406 72.4707 63.3208 68.7215 63.3208Z" fill="white"/>
</g>
<defs>
<clipPath id="clip0_120_1252">
<rect width="110.51" height="67.3486" fill="white" transform="translate(0.640137 0.439941)"/>
</clipPath>
</defs>
</svg>
