<svg width="88" height="68" viewBox="0 0 88 68" fill="none" xmlns="http://www.w3.org/2000/svg">
<path d="M86.3516 7.84717C86.3516 7.97107 86.3516 8.1053 86.403 8.24985C85.9404 8.24985 85.519 8.28082 85.0873 8.32212C84.0081 8.40473 82.9391 8.46668 81.8599 8.59058C80.4723 8.75578 79.1361 8.93131 77.7896 9.15846C76.032 9.45789 74.2847 9.86057 72.5785 10.3562C69.9575 11.0893 67.4187 12.0805 64.9827 13.3195C62.5159 14.5585 60.2649 16.1899 58.312 18.1517C56.688 19.7727 55.4443 21.7345 54.694 23.9028C54.2726 25.1625 54.0567 26.4737 54.0773 27.8057C54.1081 30.2424 54.8276 32.6275 56.1638 34.6616C57.1608 36.2 58.384 37.5836 59.7921 38.7607C62.0739 40.6605 64.623 42.199 67.357 43.3244C70.3994 44.6047 73.5652 45.5443 76.8132 46.1122C78.3755 46.4013 79.9481 46.6284 81.5207 46.8143C83.0933 47.0001 84.4809 47.0415 85.961 47.1447C86.0843 47.1447 86.1974 47.1757 86.3105 47.217L86.516 47.4235L86.2591 47.661C86.0124 47.661 85.7143 47.661 85.4059 47.661C83.8025 47.6093 82.1991 47.568 80.5956 47.4854C79.3622 47.4338 78.1391 47.3202 76.9262 47.217C75.7031 47.1137 74.665 47.0208 73.5549 46.8866C72.2084 46.7214 70.862 46.5562 69.5155 46.3393C67.6243 46.0296 65.7433 45.7198 63.8726 45.3378C59.6585 44.5015 55.506 43.3244 51.4768 41.8066C49.2361 40.9703 47.0674 39.9687 44.9809 38.802C44.8884 38.74 44.765 38.74 44.6725 38.802C41.0442 40.7844 37.2104 42.3538 33.2429 43.4793C30.6116 44.2743 27.9495 44.9248 25.2463 45.4514C23.3756 45.8128 21.4844 46.1535 19.6034 46.4219C18.2158 46.6388 16.8282 46.8246 15.4407 46.9692C13.8886 47.1344 12.3263 47.2789 10.7743 47.3719C8.32799 47.5061 5.91255 47.5784 3.44573 47.6816H3.37378C3.37378 47.63 3.37378 47.5784 3.33267 47.5061H3.20933L3.16821 47.4648L3.43545 47.2067C4.04188 47.2067 4.72026 47.155 5.38835 47.0931C6.54982 47.0002 7.71128 46.9175 8.86246 46.773C10.2089 46.6078 11.5554 46.4013 12.8916 46.1638C14.567 45.8541 16.2218 45.4514 17.8561 44.9661C20.1996 44.2743 22.4814 43.376 24.6604 42.2609C26.49 41.3316 28.2168 40.1959 29.7894 38.8846C31.362 37.5836 32.7084 36.0348 33.7671 34.3002C34.6305 32.8857 35.2164 31.3162 35.4836 29.6849C35.9256 26.9694 35.4322 24.1919 34.096 21.7965C33.1504 20.0825 31.917 18.544 30.4574 17.2534C28.1962 15.2503 25.6369 13.6293 22.8617 12.4315C20.3435 11.3061 17.7225 10.4285 15.0295 9.79862C13.3233 9.38562 11.5965 9.05521 9.84919 8.83838C8.57467 8.67318 7.28986 8.54928 6.00506 8.40473C5.24446 8.33245 4.47357 8.32212 3.70269 8.2705L3.33267 8.24985V7.84717H3.6513C3.72325 7.84717 3.84659 7.84717 3.89798 7.84717C6.43675 7.89879 8.97553 8.01237 11.4937 8.21887C13.2 8.36343 14.8959 8.52863 16.5918 8.72481C18.3289 8.93131 20.066 9.16879 21.7927 9.45789C23.6428 9.76765 25.4827 10.16 27.3122 10.5214C30.4986 11.2028 33.6335 12.0908 36.7067 13.1749C39.4716 14.1249 42.1543 15.3226 44.7239 16.7268C44.8061 16.7578 44.8884 16.7578 44.9706 16.7268C45.4537 16.479 45.9162 16.2105 46.3993 15.9627C50.007 14.1765 53.7689 12.7516 57.6542 11.7088C59.7407 11.1202 61.8169 10.604 63.9857 10.191C65.62 9.88122 67.2542 9.56114 68.8988 9.30301C70.4097 9.05521 71.9309 8.87968 73.4521 8.69383C74.7061 8.54928 75.9909 8.40473 77.2449 8.29115C78.4988 8.1879 79.7631 8.1053 81.0273 8.04335C82.5074 7.97107 83.9875 7.94009 85.4573 7.88847L86.0843 7.84717H86.3516ZM24.3418 44.4189C24.3932 44.4189 24.4137 44.4189 24.424 44.4189C27.6925 43.5825 30.8686 42.4571 33.9418 41.0632C36.0489 40.1133 38.0429 38.9362 39.9033 37.5733C40.3864 37.2119 40.8592 36.8195 41.3423 36.4478L39.4922 34.8474L39.4202 34.93C37.9607 36.7886 36.2134 38.389 34.2296 39.6796C31.7731 41.3007 29.1418 42.6429 26.3769 43.6651C25.7088 43.9233 25.0407 44.1607 24.3418 44.4189ZM50.2126 34.8474L48.3933 36.4478L48.5372 36.5821C49.267 37.1293 49.9762 37.7178 50.7265 38.2341C52.9055 39.7003 55.2387 40.9186 57.6747 41.8995C59.9257 42.8185 62.2281 43.5928 64.5613 44.233L65.2191 44.4085C65.1574 44.3466 65.0855 44.3053 65.0135 44.2846C64.5202 44.1091 64.0165 43.9439 63.5334 43.758C60.5321 42.6636 57.685 41.1871 55.0435 39.3802C53.6559 38.4199 52.3813 37.3048 51.2404 36.0555C50.8807 35.6528 50.5621 35.2501 50.2126 34.8474ZM65.3424 11.1306C65.3219 11.1202 65.291 11.1202 65.2705 11.1306C64.5716 11.3371 63.8418 11.5229 63.1326 11.7398C60.6452 12.4728 58.2195 13.3815 55.8657 14.4656C53.6045 15.4775 51.4666 16.7371 49.4725 18.2239C49.1025 18.5131 48.7736 18.8125 48.383 19.0913L50.2332 20.6917L50.3462 20.5471C51.3741 19.2358 52.5766 18.0691 53.8923 17.0572C56.6058 14.9922 59.6071 13.3298 62.7934 12.1218C63.6362 11.7914 64.4996 11.4919 65.3527 11.1615V11.1306H65.3424ZM24.4857 11.1306L24.6296 11.1925C25.5444 11.5332 26.4797 11.8946 27.4048 12.225C30.108 13.2782 32.6673 14.6618 35.0416 16.3344C36.3675 17.3153 37.5701 18.4408 38.6391 19.7004C38.9269 20.0308 39.2044 20.4026 39.4819 20.702C40.0883 20.1754 40.705 19.6488 41.3115 19.1119C41.2601 19.0706 41.219 19.019 41.1676 18.988C40.7564 18.6679 40.3659 18.3272 39.9444 18.0174C37.5804 16.3138 35.0108 14.9096 32.3076 13.8358C30.0463 12.8755 27.7337 12.0598 25.3799 11.3887L24.4857 11.1306ZM44.837 23.3246C44.0558 24.7081 43.655 26.2776 43.6755 27.878C43.7166 29.3854 44.1175 30.8516 44.837 32.1732C46.3582 29.4267 46.3582 26.0814 44.837 23.3246ZM62.4748 61.3211C62.4748 62.2091 62.4748 63.1177 62.4748 64.0057C62.4645 64.2741 62.6701 64.491 62.9373 64.5013C62.9476 64.5013 62.9579 64.5013 62.9681 64.5013C63.297 64.5013 63.6671 64.5013 63.9857 64.5013V65.8229H58.0859V64.5219H58.867C59.4118 64.5219 59.5968 64.3361 59.5968 63.7785V57.8519C59.5968 57.3047 59.4118 57.1498 58.8568 57.1498H58.0756V55.7869H65.0238C65.7125 55.7765 66.4011 55.8901 67.0487 56.1173C68.2204 56.5612 68.8063 57.8725 68.3643 59.0496C68.3335 59.1322 68.2924 59.2251 68.2512 59.3077C67.9326 59.8859 67.3776 60.2783 66.73 60.4022L66.175 60.5261L66.8739 60.7739C67.3878 60.9391 67.7784 61.3521 67.8915 61.8787C67.9326 62.0542 67.9532 62.2298 67.9532 62.4053C67.9532 62.9525 67.9532 63.4894 67.9532 64.0263C67.9121 64.2741 68.0765 64.5116 68.3232 64.5529C68.3746 64.5632 68.426 64.5632 68.4876 64.5529C68.6418 64.5529 68.7857 64.4703 68.8474 64.3258C68.9091 64.1502 68.9605 63.9747 68.981 63.7888C68.981 63.541 68.981 63.2932 68.981 63.0248H69.9986C70.1014 63.7785 69.9677 64.5426 69.6183 65.2137C69.3922 65.5545 69.0632 65.7919 68.6829 65.9158C68.056 66.1223 67.3879 66.1533 66.7403 65.9984C65.8153 65.8229 65.1472 65.0175 65.1266 64.0779C65.1266 63.4378 65.1266 62.7976 65.0855 62.1575C65.0444 61.5276 64.8696 61.3315 64.2838 61.2902C63.6979 61.2489 63.0812 61.3211 62.4748 61.3211ZM62.4748 59.9272C63.1737 59.9272 63.8007 59.9272 64.4585 59.9272C64.9724 59.9685 65.4452 59.6175 65.5377 59.1012C65.5994 58.7915 65.6097 58.4714 65.5788 58.1616C65.5583 57.7177 65.2294 57.3356 64.7977 57.253C64.5716 57.1911 64.3352 57.1498 64.0988 57.1395C63.5643 57.1395 63.0298 57.1395 62.485 57.1395L62.4748 59.9272ZM44.7034 60.5467C45.0528 60.6603 45.3612 60.7533 45.649 60.8668C46.1423 61.0217 46.574 61.3005 46.9235 61.6825C47.2524 62.1059 47.4169 62.6221 47.386 63.159C47.4066 63.6443 47.3141 64.1193 47.0982 64.5529C46.8104 65.0279 46.3479 65.3686 45.8134 65.5131C45.1556 65.73 44.4772 65.8332 43.7886 65.8229C41.6096 65.8229 39.4305 65.8229 37.2515 65.8229H37.1282V64.5323H37.7243C37.8476 64.5426 37.971 64.5426 38.0943 64.5323C38.3102 64.5116 38.4952 64.3464 38.5363 64.1296C38.5466 64.016 38.5466 63.9024 38.5363 63.7992V57.8725C38.5363 57.315 38.3513 57.1291 37.8374 57.1291H37.1384V55.7972H43.6138C44.2819 55.7765 44.9398 55.8901 45.5565 56.1276C46.3068 56.3857 46.8515 57.0569 46.9441 57.8622C47.088 58.7295 46.6871 59.5968 45.9265 60.0511C45.5976 60.2267 45.2481 60.3712 44.8986 60.4951L44.7034 60.5467ZM41.4348 64.5323C42.1337 64.5839 42.8327 64.5323 43.5213 64.3877C43.9222 64.2741 44.2305 63.9541 44.3333 63.541C44.4772 63.1074 44.4772 62.6324 44.3333 62.1988C44.2408 61.889 44.025 61.6412 43.7475 61.4967C43.5727 61.4141 43.3877 61.3521 43.1924 61.3211C42.6271 61.2695 42.0721 61.2592 41.4965 61.2282L41.4348 64.5323ZM41.4348 57.1395C41.4348 57.1911 41.4348 57.2117 41.4348 57.2324V59.824C41.4348 59.9376 41.4759 59.9685 41.589 59.9685C41.959 59.9685 42.3496 59.9685 42.7299 59.9685C43.4288 59.9995 44.0147 59.4626 44.0455 58.7605C44.0455 58.7192 44.0455 58.6779 44.0455 58.6366C44.1689 57.9964 43.7475 57.3769 43.1102 57.2427C42.5654 57.1395 42.0001 57.1085 41.4451 57.1498H41.4348V57.1395ZM57.7364 59.6485H56.3488C56.3488 59.3284 56.2974 59.0186 56.246 58.7089C56.2152 57.9138 55.5779 57.2737 54.7762 57.2427C53.8614 57.1395 52.9569 57.1395 52.0216 57.1395V60.0615C52.4225 60.1131 52.8233 60.0718 53.1933 59.9272C53.512 59.7517 53.697 59.4007 53.6764 59.0393C53.6764 58.8534 53.6764 58.6676 53.6764 58.4714H54.9407V63.0248H53.6867V62.6944C53.7073 62.3433 53.625 61.9923 53.44 61.6928C53.327 61.507 53.1317 61.3934 52.9158 61.4037H52.0319V64.5426C52.073 64.5426 52.1038 64.5426 52.1449 64.5426C52.9261 64.5426 53.697 64.5426 54.4679 64.5426C55.2901 64.6045 56.0199 64.0367 56.1741 63.221C56.246 62.9009 56.2974 62.5911 56.318 62.2607C56.318 62.1162 56.318 61.9716 56.318 61.8167H57.7056V65.8745H47.6327V64.5426H48.4653C48.9483 64.5426 49.1642 64.3567 49.1642 63.8405V57.7796C49.1642 57.3356 48.9586 57.1395 48.5167 57.1395H47.6738H47.6122V55.8178H57.7364V59.6485ZM17.5477 56.4373C17.6197 56.2308 17.7019 55.9934 17.7944 55.7352C17.815 55.6733 17.8766 55.6217 17.9383 55.6113H19.1923V59.7311H17.8355C17.7533 59.38 17.7122 59.029 17.5991 58.6779C17.4038 57.8829 16.8077 57.2427 16.0265 56.9846C14.824 56.5406 13.498 57.1704 13.0663 58.3681C13.0458 58.4198 13.0355 58.4714 13.0149 58.523C12.7683 59.2871 12.6552 60.0924 12.686 60.8978C12.6655 61.6619 12.7785 62.4259 13.0149 63.159C13.4055 64.3464 14.6698 65.0072 15.8621 64.6355C16.3143 64.5529 16.6124 64.1399 16.561 63.6856C16.561 63.3036 16.561 62.9215 16.561 62.5395C16.561 62.0749 16.376 61.9097 15.9032 61.8993H15.2043V60.5777H20.7649V61.8993H20.1071C19.6343 61.8993 19.4081 62.1058 19.4081 62.6015V66.0191C19.182 65.9984 18.9456 65.9984 18.7092 66.0191C18.37 66.1327 18 65.9365 17.8869 65.5958C17.8766 65.5545 17.8664 65.5131 17.8561 65.4615C17.8561 65.3996 17.7944 65.3376 17.7636 65.255C17.2291 65.6577 16.6021 65.9365 15.9443 66.0501C14.2175 66.4424 12.4085 66.0501 11.0107 64.9659C10.1678 64.2638 9.62307 63.2623 9.47917 62.1781C9.2736 61.094 9.34555 59.9685 9.68474 58.9154C10.1884 57.2427 11.576 55.9934 13.2822 55.6733C14.3203 55.3842 15.4201 55.4461 16.4171 55.8385C16.7974 56.014 17.1572 56.2515 17.5477 56.4373ZM72.9896 57.1395C72.3215 57.0775 71.6637 57.3356 71.2217 57.8416C70.8722 58.3888 70.7078 59.0393 70.7489 59.6898H69.4538C69.4538 59.6898 69.3716 59.5865 69.3716 59.5246C69.3716 59.1322 69.3716 58.7398 69.3716 58.3475V55.7972H79.28C79.465 55.7972 79.5061 55.8488 79.5061 56.0243V59.4523C79.5061 59.6072 79.5061 59.6588 79.3108 59.6485C78.91 59.6485 78.5091 59.6485 78.1288 59.6485C78.0671 59.2355 78.0363 58.8431 77.9438 58.4714C77.7793 57.7383 77.1626 57.2117 76.4123 57.1704L75.8676 57.1188C75.8676 57.2014 75.8676 57.2634 75.8676 57.3253V63.8095C75.8676 64.3361 76.0526 64.5116 76.5665 64.5116H77.3682V65.8229H71.4684V64.5219H72.1673C72.8663 64.5219 72.9793 64.3671 72.9793 63.7062V57.3253C73.0102 57.284 72.9999 57.2221 72.9896 57.1395ZM27.302 65.8436V64.5323H27.5384C27.8056 64.5323 28.0729 64.5323 28.3401 64.5323C28.5662 64.5323 28.7615 64.3567 28.7923 64.1296C28.8129 64.0263 28.8232 63.9231 28.8232 63.8198V57.8312C28.8232 57.315 28.6176 57.1291 28.1242 57.1291H27.2917V55.7972H33.0168C33.2018 55.7972 33.2635 55.8385 33.2532 56.0243C33.2532 56.3754 33.2532 56.7264 33.2532 57.1291H32.3178C31.8759 57.1291 31.66 57.3253 31.66 57.759V64.429C31.66 64.4497 31.66 64.4806 31.66 64.5013H31.7628C32.3384 64.5013 32.9037 64.5013 33.4793 64.5013C34.4455 64.5839 35.3089 63.8611 35.3911 62.8906C35.4014 62.8286 35.4014 62.7667 35.4014 62.7047C35.4322 62.395 35.4425 62.0749 35.4733 61.7445H36.8609V65.8436H27.302ZM20.8882 57.1395V55.8178H26.8189V57.1395H26.0172C25.3902 57.1395 25.3182 57.2427 25.3182 57.8829V63.7888C25.3182 63.8818 25.3182 63.9747 25.3182 64.0573C25.3285 64.3154 25.5444 64.5219 25.8013 64.5219C26.0583 64.5219 26.3255 64.5219 26.5825 64.5219H26.7675V65.8332H20.8985V64.5323C21.176 64.5323 21.4535 64.5323 21.7208 64.5323C21.875 64.5323 22.0291 64.5013 22.173 64.4393C22.3992 64.3154 22.4197 64.0676 22.4197 63.8302V57.7073C22.4197 57.315 22.2758 57.1601 21.875 57.1601L20.8882 57.1395Z" fill="white"/>
</svg>
