<svg width="158" height="34" viewBox="0 0 158 34" fill="none" xmlns="http://www.w3.org/2000/svg">
<g id="logo-gorgias 1" clip-path="url(#clip0_465_593)">
<g id="Clip path group">
<mask id="mask0_465_593" style="mask-type:luminance" maskUnits="userSpaceOnUse" x="0" y="0" width="158" height="34">
<g id="clip0_1090_1773">
<path id="Vector" d="M157.182 0H0V34H157.182V0Z" fill="white"/>
</g>
</mask>
<g mask="url(#mask0_465_593)">
<g id="Group">
<path id="Vector_2" fill-rule="evenodd" clip-rule="evenodd" d="M31.246 33.6696H33.4172C33.9202 33.6696 34.3437 33.2751 34.3703 32.8066V10.7877C34.3703 8.61784 32.4906 6.86718 30.1605 6.86718H27.3804C26.8774 6.86718 26.4538 6.47267 26.4538 6.00417V4.00693C26.4538 1.83709 24.5738 0.0864258 22.2439 0.0864258H4.266C1.93602 0.0864258 0.0561523 1.83709 0.0561523 4.00693V26.1246C0.0561523 28.2697 1.93602 30.0203 4.266 30.045H25.1034C25.2887 30.045 25.4741 30.0945 25.633 30.1931L30.7166 33.5217C30.8754 33.6204 31.0607 33.6696 31.246 33.6696ZM26.189 26.9137H4.31896C3.7894 26.9137 3.39226 26.5438 3.39226 26.0506V4.05624C3.39226 3.58775 3.81587 3.19324 4.31896 3.19324H22.191C22.694 3.19324 23.1176 3.58775 23.1176 4.05624V6.00417C23.1176 6.47267 22.694 6.86718 22.191 6.86718H8.87298C8.36994 6.86718 7.94629 7.26169 7.94629 7.73019V22.4013C7.94629 22.8698 8.36994 23.2643 8.87298 23.2643H25.5006C26.0037 23.2643 26.4273 22.8698 26.4273 22.4013V10.837C26.4273 10.3685 26.8508 9.97399 27.3539 9.97399H30.081C30.5842 9.97399 31.0078 10.3685 31.0078 10.837V28.8368C31.0078 29.2808 30.4782 29.5271 30.1075 29.2808L26.7186 27.0616C26.5596 26.963 26.3743 26.9137 26.189 26.9137ZM22.6411 20.1328H11.7325C11.4942 20.1328 11.2824 19.9602 11.2824 19.7136V10.3932C11.2824 10.1713 11.4677 9.97399 11.7325 9.97399H22.6411C22.8794 9.97399 23.0911 10.1466 23.0911 10.3932V19.7136C23.0911 19.9356 22.9058 20.1328 22.6411 20.1328ZM118.706 4.77489C120.096 4.77489 121.223 3.72535 121.223 2.43066C121.223 1.13597 120.096 0.0864258 118.706 0.0864258C117.315 0.0864258 116.189 1.13597 116.189 2.43066C116.189 3.72535 117.315 4.77489 118.706 4.77489ZM89.9899 8.20209V6.89972H85.9343V23.1357H89.9899V12.044L94.7212 10.2207V6.4222H94.6748L89.9899 8.20209ZM74.277 6.8851C71.6432 6.8851 69.4988 7.68821 67.8671 9.31616C67.1214 10.0759 66.5386 10.9441 66.1191 11.9643C65.7231 12.9627 65.5132 14.0263 65.5132 15.1334C65.5132 17.4125 66.2123 19.3009 67.6342 20.7551C69.1958 22.3613 71.3401 23.1428 74.067 23.1428C76.7242 23.1428 78.8452 22.3397 80.4536 20.7118C81.9683 19.1706 82.7377 17.2388 82.7377 14.8945C82.7377 12.5503 81.9917 10.6619 80.5234 9.18592C78.9619 7.6448 76.8874 6.8851 74.277 6.8851ZM77.4467 18.4326C76.6775 19.3226 75.6056 19.7783 74.2535 19.7783C72.8084 19.7783 71.6198 19.3226 70.7342 18.411C70.3146 17.9986 69.9882 17.4775 69.7553 16.8914C69.5222 16.3055 69.4055 15.6976 69.4055 15.0465C69.4055 13.7441 69.7785 12.6589 70.5477 11.7472C71.3866 10.7705 72.5289 10.2712 73.9972 10.2712C75.4421 10.2712 76.5845 10.727 77.4 11.6604C78.1695 12.5286 78.5655 13.6573 78.5655 15.0682C78.5889 16.4357 78.2159 17.5644 77.4467 18.4326ZM116.652 6.90238H120.684V23.1601H116.652V6.90238ZM55.121 6.8851C52.8136 6.8851 50.9255 7.51458 49.4572 8.77352C48.0818 9.96733 47.3827 11.465 47.3827 13.2666C47.3827 14.8728 47.9886 16.1968 49.2009 17.2605C48.152 18.0419 47.639 18.9752 47.639 20.0822C47.639 20.7551 47.7323 21.3412 47.8956 21.8404C48.0589 22.3613 48.385 22.7955 48.8977 23.1863C47.0798 24.1196 46.1942 25.6389 46.264 27.7227C46.3108 29.5244 47.1496 30.9568 48.7815 32.0423C50.4128 33.1276 52.5803 33.6702 55.2374 33.6702C57.8945 33.6702 59.8758 33.1927 61.2274 32.2376C62.5795 31.2825 63.2552 29.915 63.2552 28.1136C63.2552 26.3335 62.7191 24.9443 61.6472 23.9676C61.0643 23.4466 60.3186 23.0343 59.4095 22.6652C58.4775 22.318 57.2186 22.0141 55.587 21.7753C53.9556 21.5366 52.7902 21.276 52.0909 20.9505C51.7647 20.8203 51.5548 20.6683 51.4616 20.5164C51.3683 20.3644 51.3219 20.1474 51.3219 19.8652C51.3219 19.583 51.5314 19.1922 51.9278 18.693C52.8369 18.9752 53.8389 19.1272 54.9112 19.1272C57.1021 19.1272 58.8969 18.5195 60.3186 17.2822C60.9481 16.7179 61.4373 16.045 61.7869 15.2852C62.1366 14.5256 62.2997 13.679 62.2997 12.7457C62.2997 11.8123 62.0666 10.9224 61.6004 10.0976C61.6004 10.0976 61.6004 10.0758 61.5771 10.0758H63.2786V6.8851H55.121ZM52.3008 24.4451L53.1398 24.5753C55.4937 24.901 57.1719 25.3351 58.1277 25.9211C58.9901 26.4204 59.4095 27.0933 59.4095 27.9181C59.4095 29.6545 58.081 30.5011 55.4239 30.5011C53.8624 30.5011 52.6037 30.1971 51.6246 29.6111C51.1818 29.3507 50.8322 29.025 50.5993 28.6561C50.343 28.2871 50.2263 27.8747 50.2263 27.3755C50.2263 26.8761 50.3894 26.3552 50.7159 25.8126C51.0656 25.2482 51.6017 24.8141 52.3008 24.4451ZM57.3819 15.1334C56.7291 15.6759 55.96 15.9581 55.0977 15.9581C53.9322 15.9581 53 15.6543 52.2774 15.0465C51.9512 14.786 51.7179 14.4604 51.5314 14.1349C51.3683 13.7876 51.2751 13.4403 51.2751 13.0713C51.2751 12.7023 51.345 12.3333 51.5084 11.9643C52.0211 10.727 53.1632 10.1193 54.9576 10.1193C56.0298 10.1193 56.8925 10.3797 57.4984 10.9007C58.1045 11.4216 58.4306 12.1162 58.4306 12.9627C58.4072 13.7876 58.0576 14.5256 57.3819 15.1334ZM138.49 10.4232C138.793 11.1612 138.956 12.0294 138.956 12.9627V23.0994H134.994V22.3397C133.805 22.8389 132.71 23.0994 131.708 23.0994C130.449 23.0994 129.4 22.9909 128.514 22.7737C127.629 22.5567 126.883 22.2311 126.277 21.8188C125.042 20.9505 124.412 19.7133 124.412 18.1071C124.412 16.6744 125.158 15.4589 126.697 14.5038C128.351 13.462 130.612 12.941 133.456 12.941L134.108 12.9627C134.175 12.9627 134.243 12.9678 134.313 12.973C134.388 12.9786 134.466 12.9845 134.551 12.9845C134.63 12.9948 134.702 13.0003 134.772 13.0055C134.848 13.0111 134.921 13.0165 134.994 13.0279C134.901 11.4216 134.155 10.4666 132.756 10.2061C132.314 10.1193 131.801 10.0758 131.288 10.0758C130.752 10.0758 130.239 10.1193 129.75 10.2061C129.237 10.2929 128.748 10.4232 128.281 10.5534C127.256 10.8573 126.487 11.2263 126.044 11.617L125.997 11.5953L125.508 8.27427C127.396 7.34093 129.493 6.8851 131.754 6.8851C135.274 6.8851 137.511 8.05721 138.49 10.4232ZM134.994 19.2574V17.1736V15.7628C134.691 15.7194 134.388 15.6976 134.085 15.6976H133.432C131.055 15.6976 129.54 16.1968 128.887 17.1736C128.701 17.4558 128.608 17.7597 128.608 18.0853C128.608 18.411 128.677 18.693 128.794 18.9319C128.934 19.1706 129.144 19.3876 129.423 19.5396C129.983 19.8435 130.822 19.9955 131.918 19.9955C133.013 19.9955 134.039 19.735 134.994 19.2574ZM153.852 14.0697C154.529 14.3736 155.089 14.7426 155.507 15.1767C156.277 15.9581 156.673 17 156.673 18.3458C156.673 19.7567 156.067 20.9071 154.854 21.7971C153.597 22.7304 151.826 23.1863 149.541 23.1863C146.791 23.1863 144.646 22.7521 143.131 21.9056V17.9117C143.131 17.8899 143.225 17.9768 143.388 18.1504C143.551 18.3241 143.877 18.5195 144.32 18.7799C144.763 19.0404 145.299 19.2574 145.882 19.4528C147.164 19.8652 148.492 20.0605 149.89 20.0605C151.755 20.0605 152.687 19.4745 152.687 18.3241C152.687 17.9551 152.501 17.6729 152.152 17.4992C151.522 17.1953 150.59 16.9566 149.354 16.8047C148.119 16.6311 147.117 16.414 146.325 16.1101C145.532 15.8061 144.879 15.4372 144.39 15.0248C143.481 14.2217 143.015 13.1798 143.015 11.8992C143.015 10.3363 143.667 9.0991 144.949 8.20917C146.231 7.31921 148.003 6.8851 150.264 6.8851C152.501 6.8851 154.412 7.47118 155.997 8.66499C155.927 8.92536 155.858 9.18601 155.764 9.42469C155.507 10.0976 155.321 10.5751 155.205 10.8573L154.832 11.7472C154.809 11.834 154.785 11.8775 154.785 11.8775C154.762 11.8775 154.669 11.7689 154.529 11.5518C153.852 10.8138 152.781 10.3363 151.359 10.0976C150.916 10.0107 150.473 9.96733 150.007 9.96733C148.049 9.96733 147.07 10.51 147.07 11.617C147.07 11.986 147.257 12.2899 147.676 12.4852C148.446 12.8759 149.494 13.1581 150.823 13.3317C152.152 13.5271 153.154 13.7659 153.852 14.0697ZM104.787 6.8851C102.48 6.8851 100.592 7.51458 99.1236 8.77352C97.7486 9.96733 97.0493 11.465 97.0493 13.2666C97.0493 14.8728 97.6553 16.1968 98.8672 17.2605C97.8184 18.0419 97.3058 18.9752 97.3058 20.0822C97.3058 20.7551 97.399 21.3412 97.5621 21.8404C97.7252 22.3613 98.0513 22.7955 98.5644 23.1863C96.7463 24.1196 95.8604 25.6389 95.9303 27.7227C95.9771 29.5244 96.8161 30.9568 98.4477 32.0423C100.079 33.1276 102.247 33.6702 104.904 33.6702C107.561 33.6702 109.542 33.1927 110.894 32.2376C112.246 31.2825 112.922 29.915 112.922 28.1136C112.922 26.3335 112.386 24.9443 111.314 23.9676C110.731 23.4466 109.985 23.0343 109.076 22.6652C108.144 22.318 106.885 22.0141 105.254 21.7753C103.622 21.5366 102.456 21.276 101.757 20.9505C101.431 20.8203 101.221 20.6683 101.128 20.5164C101.035 20.3644 100.988 20.1474 100.988 19.8652C100.988 19.583 101.198 19.1922 101.594 18.693C102.503 18.9752 103.506 19.1272 104.578 19.1272C106.769 19.1272 108.563 18.5195 109.985 17.2822C110.614 16.7179 111.104 16.045 111.453 15.2852C111.803 14.5256 111.966 13.679 111.966 12.7457C111.966 11.8123 111.733 10.9224 111.267 10.0976C111.267 10.0976 111.267 10.0758 111.244 10.0758H112.945V6.8851H104.787ZM101.967 24.4451L102.806 24.5753C105.16 24.901 106.839 25.3351 107.794 25.9211C108.656 26.4204 109.076 27.0933 109.076 27.9181C109.076 29.6545 107.747 30.5011 105.09 30.5011C103.529 30.5011 102.27 30.1971 101.291 29.6111C100.849 29.3507 100.499 29.025 100.266 28.6561C100.009 28.2871 99.8929 27.8747 99.8929 27.3755C99.8929 26.8761 100.056 26.3552 100.382 25.8126C100.732 25.2482 101.268 24.8141 101.967 24.4451ZM107.048 15.1334C106.396 15.6759 105.626 15.9581 104.764 15.9581C103.599 15.9581 102.666 15.6543 101.944 15.0465C101.618 14.786 101.385 14.4604 101.198 14.1349C101.035 13.7876 100.942 13.4403 100.942 13.0713C100.942 12.7023 101.012 12.3333 101.175 11.9643C101.688 10.727 102.829 10.1193 104.624 10.1193C105.697 10.1193 106.559 10.3797 107.165 10.9007C107.771 11.4216 108.097 12.1162 108.097 12.9627C108.074 13.7876 107.724 14.5256 107.048 15.1334Z" fill="white"/>
</g>
</g>
</g>
</g>
<defs>
<clipPath id="clip0_465_593">
<rect width="157.182" height="34" fill="white"/>
</clipPath>
</defs>
</svg>
