<svg width="229" height="27" viewBox="0 0 229 27" fill="none" xmlns="http://www.w3.org/2000/svg">
<g clip-path="url(#clip0_775_2432)">
<path fill-rule="evenodd" clip-rule="evenodd" d="M19.9815 3.63037V11.1871H22.4051C24.0746 11.1871 24.317 9.06265 24.317 7.31464C24.317 5.27081 23.94 3.63037 22.2166 3.63037H19.9815ZM23.8323 0.430176C27.1984 0.430176 28.7333 2.36643 28.7333 6.91125C28.7333 11.4561 27.2791 11.967 25.6365 12.8007C28.9218 14.0646 28.6525 17.5875 28.6525 17.5875V24.3107C28.6525 26.3545 29.0295 26.4083 29.0295 26.4083H24.9902C24.4516 25.9511 24.3439 23.6921 24.3439 23.6921V17.6144C24.3439 15.974 24.1554 14.7907 23.1052 14.7907H19.9007V26.4083H15.9961V0.430176H23.8323Z" fill="white"/>
<path fill-rule="evenodd" clip-rule="evenodd" d="M36.5689 16.0009H38.6693L37.4844 7.39531L36.542 16.0009H36.5689ZM31.1832 26.4083L35.1147 0.430176H39.7195L44.3243 26.4083H40.0965L39.154 19.712H36.3535L35.3302 26.4083H31.1562H31.1832Z" fill="white"/>
<path fill-rule="evenodd" clip-rule="evenodd" d="M43.168 0.430176L48.1767 15.4093V26.4083H52.2698V15.4093L56.9015 0.430176H52.4583L50.1963 8.71304L47.7189 0.430176H43.168Z" fill="white"/>
<path fill-rule="evenodd" clip-rule="evenodd" d="M60.1322 15.6784V13.043H56.0391V15.6784H60.1322Z" fill="white"/>
<path fill-rule="evenodd" clip-rule="evenodd" d="M63.1211 0.430176V26.4083H67.295V13.6881L70.8226 26.4083H74.835V0.430176H70.5534V12.1553L67.6451 0.430176H63.1211Z" fill="white"/>
<path fill-rule="evenodd" clip-rule="evenodd" d="M82.2378 26.4083V0.430176H77.9023V26.4083H82.2378Z" fill="white"/>
<path fill-rule="evenodd" clip-rule="evenodd" d="M117.383 0.430176H121.53V22.6164H126.996V26.4083H117.383V0.430176Z" fill="white"/>
<path fill-rule="evenodd" clip-rule="evenodd" d="M129.5 0.430176H133.62V22.6164H139.087V26.4083H129.5V0.430176Z" fill="white"/>
<path fill-rule="evenodd" clip-rule="evenodd" d="M228.973 16.8345C226.711 18.0177 225.984 19.0127 224.045 19.0127C222.106 19.0127 220.867 16.8882 217.501 16.8882C215.401 16.8882 181.606 16.942 172.046 16.942C162.486 16.942 157.801 22.5625 157.801 22.5625V4.06055C157.801 4.06055 162.54 9.68106 172.046 9.68106C181.552 9.68106 215.401 9.73485 217.501 9.73485C220.867 9.73485 222.133 7.61035 224.045 7.61035C225.957 7.61035 226.684 8.60537 228.973 9.78863V16.8345Z" fill="white"/>
<path fill-rule="evenodd" clip-rule="evenodd" d="M101.277 20.8687C101.277 28.9633 114.365 28.9633 114.365 20.9224V6.05093C114.365 -2.0168 101.277 -2.0168 101.277 6.10471V20.8687ZM109.948 21.4872C109.948 22.6704 108.979 23.6117 107.821 23.6117C106.636 23.6117 105.694 22.6704 105.694 21.4872V5.48619C105.694 4.30292 106.663 3.36168 107.821 3.36168C109.006 3.36168 109.948 4.30292 109.948 5.48619V21.4872Z" fill="white"/>
<path fill-rule="evenodd" clip-rule="evenodd" d="M93.9249 21.4871C93.9249 22.6435 92.9824 23.6116 91.7975 23.6116C90.6396 23.6116 89.6702 22.6704 89.6702 21.4871V5.48615C89.6702 4.32977 90.6127 3.36165 91.7975 3.36165C92.9824 3.36165 93.9249 4.30288 93.9249 5.48615V8.74013H98.3412V6.07778C98.3412 -1.98995 85.2539 -1.98995 85.2539 6.13157V20.8955C85.2539 28.9901 98.3412 28.9901 98.3412 20.9493V17.5609H93.9249V21.4871Z" fill="white"/>
<path fill-rule="evenodd" clip-rule="evenodd" d="M6.8937 14.764H8.61712V21.4602C8.67098 22.6166 7.75541 23.6116 6.59748 23.6654C5.43956 23.7191 4.4432 22.8048 4.38935 21.6484C4.38935 21.5946 4.38935 21.514 4.38935 21.4602V5.48608C4.33549 4.32971 5.25106 3.33469 6.40898 3.2809C7.56691 3.22712 8.56326 4.14146 8.61712 5.29783C8.61712 5.35162 8.61712 5.43229 8.61712 5.48608V8.44425H13.0873V6.07771C13.0873 -1.99002 0 -1.99002 0 6.10461V20.8686C0 26.6235 6.57056 28.7211 9.88276 25.3327L10.7175 26.4084H13.0873V11.1604H6.92063V14.7909L6.8937 14.764Z" fill="white"/>
<path fill-rule="evenodd" clip-rule="evenodd" d="M154.247 8.68616V6.10449C154.247 -1.93635 141.16 -1.93635 141.16 6.15827V9.27779C141.268 10.5417 141.833 11.6981 142.776 12.5587C142.776 12.5587 148.781 17.0766 148.943 17.238C149.454 17.7489 149.777 18.4212 149.831 19.1473V21.487C149.885 22.6433 148.969 23.6384 147.811 23.6921C146.654 23.7459 145.657 22.8316 145.603 21.6752C145.603 21.6214 145.603 21.5407 145.603 21.487V17.6413H141.187V20.9222C141.187 29.0168 154.274 29.0168 154.274 20.976V18.0178C154.22 16.727 153.682 15.4899 152.739 14.5756C152.739 14.5756 146.681 9.977 146.573 9.89632C146.007 9.41226 145.657 8.68616 145.603 7.93317C145.603 7.8525 145.603 5.45907 145.603 5.45907C145.55 4.30269 146.465 3.30767 147.623 3.25389C148.781 3.20011 149.777 4.11445 149.831 5.27082C149.831 5.32461 149.831 5.40528 149.831 5.45907V8.68616H154.247Z" fill="white"/>
</g>
<defs>
<clipPath id="clip0_775_2432">
<rect width="229" height="27" fill="white"/>
</clipPath>
</defs>
</svg>
