<svg width="162" height="40" viewBox="0 0 162 40" fill="none" xmlns="http://www.w3.org/2000/svg">
<g clip-path="url(#clip0_120_1268)">
<path d="M151.351 4.64685C153.393 4.64685 154.72 5.90511 154.72 7.55937C154.72 9.21363 153.393 10.5038 151.351 10.5038H145.599V4.64685H151.351ZM155.745 13.7549C158.064 12.5924 159.519 10.3186 159.519 7.55937C159.519 3.42053 156.337 0.476078 151.822 0.476078H139.267V0.539949C140.285 0.967885 140.903 1.73434 140.903 3.08201V19.3308C140.903 20.6785 140.285 21.4449 139.267 21.8729V21.9367H147.242V21.8729C146.224 21.4449 145.606 20.6785 145.606 19.3308V14.6107H151.171L153.303 19.2733C153.922 20.621 153.703 21.3874 152.717 21.8792V21.9431H161.033V21.8792C160.015 21.4513 159.056 20.7423 158.495 19.5479L155.745 13.7549ZM127.144 22.3391C132.555 22.3391 136.697 18.5707 136.697 13.1736V3.08201C136.697 1.73434 137.315 0.967885 138.333 0.539949V0.476078H130.358V0.539949C131.376 0.967885 131.994 1.73434 131.994 3.08201V12.8287C131.994 15.9265 129.862 17.8873 127.138 17.8873C124.413 17.8873 122.313 15.9265 122.313 12.8287V3.08201C122.313 1.73434 122.931 0.967885 123.949 0.539949V0.476078H115.974V0.539949C116.992 0.967885 117.61 1.73434 117.61 3.08201V13.1672C117.61 18.5643 121.752 22.3327 127.131 22.3327M104.031 18.0087C100.257 18.0087 97.6285 15.1856 97.6285 11.2C97.6285 7.21447 100.257 4.39137 104.031 4.39137C107.806 4.39137 110.402 7.21447 110.402 11.2C110.402 15.1856 107.774 18.0087 104.031 18.0087ZM104.031 22.3327C110.615 22.3327 115.253 17.7979 115.253 11.2064C115.253 4.61492 110.634 0.0800781 104.044 0.0800781C97.4546 0.0800781 92.8231 4.61492 92.8231 11.2064C92.8231 17.7979 97.4611 22.3327 104.044 22.3327M77.0219 12.9181H83.4248C85.7438 12.9181 86.7036 14.1764 86.7036 15.4602C86.7036 16.744 85.7438 17.9767 83.4248 17.9767H77.0219V12.9181ZM77.0219 4.4233H82.9288C84.8162 4.4233 85.7438 5.43247 85.7438 6.72266C85.7438 8.01285 84.8162 9.05395 82.9288 9.05395H77.0219V4.43608V4.4233ZM83.9466 21.9303C88.3655 21.9303 91.5219 19.2925 91.5219 15.6774C91.5219 13.4674 90.3173 11.6599 87.8115 10.804C89.7311 9.66711 90.4719 7.98092 90.4719 6.35859C90.4719 3.20337 87.7793 0.469691 83.296 0.469691H70.6833V0.533562C71.7011 0.961497 72.3195 1.72795 72.3195 3.07563V19.3308C72.3195 20.6785 71.7011 21.4449 70.6833 21.8729V21.9367H83.9466V21.9303ZM59.7068 4.64685C61.7488 4.64685 63.0758 5.90511 63.0758 7.55937C63.0758 9.21363 61.7488 10.5038 59.7068 10.5038H53.9545V4.64685H59.7068ZM64.1 13.7549C66.419 12.5924 67.8748 10.3186 67.8748 7.55937C67.8748 3.42053 64.6926 0.476078 60.1771 0.476078H47.6224V0.539949C48.6402 0.967885 49.2586 1.73434 49.2586 3.08201V19.3308C49.2586 20.6785 48.6402 21.4449 47.6224 21.8729V21.9367H55.5971V21.8729C54.5793 21.4449 53.9609 20.6785 53.9609 19.3308V14.6107H59.5265L61.6586 19.2733C62.277 20.621 62.058 21.3874 61.0725 21.8792V21.9431H69.3886V21.8792C68.3708 21.4513 67.411 20.7423 66.8506 19.5479L64.1 13.7549ZM35.1901 4.9215L38.0953 12.982H32.2849L35.1901 4.9215ZM39.0229 2.92872C38.5591 1.7024 38.9005 0.967885 39.9182 0.539949V0.476078H30.5199V0.539949C31.5377 0.967885 31.8791 1.7024 31.3831 2.92872L25.0446 19.4841C24.5486 20.7104 23.6532 21.4449 22.6354 21.8729V21.9367H30.8613V21.8729C29.8436 21.4449 29.5022 20.7104 29.9338 19.4521L30.7969 17.0634H39.5768L40.44 19.4521C40.9038 20.7104 40.5624 21.4449 39.5446 21.8729V21.9367H47.8028V21.8729C46.785 21.4449 45.8574 20.7104 45.3936 19.4841L39.0229 2.92872ZM22.8544 0.476078H14.8475V0.539949C15.8653 0.967885 16.4837 1.73434 16.4837 3.08201V8.84956H6.89859V3.08201C6.89859 1.73434 7.51699 0.967885 8.53476 0.539949V0.476078H0.560059V0.539949C1.57783 0.967885 2.19623 1.73434 2.19623 3.08201V19.3308C2.19623 20.6785 1.57783 21.4449 0.560059 21.8729V21.9367H8.53476V21.8729C7.51699 21.4449 6.89859 20.6785 6.89859 19.3308V13.2311H16.4837V19.3308C16.4837 20.6785 15.8653 21.4449 14.8475 21.8729V21.9367H22.8544V21.8729C21.8367 21.4449 21.2183 20.6785 21.2183 19.3308V3.08201C21.2183 1.73434 21.8367 0.967885 22.8544 0.539949V0.476078ZM123.337 30.9809V29.8184H118.106V38.9647H123.459V37.7895H119.427V34.9472H123.202V33.772H119.427V30.9872H123.337V30.9809ZM109.314 37.7703V29.8184H107.98V38.9647H113.468V37.7703H109.314ZM99.9218 32.9736L97.4546 29.8184H95.8571L99.2647 34.1233V38.9583H100.617V34.1233L104.025 29.8184H102.428L99.9282 32.9736H99.9218ZM92.6814 30.9681V29.8184H84.9772V30.9681H88.1401V38.9583H89.467V30.9681H92.6814ZM77.9108 29.697C77.389 29.697 76.9188 29.7929 76.513 29.9909C76.1007 30.1889 75.7786 30.4635 75.5467 30.8084C75.3084 31.1597 75.1924 31.5429 75.1924 31.9709C75.1924 32.5329 75.3342 33.0183 75.6176 33.4143C75.901 33.8167 76.3841 34.2127 77.0734 34.6087C77.6596 34.9472 78.0976 35.2347 78.381 35.471C78.6709 35.7073 78.8577 35.9117 78.9415 36.0905C79.0252 36.2694 79.0703 36.4738 79.0703 36.7037C79.0703 37.055 78.9415 37.3424 78.6838 37.5659C78.4261 37.7895 78.104 37.9045 77.7176 37.9045C77.2409 37.9045 76.79 37.7895 76.3584 37.5596C75.9268 37.3296 75.5532 36.9975 75.2247 36.5632V38.2238C75.9977 38.7859 76.8222 39.0669 77.7111 39.0669C78.2329 39.0669 78.6967 38.9647 79.1025 38.7539C79.5083 38.5432 79.824 38.2558 80.0494 37.8981C80.2749 37.534 80.3908 37.1316 80.3908 36.6845C80.3908 36.2374 80.3264 35.8798 80.1976 35.5732C80.0687 35.2666 79.8368 34.9728 79.5019 34.679C79.1669 34.3916 78.6709 34.053 78.0203 33.6826C77.5823 33.4335 77.2473 33.2099 77.0283 33.0119C76.8093 32.8139 76.6676 32.6351 76.6032 32.4754C76.5387 32.3158 76.5065 32.1369 76.5065 31.9325C76.5065 31.6068 76.6289 31.3513 76.8737 31.1597C77.1185 30.9681 77.447 30.8723 77.8593 30.8723C78.6451 30.8723 79.3602 31.1852 80.0172 31.8239V30.3358C79.3602 29.9078 78.658 29.697 77.8979 29.697M69.9748 30.9809V29.8184H64.7442V38.9647H70.0971V37.7895H66.0647V34.9472H69.8395V33.772H66.0647V30.9872H69.9748V30.9809ZM59.5844 30.9936V29.8184H54.6695V38.9647H55.99V34.7173H59.5844V33.5421H55.99V31H59.5844V30.9936ZM48.8785 29.8184H47.558V38.9647H48.8785V29.8184ZM38.4946 37.7703V29.8184H37.1612V38.9647H42.6495V37.7703H38.4946Z" fill="white"/>
</g>
<defs>
<clipPath id="clip0_120_1268">
<rect width="161.04" height="39.6" fill="white" transform="translate(0.560059 0.0800781)"/>
</clipPath>
</defs>
</svg>
