<svg width="112" height="32" viewBox="0 0 112 32" fill="none" xmlns="http://www.w3.org/2000/svg">
<g id="klaviyo-logo-dark 1" clip-path="url(#clip0_465_599)">
<g id="Clip path group">
<mask id="mask0_465_599" style="mask-type:luminance" maskUnits="userSpaceOnUse" x="0" y="0" width="112" height="32">
<g id="clip0_1097_1769">
<path id="Vector" d="M112 0H0V32H112V0Z" fill="white"/>
</g>
</mask>
<g mask="url(#mask0_465_599)">
<g id="Group">
<path id="Vector_2" d="M63.5986 6.39386C64.1939 6.39693 64.7668 6.17565 65.1955 5.77712C65.6226 5.38018 65.8703 4.83678 65.8849 4.26475C65.8779 3.68478 65.6347 3.13077 65.2079 2.72242C64.7794 2.31232 64.2021 2.07954 63.5986 2.07349C63.0036 2.08685 62.4374 2.32389 62.0208 2.73414C61.606 3.14276 61.3748 3.6927 61.3774 4.26475C61.3825 4.82881 61.6182 5.36811 62.0334 5.76521C62.45 6.16399 63.0118 6.38948 63.5986 6.39386ZM79.1343 8.44112H84.6483V8.86047C84.3427 8.9121 84.0475 9.00992 83.7735 9.15033C83.2694 9.37637 82.2612 10.472 81.4873 12.3081C80.1765 15.4985 78.7995 19.267 77.3538 23.5858L76.8156 25.2237C76.5798 25.9639 76.3782 26.447 76.2774 26.7386C76.1765 27.0302 76.0415 27.4789 75.8075 28.0258C75.6739 28.4373 75.5024 28.8364 75.2948 29.2182C75.0247 29.7014 74.5206 30.6923 74.1175 30.9903C73.4784 31.5062 72.5369 32.086 71.3614 31.9894C69.0751 31.9894 67.3612 30.3517 67.327 28.4142C67.327 27.0923 68.2018 26.2227 69.5125 26.2227C70.454 26.2227 71.2929 26.714 71.2929 27.736C71.2929 28.478 70.5206 29.251 70.5206 29.6375C70.5206 30.6365 71.1255 31.1115 72.3028 31.1115C73.2426 31.1115 74.0115 30.5317 74.5874 29.3721C75.3615 28.0505 75.4281 26.6011 74.789 24.9894L69.9499 12.714C68.8394 9.87925 67.9986 8.94735 66.9579 8.84745V8.4279H74.5874V8.84707C73.68 8.94382 73.2102 9.45972 73.2102 10.3931C73.2102 11.0695 73.4784 12.1014 73.9825 13.423L74.8898 15.8063C75.9322 18.384 76.7694 20.6393 77.2102 22.0577C78.1843 19.126 79.0899 16.5481 79.9665 14.2928C80.6054 12.6173 80.9079 11.4251 80.9079 10.7159C80.9079 9.45972 80.2022 8.88 79.1258 8.88L79.1343 8.44112ZM26.0545 24.1328C25.0806 23.9691 24.24 23.1338 24.24 21.3617V0L18.6934 1.15963V1.61172C19.6349 1.51498 20.5729 2.31907 20.5729 4.02735V21.3617C20.5729 23.0372 19.6315 24.0035 18.6934 24.1328C18.6053 24.1477 18.5161 24.1582 18.4268 24.1639C17.9468 24.1955 17.4659 24.1141 17.0257 23.9265C16.2806 23.6153 15.6588 23.0601 15.1324 22.2315L12.5695 18.3007C12.0289 17.4716 11.2254 16.8331 10.2786 16.4802C9.32949 16.1259 8.28764 16.0751 7.30641 16.3353L10.1976 13.2745C12.3813 10.9553 14.3995 9.47312 16.3148 8.86065V8.44093H9.95508V8.86028C11.6021 9.47275 11.5013 10.8257 9.6133 12.9548L5.5466 17.4962V0L0 1.15963V1.61172C0.941494 1.61172 1.87952 2.51237 1.87952 4.09117V21.3617C1.87952 23.2633 0.972337 24.0035 0 24.1328V24.5522H7.3679V24.1328C6.15826 23.9691 5.55334 23.07 5.55334 21.3617V18.1728L7.13215 16.4975L10.9564 22.5213C11.8637 23.9723 12.7044 24.5522 14.0492 24.5522H26.8475V24.2245C26.8475 24.2245 26.4817 24.2 26.0545 24.1328ZM41.3239 22.0955V14.8891C41.2503 10.1773 39.1895 8.03182 34.4702 8.03182C32.9634 8.02053 31.4962 8.49673 30.3026 9.38437C29.0587 10.2869 28.4538 11.3187 28.4538 12.511C28.4538 13.6707 29.1254 14.5403 30.2342 14.5403C31.4116 14.5403 32.2524 13.8965 32.2524 12.9942C32.2524 12.3178 31.7806 11.3827 31.7806 10.739C31.7806 9.57786 32.6897 8.57879 34.2685 8.57879C36.2866 8.57879 37.7305 10.03 37.7305 13.2513V15.184L36.0507 15.5705C35.1759 15.7342 34.4378 15.898 33.8653 16.0618C33.2929 16.2255 32.5548 16.4484 31.6798 16.7693C29.9317 17.4147 28.992 18.0272 28.1839 19.1868C27.7883 19.7472 27.5774 20.41 27.579 21.0882C27.579 23.7611 29.5285 24.9862 32.2524 24.9862C34.4035 24.9862 36.6949 23.8905 37.7305 21.8285C37.7454 22.4789 37.9078 23.1183 38.2073 23.7022C39.3469 25.9131 43.1215 24.6062 43.1215 24.6062V24.187C41.4691 24.4342 41.3325 22.5507 41.3239 22.0955ZM37.7355 19.8647C37.7355 20.9277 37.3323 21.7974 36.5259 22.4098C35.7535 23.0225 34.9469 23.3451 34.1062 23.3451C32.459 23.3451 31.3825 22.3133 31.3825 20.4117C31.3825 19.511 31.8951 18.6724 32.3241 18.1894C32.664 17.8557 33.0626 17.5828 33.5013 17.3835C34.0721 17.0935 34.3556 16.9445 34.7453 16.771L36.2832 16.224C37.0555 15.9342 37.5254 15.7735 37.727 15.677L37.7355 19.8647ZM112 8.44112H98.9266V0H112L109.255 4.22065L112 8.44112ZM85.4259 22.5015C84.6216 21.7086 83.9873 20.7702 83.5596 19.7402C83.1317 18.7102 82.9187 17.6087 82.9328 16.4992C82.9152 15.3948 83.1265 14.2981 83.5544 13.2737C83.9831 12.2475 84.6194 11.314 85.4259 10.5276C87.0749 8.8506 89.0945 8.01042 91.4525 8.01042C93.7746 8.01042 95.7963 8.8506 97.445 10.5276C98.2626 11.3077 98.9082 12.2394 99.3428 13.2666C99.7768 14.2919 99.9903 15.3918 99.9705 16.4992C99.9873 17.6108 99.7726 18.7143 99.339 19.7443C98.9045 20.7762 98.2606 21.7137 97.445 22.5015C95.7963 24.1393 93.7746 24.9862 91.4525 24.9862C89.0945 24.9862 87.0749 24.1475 85.4259 22.5015ZM94.4821 10.7963C93.8175 9.54995 92.9442 8.81953 91.919 8.62288C89.8396 8.22177 88.001 10.2705 87.3158 13.5282C87.0234 14.9894 86.9525 16.4839 87.1055 17.9648C87.2561 19.4469 87.6858 20.89 88.3734 22.2233C89.0398 23.4713 89.9114 24.2 90.9365 24.3965C93.0161 24.7978 94.9075 22.6622 95.5979 19.3717C96.1705 16.622 95.8799 13.2727 94.4736 10.7946L94.4821 10.7963Z" fill="white"/>
<path id="Vector_3" d="M65.5473 21.3615V8.44092H53.7145V8.82921C55.295 9.05524 56.0467 10.1985 55.3293 12.0523C51.6316 21.6857 51.8673 21.2534 51.6316 22.0264C51.3958 21.2845 50.8574 19.4617 49.9843 17.1752C49.1111 14.8889 48.5387 13.3725 48.303 12.696C47.3957 10.0214 47.6981 9.02232 49.1777 8.86194V8.44259H41.5125V8.86194C42.6556 9.08799 43.6637 10.344 44.5045 12.5992L45.6816 15.531C46.9752 18.6984 48.4944 23.0647 49.0017 24.5537H51.5495C52.3696 22.2607 55.6606 13.1103 56.1016 12.18C56.5766 11.1204 57.1147 10.3178 57.7164 9.76259C58.0072 9.46343 58.3606 9.22738 58.7531 9.07013C59.1465 8.91247 59.5699 8.83701 59.9957 8.84874C59.9957 8.84874 61.8428 8.84874 61.8428 10.557V21.3615C61.8428 23.1632 60.9355 24.0033 59.9939 24.1327V24.552H67.3227V24.1327C66.3538 24.0033 65.5473 23.1663 65.5473 21.3615Z" fill="white"/>
</g>
</g>
</g>
</g>
<defs>
<clipPath id="clip0_465_599">
<rect width="112" height="32" fill="white"/>
</clipPath>
</defs>
</svg>
