<svg width="204" height="36" viewBox="0 0 204 36" fill="none" xmlns="http://www.w3.org/2000/svg">
<g id="Group">
<g id="Group_2">
<path id="Vector" d="M81.194 34.8611V35.8016H77.3608V30.2815H81.1247V31.222H78.434V32.5525H80.7584V33.4237H78.434V34.8631H81.194V34.8611Z" fill="white"/>
<path id="Vector_2" d="M85.0509 32.2634V35.8016H83.9778V30.2815H84.8094L87.6862 33.9048V30.2894H88.7594V35.8016H87.8882L85.0509 32.2634Z" fill="white"/>
<path id="Vector_3" d="M95.6872 35.1799C95.2476 35.6214 94.7329 35.8412 94.1488 35.8412C93.7864 35.8412 93.4459 35.768 93.1271 35.6234C92.8083 35.4789 92.5312 35.2789 92.2955 35.0255C92.0599 34.772 91.8738 34.4731 91.7352 34.1266C91.5986 33.7821 91.5293 33.4098 91.5293 33.0119C91.5293 32.6337 91.5986 32.2773 91.7352 31.9427C91.8718 31.6081 92.0619 31.315 92.3035 31.0636C92.545 30.8121 92.8281 30.6122 93.1548 30.4657C93.4815 30.3172 93.8359 30.2439 94.2201 30.2439C94.7388 30.2439 95.1823 30.3528 95.5545 30.5706C95.9248 30.7884 96.204 31.0814 96.3901 31.4497L95.5902 32.0397C95.4496 31.7645 95.2536 31.5546 95.0041 31.4101C94.7527 31.2655 94.4794 31.1923 94.1844 31.1923C93.9508 31.1923 93.7369 31.2418 93.5429 31.3408C93.3489 31.4398 93.1826 31.5744 93.0459 31.7447C92.9093 31.915 92.8024 32.113 92.7272 32.3367C92.6519 32.5585 92.6143 32.7961 92.6143 33.0435C92.6143 33.3029 92.6559 33.5445 92.7391 33.7702C92.8222 33.9959 92.9351 34.1919 93.0816 34.3563C93.2261 34.5226 93.3984 34.6533 93.5984 34.7483C93.7983 34.8433 94.0141 34.8928 94.2478 34.8928C94.7824 34.8928 95.2635 34.6414 95.6931 34.1385V33.7504H94.5824V32.9644H96.5802V35.8016H95.6931V35.1799H95.6872Z" fill="white"/>
<path id="Vector_4" d="M99.4353 35.8016V30.2815H100.508V34.8611H103.324V35.8016H99.4353Z" fill="white"/>
<path id="Vector_5" d="M107.49 30.2815H108.438L110.537 35.8016H109.432L108.919 34.4255H106.991L106.486 35.8016H105.381L107.49 30.2815ZM108.725 33.6712L107.963 31.5011L107.169 33.6712H108.725Z" fill="white"/>
<path id="Vector_6" d="M114.16 32.2634V35.8016H113.087V30.2815H113.919L116.796 33.9048V30.2894H117.869V35.8016H116.998L114.16 32.2634Z" fill="white"/>
<path id="Vector_7" d="M120.963 35.8016V30.2815H122.969C123.421 30.2815 123.815 30.3547 124.155 30.4993C124.494 30.6438 124.779 30.8418 125.006 31.0893C125.234 31.3388 125.406 31.6298 125.519 31.9645C125.634 32.2991 125.69 32.6555 125.69 33.0336C125.69 33.4534 125.626 33.8335 125.499 34.1721C125.373 34.5127 125.191 34.8017 124.951 35.0433C124.713 35.2848 124.426 35.4709 124.092 35.6036C123.757 35.7363 123.383 35.8016 122.969 35.8016H120.963ZM124.61 33.0336C124.61 32.7703 124.575 32.5268 124.502 32.303C124.428 32.0813 124.323 31.8892 124.183 31.7269C124.042 31.5665 123.87 31.4417 123.666 31.3526C123.46 31.2655 123.228 31.22 122.969 31.22H122.037V34.8591H122.969C123.234 34.8591 123.468 34.8116 123.672 34.7186C123.876 34.6255 124.048 34.4968 124.185 34.3345C124.321 34.1701 124.426 33.9781 124.5 33.7543C124.575 33.5326 124.61 33.293 124.61 33.0336Z" fill="white"/>
</g>
<g id="Group_3">
<path id="Vector_8" d="M53.3538 9.80867C53.3202 9.77105 53.2806 9.73938 53.2449 9.70176C53.1756 9.63048 53.1083 9.56118 53.039 9.49189L53.0331 9.49386C53.0311 9.49188 53.0291 9.4899 53.0271 9.48792C53.2905 9.18499 53.5221 8.87216 53.7201 8.54943C55.0942 6.30416 54.9853 2.53235 52.4351 1.14836C51.6055 0.696931 50.5364 0.469238 49.2256 0.469238H43.1868C43.8025 1.16816 44.1114 1.98984 44.1114 2.93428V18.9561C44.1114 19.9005 43.8025 20.7222 43.1868 21.4211H49.2256C50.1542 21.4211 50.9561 21.2983 51.6372 21.0568C52.3381 20.8152 52.9123 20.4489 53.3558 19.954C53.6389 19.6372 53.8726 19.2788 54.0626 18.8907C54.4012 18.2017 54.5913 17.4018 54.6368 16.4831H54.6467V16.0713V13.6874V13.2756H54.6329C54.5656 11.848 54.1418 10.6898 53.3538 9.80867ZM47.1902 5.01125V3.24513C47.1902 3.19167 49.3246 3.22137 49.5266 3.24711C50.3403 3.35007 51.0927 3.6728 51.3699 4.5024C51.4135 4.63506 51.4471 4.7796 51.4709 4.93601C51.4788 4.98947 51.4828 5.04491 51.4887 5.10035C51.4867 5.20727 51.4808 5.31022 51.4709 5.41318C51.4234 5.88837 51.2808 6.32594 51.0947 6.71995C51.0452 6.82489 50.9937 6.92587 50.9383 7.02288C50.7225 7.40699 50.473 7.73764 50.2433 8.00296C50.0354 8.24055 49.8454 8.42667 49.7127 8.54744L47.1922 10.5076V9.89976V8.19699C47.1922 8.19699 47.1922 5.01125 47.1902 5.01125ZM51.5659 16.1346C51.5659 16.2574 51.56 16.3762 51.5521 16.489C51.4749 17.5562 51.0313 18.2235 50.2255 18.4908C49.9542 18.5818 49.6414 18.6294 49.287 18.6294H48.7801H47.2536V17.2592V13.9903L48.7425 12.8321L49.0435 12.5984L49.5068 12.2381L50.5621 11.4184C51.2313 11.7906 51.5679 12.5252 51.5679 13.628V16.1346H51.5659Z" fill="white"/>
<path id="Vector_9" d="M21.7083 2.81348C21.6252 1.88884 21.8014 1.10874 22.233 0.471191C20.2214 0.471191 15.7031 0.471191 15.4537 0.471191C15.8853 1.10874 16.0595 1.88884 15.9783 2.81348L14.921 8.75135L13.0817 19.0828C12.8758 19.9876 12.4342 20.7677 11.7571 21.425H16.6872C16.1942 20.7261 16.0298 19.9044 16.1942 18.96L16.41 17.7265H21.2787L21.4945 18.96C21.6588 19.9044 21.4945 20.7261 21.0015 21.425H25.9316C25.2544 20.7677 24.8109 19.9876 24.607 19.0828L21.7083 2.81348ZM16.901 14.9526L18.8414 3.64506L20.7817 14.9526H16.901Z" fill="white"/>
<path id="Vector_10" d="M74.5473 0.471191H69.6172C70.0904 1.00578 70.3795 1.61561 70.4884 2.29473C70.5221 2.50262 70.5399 2.71448 70.5399 2.93623V18.958C70.5399 19.9025 70.231 20.7241 69.6152 21.4231H74.5453C73.9296 20.7241 73.6207 19.9025 73.6207 18.958V2.93623C73.6227 1.99179 73.9315 1.17011 74.5473 0.471191Z" fill="white"/>
<path id="Vector_11" d="M82.283 0.471191H76.2441C76.8599 1.17011 77.1688 1.99179 77.1688 2.93623V18.958C77.1688 19.9025 76.8599 20.7241 76.2441 21.4231H82.283C84.1323 21.4231 85.4866 20.9399 86.3498 19.9757C87.2131 19.0095 87.6447 17.7166 87.6447 16.093V5.49433C87.6447 2.14623 85.8568 0.471191 82.283 0.471191ZM84.5619 16.1544C84.5619 17.8176 83.8016 18.6511 82.281 18.6511H80.2476V3.2451H82.281C83.8016 3.2451 84.5619 3.97373 84.5619 5.43295V16.1544Z" fill="white"/>
<path id="Vector_12" d="M103.459 2.93626V18.958C103.459 19.9025 103.15 20.7242 102.534 21.4231H112.394V18.0334C111.921 18.4452 111.099 18.6492 109.929 18.6492H106.541V12.1787H108.698C109.868 12.1787 110.689 12.3846 111.163 12.7944V8.789C110.689 9.20083 109.868 9.40477 108.698 9.40477H106.541V3.24315H109.931C111.101 3.24315 111.923 3.44907 112.396 3.85892V0.469238H102.536C103.152 1.17014 103.459 1.99182 103.459 2.93626Z" fill="white"/>
<path id="Vector_13" d="M140.889 2.81348C140.806 1.88884 140.983 1.10874 141.414 0.471191H134.635C135.066 1.10874 135.241 1.88884 135.159 2.81348L132.263 19.0828C132.057 19.9876 131.615 20.7677 130.938 21.425H135.868C135.375 20.7261 135.211 19.9044 135.375 18.96L135.591 17.7265H140.46L140.676 18.96C140.84 19.9044 140.676 20.7261 140.183 21.425H145.113C144.436 20.7677 143.992 19.9876 143.788 19.0828L140.889 2.81348ZM136.084 14.9526L138.024 3.64506L139.965 14.9526H136.084Z" fill="white"/>
<path id="Vector_14" d="M144.319 4.16972C145.018 3.55395 145.839 3.24508 146.784 3.24508H147.709V21.425H150.789V3.24508H151.714C152.658 3.24508 153.48 3.55395 154.179 4.16972V0.473145H144.319V4.16972Z" fill="white"/>
<path id="Vector_15" d="M180.229 0.471191H175.299C175.915 1.17011 176.224 1.99179 176.224 2.93623V9.40672H171.909V2.93623C171.909 1.99179 172.218 1.17011 172.834 0.471191H167.904C168.52 1.17011 168.829 1.99179 168.829 2.93623V18.958C168.829 19.9025 168.52 20.7241 167.904 21.4231H172.834C172.218 20.7241 171.909 19.9025 171.909 18.958V12.1787H176.224V18.958C176.224 19.9025 175.915 20.7241 175.299 21.4231H180.229C179.613 20.7241 179.305 19.9025 179.305 18.958V2.93623C179.307 1.99179 179.613 1.17011 180.229 0.471191Z" fill="white"/>
<path id="Vector_16" d="M182.781 2.93626V18.958C182.781 19.9025 182.472 20.7242 181.857 21.4231H191.717V18.0334C191.244 18.4452 190.422 18.6492 189.252 18.6492H185.862V12.1787H188.018C189.188 12.1787 190.01 12.3846 190.483 12.7944V8.789C190.01 9.20083 189.188 9.40477 188.018 9.40477H185.862V3.24315H189.252C190.422 3.24315 191.244 3.44907 191.717 3.85892V0.469238H181.857C182.472 1.17014 182.781 1.99182 182.781 2.93626Z" fill="white"/>
<path id="Vector_17" d="M200.587 18.6511H197.197V2.93623C197.197 1.76608 197.403 0.9444 197.813 0.471191H193.501C193.911 0.9444 194.116 1.76608 194.116 2.93623V18.958C194.116 20.1282 193.911 20.9498 193.501 21.4231H203.052V18.0334C202.579 18.4452 201.757 18.6511 200.587 18.6511Z" fill="white"/>
<path id="Vector_18" d="M41.5652 0.481201H37.9597L34.0156 11.8204L30.0399 0.481201H26.4661C27.0818 1.18012 27.3907 2.0018 27.3907 2.94624V18.968C27.3907 19.9125 27.0818 20.7341 26.4661 21.4331H31.3961C30.7804 20.7341 30.4715 19.9125 30.4715 18.968V9.81668C31.2615 11.8897 33.6236 18.081 34.0156 19.1027C34.8591 16.8713 37.5399 9.77312 37.5597 9.72362V18.968C37.5597 19.9125 37.2509 20.7341 36.6351 21.4331H41.5652C40.9494 20.7341 40.6405 19.9125 40.6405 18.968V2.94624C40.6405 2.0018 40.9494 1.18012 41.5652 0.481201Z" fill="white"/>
<path id="Vector_19" d="M68.1698 20.8786C67.8332 20.4945 67.564 20.0549 67.3481 19.5916C67.1244 19.1125 66.9937 18.5977 66.8611 18.0849C66.7482 17.6493 64.9682 10.7967 64.9682 10.7967C65.683 10.1235 66.3621 9.38695 66.8888 8.55537C67.9837 6.82687 68.1045 4.16779 66.9739 2.41949C66.6274 1.8849 66.1483 1.45129 65.5899 1.14836C64.7603 0.696931 63.6912 0.469238 62.3804 0.469238H56.3416C56.7831 0.968186 57.0623 1.53247 57.187 2.15814C57.2365 2.40761 57.2642 2.66501 57.2642 2.93428C57.2642 6.23486 57.2642 18.9184 57.2642 18.9561C57.2642 19.9005 56.9554 20.7222 56.3396 21.4211H56.3832H60.3926H61.3132C61.3073 21.4152 61.3033 21.4072 61.2974 21.4013C60.7351 20.7558 60.4361 20.0054 60.3965 19.1501C60.3965 19.1501 60.4064 14.8239 60.4084 14.8219V14.3903C61.0816 13.8735 61.7528 13.3528 62.4398 12.8558L62.4577 12.9291L64.0654 19.1659C64.2218 19.9342 64.1327 20.645 63.7981 21.2983C63.7961 21.3003 63.7961 21.3043 63.7941 21.3063C63.7803 21.332 63.7704 21.3577 63.7565 21.3835H68.0471H68.6866C68.5044 21.235 68.3322 21.0647 68.1698 20.8786ZM64.6277 5.41318C64.5802 5.88837 64.4376 6.32594 64.2515 6.71995C64.202 6.82489 64.1505 6.92587 64.0951 7.02288C63.8793 7.40699 63.6298 7.73764 63.4001 8.00296C63.1922 8.24055 63.0021 8.42667 62.8695 8.54744L60.3906 10.4759V9.88391V8.18313V3.24513H62.3804C62.7012 3.24513 62.9883 3.28077 63.2417 3.34611C63.8971 3.51441 64.3248 3.90049 64.5267 4.50438C64.5703 4.63704 64.6039 4.78158 64.6277 4.93403V4.93601C64.6356 4.98947 64.6396 5.04491 64.6455 5.10035C64.6435 5.20727 64.6376 5.31022 64.6277 5.41318Z" fill="white"/>
<path id="Vector_20" d="M101.001 14.3448C101.001 13.3865 101.001 12.0064 101.001 11.1947L101.013 11.165H95.6873V14.719C96.1446 14.321 96.9327 14.1012 98.0078 14.0656C98.0117 14.0656 98.0137 14.0656 98.0177 14.0656C98.0177 14.0656 98.0236 15.6139 98.0177 16.2752C98.0058 17.6968 96.8653 19.0254 95.414 19.0254C93.8558 19.0254 92.8579 17.7681 92.8421 16.2138C92.8421 16.2 92.8401 5.89036 92.8401 5.86066C92.8401 5.77157 92.8441 5.68247 92.85 5.59535C92.9391 4.3658 93.6558 3.36394 94.7765 3.08675C94.9765 3.03725 95.1883 3.00755 95.4121 3.00755C96.7822 3.00755 97.6831 3.98565 97.9365 5.33004L98.0196 5.77553H101.023L100.95 5.1657C100.602 2.22151 98.378 0 95.4121 0C92.1808 0 89.8306 2.6274 89.8306 5.85868C89.8306 5.8864 89.8306 16.1426 89.8306 16.1723C89.8306 19.4035 92.1808 22.0309 95.4121 22.0309C97.9444 22.0309 99.9303 20.4094 100.675 18.1027C101.106 16.6435 101.001 15.0556 101.001 14.3448Z" fill="white"/>
<path id="Vector_21" d="M128.449 11.4105H128.437C127.279 10.3987 125.889 9.72553 124.592 8.91573C123.899 8.48212 123.177 8.01881 122.704 7.33573C121.466 5.55179 122.882 2.90855 125.058 2.96399C126.962 3.01151 128.418 5.16372 127.347 6.86846C127.337 6.88628 127.234 7.03478 127.19 7.09021H130.576V6.96548C130.576 5.51219 130.534 4.08464 129.772 2.78579C128.473 0.574187 125.731 -0.540525 123.274 0.259376C120.813 1.06126 119.199 3.5758 119.353 6.13588C119.498 8.53162 121.197 10.2859 123.141 11.4877C124.937 12.5965 128.461 14.0636 127.58 16.788C127.558 16.8534 127.537 16.9167 127.511 16.9801C127.135 17.9324 126.254 18.6373 125.228 18.7403C123.175 18.9482 121.424 16.7088 122.591 14.8497C122.601 14.8318 122.612 14.816 122.624 14.7982C122.664 14.7388 122.704 14.6833 122.747 14.6279H119.361V14.7407C119.361 16.2237 119.401 17.6434 120.177 18.9521C121.484 21.1578 124.226 22.2586 126.677 21.4528C129.144 20.641 130.726 18.1324 130.584 15.5723C130.497 13.9131 129.691 12.4895 128.449 11.4105Z" fill="white"/>
<path id="Vector_22" d="M7.98911 16.1782C7.98911 17.7166 7.01101 18.966 5.47259 18.966C3.93417 18.966 2.95607 17.7146 2.95607 16.1782C2.95607 16.1782 2.95607 5.85671 2.95607 5.85275C2.95607 4.5143 3.78369 3.23129 5.18748 3.08081C6.61898 2.92638 8.01485 3.92229 8.01485 5.42706C8.01485 5.58941 8.01485 5.75375 7.98911 5.92997C7.93367 6.29428 7.81686 6.63879 7.62084 6.94172C7.60896 6.95954 7.59906 6.97538 7.58718 6.9932C7.54758 7.05062 7.506 7.10804 7.46046 7.16348H10.9274V7.0526V6.98924V5.42508C10.9274 4.03911 10.375 2.70858 9.3929 1.73049C8.4148 0.756348 7.07239 0.168302 5.69039 0.114843C4.28264 0.0613841 2.88875 0.544495 1.8473 1.49685C0.86128 2.39773 0.245514 3.64906 0.0613786 4.96573C0.0197995 5.25678 0 5.55378 0 5.85275V16.1782C0 19.3521 2.30071 21.924 5.47259 21.924C8.64448 21.924 10.9452 19.3521 10.9452 16.1782V14.9407H7.98911V16.1782Z" fill="white"/>
<path id="Vector_23" d="M163.908 16.002C163.908 17.5345 162.934 18.7799 161.402 18.7799C159.869 18.7799 158.895 17.5345 158.895 16.002C158.895 16.002 158.895 5.72998 158.895 5.71414C158.895 4.39351 159.772 3.10655 161.144 2.95013C163.19 2.71452 164.679 5.04888 163.542 6.80114C163.532 6.81896 163.427 6.96547 163.384 7.02091H166.839C166.839 7.02091 166.839 5.28846 166.839 5.28648C166.839 2.24131 163.853 -0.225715 160.885 0.0197993C158.056 0.253434 155.951 2.96201 155.951 5.71613V16.004C155.951 19.1659 158.242 21.728 161.404 21.728C164.566 21.728 166.856 19.1659 166.856 16.004V14.7705H163.91V16.002H163.908Z" fill="white"/>
</g>
</g>
</svg>
