<svg width="57" height="24" viewBox="0 0 57 24" fill="none" xmlns="http://www.w3.org/2000/svg">
<path d="M7.064 17V7.004H8.814V15.488H13.896V17H7.064ZM18.5051 14.564V13.374C18.2997 13.5047 18.0011 13.6027 17.6091 13.668C17.2544 13.7147 16.8997 13.7613 16.5451 13.808C15.6771 13.9573 15.2431 14.3587 15.2431 15.012C15.2431 15.3293 15.4204 15.572 15.7751 15.74C16.0457 15.8707 16.3584 15.936 16.7131 15.936C17.1424 15.936 17.5297 15.8333 17.8751 15.628C18.2951 15.376 18.5051 15.0213 18.5051 14.564ZM20.1011 11.666V15.39C20.1011 15.754 20.2271 15.936 20.4791 15.936C20.6284 15.936 20.7591 15.9267 20.8711 15.908V17.014C20.5257 17.1353 20.1897 17.196 19.8631 17.196C19.1537 17.196 18.7431 16.902 18.6311 16.314C18.0337 16.902 17.1984 17.196 16.1251 17.196C15.4251 17.196 14.8511 17.0187 14.4031 16.664C13.8991 16.2813 13.6471 15.754 13.6471 15.082C13.6471 14.2793 13.9457 13.7007 14.5431 13.346C14.9071 13.1313 15.5371 12.9587 16.4331 12.828C17.4411 12.6787 17.9451 12.604 17.9451 12.604C18.3837 12.4733 18.6031 12.2073 18.6031 11.806C18.6031 11.1527 18.1037 10.826 17.1051 10.826C16.1064 10.826 15.5744 11.2087 15.5091 11.974H13.9131C14.0064 10.3687 15.1031 9.566 17.2031 9.566C17.9964 9.566 18.6544 9.72467 19.1771 10.042C19.7931 10.4153 20.1011 10.9567 20.1011 11.666ZM27.3344 9.762V17H25.7664V15.992H25.7384C25.5424 16.3467 25.2484 16.636 24.8564 16.86C24.4737 17.084 24.0817 17.196 23.6804 17.196C21.879 17.196 20.9784 16.2487 20.9784 14.354V9.762H22.5744V14.2C22.5744 15.3573 23.0364 15.936 23.9604 15.936C25.1457 15.936 25.7384 15.278 25.7384 13.962V9.762H27.3344ZM28.1774 17V9.762H29.6894V10.826L29.7174 10.854C30.2308 9.99533 30.9821 9.566 31.9714 9.566C32.7741 9.566 33.3994 9.776 33.8474 10.196C34.3048 10.616 34.5334 11.2273 34.5334 12.03V17H32.9374V12.45C32.9374 11.3673 32.4661 10.826 31.5234 10.826C31.0008 10.826 30.5761 11.008 30.2494 11.372C29.9321 11.736 29.7734 12.1887 29.7734 12.73V17H28.1774ZM41.8585 12.184H40.2625C40.1318 11.2787 39.5812 10.826 38.6105 10.826C38.0785 10.826 37.6445 10.9893 37.3085 11.316C36.8512 11.764 36.6225 12.478 36.6225 13.458C36.6225 14.1393 36.7672 14.704 37.0565 15.152C37.4018 15.6747 37.8965 15.936 38.5405 15.936C39.0072 15.936 39.3898 15.7913 39.6885 15.502C39.9965 15.2033 40.1878 14.7973 40.2625 14.284H41.8585C41.5505 16.2253 40.4445 17.196 38.5405 17.196C37.4392 17.196 36.5712 16.8367 35.9365 16.118C35.3298 15.446 35.0265 14.5593 35.0265 13.458C35.0265 12.31 35.3252 11.386 35.9225 10.686C36.5572 9.93933 37.4485 9.566 38.5965 9.566C39.4832 9.566 40.2158 9.78067 40.7945 10.21C41.4292 10.6767 41.7838 11.3347 41.8585 12.184ZM42.3158 17V7.004H43.9118V10.714H43.9398C44.1451 10.378 44.4391 10.1027 44.8218 9.888C45.2138 9.67333 45.6431 9.566 46.1098 9.566C46.9124 9.566 47.5378 9.776 47.9858 10.196C48.4431 10.616 48.6718 11.2273 48.6718 12.03V17H47.0758V12.45C47.0758 11.3673 46.6044 10.826 45.6618 10.826C45.1391 10.826 44.7144 11.008 44.3878 11.372C44.0704 11.736 43.9118 12.1887 43.9118 12.73V17H42.3158Z" fill="white"/>
<path d="M40.5343 1H4C2.34314 1 1 2.34315 1 4V20C1 21.6569 2.34315 23 4 23H53C54.6569 23 56 21.6569 56 20V12.3449" stroke="white" stroke-width="2" stroke-linecap="round"/>
</svg>
