<svg width="123" height="33" viewBox="0 0 123 33" fill="none" xmlns="http://www.w3.org/2000/svg">
<path d="M7.03847 21.8341H3.46009V4.03396L0 5.49538V2.45562C1.24208 1.75414 2.09971 1.4034 3.46009 0.497314H7.03847V21.8341Z" fill="white"/>
<path d="M18.3937 21.8341H14.8153V4.03396L11.3552 5.49538V2.45562C12.7452 1.78337 13.5141 1.28648 14.8153 0.497314H18.3937V21.8341Z" fill="white"/>
<path d="M29.6325 21.8341H26.0541V4.03396L22.594 5.49538V2.45562C24.0727 1.66645 24.7529 1.31571 26.0541 0.497314H29.6325V21.8341Z" fill="white"/>
<path d="M55.7153 5.52418C52.5214 3.91661 49.2683 3.09821 45.9265 3.09821C43.7085 3.09821 42.0228 3.36127 40.8695 3.85816C39.6865 4.35504 39.095 5.08575 39.095 5.99184C39.095 6.92715 39.7161 7.62863 40.9582 8.06705C41.8454 8.38857 43.324 8.59316 45.335 8.71008C48.3219 8.91468 50.2738 9.06082 51.2497 9.17774C53.9409 9.52848 55.9519 10.2007 57.2531 11.1653C58.5543 12.1298 59.205 13.5035 59.205 15.2573C59.205 17.5078 58.1995 19.2616 56.1589 20.4892C54.1479 21.7168 51.2201 22.3598 47.4347 22.3598C41.9341 22.3598 37.6459 21.1614 34.5703 18.7647L36.5517 16.1926C39.9231 18.2386 43.5606 19.2616 47.4643 19.2616C49.9781 19.2616 51.9595 18.9108 53.3494 18.2386C54.6802 17.5663 55.3308 16.6602 55.3308 15.4911C55.3308 14.1466 54.4436 13.2405 52.6988 12.7728C51.782 12.539 49.3274 12.2759 45.3055 12.0421C41.7567 11.8083 39.2429 11.3406 37.8234 10.6392C36.1673 9.82076 35.3096 8.4178 35.3096 6.48872C35.3096 4.47195 36.256 2.89362 38.1487 1.75371C40.0414 0.584569 42.7326 0 46.1927 0C50.8357 0 54.7394 1.05222 57.8742 3.15667L55.7153 5.52418Z" fill="white"/>
<path d="M87.211 21.8341H82.5976L72.2469 10.6396L65.7407 15.3746V21.8341H62.1624V0.497314H65.7407V11.5749L80.8527 0.497314H85.9985L74.9676 8.5936L87.211 21.8341Z" fill="white"/>
<path d="M93.1841 0.497314H89.6057V21.8341H93.1841V0.497314Z" fill="white"/>
<path d="M122.14 21.8341H117.704L101.231 4.35547V21.8341H97.6233V0.497314H102.089L118.561 18.0052V0.497314H122.14V21.8341Z" fill="white"/>
<path d="M7.63006 32.619H7.00901V30.4853H4.05167V32.619H3.46021V27.8547H4.05167V29.7838H7.00901V27.8547H7.63006V32.619Z" fill="white"/>
<path d="M16.1482 32.619H15.468L15.054 31.5668H12.5698L12.1558 32.619H11.4756L13.4274 27.8547H14.1963L16.1482 32.619ZM14.7582 30.836L13.8119 28.527L12.8655 30.836H14.7582Z" fill="white"/>
<path d="M24.1914 32.619H23.4816L22.4761 30.8068H20.613V32.619H19.9919V27.8547H22.9197C23.3042 27.8547 23.5999 28.0009 23.8365 28.2639C24.0435 28.527 24.1618 28.907 24.1618 29.3746C24.1618 29.7838 24.0731 30.1053 23.8956 30.3392C23.7182 30.573 23.5112 30.7191 23.2154 30.7776L24.1914 32.619ZM22.831 30.0761C23.3042 30.0761 23.5407 29.8423 23.5407 29.3454C23.5407 28.8193 23.2746 28.5562 22.7718 28.5562H20.613V30.0761H22.831Z" fill="white"/>
<path d="M31.8224 32.619H28.3623V27.8547H28.9833V31.8883H31.8224V32.619Z" fill="white"/>
<path d="M39.5692 32.619H35.6951V27.8547H39.4213V28.5562H36.3161V29.7838H38.475V30.4853H36.3161V31.8883H39.5692V32.619Z" fill="white"/>
<path d="M47.584 27.8547L45.5434 30.7191V32.619H44.9519V30.7191L42.9114 27.8547H43.6803L45.2477 30.0761L46.8151 27.8547H47.584Z" fill="white"/>
<path d="M57.816 28.9649C57.2837 28.6142 56.7218 28.4388 56.1303 28.4388C55.7459 28.4388 55.4502 28.4973 55.2727 28.6142C55.0657 28.7311 54.977 28.8773 54.977 29.0819C54.977 29.2865 55.0953 29.4326 55.3023 29.5495C55.4502 29.608 55.7163 29.6664 56.0416 29.6957C56.5444 29.7249 56.8992 29.7833 57.0471 29.7833C57.5203 29.871 57.8456 30.0172 58.0822 30.2218C58.2892 30.4264 58.4075 30.7479 58.4075 31.1278C58.4075 31.6247 58.2301 32.0339 57.8752 32.297C57.5203 32.56 57.0175 32.7062 56.3669 32.7062C55.4206 32.7062 54.6812 32.4431 54.1489 31.8878L54.4742 31.3032C55.0657 31.7709 55.6867 31.9755 56.3374 31.9755C56.781 31.9755 57.1063 31.8878 57.3428 31.7416C57.5794 31.5955 57.6682 31.3909 57.6682 31.1278C57.6682 30.8356 57.5203 30.631 57.2246 30.514C57.0767 30.4556 56.6331 30.3971 55.9529 30.3387C55.3319 30.2802 54.9178 30.1925 54.6812 30.0172C54.3855 29.8418 54.2376 29.5203 54.2376 29.0819C54.2376 28.6434 54.3855 28.2927 54.7404 28.0296C55.0657 27.7666 55.5389 27.6497 56.1008 27.6497C56.8993 27.6497 57.5794 27.8835 58.1118 28.3511L57.816 28.9649Z" fill="white"/>
<path d="M65.8598 28.5562H64.0854V32.619H63.4939V28.5562H61.7195V27.8547H65.8598V28.5562Z" fill="white"/>
<path d="M67.2184 31.8882H66.4199V32.5905H67.2184V31.8882Z" fill="white"/>
<path d="M79.5829 32.619H76.1228V27.8547H76.7438V31.8883H79.5829V32.619Z" fill="white"/>
<path d="M87.6868 30.2221C87.6868 31.0113 87.4502 31.6251 86.9475 32.122C86.5039 32.5312 85.9716 32.765 85.3209 32.765C84.6703 32.765 84.1084 32.5604 83.6944 32.122C83.1917 31.6543 82.9551 31.0113 82.9551 30.2221C82.9551 29.4622 83.2212 28.8192 83.724 28.3515C84.1676 27.9131 84.6999 27.7085 85.3505 27.7085C86.0011 27.7085 86.5335 27.9131 86.9771 28.3515C87.4207 28.8192 87.6868 29.4622 87.6868 30.2221ZM87.0362 30.2221C87.0362 29.6668 86.8588 29.2284 86.4743 28.8776C86.149 28.5854 85.7645 28.4392 85.2914 28.4392C84.7886 28.4392 84.345 28.6146 84.0197 28.9361C83.6944 29.2868 83.5465 29.696 83.5465 30.2221C83.5465 30.7483 83.6944 31.1867 84.0197 31.5374C84.345 31.8589 84.7591 32.0343 85.2914 32.0343C85.8237 32.0343 86.2377 31.8589 86.5335 31.5374C86.8883 31.1867 87.0362 30.7483 87.0362 30.2221Z" fill="white"/>
<path d="M96.2917 32.619H95.5228L92.7133 28.7024V32.619H92.0923V27.8547H92.8612L95.6707 31.7421V27.8547H96.2917V32.619Z" fill="white"/>
<path d="M102.974 27.8547C103.624 27.8547 104.127 28.0886 104.512 28.527C104.896 28.9654 105.073 29.55 105.073 30.3099C105.073 30.9822 104.866 31.5668 104.482 32.0052C104.098 32.4144 103.654 32.6482 103.092 32.6482H100.637V27.884H102.974V27.8547ZM103.151 31.8883C103.506 31.8883 103.831 31.7421 104.068 31.4206C104.305 31.1283 104.423 30.7191 104.423 30.2515C104.423 29.7254 104.305 29.3162 104.038 29.0239C103.802 28.7024 103.447 28.5562 103.033 28.5562H101.259V31.8883H103.151Z" fill="white"/>
<path d="M113.766 30.2517C113.766 31.0409 113.529 31.6547 113.027 32.1515C112.583 32.5607 112.051 32.7946 111.4 32.7946C110.749 32.7946 110.188 32.59 109.774 32.1515C109.271 31.6547 109.034 31.0409 109.034 30.2517C109.034 29.4917 109.3 28.8487 109.803 28.3811C110.247 27.9426 110.779 27.738 111.43 27.738C112.08 27.738 112.613 27.9426 113.056 28.3811C113.529 28.878 113.766 29.4917 113.766 30.2517ZM113.145 30.2517C113.145 29.6963 112.967 29.2287 112.583 28.9072C112.258 28.6149 111.873 28.4687 111.4 28.4687C110.897 28.4687 110.454 28.6441 110.128 28.9656C109.803 29.3164 109.655 29.7256 109.655 30.2517C109.655 30.7778 109.803 31.2162 110.128 31.567C110.454 31.8885 110.868 32.0638 111.4 32.0638C111.932 32.0638 112.346 31.8885 112.672 31.567C112.967 31.2162 113.145 30.807 113.145 30.2517Z" fill="white"/>
<path d="M122.168 32.619H121.399L118.56 28.7024V32.619H117.968V27.8547H118.708L121.547 31.7421V27.8547H122.168V32.619Z" fill="white"/>
</svg>
