<svg width="54" height="24" viewBox="0 0 54 24" fill="none" xmlns="http://www.w3.org/2000/svg">
<path d="M6.462 13.668H8.212C8.212 14.396 8.45933 14.9467 8.954 15.32C9.39267 15.6467 9.99 15.81 10.746 15.81C11.4647 15.81 12.0107 15.6513 12.384 15.334C12.7013 15.0633 12.86 14.718 12.86 14.298C12.86 13.682 12.5847 13.2713 12.034 13.066C11.9593 13.038 10.9653 12.7627 9.052 12.24C7.57733 11.8387 6.84 10.994 6.84 9.706C6.84 8.76333 7.22267 8.02133 7.988 7.48C8.66933 7.004 9.50467 6.766 10.494 6.766C11.586 6.766 12.4867 7.03667 13.196 7.578C13.952 8.166 14.33 8.95933 14.33 9.958H12.58C12.5053 8.782 11.7867 8.194 10.424 8.194C9.93867 8.194 9.53267 8.28267 9.206 8.46C8.79533 8.69333 8.59 9.03867 8.59 9.496C8.59 10.14 8.98667 10.5693 9.78 10.784C10.5733 10.9893 11.5347 11.246 12.664 11.554C13.2893 11.7407 13.7793 12.086 14.134 12.59C14.4513 13.0473 14.61 13.5513 14.61 14.102C14.61 15.1473 14.1947 15.95 13.364 16.51C12.6453 16.9953 11.7353 17.238 10.634 17.238C9.42067 17.238 8.44533 16.9533 7.708 16.384C6.896 15.7587 6.48067 14.8533 6.462 13.668ZM21.6441 13.794H16.3241C16.3241 14.4007 16.4828 14.9 16.8001 15.292C17.1455 15.7213 17.6355 15.936 18.2701 15.936C19.1661 15.936 19.7541 15.5347 20.0341 14.732H21.5461C21.3781 15.5067 20.9908 16.1133 20.3841 16.552C19.7868 16.9813 19.0821 17.196 18.2701 17.196C17.1595 17.196 16.2915 16.846 15.6661 16.146C15.0408 15.446 14.7281 14.5267 14.7281 13.388C14.7281 12.324 15.0408 11.428 15.6661 10.7C16.3288 9.944 17.1828 9.566 18.2281 9.566C19.2455 9.566 20.0808 9.93933 20.7341 10.686C21.3595 11.386 21.6721 12.2447 21.6721 13.262C21.6721 13.4393 21.6628 13.6167 21.6441 13.794ZM16.3241 12.744H20.0481C20.0201 12.212 19.8381 11.7593 19.5021 11.386C19.1755 11.0127 18.7508 10.826 18.2281 10.826C17.6868 10.826 17.2388 11.008 16.8841 11.372C16.5295 11.736 16.3428 12.1933 16.3241 12.744ZM26.4834 14.564V13.374C26.2781 13.5047 25.9794 13.6027 25.5874 13.668C25.2328 13.7147 24.8781 13.7613 24.5234 13.808C23.6554 13.9573 23.2214 14.3587 23.2214 15.012C23.2214 15.3293 23.3988 15.572 23.7534 15.74C24.0241 15.8707 24.3368 15.936 24.6914 15.936C25.1208 15.936 25.5081 15.8333 25.8534 15.628C26.2734 15.376 26.4834 15.0213 26.4834 14.564ZM28.0794 11.666V15.39C28.0794 15.754 28.2054 15.936 28.4574 15.936C28.6068 15.936 28.7374 15.9267 28.8494 15.908V17.014C28.5041 17.1353 28.1681 17.196 27.8414 17.196C27.1321 17.196 26.7214 16.902 26.6094 16.314C26.0121 16.902 25.1768 17.196 24.1034 17.196C23.4034 17.196 22.8294 17.0187 22.3814 16.664C21.8774 16.2813 21.6254 15.754 21.6254 15.082C21.6254 14.2793 21.9241 13.7007 22.5214 13.346C22.8854 13.1313 23.5154 12.9587 24.4114 12.828C25.4194 12.6787 25.9234 12.604 25.9234 12.604C26.3621 12.4733 26.5814 12.2073 26.5814 11.806C26.5814 11.1527 26.0821 10.826 25.0834 10.826C24.0848 10.826 23.5528 11.2087 23.4874 11.974H21.8914C21.9848 10.3687 23.0814 9.566 25.1814 9.566C25.9748 9.566 26.6328 9.72467 27.1554 10.042C27.7714 10.4153 28.0794 10.9567 28.0794 11.666ZM28.9567 17V9.762H30.4547V11.162H30.4827C30.5761 10.7607 30.8327 10.3967 31.2527 10.07C31.6727 9.734 32.1207 9.566 32.5967 9.566C32.7181 9.566 32.9187 9.58 33.1987 9.608V11.148C32.8254 11.1013 32.5967 11.078 32.5127 11.078C31.9434 11.078 31.4814 11.2927 31.1267 11.722C30.7441 12.17 30.5527 12.7813 30.5527 13.556V17H28.9567ZM39.5206 12.184H37.9246C37.7939 11.2787 37.2433 10.826 36.2726 10.826C35.7406 10.826 35.3066 10.9893 34.9706 11.316C34.5133 11.764 34.2846 12.478 34.2846 13.458C34.2846 14.1393 34.4293 14.704 34.7186 15.152C35.0639 15.6747 35.5586 15.936 36.2026 15.936C36.6693 15.936 37.0519 15.7913 37.3506 15.502C37.6586 15.2033 37.8499 14.7973 37.9246 14.284H39.5206C39.2126 16.2253 38.1066 17.196 36.2026 17.196C35.1013 17.196 34.2333 16.8367 33.5986 16.118C32.9919 15.446 32.6886 14.5593 32.6886 13.458C32.6886 12.31 32.9873 11.386 33.5846 10.686C34.2193 9.93933 35.1106 9.566 36.2586 9.566C37.1453 9.566 37.8779 9.78067 38.4566 10.21C39.0913 10.6767 39.4459 11.3347 39.5206 12.184ZM39.9779 17V7.004H41.5739V10.714H41.6019C41.8072 10.378 42.1012 10.1027 42.4839 9.888C42.8759 9.67333 43.3052 9.566 43.7719 9.566C44.5746 9.566 45.1999 9.776 45.6479 10.196C46.1052 10.616 46.3339 11.2273 46.3339 12.03V17H44.7379V12.45C44.7379 11.3673 44.2666 10.826 43.3239 10.826C42.8012 10.826 42.3766 11.008 42.0499 11.372C41.7326 11.736 41.5739 12.1887 41.5739 12.73V17H39.9779Z" fill="white"/>
<path d="M38.3779 1H4C2.34315 1 1 2.34315 1 4V20C1 21.6569 2.34315 23 4 23H50C51.6569 23 53 21.6569 53 20V12.3449" stroke="white" stroke-width="2" stroke-linecap="round"/>
</svg>
