<svg width="80" height="33" viewBox="0 0 80 33" fill="none" xmlns="http://www.w3.org/2000/svg">
<g id="Case Furniture&#194;&#169; - Contemporary &#38; Designer Furniture Store-3 1" clip-path="url(#clip0_382_656)">
<path id="Vector" d="M29.9031 19.4574C29.9031 20.9993 31.1178 21.3901 32.4871 21.3901C35.7779 21.3901 35.9105 18.8277 35.9105 17.9156V16.3738C35.2037 16.9818 33.7019 17.0253 32.3988 17.2424C31.0957 17.503 29.9031 17.9373 29.9031 19.4574Z" fill="white"/>
<path id="Vector_2" d="M65.0869 11.3792C62.4145 11.3792 61.6414 13.4204 61.5752 14.5931H68.444C68.0464 12.4867 67.1409 11.3792 65.0869 11.3792Z" fill="white"/>
<path id="Vector_3" d="M16.4761 0C7.39879 0 0 7.2748 0 16.2C0 25.1252 7.39879 32.4 16.4761 32.4H78.9131V0H16.4761ZM17.0504 24.1697C12.4123 24.1697 9.29817 20.9558 9.29817 16.4172C9.29817 11.7265 12.1473 8.25204 17.1387 8.25204C20.7608 8.25204 24.0958 10.1196 24.3608 13.985H20.2307C19.9657 12.2912 18.8614 11.3791 17.1166 11.3791C14.4222 11.3791 13.5166 14.0719 13.5166 16.2868C13.5166 18.4584 14.3779 21.0427 17.0283 21.0427C18.9939 21.0427 20.1203 19.8265 20.3853 17.9807H24.4491C23.9191 21.9764 21.092 24.1697 17.0504 24.1697ZM36.3756 23.7571C36.221 23.2793 36.1105 22.8016 36.0884 22.3021C34.7412 23.6702 32.7976 24.1697 30.9203 24.1697C28.005 24.1697 25.686 22.7365 25.686 19.6311C25.686 16.2217 28.2921 15.3965 30.9203 15.0491C33.5044 14.6799 35.9118 14.7668 35.9118 13.0729C35.9118 11.2922 34.6528 11.0316 33.1731 11.0316C31.5608 11.0316 30.5228 11.6831 30.3903 13.3118H26.1718C26.4148 9.42467 29.9485 8.25204 33.3939 8.25204C36.4639 8.25204 40.1302 8.92523 40.1302 12.5518V20.4129C40.1302 21.781 40.2848 23.1491 40.6602 23.7788H36.3756V23.7571ZM49.1412 24.1697C45.5854 24.1697 42.0958 22.8451 41.9191 18.8493H45.9387C45.9608 20.6518 47.5069 21.3901 49.1854 21.3901C50.4001 21.3901 51.9461 20.9123 51.9461 19.4573C51.9461 18.1979 50.2013 17.7635 47.1535 17.1121C44.724 16.5909 42.2725 15.744 42.2725 13.0729C42.2725 9.20751 45.6516 8.23033 48.9645 8.23033C52.3216 8.23033 55.4136 9.33776 55.7449 13.0512H51.7253C51.6148 11.4442 50.356 11.0099 48.832 11.0099C47.8824 11.0099 46.4909 11.1837 46.4909 12.4214C46.4909 13.9199 48.8761 14.1153 51.2836 14.6799C53.7572 15.2445 56.1645 16.1132 56.1645 18.9145C56.1645 22.8885 52.6529 24.1697 49.1412 24.1697ZM72.6627 17.2207H61.5756C61.686 19.8482 63.0112 21.0427 65.3523 21.0427C67.0529 21.0427 68.4222 20.022 68.6873 19.0882H72.3977C71.2051 22.6496 68.6873 24.1697 65.1977 24.1697C60.3609 24.1697 57.3572 20.8906 57.3572 16.2217C57.3572 11.6831 60.5375 8.25204 65.1977 8.25204C70.4321 8.25204 72.9498 12.5735 72.6627 17.2207Z" fill="white"/>
</g>
<defs>
<clipPath id="clip0_382_656">
<rect width="79.2" height="32.4" fill="white"/>
</clipPath>
</defs>
</svg>
