<?xml version="1.0" encoding="utf-8"?>
<svg version="1.0" id="Layer_1" xmlns="http://www.w3.org/2000/svg" xmlns:xlink="http://www.w3.org/1999/xlink" x="0px" y="0px"
	 viewBox="40 365 1010 340" xml:space="preserve">
<style type="text/css">
	.st0{fill:#FFFFFF;}
</style>
<g>
	<g>
		<path class="st0" d="M352.5,571.7c13.7-22.3,23.1-47.6,27.4-74.3c-15.9-60.6-64.2-106.7-124-121.2
			C335.1,432.6,350.3,524.8,352.5,571.7z"/>
		<g>
			<g>
				<path class="st0" d="M281.8,423.2c-18.7-22.3-41.1-39.7-68.5-51.9c-58.4,0.7-111.8,31-142.8,80.7
					C132.5,408,211.1,404.4,281.8,423.2z"/>
			</g>
		</g>
		<path class="st0" d="M89.3,605.6c1.4,22.4,7.2,44.7,16.6,65.6c41.8,35.3,98.8,49.1,153.6,34.6C173.6,697.1,115.2,638,89.3,605.6z"
			/>
		<path class="st0" d="M77.8,640.9c-20.2-85.1,18-160.8,41.8-196.1c-24.5,10.1-46.2,24.5-65.6,43.3
			C37.4,537.8,44.6,595.5,77.8,640.9z"/>
		<g>
			<g>
				<path class="st0" d="M233.5,684.2c21.6,5,43.3,7.2,66.3,5c52.7-30.3,85.8-86.5,85.8-147.1C353.9,628.6,274.6,668.3,233.5,684.2z
					"/>
			</g>
		</g>
	</g>
	<g>
		<g>
			<g>
				<path class="st0" d="M486.8,470.1v-3.9c0-1.5,0.9-2.4,2.6-2.4h58.4c1.7,0,2.6,0.9,2.6,2.4v3.9c0,1.7-0.9,2.8-2.6,2.8h-58.4
					C487.8,472.9,486.8,471.8,486.8,470.1z"/>
				<path class="st0" d="M566.3,503.1c0-4.4,2.9-6.8,7.2-6.8c11.4,0,5.5,22.4,30.1,22.4c11.7,0,20.9-5.7,20.9-16.2
					c0-27-56.2-8.8-56.2-45c0-14.1,14.3-25.1,34.5-25.1c22.8,0,35.8,11.7,35.8,21.7c0,3.7-2.9,6.4-6.6,6.4
					c-10.5,0-5.9-22.4-28.4-22.4c-10.6,0-18.9,6.8-18.9,16c0,26.4,56,8.4,56,45.2c0,13.8-14.3,24.8-37.1,24.8
					C579.2,524,566.3,511.7,566.3,503.1z"/>
				<path class="st0" d="M661.8,496.5v-54.9h-12.1c-1.7,0-2.8-1.1-2.8-2.8V437c0-1.7,0.9-2.8,2.8-2.8h6.6c8.8,0,13-7,13.9-17.4
					c0.2-2.4,1.5-3.7,3.1-3.7h1.8c2.2,0,2.9,1.3,2.9,3.7l0.2,17.4h25.3c1.5,0,2.8,1.3,2.8,2.8v1.8c0,1.7-1.3,2.8-2.8,2.8h-25.3v55.1
					c0,10.1,4.8,15.4,11.6,15.4c8.1,0,12.8-4.8,13.6-11c1.1-2.8,5.5-2.6,5.5,0.7c0,11.4-8.8,22.4-23.5,22.4
					C671.3,524.2,661.8,515.2,661.8,496.5z"/>
				<path class="st0" d="M716.3,477c0-25.5,19.5-44.6,44.6-44.6c27.5,0,46.6,20.9,46.6,46.6c0,25.3-17.4,45.2-43.3,45.2
					C735,524.2,716.3,502,716.3,477z M791.3,484.5c0-25.7-13.6-46.1-32.3-46.1c-15.6,0-26.4,12.8-26.4,33.4
					c0,23.5,13.6,46.3,33.8,46.3C780.7,518.1,791.3,505.1,791.3,484.5z"/>
				<path class="st0" d="M912.5,477c0,27.2-18.9,47.2-42,47.2c-11.4,0-20.7-4.8-27.2-12.7V551c0,6.8,7.2,6.8,7.2,10.3v0.6
					c0,1.7-1.5,2.4-3.7,2.4h-22.6c-2.2,0-3.9-0.7-3.9-2.4v-0.6c0-3.5,6.8-3.5,6.8-10.3v-97.3c0-6.4-7.3-6.6-7.3-10.3v-0.6
					c0-1.5,1.1-2.6,2.9-3.3l13.2-6.4c3.7-1.7,5.1-0.2,5.1,2.6l-0.2,12.1c5.5-9.4,16.5-15.4,29.4-15.4
					C892.7,432.4,912.5,449.8,912.5,477z M896.1,481.4c0-25.3-12.1-43.1-29.9-43.1c-11.4,0-21.5,9.2-22.9,20.4V490
					c0,14.7,12.1,28.3,25,28.3C885.1,518.3,896.1,504,896.1,481.4z"/>
			</g>
			<g>
				<path class="st0" d="M513.9,374.8c1,4.7-0.8,7.5-5.2,8.4c-1.6,0.3-3,0.1-4.4-0.7c-1.4-0.8-2.2-1.8-2.4-3.2
					c-0.2-1,0.3-2.5,1.5-4.6c0.3-1.1,0.4-1.9,0.2-2.5c-0.6-3-3.4-4-8.5-2.9c-5.3,1.1-9.1,4.2-11.4,9.4c-2.3,5.1-4.5,15.1-6.6,29.8
					l-2.5,18l15,0.2c0,0,1.5,0,2.5,0c1.5,0,1.7,0.8,1.7,1.9c0,1.3,0,1.8-1.8,1.8l-17.3,0l-6.3,42.6c-4.9,33.1-11.4,56.9-19.6,71.3
					c-3.3,5.8-6.6,10.1-9.8,12.8c-3.2,2.7-7.4,4.6-12.4,5.7c-10.2,2.1-16-0.3-17.4-7.1c-1-4.9,1.1-7.9,6.4-9
					c3.6-0.7,5.7,0.4,6.3,3.4c0.2,1-0.1,2.3-1,4.1c-0.5,1-0.7,1.8-0.6,2.6c0.5,2.6,2.6,3.6,6.2,2.8c6.2-1.3,10.9-5.4,14.1-12.3
					c2.5-5.5,4.9-16.9,7.2-34l11.2-83l-8-0.2l-6.5,0l-1.1,0c-2.9,0.2-2.6-1.2-2.6-2.1c0-1.6,0.8-1.9,2.7-1.7c0.2,0,3,0,7.4,0
					l6.3,0.1l2.5,0.1c3.7-18.6,7.1-31.5,10.4-38.7c5.5-11.7,13.9-18.8,25.4-21.1c4.8-1,8.9-0.7,12.2,0.8
					C511.2,368.8,513.2,371.3,513.9,374.8z"/>
			</g>
		</g>
		<g>
			<path class="st0" d="M411.2,648c0-27.5,20.2-45.2,45.2-45.3c20-0.2,35.8,12.5,35.8,22.8c0,3.7-2.2,6.6-7.3,6.4
				c-10.6-0.4-10.5-23.1-31.4-23.3c-15.2,0-26.1,14.1-26.1,32.3c0,25.7,14.5,42,34.9,42c12.8,0,21.3-8.1,25.5-17.3
				c1.5-2.8,6.1-2.2,5.3,1.5c-2.6,13.4-14.7,27.3-36,27.3C431.6,694.4,411.2,674.6,411.2,648z"/>
			<path class="st0" d="M567.4,616.8c0,4.8-2.2,8.6-7.3,8.6c-9.5,0-5-12.8-16.3-12.8c-10.1,0-15.6,11.6-15.6,25.3v41.8
				c0,6.4,7.7,6.6,7.7,9.9v0.7c0,1.5-1.3,2.2-3.7,2.2h-22.8c-2.4,0-3.7-0.7-3.7-2.2v-0.7c0-3.3,6.8-3.5,6.8-9.9v-55.8
				c0-7-7.3-7.2-7.3-10.6v-0.4c0-1.3,1.1-2.4,2.8-3.3l13.9-6.2c3.5-1.7,4.8-0.2,4.8,2.6v14.7c4-11.7,12.5-18,23.9-18
				C561.5,602.6,567.4,609.1,567.4,616.8z"/>
			<path class="st0" d="M652.4,668.2c-2.2,11-14.3,26.2-37.3,26.2c-23.7,0-42.6-18-42.6-46.6c0-25.9,18.9-45.2,43.3-45.2
				c22,0,34.1,14.5,34.1,27.2c0,5.9-3.1,9-8.6,10.8l-50.8,16.7c4.2,15.8,15.4,25.3,30.3,25.3c13.6,0,22.2-7.2,26.2-16
				C648.7,664.1,652.9,664.7,652.4,668.2z M588.5,641.9c0,3.3,0.2,6.4,0.7,9.4l40.9-14.7c3.1-1.3,4.4-3.3,4.4-6.4
				c0-8.3-8.8-21.7-21.5-21.7C598.2,608.5,588.5,623.2,588.5,641.9z"/>
			<path class="st0" d="M749.7,689.8c0,2.8-5,3.9-11.7,3.9c-8.3,0-12.7-2-13.4-12.1c-4.2,7.7-13,12.8-26.4,12.8
				c-20.2,0-34.1-10.1-34.1-27.7c-0.2-17.6,14.5-27.2,33.6-27.2c9.7,0,17.6,2.8,22.6,7.3l-0.4-5c-2-21.7-7.9-33.4-22.6-33.4
				c-19.1,0-16.2,20.9-25.3,20.9c-4.4,0-7.2-2.6-7.2-6.8c0-9.7,12.5-20,32.5-20c22.6,0,36.2,14.5,38.5,38.7l3.7,36.5
				C740.5,689.3,749.7,685.2,749.7,689.8z M722.1,668.3l-0.7-8.3c-1.8-8.6-9.4-14.7-20.2-14.7c-12.5,0-21.1,7.7-21.1,19.1
				c0,13.4,8.8,24,22,24C714.4,688.5,722.5,679.5,722.1,668.3z"/>
			<path class="st0" d="M765.6,666.7v-54.9h-12.1c-1.7,0-2.8-1.1-2.8-2.8v-1.8c0-1.7,0.9-2.8,2.8-2.8h6.6c8.8,0,13-7,13.9-17.4
				c0.2-2.4,1.5-3.7,3.1-3.7h1.8c2.2,0,2.9,1.3,2.9,3.7l0.2,17.4h25.3c1.5,0,2.8,1.3,2.8,2.8v1.8c0,1.7-1.3,2.8-2.8,2.8h-25.3v55.1
				c0,10.1,4.8,15.4,11.6,15.4c8.1,0,12.8-4.8,13.6-11c1.1-2.8,5.5-2.6,5.5,0.7c0,11.4-8.8,22.4-23.5,22.4
				C775.2,694.4,765.6,685.4,765.6,666.7z"/>
			<path class="st0" d="M822.7,690.2v-0.7c0-3.5,6.6-3.5,6.6-9.9v-54.7c0-7.2-6.6-8.6-6.6-11.4v-0.4c0-1.3,1.1-1.8,2.8-2.8l14.1-7
				c3.9-1.8,5.7,0,5.7,2.6v73.6c0,6.4,7.3,6.4,7.3,9.9v0.7c0,1.5-1.7,2.4-3.9,2.4h-22.6C824,692.6,822.7,691.6,822.7,690.2z
				 M821.4,587.2c0-6.8,4.8-11.6,12.3-11.6c7.2,0,11.9,4.8,11.9,11.6s-4.8,11.4-11.9,11.4C826.2,598.5,821.4,594,821.4,587.2z"/>
			<path class="st0" d="M954.3,606.5v0.6c0,3.5-7,4.2-9.4,10.3l-29,71.6c-0.9,2.4-2.4,3.7-4.8,3.7h-5.7c-2.6,0-3.9-1.3-5-3.7
				l-32.9-71.6c-2.9-6.1-7.9-6.8-7.9-10.3v-0.6c0-1.3,1.1-2,2.8-2H888c1.5,0,2.6,0.9,2.6,2.2v0.6c0,2.8-7.2,4.4-5,10.3l25.9,63.5
				l25.1-61.9c3.1-8.4-6.4-8.6-6.4-11.9v-0.6c0-1.5,1.1-2.2,2.8-2.2h18.5C953.2,604.5,954.3,605.2,954.3,606.5z"/>
			<path class="st0" d="M1037.1,668.2c-2.2,11-14.3,26.2-37.3,26.2c-23.7,0-42.6-18-42.6-46.6c0-25.9,18.9-45.2,43.3-45.2
				c22,0,34.1,14.5,34.1,27.2c0,5.9-3.1,9-8.6,10.8l-50.8,16.7c4.2,15.8,15.4,25.3,30.3,25.3c13.6,0,22.2-7.2,26.2-16
				C1033.4,664.1,1037.6,664.7,1037.1,668.2z M973.2,641.9c0,3.3,0.2,6.4,0.7,9.4l40.9-14.7c3.1-1.3,4.4-3.3,4.4-6.4
				c0-8.3-8.8-21.7-21.5-21.7C982.9,608.5,973.2,623.2,973.2,641.9z"/>
		</g>
	</g>
</g>
</svg>
