<svg width="50" height="24" viewBox="0 0 50 24" fill="none" xmlns="http://www.w3.org/2000/svg">
<path d="M8.814 8.432V11.554H11.684C12.8227 11.554 13.392 11.022 13.392 9.958C13.392 8.94067 12.8133 8.432 11.656 8.432H8.814ZM7.064 17V7.004H11.838C12.9207 7.004 13.742 7.242 14.302 7.718C14.862 8.18467 15.142 8.84733 15.142 9.706C15.142 11.0033 14.5913 11.8433 13.49 12.226V12.254C14.4793 12.394 14.974 13.0987 14.974 14.368C14.974 15.7307 15.156 16.608 15.52 17H13.644C13.4667 16.7107 13.378 16.2207 13.378 15.53C13.378 14.5687 13.2473 13.8967 12.986 13.514C12.6967 13.094 12.1647 12.884 11.39 12.884H8.814V17H7.064ZM22.4234 13.794H17.1034C17.1034 14.4007 17.2621 14.9 17.5794 15.292C17.9248 15.7213 18.4148 15.936 19.0494 15.936C19.9454 15.936 20.5334 15.5347 20.8134 14.732H22.3254C22.1574 15.5067 21.7701 16.1133 21.1634 16.552C20.5661 16.9813 19.8614 17.196 19.0494 17.196C17.9388 17.196 17.0708 16.846 16.4454 16.146C15.8201 15.446 15.5074 14.5267 15.5074 13.388C15.5074 12.324 15.8201 11.428 16.4454 10.7C17.1081 9.944 17.9621 9.566 19.0074 9.566C20.0248 9.566 20.8601 9.93933 21.5134 10.686C22.1388 11.386 22.4514 12.2447 22.4514 13.262C22.4514 13.4393 22.4421 13.6167 22.4234 13.794ZM17.1034 12.744H20.8274C20.7994 12.212 20.6174 11.7593 20.2814 11.386C19.9548 11.0127 19.5301 10.826 19.0074 10.826C18.4661 10.826 18.0181 11.008 17.6634 11.372C17.3088 11.736 17.1221 12.1933 17.1034 12.744ZM22.0687 10.952V9.762H23.2727V7.592H24.8687V9.762H26.3107V10.952H24.8687V14.816C24.8687 15.1893 24.9061 15.4367 24.9807 15.558C25.0834 15.726 25.3027 15.81 25.6387 15.81C25.9374 15.81 26.1614 15.7913 26.3107 15.754V16.986C25.6107 17.042 25.2654 17.07 25.2747 17.07C24.4907 17.07 23.9494 16.9113 23.6507 16.594C23.3987 16.3327 23.2727 15.8753 23.2727 15.222V10.952H22.0687ZM31.0848 14.564V13.374C30.8795 13.5047 30.5808 13.6027 30.1888 13.668C29.8342 13.7147 29.4795 13.7613 29.1248 13.808C28.2568 13.9573 27.8228 14.3587 27.8228 15.012C27.8228 15.3293 28.0002 15.572 28.3548 15.74C28.6255 15.8707 28.9382 15.936 29.2928 15.936C29.7222 15.936 30.1095 15.8333 30.4548 15.628C30.8748 15.376 31.0848 15.0213 31.0848 14.564ZM32.6808 11.666V15.39C32.6808 15.754 32.8068 15.936 33.0588 15.936C33.2082 15.936 33.3388 15.9267 33.4508 15.908V17.014C33.1055 17.1353 32.7695 17.196 32.4428 17.196C31.7335 17.196 31.3228 16.902 31.2108 16.314C30.6135 16.902 29.7782 17.196 28.7048 17.196C28.0048 17.196 27.4308 17.0187 26.9828 16.664C26.4788 16.2813 26.2268 15.754 26.2268 15.082C26.2268 14.2793 26.5255 13.7007 27.1228 13.346C27.4868 13.1313 28.1168 12.9587 29.0128 12.828C30.0208 12.6787 30.5248 12.604 30.5248 12.604C30.9635 12.4733 31.1828 12.2073 31.1828 11.806C31.1828 11.1527 30.6835 10.826 29.6848 10.826C28.6862 10.826 28.1542 11.2087 28.0888 11.974H26.4928C26.5862 10.3687 27.6828 9.566 29.7828 9.566C30.5762 9.566 31.2342 9.72467 31.7568 10.042C32.3728 10.4153 32.6808 10.9567 32.6808 11.666ZM33.6001 17V9.762H35.1961V17H33.6001ZM33.6001 8.516V7.004H35.1961V8.516H33.6001ZM36.0951 17V9.762H37.6071V10.826L37.6351 10.854C38.1484 9.99533 38.8997 9.566 39.8891 9.566C40.6917 9.566 41.3171 9.776 41.7651 10.196C42.2224 10.616 42.4511 11.2273 42.4511 12.03V17H40.8551V12.45C40.8551 11.3673 40.3837 10.826 39.4411 10.826C38.9184 10.826 38.4937 11.008 38.1671 11.372C37.8497 11.736 37.6911 12.1887 37.6911 12.73V17H36.0951Z" fill="white"/>
<path d="M35.5026 1H4C2.34314 1 1 2.34315 1 4V20C1 21.6569 2.34315 23 4 23H46C47.6569 23 49 21.6569 49 20V12.3449" stroke="white" stroke-width="2" stroke-linecap="round"/>
</svg>
