<svg width="68" height="24" viewBox="0 0 68 24" fill="none" xmlns="http://www.w3.org/2000/svg">
<path d="M7.022 17V7.004H8.772V10.98H13.322V7.004H15.072V17H13.322V12.492H8.772V17H7.022ZM22.6695 13.794H17.3495C17.3495 14.4007 17.5082 14.9 17.8255 15.292C18.1708 15.7213 18.6608 15.936 19.2955 15.936C20.1915 15.936 20.7795 15.5347 21.0595 14.732H22.5715C22.4035 15.5067 22.0162 16.1133 21.4095 16.552C20.8122 16.9813 20.1075 17.196 19.2955 17.196C18.1848 17.196 17.3168 16.846 16.6915 16.146C16.0662 15.446 15.7535 14.5267 15.7535 13.388C15.7535 12.324 16.0662 11.428 16.6915 10.7C17.3542 9.944 18.2082 9.566 19.2535 9.566C20.2708 9.566 21.1062 9.93933 21.7595 10.686C22.3848 11.386 22.6975 12.2447 22.6975 13.262C22.6975 13.4393 22.6882 13.6167 22.6695 13.794ZM17.3495 12.744H21.0735C21.0455 12.212 20.8635 11.7593 20.5275 11.386C20.2008 11.0127 19.7762 10.826 19.2535 10.826C18.7122 10.826 18.2642 11.008 17.9095 11.372C17.5548 11.736 17.3682 12.1933 17.3495 12.744ZM23.0848 17V7.004H24.6808V17H23.0848ZM31.1938 13.388C31.1938 12.688 31.0258 12.0953 30.6898 11.61C30.3164 11.0873 29.8171 10.826 29.1918 10.826C28.5384 10.826 28.0344 11.0547 27.6798 11.512C27.3344 11.9693 27.1618 12.5947 27.1618 13.388C27.1618 14.1347 27.3438 14.746 27.7078 15.222C28.0718 15.698 28.5664 15.936 29.1918 15.936C29.8638 15.936 30.3818 15.67 30.7458 15.138C31.0444 14.6807 31.1938 14.0973 31.1938 13.388ZM25.6218 19.674V9.762H27.1338V10.742H27.1618C27.5911 9.958 28.3378 9.566 29.4018 9.566C30.4938 9.566 31.3431 9.944 31.9498 10.7C32.5098 11.3907 32.7898 12.296 32.7898 13.416C32.7898 14.4707 32.5378 15.3433 32.0338 16.034C31.4644 16.8087 30.6758 17.196 29.6678 17.196C28.5291 17.196 27.7218 16.818 27.2458 16.062H27.2178V19.674H25.6218ZM34.5444 13.458C34.5444 14.1393 34.703 14.7087 35.0204 15.166C35.3844 15.6793 35.893 15.936 36.5464 15.936C37.209 15.936 37.727 15.6653 38.1004 15.124C38.4177 14.6573 38.5764 14.074 38.5764 13.374C38.5764 12.5807 38.3944 11.96 38.0304 11.512C37.6757 11.0547 37.1904 10.826 36.5744 10.826C35.8837 10.826 35.3564 11.1013 34.9924 11.652C34.6937 12.1187 34.5444 12.7207 34.5444 13.458ZM40.1164 7.004V17H38.6044V16.02H38.5764C38.175 16.804 37.4284 17.196 36.3364 17.196C35.235 17.196 34.3857 16.8227 33.7884 16.076C33.2284 15.3853 32.9484 14.4707 32.9484 13.332C32.9484 12.1 33.275 11.1433 33.9284 10.462C34.4977 9.86467 35.2164 9.566 36.0844 9.566C37.223 9.566 38.0257 9.944 38.4924 10.7H38.5204V7.004H40.1164ZM47.583 13.794H42.263C42.263 14.4007 42.4216 14.9 42.739 15.292C43.0843 15.7213 43.5743 15.936 44.209 15.936C45.105 15.936 45.693 15.5347 45.973 14.732H47.485C47.317 15.5067 46.9296 16.1133 46.323 16.552C45.7256 16.9813 45.021 17.196 44.209 17.196C43.0983 17.196 42.2303 16.846 41.605 16.146C40.9796 15.446 40.667 14.5267 40.667 13.388C40.667 12.324 40.9796 11.428 41.605 10.7C42.2676 9.944 43.1216 9.566 44.167 9.566C45.1843 9.566 46.0196 9.93933 46.673 10.686C47.2983 11.386 47.611 12.2447 47.611 13.262C47.611 13.4393 47.6016 13.6167 47.583 13.794ZM42.263 12.744H45.987C45.959 12.212 45.777 11.7593 45.441 11.386C45.1143 11.0127 44.6896 10.826 44.167 10.826C43.6256 10.826 43.1776 11.008 42.823 11.372C42.4683 11.736 42.2816 12.1933 42.263 12.744ZM47.5642 14.676H49.1602C49.2349 15.516 49.7809 15.936 50.7982 15.936C51.8996 15.936 52.4362 15.6187 52.4082 14.984C52.3896 14.536 51.9696 14.214 51.1482 14.018C49.7762 13.682 49.0342 13.486 48.9222 13.43C48.1196 13.0753 47.7182 12.478 47.7182 11.638C47.7182 10.9193 48.0589 10.378 48.7402 10.014C49.2816 9.71533 49.9489 9.566 50.7422 9.566C51.5542 9.566 52.2216 9.734 52.7442 10.07C53.3322 10.462 53.6729 11.036 53.7662 11.792H52.1002C51.9789 11.148 51.4889 10.826 50.6302 10.826C49.7529 10.826 49.3142 11.0733 49.3142 11.568C49.3142 11.904 49.5616 12.1607 50.0562 12.338C50.1496 12.3753 50.6862 12.506 51.6662 12.73C52.3942 12.898 52.9309 13.1033 53.2762 13.346C53.7616 13.7007 54.0042 14.2 54.0042 14.844C54.0042 15.6373 53.6542 16.244 52.9542 16.664C52.3662 17.0187 51.6382 17.196 50.7702 17.196C49.8182 17.196 49.0622 16.9907 48.5022 16.58C47.8862 16.132 47.5736 15.4973 47.5642 14.676ZM54.418 17V7.004H56.014V12.688L58.898 9.762H60.858L58.086 12.422L61.124 17H59.178L56.966 13.486L56.014 14.41V17H54.418Z" fill="white"/>
<path d="M48.4411 1H4C2.34314 1 1 2.34315 1 4V20C1 21.6569 2.34315 23 4 23H64C65.6569 23 67 21.6569 67 20V12.3449" stroke="white" stroke-width="2" stroke-linecap="round"/>
</svg>
