<svg width="583" height="121" viewBox="0 0 583 121" fill="none" xmlns="http://www.w3.org/2000/svg">
<path d="M516.09 44.63L508.53 66.12H523.79L516.3 44.63H516.09ZM492.43 86L511.61 36.02H520.92L540.17 86H530.79L526.1 72.77H506.15L501.46 86H492.43ZM539.819 86V49.81H547.799V86H539.819ZM539.819 43.58V36.02H547.799V43.58H539.819Z" fill="white"/>
<path d="M528.27 5H487.92C476.874 5 467.92 13.9543 467.92 25V95C467.92 106.046 476.874 115 487.92 115H557.92C568.966 115 577.92 106.046 577.92 95V57.1254" stroke="white" stroke-width="10" stroke-linecap="round"/>
<path d="M103.2 40.08H83.2C79.36 24.9334 69.8667 17.36 54.72 17.36C43.3067 17.36 34.4533 21.8934 28.16 30.96C22.72 38.8534 20 48.8267 20 60.88C20 72.9334 22.72 82.9067 28.16 90.8C34.4533 99.8667 43.3067 104.4 54.72 104.4C63.2533 104.4 70.1333 101.467 75.36 95.6C80.16 90.2667 82.9867 83.2267 83.84 74.48H103.36C102.507 88.24 97.6 99.3867 88.64 107.92C79.7867 116.453 68.48 120.72 54.72 120.72C38.08 120.72 24.6933 114.8 14.56 102.96C4.85333 91.76 0 77.7334 0 60.88C0 43.92 4.85333 29.84 14.56 18.64C24.6933 6.9067 38.08 1.04004 54.72 1.04004C67.84 1.04004 78.8267 4.45337 87.68 11.28C96.8533 18.4267 102.027 28.0267 103.2 40.08Z" fill="white"/>
<path d="M107.789 118V3.76003H126.029V46.16H126.349C128.695 42.32 132.055 39.1734 136.429 36.72C140.909 34.2667 145.815 33.04 151.149 33.04C160.322 33.04 167.469 35.44 172.589 40.24C177.815 45.04 180.429 52.0267 180.429 61.2V118H162.189V66C162.189 53.6267 156.802 47.44 146.029 47.44C140.055 47.44 135.202 49.52 131.469 53.68C127.842 57.84 126.029 63.0134 126.029 69.2V118H107.789Z" fill="white"/>
<path d="M239.504 90.16V76.56C237.157 78.0534 233.744 79.1734 229.264 79.92C225.21 80.4534 221.157 80.9867 217.104 81.52C207.184 83.2267 202.224 87.8134 202.224 95.28C202.224 98.9067 204.25 101.68 208.304 103.6C211.397 105.093 214.97 105.84 219.024 105.84C223.93 105.84 228.357 104.667 232.304 102.32C237.104 99.44 239.504 95.3867 239.504 90.16ZM257.744 57.04V99.6C257.744 103.76 259.184 105.84 262.064 105.84C263.77 105.84 265.264 105.733 266.544 105.52V118.16C262.597 119.547 258.757 120.24 255.024 120.24C246.917 120.24 242.224 116.88 240.944 110.16C234.117 116.88 224.57 120.24 212.304 120.24C204.304 120.24 197.744 118.213 192.624 114.16C186.864 109.787 183.984 103.76 183.984 96.08C183.984 86.9067 187.397 80.2934 194.224 76.24C198.384 73.7867 205.584 71.8134 215.824 70.32C227.344 68.6134 233.104 67.76 233.104 67.76C238.117 66.2667 240.624 63.2267 240.624 58.64C240.624 51.1734 234.917 47.44 223.504 47.44C212.09 47.44 206.01 51.8134 205.264 60.56H187.024C188.09 42.2134 200.624 33.04 224.624 33.04C233.69 33.04 241.21 34.8534 247.184 38.48C254.224 42.7467 257.744 48.9334 257.744 57.04Z" fill="white"/>
<path d="M266.17 118V35.28H283.29V51.28H283.61C284.677 46.6934 287.61 42.5334 292.41 38.8C297.21 34.96 302.33 33.04 307.77 33.04C309.157 33.04 311.45 33.2 314.65 33.52V51.12C310.383 50.5867 307.77 50.32 306.81 50.32C300.303 50.32 295.023 52.7734 290.97 57.68C286.597 62.8 284.41 69.7867 284.41 78.64V118H266.17Z" fill="white"/>
<path d="M311.7 118V3.76003H329.94V118H311.7Z" fill="white"/>
<path d="M413.654 81.36H352.854C352.854 88.2934 354.667 94 358.294 98.48C362.24 103.387 367.84 105.84 375.094 105.84C385.334 105.84 392.054 101.253 395.254 92.08H412.534C410.614 100.933 406.187 107.867 399.254 112.88C392.427 117.787 384.374 120.24 375.094 120.24C362.4 120.24 352.48 116.24 345.334 108.24C338.187 100.24 334.614 89.7334 334.614 76.72C334.614 64.56 338.187 54.32 345.334 46C352.907 37.36 362.667 33.04 374.614 33.04C386.24 33.04 395.787 37.3067 403.254 45.84C410.4 53.84 413.974 63.6534 413.974 75.28C413.974 77.3067 413.867 79.3334 413.654 81.36ZM352.854 69.36H395.414C395.094 63.28 393.014 58.1067 389.174 53.84C385.44 49.5734 380.587 47.44 374.614 47.44C368.427 47.44 363.307 49.52 359.254 53.68C355.2 57.84 353.067 63.0667 352.854 69.36Z" fill="white"/>
</svg>
