<svg width="53" height="24" viewBox="0 0 53 24" fill="none" xmlns="http://www.w3.org/2000/svg">
<path d="M6.462 13.668H8.212C8.212 14.396 8.45933 14.9467 8.954 15.32C9.39267 15.6467 9.99 15.81 10.746 15.81C11.4647 15.81 12.0107 15.6513 12.384 15.334C12.7013 15.0633 12.86 14.718 12.86 14.298C12.86 13.682 12.5847 13.2713 12.034 13.066C11.9593 13.038 10.9653 12.7627 9.052 12.24C7.57733 11.8387 6.84 10.994 6.84 9.706C6.84 8.76333 7.22267 8.02133 7.988 7.48C8.66933 7.004 9.50467 6.766 10.494 6.766C11.586 6.766 12.4867 7.03667 13.196 7.578C13.952 8.166 14.33 8.95933 14.33 9.958H12.58C12.5053 8.782 11.7867 8.194 10.424 8.194C9.93867 8.194 9.53267 8.28267 9.206 8.46C8.79533 8.69333 8.59 9.03867 8.59 9.496C8.59 10.14 8.98667 10.5693 9.78 10.784C10.5733 10.9893 11.5347 11.246 12.664 11.554C13.2893 11.7407 13.7793 12.086 14.134 12.59C14.4513 13.0473 14.61 13.5513 14.61 14.102C14.61 15.1473 14.1947 15.95 13.364 16.51C12.6453 16.9953 11.7353 17.238 10.634 17.238C9.42067 17.238 8.44533 16.9533 7.708 16.384C6.896 15.7587 6.48067 14.8533 6.462 13.668ZM15.1201 17V9.762H16.7161V17H15.1201ZM15.1201 8.516V7.004H16.7161V8.516H15.1201ZM16.8871 10.952V9.762H18.0911V7.592H19.6871V9.762H21.1291V10.952H19.6871V14.816C19.6871 15.1893 19.7244 15.4367 19.7991 15.558C19.9017 15.726 20.1211 15.81 20.4571 15.81C20.7557 15.81 20.9797 15.7913 21.1291 15.754V16.986C20.4291 17.042 20.0837 17.07 20.0931 17.07C19.3091 17.07 18.7677 16.9113 18.4691 16.594C18.2171 16.3327 18.0911 15.8753 18.0911 15.222V10.952H16.8871ZM28.0032 13.794H22.6832C22.6832 14.4007 22.8419 14.9 23.1592 15.292C23.5045 15.7213 23.9945 15.936 24.6292 15.936C25.5252 15.936 26.1132 15.5347 26.3932 14.732H27.9052C27.7372 15.5067 27.3499 16.1133 26.7432 16.552C26.1459 16.9813 25.4412 17.196 24.6292 17.196C23.5185 17.196 22.6505 16.846 22.0252 16.146C21.3999 15.446 21.0872 14.5267 21.0872 13.388C21.0872 12.324 21.3999 11.428 22.0252 10.7C22.6879 9.944 23.5419 9.566 24.5872 9.566C25.6045 9.566 26.4399 9.93933 27.0932 10.686C27.7185 11.386 28.0312 12.2447 28.0312 13.262C28.0312 13.4393 28.0219 13.6167 28.0032 13.794ZM22.6832 12.744H26.4072C26.3792 12.212 26.1972 11.7593 25.8612 11.386C25.5345 11.0127 25.1099 10.826 24.5872 10.826C24.0459 10.826 23.5979 11.008 23.2432 11.372C22.8885 11.736 22.7019 12.1933 22.6832 12.744ZM28.4185 17V7.004H30.0145V17H28.4185ZM35.3794 14.564V13.374C35.1741 13.5047 34.8754 13.6027 34.4834 13.668C34.1288 13.7147 33.7741 13.7613 33.4194 13.808C32.5514 13.9573 32.1174 14.3587 32.1174 15.012C32.1174 15.3293 32.2948 15.572 32.6494 15.74C32.9201 15.8707 33.2328 15.936 33.5874 15.936C34.0168 15.936 34.4041 15.8333 34.7494 15.628C35.1694 15.376 35.3794 15.0213 35.3794 14.564ZM36.9754 11.666V15.39C36.9754 15.754 37.1014 15.936 37.3534 15.936C37.5028 15.936 37.6334 15.9267 37.7454 15.908V17.014C37.4001 17.1353 37.0641 17.196 36.7374 17.196C36.0281 17.196 35.6174 16.902 35.5054 16.314C34.9081 16.902 34.0728 17.196 32.9994 17.196C32.2994 17.196 31.7254 17.0187 31.2774 16.664C30.7734 16.2813 30.5214 15.754 30.5214 15.082C30.5214 14.2793 30.8201 13.7007 31.4174 13.346C31.7814 13.1313 32.4114 12.9587 33.3074 12.828C34.3154 12.6787 34.8194 12.604 34.8194 12.604C35.2581 12.4733 35.4774 12.2073 35.4774 11.806C35.4774 11.1527 34.9781 10.826 33.9794 10.826C32.9808 10.826 32.4488 11.2087 32.3834 11.974H30.7874C30.8808 10.3687 31.9774 9.566 34.0774 9.566C34.8708 9.566 35.5288 9.72467 36.0514 10.042C36.6674 10.4153 36.9754 10.9567 36.9754 11.666ZM43.4667 13.388C43.4667 12.688 43.2987 12.0953 42.9627 11.61C42.5894 11.0873 42.0901 10.826 41.4647 10.826C40.8114 10.826 40.3074 11.0547 39.9527 11.512C39.6074 11.9693 39.4347 12.5947 39.4347 13.388C39.4347 14.1347 39.6167 14.746 39.9807 15.222C40.3447 15.698 40.8394 15.936 41.4647 15.936C42.1367 15.936 42.6547 15.67 43.0187 15.138C43.3174 14.6807 43.4667 14.0973 43.4667 13.388ZM37.8947 17V7.004H39.4907V10.7H39.5187C39.7334 10.3547 40.0414 10.0793 40.4427 9.874C40.8441 9.66867 41.2547 9.566 41.6747 9.566C42.7667 9.566 43.6161 9.944 44.2227 10.7C44.7827 11.3907 45.0627 12.296 45.0627 13.416C45.0627 14.4707 44.8107 15.3433 44.3067 16.034C43.7374 16.8087 42.9487 17.196 41.9407 17.196C40.6714 17.196 39.8361 16.7993 39.4347 16.006H39.4067V17H37.8947Z" fill="white"/>
<path d="M37.6591 1H4C2.34314 1 1 2.34315 1 4V20C1 21.6569 2.34315 23 4 23H49C50.6569 23 52 21.6569 52 20V12.3449" stroke="white" stroke-width="2" stroke-linecap="round"/>
</svg>
