<svg width="150" height="36" viewBox="0 0 150 36" fill="none" xmlns="http://www.w3.org/2000/svg">
<g id="loyaltylion-dark 1">
<g id="Clip path group">
<mask id="mask0_465_587" style="mask-type:luminance" maskUnits="userSpaceOnUse" x="0" y="1" width="146" height="35">
<g id="clip0_1090_1776">
<path id="Vector" d="M145.658 1.20996H0V35.0924H145.658V1.20996Z" fill="white"/>
</g>
</mask>
<g mask="url(#mask0_465_587)">
<g id="Group">
<path id="Vector_2" fill-rule="evenodd" clip-rule="evenodd" d="M28.0928 28.1555C28.0928 28.1555 27.2577 30.019 25.6652 30.3579C28.0249 32.0331 27.8986 33.9813 27.8306 34.8472C27.8306 33.9437 27.3257 31.3178 21.7713 30.5178C15.0321 29.5107 14.5369 21.4166 14.5369 21.0119C14.5369 21.0119 14.8283 22.9696 16.3236 24.9648C18.1686 22.4049 20.5477 21.9155 20.5477 21.9155C21.9072 21.6143 22.9171 21.8495 23.1016 21.9155C23.2376 21.9155 23.3444 22.0096 23.3444 22.1414C23.3444 22.2825 23.2472 22.3861 23.1016 22.3861C23.053 22.3861 23.0045 22.3672 22.9754 22.3484C22.9754 22.3484 22.1014 22.0284 20.674 22.3201C18.5183 22.7626 17.0326 24.2214 16.3624 25.0214C17.2364 26.1695 18.4988 27.3272 20.3438 28.1272C21.0235 26.7437 22.5093 24.2308 24.8495 23.0449C24.8495 23.0449 24.869 23.0449 24.8884 23.0449C24.9369 22.9884 25.0049 22.9508 25.0826 22.9508C25.2379 22.9508 25.3738 23.0919 25.3738 23.2613C25.3738 23.3931 25.2767 23.4966 25.1797 23.5436C24.5679 24.0519 22.3636 24.5789 20.4021 28.1555C20.8585 28.3437 21.344 28.532 21.8586 28.6731C22.7326 28.9084 23.4706 29.1813 24.0921 29.4637C24.7427 29.6707 26.8305 30.1602 28.1026 28.1461L28.0928 28.1555ZM13.7212 25.219C11.9053 20.9649 6.66164 18.9601 6.66164 18.9601C-0.135746 16.6919 0.000201104 9.49192 0.000201104 9.49192C0.000201104 5.89662 2.37929 2.5931 4.17573 1.75545C4.17573 1.75545 3.127 2.75309 2.13652 5.2378C1.06836 8.00486 1.45678 13.4448 5.53521 15.0448C8.93391 16.3154 11.0411 19.0919 11.0411 19.0919C11.0411 19.0919 12.0899 20.3155 12.789 22.0096C13.9155 24.6637 14.197 26.339 13.7212 25.2096V25.219ZM19.4505 10.8472C19.7223 11.7131 19.4505 12.4472 19.4505 12.4472C21.3343 13.0683 22.6549 14.5179 22.6549 14.5179C22.4607 14.5179 22.3442 14.4425 21.7033 14.2166C21.7033 14.2166 20.5963 13.8401 19.9165 13.8589C19.6543 13.8589 19.5766 13.8872 19.5766 13.8872C19.3436 14.0942 18.9552 14.3578 18.3531 14.3578C17.0908 14.3578 16.178 13.699 16.178 13.699L16.3722 13.6425C16.547 13.5672 17.1879 13.0779 17.8093 12.579C18.8776 11.7131 19.4601 10.8472 19.4601 10.8472H19.4505ZM32.3849 16.7107C32.482 16.9931 32.5208 17.5955 32.3849 19.1296C32.2684 20.2589 31.9965 20.9178 30.7341 25.1531C30.7341 25.219 30.6952 25.2849 30.6564 25.3225C30.6564 25.3225 30.6564 25.3225 30.6564 25.3413C30.5885 25.4072 30.3651 25.6237 29.6563 25.9343C29.1415 26.1601 27.3257 26.7813 25.7429 26.6872C23.5483 26.5366 23.121 26.8377 23.121 26.8377C23.121 26.8377 23.2472 25.0496 25.8983 25.7272C26.7916 25.9531 28.2579 26.0095 29.1027 25.8402C30.5205 25.5766 30.6758 25.2567 30.6952 25.219C30.9088 24.4002 31.9577 20.2779 30.8604 19.5907C30.5981 19.4213 30.433 19.2708 30.1417 19.4025C30.1417 19.4025 29.2678 19.5719 28.6463 18.2072C28.2967 17.586 28.8697 17.4543 28.8697 17.4543C28.8697 17.4543 29.4231 17.0214 30.1321 17.4543C30.1321 17.4543 30.5495 16.4848 31.9771 16.5413C31.9771 16.5413 32.1519 16.5413 32.2684 16.5884C31.4138 14.3296 23.558 11.3743 23.558 11.3743C20.5963 10.2637 19.8 8.41898 17.7705 6.66839C16.2557 5.36957 13.964 4.5978 12.8958 4.31544C15.9352 5.12486 18.023 6.02839 18.023 6.02839C20.2079 6.80957 22.2567 10.0754 24.2184 11.0166C25.5778 11.6755 31.7537 14.2636 32.3752 16.7107V16.7295L32.3849 16.7107ZM12.3131 4.12721C12.5074 4.16486 12.7016 4.22133 12.8958 4.26839C12.5269 4.17428 12.3131 4.1178 12.3131 4.1178V4.12721ZM9.1087 15.1013C4.4185 14.0096 4.09806 10.5555 4.09806 10.5555C5.90422 12.9084 6.85585 12.9555 7.86575 13.0779C6.8947 12.2967 6.13727 11.0072 6.9918 9.0778C7.57443 7.76016 8.40954 6.53662 8.27359 5.42603C8.11822 4.20251 7.30254 3.32721 7.6327 3.73192C7.90459 4.0425 9.05043 5.52015 9.42915 6.57427C9.88554 7.84486 9.7593 8.48486 9.27378 10.019C8.59404 12.2778 10.2448 14.179 10.2448 14.179C12.2258 15.9295 12.6142 18.6684 12.6142 18.6684C12.3229 17.8214 11.546 15.7508 9.11841 15.0919L9.1087 15.1013ZM10.0798 4.58839C7.98228 1.60486 6.25379 1.30368 5.16621 1.33191C5.16621 1.33191 9.88555 0.720153 11.4295 4.7578C12.1384 6.69662 10.9052 9.20016 10.9052 9.20016C10.9052 9.20016 11.5849 6.7531 10.0603 4.58839H10.0798ZM27.8306 34.8378C27.8112 34.9696 27.8015 35.073 27.8015 35.1484C27.8015 35.1484 27.8306 35.0354 27.8306 34.8378ZM7.41906 21.8778C8.48722 21.4072 13.4397 24.8613 14.3815 30.9413C14.1485 29.6801 13.3134 26.9507 10.4682 25.539C6.81701 23.7319 7.08891 22.2919 7.08891 22.2919C7.08891 22.2919 7.12774 22.0096 7.41906 21.8778ZM14.469 31.6096C14.469 31.6096 14.469 31.459 14.4301 31.1955C14.4495 31.3366 14.469 31.4778 14.4786 31.6096H14.469ZM115.896 22.066C116.381 22.066 116.712 22.4049 116.712 22.8754C116.712 23.0825 116.634 23.2707 116.498 23.4214C116.342 23.6096 116.129 23.7037 115.886 23.7037H110.798C110.565 23.7037 110.37 23.6096 110.215 23.4684C110.05 23.3178 109.953 23.0919 109.953 22.8754V13.5578C109.953 13.3225 110.05 13.1061 110.215 12.946C110.535 12.6448 111.089 12.6637 111.38 12.9931C111.506 13.1531 111.574 13.3414 111.574 13.5578V22.066H115.896ZM119.392 12.9649C119.702 12.6354 120.247 12.6354 120.557 12.9649C120.702 13.1249 120.78 13.3414 120.78 13.5296V22.866C120.78 23.0731 120.702 23.2801 120.557 23.4308C120.401 23.6002 120.198 23.6943 119.974 23.6943C119.751 23.6943 119.547 23.6002 119.392 23.4496C119.236 23.2895 119.149 23.0731 119.149 22.866V13.5484C119.149 13.3131 119.245 13.1061 119.381 12.9555L119.392 12.9649ZM131.821 13.3414C132.666 13.8401 133.336 14.5273 133.821 15.3931C134.307 16.2402 134.559 17.2002 134.569 18.2167C134.569 19.252 134.316 20.1931 133.831 21.0401C133.345 21.9154 132.685 22.6025 131.85 23.1107C131.006 23.619 130.063 23.8637 129.073 23.8637C128.072 23.8637 127.13 23.619 126.295 23.1107C125.451 22.6025 124.78 21.9154 124.305 21.0401C123.82 20.1931 123.567 19.233 123.557 18.2167C123.557 17.4637 123.713 16.7107 123.994 16.0237C124.286 15.3367 124.674 14.7343 125.159 14.2354C125.645 13.7272 126.228 13.3225 126.907 13.0119C127.587 12.7296 128.306 12.579 129.063 12.579C130.053 12.579 131.006 12.8236 131.83 13.3319L131.821 13.3414ZM132.53 19.7696C132.724 19.2708 132.841 18.7531 132.841 18.2072C132.841 17.4731 132.666 16.8143 132.316 16.1931C131.966 15.572 131.51 15.1013 130.917 14.7437C130.335 14.386 129.723 14.2166 129.053 14.2166C128.373 14.2166 127.752 14.386 127.17 14.7343C126.587 15.0825 126.121 15.5531 125.781 16.1743C125.422 16.7955 125.257 17.4543 125.257 18.1978C125.257 18.9319 125.412 19.5907 125.762 20.2025C126.112 20.8331 126.567 21.3037 127.159 21.6613C127.743 22.0096 128.364 22.1884 129.044 22.1978C129.529 22.1978 130.015 22.0848 130.481 21.8778C130.947 21.6613 131.355 21.379 131.694 21.0307C132.035 20.6826 132.316 20.2495 132.52 19.7602L132.53 19.7696ZM145.057 13.0401C145.202 13.2001 145.28 13.3978 145.28 13.6048V22.866C145.28 23.0731 145.221 23.2613 145.086 23.4119C145.047 23.459 144.988 23.506 144.95 23.5436C144.785 23.6566 144.493 23.6943 144.493 23.6943C144.328 23.6943 144.202 23.6566 144.066 23.5814L143.678 23.1389L138.628 16.0801V22.8754C138.628 23.0825 138.56 23.2707 138.434 23.4214C138.269 23.6096 138.045 23.7037 137.831 23.7037C137.686 23.7037 137.472 23.6566 137.269 23.4684C137.094 23.299 137.006 23.0919 137.006 22.8754V13.6143C137.006 13.3508 137.084 13.1437 137.249 12.9555L137.347 12.899C137.347 12.899 137.541 12.739 137.802 12.739C138.065 12.739 138.288 12.8331 138.443 13.0495L143.649 20.3343V13.6143C143.649 13.3884 143.745 13.1719 143.92 13.0119C144.134 12.8236 144.338 12.7954 144.473 12.7954C144.687 12.7954 144.892 12.8896 145.057 13.0589V13.0401ZM44.8435 22.4519C45.0961 22.4519 45.261 22.6213 45.261 22.866C45.261 22.9602 45.232 23.0731 45.164 23.1483C45.0863 23.2425 44.9698 23.2895 44.8533 23.2895H39.7552C39.629 23.2895 39.5221 23.2425 39.4444 23.1673C39.3667 23.0731 39.3183 22.979 39.3183 22.866V13.5484C39.3183 13.426 39.3667 13.3225 39.4542 13.2378C39.6484 13.0495 39.9008 13.0683 40.0367 13.2378C40.1145 13.3319 40.1534 13.426 40.1534 13.5202V22.4613H44.8727L44.8435 22.4519ZM55.3115 13.6801C56.0884 14.1508 56.6903 14.7814 57.1565 15.5814C57.5935 16.3814 57.8169 17.2755 57.8363 18.2167C57.8169 19.1578 57.5935 20.0519 57.1565 20.8519C56.6903 21.6519 56.0884 22.3013 55.3115 22.7625C54.5347 23.2331 53.6801 23.4778 52.7673 23.4778C51.8545 23.4778 51 23.2425 50.2231 22.772C49.4463 22.3201 48.8443 21.6707 48.3976 20.8707C47.9509 20.0708 47.7178 19.1766 47.7178 18.2355C47.7178 17.5295 47.8538 16.8425 48.1063 16.1931C48.3976 15.5626 48.7374 14.9978 49.1744 14.5367C49.6308 14.066 50.1747 13.6896 50.7961 13.4072C51.4273 13.1437 52.0876 13.0119 52.7771 13.0119C53.6899 13.0119 54.5443 13.2472 55.3212 13.7084L55.3115 13.6801ZM56.603 19.9202C56.8166 19.3743 56.9331 18.7907 56.9331 18.2072C56.9331 17.4073 56.739 16.6637 56.3505 15.9861C55.9815 15.3272 55.4766 14.7814 54.8259 14.386C54.1948 14.0096 53.4956 13.8213 52.7577 13.8213C52.0099 13.8213 51.301 14.0096 50.6795 14.386C50.0387 14.7814 49.5143 15.3272 49.1454 15.9861C48.7569 16.6637 48.5821 17.3979 48.5821 18.2072C48.5821 18.9978 48.7763 19.7413 49.1454 20.4095C49.5337 21.0683 50.0387 21.6143 50.6699 22.0096C51.301 22.3861 52.0002 22.5931 52.7479 22.6025C53.3014 22.6025 53.8355 22.4707 54.3501 22.2448C54.8357 22.0096 55.3017 21.6801 55.6708 21.3037C56.0592 20.9272 56.3505 20.4566 56.5738 19.9108L56.603 19.9202ZM68.1586 13.1813C68.3042 13.2755 68.3722 13.3508 68.4013 13.4448V13.5578C68.4013 13.6519 68.4013 13.7272 68.3334 13.7837L64.9929 18.3954V22.8566C64.9929 22.9696 64.9541 23.0637 64.8764 23.1389C64.8084 23.2331 64.7016 23.2801 64.5851 23.2801C64.488 23.2801 64.3908 23.2331 64.2937 23.1483C64.216 23.0731 64.1772 22.9602 64.1772 22.866V18.386L60.8562 13.7743C60.7883 13.7178 60.7591 13.6143 60.7591 13.5484C60.7591 13.3978 60.8562 13.266 60.9728 13.2001C61.0213 13.1625 61.1087 13.1343 61.1961 13.1343C61.3515 13.1343 61.4486 13.1907 61.5165 13.2754L64.5851 17.5295L67.6536 13.2943C67.7895 13.1437 67.9061 13.1061 67.9837 13.1061L68.0614 13.1343L68.1586 13.1719V13.1813ZM74.7132 13.3414L78.1895 22.6872C78.209 22.7342 78.2187 22.7814 78.2187 22.8284C78.2187 22.8754 78.2187 22.9225 78.1895 22.979C78.1507 23.0919 78.073 23.1673 77.9759 23.2237L77.8302 23.2613C77.7331 23.2613 77.568 23.2237 77.4419 23.0166L76.5679 20.6636H72.1011L71.2271 22.979C71.2271 22.979 71.1979 23.0731 71.1106 23.1673C71.0329 23.2237 70.9455 23.2613 70.8484 23.2613L70.6736 23.2143C70.5279 23.1201 70.4406 22.9978 70.4406 22.8566C70.4406 22.8002 70.46 22.7342 70.4794 22.6684L73.9363 13.379C73.9945 13.2095 74.1306 13.0967 74.3054 13.0967C74.4315 13.0967 74.5966 13.1343 74.7229 13.3414H74.7132ZM72.4021 19.8166H76.228L74.3248 14.6872L72.4118 19.8166H72.4021ZM86.8708 22.4519C87.1135 22.4519 87.2786 22.6213 87.2786 22.866C87.2786 22.9602 87.2301 23.0731 87.1621 23.1483C87.0844 23.2425 86.9679 23.2895 86.8514 23.2895H81.763C81.6271 23.2895 81.53 23.2425 81.4426 23.1673C81.3455 23.0731 81.3066 22.979 81.3066 22.866V13.5484C81.3066 13.426 81.3552 13.3131 81.4329 13.2378C81.5979 13.0683 81.8601 13.0683 82.0155 13.2378C82.0835 13.3319 82.1126 13.426 82.1126 13.5202V22.4613H86.832L86.8708 22.4519ZM96.1347 13.1343C96.2512 13.1343 96.358 13.1813 96.4259 13.266C96.523 13.3414 96.5522 13.4542 96.5522 13.5484C96.5522 13.6707 96.5134 13.7837 96.4259 13.8589C96.3483 13.9343 96.2512 13.9719 96.1347 13.9719H93.2215V22.8848C93.2215 22.9602 93.1923 23.0731 93.0856 23.1673C92.9884 23.2801 92.8719 23.3084 92.7942 23.3084C92.6777 23.3084 92.5709 23.2613 92.5029 23.1767C92.4252 23.0825 92.3766 22.9884 92.3766 22.8942V13.9719H89.4635C89.3372 13.9719 89.2401 13.9249 89.1722 13.8495C89.0751 13.7743 89.0265 13.6613 89.0265 13.5672C89.0265 13.4448 89.0751 13.3414 89.1528 13.2566C89.2305 13.1625 89.347 13.1249 89.4441 13.1249H96.1444L96.1347 13.1343ZM106.787 13.2095C106.913 13.3037 106.981 13.379 107.001 13.473L107.02 13.586C107.02 13.6801 106.991 13.7461 106.942 13.8119L103.602 18.4237V22.8566C103.602 22.9508 103.563 23.0637 103.486 23.1389C103.408 23.2331 103.291 23.2801 103.194 23.2801C103.097 23.2801 102.981 23.2331 102.903 23.1483C102.825 23.0731 102.777 22.9602 102.777 22.866V18.386L99.4557 13.7743C99.3974 13.7178 99.3779 13.6143 99.3779 13.5484C99.3779 13.3978 99.4459 13.266 99.5722 13.2001C99.6305 13.1625 99.7081 13.1343 99.8052 13.1343C99.9704 13.1343 100.067 13.1907 100.135 13.2754L103.204 17.5295L106.263 13.2943C106.408 13.1437 106.515 13.1061 106.593 13.1061L106.671 13.1343L106.768 13.1719L106.787 13.2095Z" fill="white"/>
</g>
</g>
</g>
</g>
</svg>
