<svg width="116" height="50" viewBox="0 0 116 50" fill="none" xmlns="http://www.w3.org/2000/svg">
<g clip-path="url(#clip0_120_1200)">
<path d="M25.7327 49.0389C39.4143 49.0389 50.5054 38.1059 50.5054 24.6194C50.5054 11.1329 39.4143 0.199951 25.7327 0.199951C12.0511 0.199951 0.959961 11.1329 0.959961 24.6194C0.959961 38.1059 12.0511 49.0389 25.7327 49.0389Z" fill="white"/>
<path d="M28.6524 19.0547C27.6558 19.5572 26.8368 20.5767 26.3082 21.5354C25.0619 21.4375 23.9651 21.835 23.2568 22.1913C22.7763 21.869 22.0816 21.5395 21.2793 21.3562C20.9084 20.1967 21.3618 18.7252 22.6258 17.7222C25.0275 15.8182 28.4727 16.8346 28.6503 19.0537L28.6524 19.0547ZM44.6104 33.4897C36.7588 36.9456 30.8347 29.4819 30.8347 29.4819C30.8347 29.4819 35.6275 40.389 26.7919 44.9848C26.3113 45.235 25.7389 45.2546 25.2395 45.0435C13.809 40.2202 20.9711 27.7581 20.9711 27.7581C15.5191 32.8369 8.96709 32.4033 6.0567 28.3935C5.79554 28.0331 5.73495 27.5697 5.88434 27.1526C7.49936 22.6104 11.9443 20.5921 14.791 19.7539C15.2329 19.6241 15.7792 19.4625 16.2316 19.3296C16.5993 19.2215 16.6902 18.7509 16.3893 18.5161C16.031 18.2381 15.6079 17.8962 15.283 17.5966C12.6087 15.1303 11.2998 12.2645 12.5241 9.45022C12.755 8.9199 13.2303 8.52963 13.7996 8.39782C18.7241 7.2548 21.5969 11.2286 21.5969 11.2286C21.5969 11.2286 23.9275 5.05731 28.8697 4.0842C29.4892 3.96269 30.1379 4.16246 30.562 4.62379C33.1559 7.44942 31.194 12.696 31.194 12.696C31.194 12.696 34.4397 8.98786 40.1163 11.5859C40.7776 11.8887 41.1798 12.5601 41.1453 13.2778C40.8559 19.309 34.1566 20.7085 34.1566 20.7085C34.1566 20.7085 44.2646 23.6875 45.6383 31.5517C45.7783 32.3529 45.3657 33.1551 44.6125 33.4866L44.6104 33.4897ZM29.8715 20.8228C30.5745 20.1071 30.7835 19.0866 30.304 18.233C30.0052 17.7026 29.9686 17.0786 30.1985 16.4875C30.6863 15.2384 29.9551 14.0161 28.5949 13.7505C27.965 13.6279 27.4573 13.2912 27.1742 12.8134C26.5861 11.8217 25.1591 11.5849 23.9818 12.2481C23.4333 12.557 22.8212 12.6733 22.2727 12.5776C21.1445 12.3799 19.9254 13.0997 19.5023 14.1871C19.3018 14.7019 18.9173 15.1489 18.4316 15.432C17.4266 16.02 16.9722 17.2279 17.3953 18.1763C17.599 18.6325 17.6084 19.1721 17.4214 19.6787C17.0286 20.7435 17.53 21.8711 18.5747 22.2284C19.0813 22.4014 19.4961 22.7721 19.7269 23.2623C20.1521 24.1664 21.1811 24.6308 22.1954 24.4166C26.0126 27.8199 30.5923 25.8397 29.8694 20.8228H29.8715Z" fill="#151515"/>
<path d="M68.2111 8.53474H72.5338L73.192 23.0902H69.0447L69.0667 14.1788L65.6883 21.5106H62.4185L59.0182 14.1788L59.0401 23.0902H55.3975L56.0556 8.53474H60.4003L64.4378 17.0127L68.2121 8.53474H68.2111ZM83.605 23.0902V20.3223C83.3856 21.1152 82.9103 21.8072 82.1791 22.3983C81.4478 22.9893 80.4533 23.2849 79.1955 23.2849C78.2449 23.2849 77.3967 23.0645 76.6497 22.6248C75.9039 22.1851 75.3189 21.5394 74.8947 20.6889C74.4706 19.8383 74.2585 18.8291 74.2585 17.6604C74.2585 16.4916 74.4706 15.5195 74.8947 14.6545C75.3189 13.7895 75.9258 13.1192 76.7156 12.6434C77.5053 12.1677 78.434 11.9298 79.5016 11.9298C80.5693 11.9298 81.4729 12.179 82.1676 12.6764C82.8623 13.1738 83.3417 13.8482 83.605 14.6988V12.1461H87.3354V23.0902H83.605ZM80.797 20.2142C81.6599 20.2142 82.3368 19.9907 82.8267 19.5438C83.3167 19.0969 83.5622 18.477 83.5622 17.6841C83.5622 16.9344 83.3094 16.3145 82.8048 15.8243C82.3002 15.3342 81.6306 15.0891 80.797 15.0891C79.9634 15.0891 79.3449 15.327 78.855 15.8027C78.365 16.2785 78.1196 16.9056 78.1196 17.6841C78.1196 18.4626 78.3609 19.0608 78.8435 19.5222C79.3261 19.9835 79.9769 20.2142 80.7959 20.2142H80.797ZM92.8083 12.1461V16.2126C93.0131 15.4917 93.3714 14.7997 93.8833 14.1366C94.3951 13.4734 94.977 12.9431 95.6278 12.5466C96.2786 12.1502 96.919 11.9514 97.5479 11.9514L97.2846 16.0396C96.6411 16.0396 95.818 16.1837 94.8161 16.472C93.8143 16.7604 93.1447 17.0415 92.8083 17.3154V23.0902H89.0779V12.1461H92.8083ZM98.0514 9.3781C98.0514 8.87353 98.2374 8.45957 98.6113 8.13417C98.9843 7.8098 99.5515 7.64709 100.312 7.64709C101.073 7.64709 101.643 7.8098 102.023 8.13417C102.403 8.45854 102.594 8.87353 102.594 9.3781C102.594 9.88268 102.407 10.3152 102.034 10.6323C101.661 10.9495 101.086 11.1081 100.311 11.1081C99.5358 11.1081 98.9832 10.9454 98.6103 10.621C98.2374 10.2966 98.0504 9.88165 98.0504 9.37707L98.0514 9.3781ZM102.177 12.1461V23.0902H98.4463V12.1461H102.177ZM110.556 20.1925C111.287 20.1925 112.125 20.106 113.068 19.933C114.012 19.76 114.688 19.5654 115.098 19.3492L115.251 21.9235C113.789 22.8318 111.989 23.2859 109.854 23.2859C107.85 23.2859 106.281 22.7885 105.148 21.7938C104.014 20.7991 103.447 19.4295 103.447 17.6841C103.447 16.5307 103.71 15.5216 104.237 14.6566C104.763 13.7916 105.506 13.1243 106.464 12.6558C107.422 12.1873 108.545 11.9525 109.832 11.9525C111.675 11.9525 113.13 12.4138 114.198 13.3365C115.266 14.2591 115.8 15.5206 115.8 17.1218C115.8 17.7417 115.778 18.1598 115.734 18.3761L107.419 18.3328C107.711 19.5726 108.757 20.1925 110.557 20.1925H110.556ZM111.511 15.3373C111.094 14.9985 110.534 14.8286 109.832 14.8286C109.13 14.8286 108.614 14.9913 108.197 15.3156C107.78 15.64 107.513 16.1199 107.396 16.7542H112.201C112.157 16.1487 111.927 15.6761 111.511 15.3373Z" fill="white"/>
<path d="M63.1196 41.6258C60.5164 41.6258 58.5086 40.9657 57.0972 39.6466C55.6859 38.3275 54.9797 36.4564 54.9797 34.0345C54.9797 31.6125 55.7079 29.8671 57.163 28.584C58.6182 27.3009 60.6992 26.6594 63.4059 26.6594C65.585 26.6594 67.3703 27.0126 68.7597 27.719L68.4964 31.2016C67.9699 30.8556 67.2564 30.5601 66.357 30.315C65.4575 30.0699 64.5539 29.9474 63.6472 29.9474C62.1993 29.9474 61.0732 30.3078 60.2688 31.0286C59.4644 31.7494 59.0622 32.7514 59.0622 34.0355C59.0622 35.3196 59.4498 36.3854 60.2249 37.1062C61 37.827 62.0896 38.1874 63.4936 38.1874C64.4296 38.1874 65.3625 38.0608 66.2912 37.8085C67.2199 37.5562 67.9626 37.2349 68.5183 36.8457L68.65 40.2634C68.1381 40.6094 67.4173 40.9225 66.4886 41.2036C65.5599 41.4847 64.4369 41.6258 63.1207 41.6258H63.1196ZM76.4169 40.9008C75.7076 41.3838 74.8698 41.6258 73.9045 41.6258C72.6322 41.6258 71.6888 41.2365 71.0746 40.458C70.4603 39.6795 70.1532 38.6055 70.1532 37.2349V30.4653H73.8836V36.3699C73.8836 37.0763 74.0665 37.6097 74.4321 37.9702C74.7977 38.3306 75.3169 38.5108 75.9896 38.5108C76.3991 38.5108 76.7794 38.4603 77.1304 38.3594C77.4814 38.2585 77.7373 38.1432 77.8982 38.0134V30.4653H81.6286V41.4095H77.8982V39.2038C77.6203 39.8525 77.1262 40.4189 76.4169 40.9019V40.9008ZM87.1015 30.4653V34.5318C87.3063 33.811 87.6646 33.119 88.1765 32.4558C88.6884 31.7927 89.2702 31.2624 89.921 30.8659C90.5719 30.4695 91.2122 30.2707 91.8411 30.2707L91.5779 34.3588C90.9344 34.3588 90.1112 34.503 89.1094 34.7913C88.1075 35.0797 87.4379 35.3608 87.1015 35.6347V41.4095H83.3711V30.4653H87.1015ZM92.3446 27.6963C92.3446 27.1918 92.5306 26.7778 92.9046 26.4524C93.2775 26.128 93.8447 25.9653 94.6052 25.9653C95.3657 25.9653 95.9361 26.128 96.3164 26.4524C96.6966 26.7768 96.8867 27.1918 96.8867 27.6963C96.8867 28.2009 96.6997 28.6334 96.3268 28.9506C95.9539 29.2677 95.3793 29.4263 94.6042 29.4263C93.8291 29.4263 93.2764 29.2636 92.9035 28.9392C92.5306 28.6149 92.3436 28.1999 92.3436 27.6953L92.3446 27.6963ZM96.4699 30.4653V41.4095H92.7395V30.4653H96.4699ZM104.849 38.5108C105.58 38.5108 106.418 38.4243 107.361 38.2513C108.305 38.0783 108.982 37.8837 109.391 37.6674L109.545 40.2418C108.082 41.15 106.282 41.6041 104.147 41.6041C102.143 41.6041 100.574 41.1068 99.4409 40.112C98.3075 39.1173 97.7402 37.7477 97.7402 36.0023C97.7402 34.849 98.0035 33.8398 98.53 32.9748C99.0565 32.1098 99.7992 31.4426 100.757 30.974C101.715 30.5055 102.838 30.2707 104.125 30.2707C105.968 30.2707 107.423 30.732 108.492 31.6547C109.559 32.5774 110.093 33.8388 110.093 35.4401C110.093 36.06 110.071 36.478 110.027 36.6943L101.712 36.651C102.004 37.8909 103.05 38.5108 104.85 38.5108H104.849ZM105.804 33.6555C105.387 33.3167 104.827 33.1468 104.125 33.1468C103.423 33.1468 102.907 33.3095 102.49 33.6339C102.073 33.9583 101.806 34.4381 101.689 35.0724H106.494C106.45 34.4669 106.221 33.9943 105.804 33.6555Z" fill="white"/>
</g>
<defs>
<clipPath id="clip0_120_1200">
<rect width="114.84" height="48.84" fill="white" transform="translate(0.959961 0.199951)"/>
</clipPath>
</defs>
</svg>
