<svg width="583" height="119" viewBox="0 0 583 119" fill="none" xmlns="http://www.w3.org/2000/svg">
<g clip-path="url(#clip0_777_2447)">
<path d="M315.24 5.03016C315.62 4.38016 315.84 3.42016 316.4 3.14016C320.34 1.17016 331.1 5.62016 332.82 9.84016C335.31 8.52016 335.52 6.63016 333.36 3.95016C340.01 5.94016 345.53 2.30016 351.39 3.35016C359.33 4.77016 367.32 1.71016 375.4 3.90016C380.83 5.37016 386.77 5.81016 392.29 5.65016C397.88 5.48016 397.65 9.30016 397.09 11.4402C396.04 15.4702 398.53 18.8002 397.8 22.9202C397.02 27.3202 397.27 32.2802 397.87 37.0802C398.96 45.6602 396.45 54.2402 397.4 63.0402C397.94 68.0102 396.75 73.5702 395.88 78.7202C395.44 81.3002 397.05 82.5602 397.13 84.6302C397.37 91.2702 399.13 97.8302 397.08 104.56C396.65 105.99 399.19 108.41 397.96 110.03C396.22 112.32 395.13 115.09 390.7 114.95C380.71 114.64 370.67 116.26 360.65 115.54C357.27 115.3 353.57 115.92 350.46 113.78C345.97 118.91 340.2 112.65 335.23 115.39C334.28 115.91 329.77 118.55 330 113.22C330 113.12 329.22 112.88 329.21 112.92C326.28 118.53 322.17 112.82 318.49 113.89C315.2 114.84 311.66 116.6 307.55 115.37C305.65 114.8 303.7 116.82 302.72 112.96C302.26 111.16 298.4 113.22 296.62 114.21C294.28 115.51 292.46 116.64 290.15 114.56C290.03 114.45 289.82 114.25 289.75 114.29C283.91 117.06 278.92 115.78 274.38 111.38C273.67 110.69 272.97 112.03 273.11 112.81C273.38 114.29 274.54 115.26 275.79 116.42C269.92 115.22 263.96 118.77 258.26 115.04C257.42 114.49 254.62 115.41 252.7 115.57C237.5 116.89 222.27 116.49 207.05 116.43C205.37 116.43 203.6 115.66 202.03 114.9C200.05 113.94 197.02 113.88 196.37 114.73C193.52 118.49 189.8 115.62 186.88 115.92C181.84 116.43 176.41 117.26 171.28 116.07C166.43 114.94 160.82 118.05 157.32 116.07C152.29 113.21 148.21 117.19 144.01 115.62C138.76 113.66 134.14 118.08 128.93 116.69C124.5 115.51 118.97 118.18 115.64 116.22C111.67 113.88 109.73 115.21 106.89 116.79C106.47 117.02 105.68 116.73 105.11 116.52C103.8 116.04 101.6 118.57 101.03 115.05C100.81 113.72 99.6104 115.14 98.9104 115.69C96.3304 117.72 93.8304 119.97 91.4404 115.26C90.9304 114.25 88.5404 113.67 88.1104 115.58C87.3904 118.73 85.6904 117.38 84.1204 116.9C76.0804 114.43 67.9604 117.27 59.8703 116.45C53.4903 115.8 46.9104 117.84 40.6504 114.95C38.6504 114.03 36.2604 114.27 34.3804 115.16C28.5404 117.92 22.6504 116.67 16.7404 115.89C14.2104 115.55 12.2004 113.78 9.02035 115.23C5.92035 116.65 1.45035 110.61 2.00035 105.95C3.30035 95.0602 1.57035 84.2102 1.88035 73.3402C2.10035 65.5502 1.59035 57.7302 1.91035 49.9402C2.34035 40.5502 -0.119649 31.4102 0.000351273 22.0602C0.0703513 17.0102 1.22035 12.0602 0.570351 6.89016C0.340351 5.07016 4.55035 5.39016 6.70035 5.03016C17.4104 3.24016 28.2803 5.85016 39.0504 3.91016C43.4904 3.11016 48.0903 3.18016 52.6203 2.92016C54.2103 2.83016 60.2603 4.59016 62.4203 5.53016C62.8203 5.70016 63.4604 5.77016 63.7904 5.57016C70.1804 1.58016 77.4104 3.82016 84.1104 3.61016C86.8104 3.53016 90.7804 3.32016 94.2304 5.21016C97.3004 6.90016 101.94 5.49016 105.49 5.01016C108.97 4.54016 112.88 4.24016 115.74 4.84016C118.37 5.39016 120.65 4.56016 122.42 4.17016C125.73 3.45016 127.7 3.45016 129.12 6.64016C129.88 8.35016 130.87 7.26016 131.93 6.91016C138.01 4.89016 144.25 4.58016 150.65 4.77016C156.94 4.96016 163.27 3.88016 169.55 4.15016C173.03 4.30016 176.26 3.38016 179.64 3.24016C181.51 3.16016 183.03 2.78016 184.51 4.49016C185.53 5.68016 187.02 5.46016 188.51 4.44016C191.75 2.24016 191.76 2.39016 194.28 5.63016C194.94 6.47016 196.14 7.49016 197.24 6.49016C198.75 5.12016 197.14 4.23016 195.89 2.80016C199.99 3.17016 203.65 3.28016 207.22 3.88016C211.73 4.63016 216.18 6.23016 220.58 3.52016C221.12 3.19016 222.11 2.78016 222.43 3.02016C226.19 5.87016 230.17 2.51016 234.14 3.46016C235.9 3.88016 239.05 2.95016 239.67 4.63016C240.52 6.95016 236.52 6.26016 235.83 8.22016C239.42 9.24016 241.45 8.09016 241.23 4.97016C241.17 4.14016 240.66 3.35016 241.77 3.05016C242.35 2.89016 243.42 2.89016 243.61 3.21016C246.09 7.30016 249.49 5.53016 252.46 4.40016C257.14 2.61016 261.69 2.14016 266.23 4.48016C267.22 4.99016 268.42 5.37016 269.02 4.82016C272.26 1.86016 276.34 4.56016 279.89 3.04016C281.27 2.45016 284.96 1.06016 285.23 5.59016C285.27 6.22016 288.63 6.83016 291.02 6.06016C296.38 4.32016 301.83 2.32016 307.67 3.06016C310.28 3.39016 312.99 3.46016 315.34 4.91016C315.51 5.09016 315.67 5.28016 315.83 5.46016C315.85 5.27016 315.88 5.07016 315.9 4.88016C315.69 4.93016 315.47 4.99016 315.26 5.04016L315.24 5.03016ZM219.77 109.88C224.26 110.03 228.5 112.74 233.14 111.24C233.44 110.28 232.54 110.14 232.22 109.64C231.2 108.03 232.11 106.78 233.34 105.99C233.71 105.75 235.37 103.81 235.81 106.32C235.94 106.6 236.07 106.89 236.2 107.17C236.33 107.04 236.45 106.9 236.58 106.77L235.77 106.34C235.97 107.54 236.78 107.17 237.61 107.21C242.2 107.38 246.67 106.13 251.32 106.55C256.85 107.05 262.42 106.53 268.04 107.13C271.35 107.48 273.53 107.48 274.27 111.37C275.06 110.62 275.81 110.25 275.87 109.79C276.36 105.81 279.41 105.46 282.27 105.71C284.88 105.95 288.74 103.17 289.89 108.25C290.03 108.88 291.95 109.09 291.94 108.59C291.91 106.66 292.08 105.67 294.47 105.52C297.3 105.34 295.35 108.68 297.79 109.1C297.05 105.71 298.53 105.03 301.44 105.32C315.03 106.7 328.75 104.95 342.31 106.75C344.66 107.06 346.81 104.31 349.1 106.31C349.04 108.86 345.85 107.61 345.4 109.94C349.47 109.4 353.24 109.87 357.18 108.23C359.51 107.26 361.34 104.2 364.03 105.11C369.71 107.04 375.24 105.98 380.95 105.62C388.12 105.16 388.13 105.68 388.19 98.8802C388.19 97.9102 388.31 96.8902 388.62 95.9802C390.48 90.5702 387.53 84.5102 390.89 79.3102C388.09 76.5602 388.55 74.6602 393.66 73.8102C388.5 72.2802 388.08 69.8802 390.22 66.7002C390.75 65.9102 391.89 64.8002 390.9 64.1902C387.66 62.2102 389.33 59.7702 389.87 57.3702C390.79 53.2302 391.6 47.1402 390.06 45.2102C386.55 40.7802 388.27 35.8602 389.22 33.2102C391.18 27.7602 387.66 22.6902 389.89 17.6002C390.28 16.7002 388.33 14.7802 387.46 13.3302C384.99 16.6602 382.3 13.1302 379.75 13.5802C368.56 15.5702 357.25 13.2102 346.03 14.5902C344.2 14.8102 341.55 15.3702 340.57 13.4102C339.29 10.8502 337.34 11.3502 335.29 10.9502C331.02 10.1002 328.01 13.6702 324.05 13.7102C310.8 13.8202 297.54 13.9902 284.29 14.0702C281.97 14.0902 279.41 14.8602 277.85 11.9402C277.28 10.8802 275.55 10.8902 275.25 12.4102C274.82 14.5802 273.28 13.8002 272.2 13.8202C267.19 13.9402 262.18 14.0002 257.18 13.9302C252.27 13.8602 247.08 12.9002 242.58 13.2102C238.59 13.4802 234.22 13.2202 230.27 13.3702C224.28 13.6002 217.69 16.6102 211.86 12.3302C207 15.4002 201.51 12.0902 196.42 13.8502C194.64 14.4702 190.71 14.6902 190.58 13.0502C190.1 6.89016 185.35 13.7702 184.29 10.6302C181.34 15.5702 176.4 13.1602 172.3 13.9602C169.49 14.5002 166.95 13.1602 164.05 13.6402C158.57 14.5402 152.89 15.1402 147.39 14.6702C143.88 14.3702 140.43 13.2302 136.74 13.3202C134.22 13.3902 131.19 18.1802 128.95 12.7302C128.79 12.3502 127.77 14.2302 126.95 14.5202C124.96 15.2402 122.46 17.0202 121.51 13.2802C120.77 10.3602 120.65 10.1302 118.56 12.3202C115.85 15.1702 112.59 14.6102 111.49 11.9902C109.81 8.01016 108.97 10.4602 107.74 11.7602C105.22 14.4102 102.12 16.4102 98.6204 15.0102C95.4904 13.7602 92.6403 14.4202 89.6303 14.3902C86.3803 14.3602 82.8603 15.8202 79.9903 12.6002C78.9703 11.4602 77.5903 12.5102 76.2703 13.5802C73.1703 16.1002 68.3103 15.9802 66.3103 13.8902C63.7703 11.2402 62.5904 12.3202 60.3804 13.2302C57.7004 14.3302 53.7603 15.3902 52.1903 13.5302C49.6903 10.5802 48.6004 11.9602 46.3004 13.2102C43.2104 14.8802 38.9004 15.8502 36.4504 13.6202C33.8004 11.2002 31.1304 11.3202 29.1004 12.3002C25.3904 14.0802 22.1104 14.0002 18.2704 13.1102C15.5304 12.4802 10.4904 12.2302 10.3104 14.8002C10.1004 17.8102 8.83035 20.5902 8.99035 23.6602C9.72035 37.5602 10.4204 51.4602 10.7304 65.3702C11.0404 79.3502 10.3704 93.3602 12.5204 107.5C18.5204 105.06 24.7204 106.45 30.3104 108.28C32.0804 108.86 34.5404 110.23 35.2304 109.07C37.1504 105.83 40.3204 106.74 42.3904 106.93C54.6604 108.04 66.8804 108.27 79.1604 107.29C81.5304 107.1 85.0804 105.56 86.2304 110.03C86.4204 110.77 89.3103 111.8 90.2403 109.23C91.3803 106.08 93.8704 105.42 96.8604 105.57C103.81 105.9 110.76 106.12 117.7 106.52C123.54 106.86 130.48 103.63 133.9 112.81C135.08 107.51 137.46 106.22 141.35 106.3C154.74 106.57 168.12 106.46 181.51 105.21C185.87 104.8 192.93 102.23 193.18 111.18C193.18 111.2 193.48 111.21 193.93 111.26C194.37 110.6 195.1 109.89 195.37 109.03C196.65 105.01 198.58 103.06 202.35 106.64C203.43 107.67 204.53 108.34 205.87 107.55C209 105.7 212.37 106.74 215.64 106.58C217.36 106.49 219.2 106.51 218.49 109.18C218.55 109.58 218.61 109.98 218.67 110.38C219.03 110.2 219.4 110.01 219.76 109.83L219.77 109.88Z" fill="#F0EFEE"/>
<path d="M465.402 58.8898C465.402 52.7398 465.632 46.5798 465.332 40.4498C465.102 35.7798 466.912 34.3498 471.452 34.5298C479.262 34.8398 487.102 34.3098 494.892 34.7298C499.332 34.9698 500.112 33.3498 499.972 29.4098C499.692 21.2798 500.012 13.1198 499.832 4.9798C499.752 1.2398 501.342 -0.0102035 504.872 0.0197965C517.682 0.109796 530.492 0.139796 543.292 -0.000203525C547.042 -0.0402035 548.202 1.4698 548.132 5.0698C547.952 13.5398 548.192 22.0198 548.012 30.4898C547.952 33.6098 548.592 34.8398 552.112 34.7098C560.582 34.3998 569.072 34.7198 577.552 34.5598C581.392 34.4798 582.942 35.9198 582.902 39.7998C582.782 52.4298 582.782 65.0598 582.902 77.6898C582.942 81.7698 581.152 83.3798 577.202 83.3398C568.722 83.2498 560.222 83.5598 551.762 83.1898C548.342 83.0398 547.982 84.2098 548.032 87.0298C548.172 95.3398 547.902 103.65 548.162 111.96C548.292 115.99 547.092 117.68 542.882 117.63C530.242 117.47 517.602 117.53 504.962 117.6C501.222 117.62 499.712 116.22 499.822 112.29C500.072 103.82 499.762 95.3398 499.972 86.8698C500.052 83.7298 499.132 83.1098 496.062 83.2198C487.922 83.5198 479.762 83.1498 471.622 83.3898C466.772 83.5298 465.132 81.5398 465.352 76.8498C465.632 70.8798 465.422 64.8898 465.422 58.8998L465.402 58.8898ZM525.522 6.5298C519.572 6.5298 514.742 6.7198 509.932 6.4598C506.802 6.2898 506.002 7.3498 506.082 10.3798C506.282 18.6798 505.952 26.9898 506.232 35.2798C506.382 39.7498 504.662 41.0398 500.402 40.8998C492.102 40.6398 483.782 40.9298 475.472 40.7598C472.732 40.6998 471.762 41.3698 471.812 44.2698C471.992 53.8998 471.972 63.5298 471.812 73.1598C471.762 75.9098 472.442 76.8598 475.342 76.7898C483.982 76.5998 492.632 76.8798 501.262 76.6498C505.042 76.5498 506.242 78.0098 506.182 81.5798C506.042 89.8798 506.302 98.1898 506.062 106.49C505.962 109.97 506.532 111.28 510.532 111.11C519.822 110.7 529.152 110.74 538.442 111.13C541.492 111.26 542.072 110.67 542.022 107.88C541.882 99.2498 542.072 90.6098 541.922 81.9798C541.852 78.1698 543.242 76.5998 547.162 76.6798C555.802 76.8598 564.452 76.6298 573.092 76.7898C575.892 76.8398 576.822 76.0398 576.782 73.1698C576.622 63.7098 576.572 54.2398 576.802 44.7798C576.882 41.3598 575.712 40.6698 572.532 40.7498C564.062 40.9698 555.582 40.6998 547.102 40.8798C543.382 40.9598 541.972 39.2798 541.972 35.8598C541.972 31.8698 542.012 27.8898 541.962 23.8998C541.882 18.2898 543.892 10.7098 541.042 7.5798C537.802 4.0198 530.112 7.0198 525.502 6.5198L525.522 6.5298Z" fill="#F0EFEE"/>
<path d="M315.238 5.03012C315.448 4.98012 315.668 4.92012 315.878 4.87012C315.858 5.06012 315.828 5.26012 315.808 5.45012C315.648 5.27012 315.478 5.08012 315.318 4.90012L315.238 5.03012Z" fill="#0B0B0B"/>
<path d="M39.7516 51.4802C37.3416 52.6702 37.9316 54.4902 37.9716 56.0602C38.0616 59.0402 38.1516 61.9802 36.2116 64.5502C35.7316 65.1902 35.2516 66.0602 36.1916 66.6902C39.2116 68.7402 38.0816 72.0001 37.1316 73.8801C35.0616 77.9502 35.2416 81.3602 37.4016 85.1702C37.8816 86.0202 38.3416 87.2902 39.0316 87.4002C42.0216 87.8502 41.9016 90.2702 42.5016 92.2602C43.9116 96.9302 42.5616 99.1902 37.9716 98.4002C32.8716 97.5202 28.0116 96.2302 22.9816 98.6202C21.8916 99.1402 21.3816 97.7902 21.0516 96.8602C19.6916 93.0002 21.1016 88.4402 24.7716 87.3002C27.2116 86.5402 26.7916 85.2702 26.8816 83.6902C27.2216 77.7002 26.9216 71.5101 27.8916 65.7701C28.8716 59.9301 29.2616 54.1202 29.9116 48.2902C30.2916 44.8302 26.3416 41.7102 29.4416 37.8702C30.0116 37.1602 26.5316 37.3302 25.4316 36.0302C22.4016 38.6202 22.7516 35.5502 22.0616 34.0702C20.7316 31.2002 20.1016 28.3102 22.5516 25.7802C24.2816 23.9902 27.7816 24.1202 28.4016 25.2602C29.9516 28.1302 31.1516 25.9802 32.2316 25.5202C35.6216 24.0702 38.4616 25.1302 39.1716 28.7502C39.7416 31.6302 42.0716 34.0502 40.7516 37.5802C40.2516 38.9202 41.6916 41.5802 43.4816 43.0002C44.9816 44.1902 45.9616 45.8902 45.8216 47.7202C45.4316 52.8602 46.6716 57.4502 49.6116 61.6702C50.8916 63.5102 47.9216 65.5502 49.7516 67.6402C50.5916 68.5902 50.5916 70.2302 52.5316 69.0602C54.2916 68.0002 54.1616 67.3801 52.5016 66.3401C51.5716 65.7601 51.6916 64.4502 52.1716 63.5902C54.3416 59.6402 54.8916 55.2302 55.9716 50.9602C57.8016 43.7202 60.0516 36.5702 61.5816 29.2802C62.2516 26.1202 64.6416 24.4302 66.4916 25.0202C69.5616 26.0102 72.0516 26.1702 75.2316 25.4402C78.8416 24.6002 81.5116 28.4402 79.9016 32.4902C79.2616 34.1102 80.3616 39.5902 74.8216 37.0802C73.7216 36.5802 70.4916 37.6602 71.8816 41.1302C75.1716 49.3502 75.6216 58.0301 74.2716 66.6301C73.3816 72.3001 75.5516 77.7102 74.6816 83.3002C74.5116 84.4002 74.6716 86.3702 76.2916 86.5702C80.3116 87.0602 80.1516 90.3902 80.8716 92.9902C81.7316 96.1002 81.6216 98.1201 77.0116 98.0901C73.2016 98.0701 69.4316 100.31 65.3316 99.8302C62.9816 99.5502 59.8716 100.54 59.3216 97.0702C58.7716 93.5902 58.6816 89.7102 62.2916 87.6802C65.6016 85.8202 66.2016 84.2901 65.1416 80.2701C63.8216 75.3101 64.5416 69.7602 64.7116 64.4702C64.7916 62.1002 64.5316 53.7302 63.4316 50.6202C61.2316 59.5702 59.0016 67.9502 57.1716 76.4102C56.5216 79.4202 55.8716 81.3102 52.3416 79.9102C51.7616 79.6802 50.9716 79.5701 50.4216 79.7701C47.1716 81.0001 45.4416 79.9202 44.9016 76.0102C43.7616 67.7402 40.5516 59.9502 39.7716 51.4802H39.7516Z" fill="#F0EFEE"/>
<path d="M282.07 53.0999C279.82 58.1099 279.2 63.2799 281.9 68.4299C277.61 71.2199 283.56 77.5499 277.93 80.2499C277.51 80.4499 277.29 84.6799 275.89 86.6499C274.14 89.0999 272.81 92.1099 268.91 91.9699C267.94 91.9399 266.24 92.8599 266.03 93.6499C264.34 99.9999 259.4 98.0399 255.19 98.1999C247.96 98.4699 241.46 95.3899 237.59 90.2599C234.85 86.6299 231.45 82.5899 230.34 77.5599C229.18 72.3099 226.1 67.1199 228.75 61.7699C229.88 59.4799 227.25 58.9499 227.95 56.6799C229.19 52.6299 229.93 48.4699 232.25 44.7999C232.76 43.9899 233.33 42.9899 233.31 42.0899C233.13 33.6999 238.54 29.1599 244.54 24.6399C249.42 20.9599 253.91 20.8799 258.71 24.2299C259.99 25.1199 260.14 24.6499 260.61 23.4299C261.9 20.0699 264.01 21.8699 265 23.3699C268.74 29.0199 273.16 34.1599 276.66 40.0799C279.17 44.3299 280.18 48.6299 282.06 53.0999H282.07ZM269.2 50.2399C268.46 44.6599 268.83 38.4599 261.64 36.4199C259.96 35.9399 260.23 33.3999 257.77 33.4299C250.89 33.5199 248.11 40.5499 242.23 42.1999C241.4 42.4299 242.29 43.1499 242.47 43.2499C244.57 44.3499 243.16 45.3499 242.7 46.7299C240.55 53.1499 238.8 59.5699 241.26 66.4799C242.3 69.3999 242.38 72.6299 242.04 75.9799C241.76 78.7699 242.52 82.9499 246.46 83.5299C248.87 83.8899 250.73 85.4699 252.8 85.6299C254.87 85.7899 256.65 88.4099 257.17 87.7199C260.53 83.2599 266.14 80.1499 267.19 74.3499C268.3 68.2099 270.18 62.2499 271.13 56.0999C271.28 55.1199 272.31 53.1299 270.9 53.1399C267.94 53.1699 269.51 51.2999 269.19 50.2199L269.2 50.2399Z" fill="#F0EFEE"/>
<path d="M318.25 87.95C318.5 87.95 319.7 88.16 320.79 87.92C326.23 86.73 327.06 90.64 327.11 94.23C327.16 97.66 325.29 100.97 321.28 100.64C317.24 100.31 312.45 102.67 309.28 98.08C305.45 100.22 300.48 95.01 297.04 99.97C296.74 100.4 295.93 100.58 295.33 100.68C292.19 101.21 287.97 97.35 288 93.02C288.02 90.3 289.52 88.05 293.49 88.24C298.51 88.49 300.89 83.59 299.57 78.58C298.17 73.27 299.35 67.71 299.35 62.26C299.35 59.2 299.29 56.68 295.13 57.89C294.18 58.17 293.3 58.12 293.48 56.99C293.87 54.47 291.88 54.09 290.42 53.14C288.5 51.89 288.28 49.81 288.63 47.93C288.94 46.27 290.3 45.95 292.22 45.69C299.34 44.73 299.35 44.49 299.69 36.91C299.93 31.62 301.78 26.58 305.34 23.16C306.57 21.98 309.54 17.49 313.37 20.52C315.01 18.14 317.63 18.21 320.05 18C323.35 17.7 326.66 17.65 329.62 19.6C333.29 22.02 334.7 27.04 331.88 29.92C329.53 32.31 326.82 31.45 324.11 29.23C322.88 28.22 319.77 26.23 318.62 27.89C315.75 32.04 309.44 34.7 311.43 41.2C311.93 42.82 310.01 45.99 314.19 46.38C316.02 46.55 316.31 45.54 317.33 45.09C320.8 43.55 324.34 44.36 327.04 46.42C329.48 48.28 327.05 50.53 326.01 52.47C325.7 53.05 325.14 53.6 325.1 54.19C324.86 57.98 322 59.6 318.86 57.17C316.54 55.38 313.96 54.83 312.24 56.39C310.54 57.94 308.33 60.12 310.18 63.54C311.36 65.71 312.52 68.28 310.33 71.29C309.14 72.91 309.75 76.1 310.85 78.42C311.76 80.36 312.03 82.19 310.24 83.75C309.33 84.55 308.34 85.45 309.07 86.6C309.75 87.67 310.93 88.6 312.44 88.04C314.09 87.42 315.72 87.83 318.25 87.95Z" fill="#F0EFEE"/>
<path d="M346.278 49.3501C346.998 46.4801 345.938 43.4301 345.838 40.4801C345.658 35.4601 347.288 31.0201 348.508 26.4401C349.308 23.4001 359.158 17.9401 362.608 18.4801C365.698 18.9601 368.698 19.0701 371.818 18.8901C377.638 18.5601 381.368 24.3201 378.518 29.3301C377.428 31.2501 375.488 32.9701 372.748 30.8401C371.388 29.7901 369.878 29.2101 367.798 29.2801C361.398 29.4901 357.488 32.7301 357.078 39.1801C356.978 40.6501 357.208 42.1501 357.388 43.6201C357.748 46.6301 358.408 48.4901 361.728 45.5201C363.748 43.7001 371.438 44.6001 372.668 46.4601C374.838 49.7401 375.288 53.0501 372.528 56.3801C371.838 57.2101 371.278 58.1901 370.248 57.5901C367.748 56.1401 365.628 54.4401 362.818 57.5701C362.368 58.0701 358.108 57.2301 357.298 59.0101C356.218 61.3901 356.208 64.4201 356.368 67.1401C356.508 69.6101 359.538 72.0601 356.168 74.4501C359.498 75.9601 356.708 78.7701 357.468 80.9001C358.038 82.5001 357.828 84.4501 357.628 86.2101C357.458 87.6601 354.968 89.6801 357.048 90.3301C359.168 90.9901 361.998 93.4101 364.508 90.0301C366.078 87.9201 368.788 87.7501 371.158 88.8401C373.608 89.9601 374.048 92.5601 373.948 94.7901C373.838 97.2801 372.898 100.68 369.978 100.29C367.658 99.9801 365.378 100.88 363.528 100.33C358.938 98.9601 353.998 100.26 349.588 98.0801C348.558 97.5701 346.458 94.4701 346.748 99.2001C346.868 101.17 338.808 101.9 336.338 100.21C333.938 98.5601 333.388 93.9501 335.438 91.4101C337.038 89.4401 338.758 87.6201 341.778 88.0101C345.678 88.5001 346.848 85.2201 346.838 82.7101C346.828 75.3701 346.198 68.0201 345.548 60.7001C345.338 58.3201 343.918 56.8901 341.158 58.2501C338.218 59.7001 336.258 57.9001 335.128 55.6401C333.998 53.3901 333.578 51.2501 335.828 48.6201C340.078 43.6501 342.628 49.9301 346.288 49.3401L346.278 49.3501Z" fill="#F0EFEE"/>
<path d="M121.122 57.26C121.672 61.12 123.352 65.26 122.482 68.77C121.362 73.3 122.372 78.14 120.042 82.46C119.152 84.11 119.202 85.97 122.202 86.06C127.862 86.21 128.652 87.58 126.202 92.14C126.022 92.47 126.002 93.25 126.152 93.33C129.652 95.16 127.542 96.58 125.762 97.82C123.612 99.31 122.712 98.89 120.432 96.17C119.442 95 118.352 95.98 118.132 96.8C117.302 99.86 114.982 99.01 113.402 98.35C111.162 97.41 112.272 96.11 113.432 94.59C114.732 92.88 111.912 91.58 113.042 89C109.702 90.96 110.882 94.23 108.612 95.75C104.292 98.65 100.032 98.55 94.8616 98.54C88.6716 98.53 89.8716 92.87 86.3716 91.7C86.2416 91.66 86.0516 91.43 86.0816 91.34C87.7316 85.36 82.1916 80.33 83.8116 74.36C84.1116 73.27 84.0416 71.77 84.7516 71.14C87.9616 68.28 83.8816 65.26 85.0716 62.39C85.1416 62.23 83.3816 61.3 83.8916 60.58C87.3516 55.78 82.6616 54.02 80.2716 52.43C76.8216 50.14 78.0116 47.53 78.7216 45.05C79.3716 42.79 80.4716 40.58 83.9916 41.74C85.7316 42.31 87.9716 41.34 89.9916 41.12C92.7116 40.83 93.0216 41.7 93.2616 44.48C93.4016 46.07 94.8616 47.45 94.9416 49.52C95.2916 58.96 92.9416 68.39 95.4416 77.9C96.1016 80.38 94.2216 83.37 97.6616 85.31C99.6116 86.41 100.022 89.23 102.202 90.32C102.782 86.94 106.482 86.55 108.152 84.07C111.732 78.74 111.722 72.81 111.552 66.87C111.482 64.23 111.092 61.81 112.682 59.3C114.942 55.75 113.602 53.57 109.592 53.78C107.722 53.88 106.532 52.97 106.342 51.45C106.042 48.99 105.822 46.38 106.352 44C107.032 40.98 110.792 42.88 112.412 40.98C113.992 42.84 115.652 41.35 117.342 41.27C119.292 41.18 121.272 41.44 122.052 44.34C123.172 48.52 121.972 52.48 121.932 56.53C121.652 56.29 121.202 55.79 121.102 55.85C120.422 56.27 120.732 56.78 121.122 57.24V57.26Z" fill="#F0EFEE"/>
<path d="M151.279 95.6902C150.369 99.3002 149.329 99.0502 146.569 97.0102C143.109 94.4502 138.869 92.2102 136.179 89.2902C130.939 83.6002 131.179 75.7502 130.299 68.1302C129.479 61.0202 134.159 56.7302 135.239 50.8402C135.659 48.5402 138.179 45.3502 142.199 45.6102C143.729 45.7102 144.799 44.3002 145.589 42.6302C146.989 39.7002 148.819 37.0102 152.929 39.7002C153.309 39.9502 156.189 38.7902 158.049 38.8202C160.439 38.8602 162.209 39.1502 163.489 41.9002C165.779 46.8202 168.009 46.6602 170.809 42.1502C171.689 40.7402 171.899 38.0902 174.299 38.5202C176.809 38.9702 175.409 41.8102 175.989 42.7302C179.449 48.2402 176.799 54.0502 177.589 59.6102C178.329 64.7602 173.869 63.6402 171.489 63.8302C168.719 64.0502 167.319 60.4202 167.929 58.9602C168.779 56.9202 167.879 56.6002 166.909 55.6802C165.889 54.7302 164.879 53.7502 163.989 52.6802C160.369 48.3402 157.189 47.9102 152.379 51.1902C149.899 52.8902 147.889 55.3402 144.299 55.1002C143.429 55.0402 141.679 56.8702 143.489 58.3502C144.709 59.3502 144.779 60.4102 143.849 61.2802C140.259 64.6302 142.009 69.4602 140.329 73.3002C139.089 76.1302 141.729 77.4702 142.839 78.7802C151.309 88.8202 159.199 89.3102 169.839 80.9402C171.529 79.6102 173.189 76.9402 175.529 79.3302C177.539 81.3802 177.719 83.9202 176.199 86.8802C172.039 95.0102 164.229 99.8402 155.579 99.6302C152.749 99.5602 152.989 97.1302 151.249 95.6902H151.279Z" fill="#F0EFEE"/>
<path d="M216.658 65.2599C216.188 72.1499 213.378 73.6199 207.788 70.7299C205.588 69.5899 202.958 66.4799 201.708 71.7899C201.488 72.7199 191.838 72.5299 190.968 71.7099C189.408 70.2499 189.028 62.6299 190.538 61.2699C190.958 60.8999 191.728 60.7499 192.318 60.7699C197.848 60.9999 203.108 59.2099 208.528 58.6999C209.718 58.5899 211.248 58.1399 211.338 60.3299C211.368 61.0399 212.098 62.1399 212.988 61.7699C218.868 59.2999 215.858 64.2299 216.648 65.2599H216.658Z" fill="#F0EFEE"/>
<path d="M523.89 24.3699C527.22 36.0999 531.2 46.2099 536.18 55.9299C539.65 62.6999 537.03 71.1499 530.61 74.5499C523.75 78.1799 515.74 75.9099 512.04 68.7999C510.55 65.9299 509.58 62.8299 510.95 59.1099C515.11 47.8199 521.52 37.4299 523.89 24.3599V24.3699ZM516.74 53.8599C511.92 60.5099 512.62 67.5999 518.27 71.9399C519.83 73.1399 521.25 73.5599 522.51 71.9399C523.77 70.3199 523.3 69.2599 521.35 68.1399C519.95 67.3399 519.23 65.3599 518.21 63.8899C516.11 60.8499 517.93 57.1799 516.74 53.8599Z" fill="#F0EFEE"/>
<path d="M121.119 57.2602C120.719 56.8002 120.419 56.2902 121.099 55.8702C121.199 55.8102 121.639 56.3102 121.929 56.5502C121.659 56.7902 121.399 57.0202 121.129 57.2602H121.119Z" fill="#0B0B0B"/>
</g>
<defs>
<clipPath id="clip0_777_2447">
<rect width="582.9" height="118.05" fill="white"/>
</clipPath>
</defs>
</svg>
