<svg width="576" height="250" viewBox="0 0 576 250" fill="none" xmlns="http://www.w3.org/2000/svg">
<g clip-path="url(#clip0_777_2462)">
<path d="M518.515 113.808H526.341V109.87C526.341 101.745 520.242 95.5042 511.265 95.5042C502.292 95.5042 496.113 101.66 496.113 109.785V111.839C496.113 131.303 519.265 123.058 519.265 137.299V139.518C519.265 142.361 517.747 144.991 515.274 146.415C512.8 147.835 509.756 147.835 507.283 146.415C504.814 144.991 503.292 142.361 503.292 139.518V134.531H495.376V139.406C495.376 148.031 501.805 154.509 511.278 154.509C520.751 154.509 527.265 147.969 527.265 139.406V137.352C527.265 116.973 504.064 124.451 504.064 111.839V109.71C504.064 105.361 506.702 102.406 511.314 102.406C515.93 102.406 518.564 105.361 518.564 109.71L518.515 113.808ZM463.515 133.513H470.76L478.175 115.852H478.336V152.964H486.251V97.0355H478.336L467.086 122.08L456.015 97.0355H448.1V153.04H456.01V115.866H456.175L463.51 133.513H463.515ZM429.823 139.911C429.823 144.04 426.466 147.388 422.323 147.388C418.18 147.388 414.823 144.04 414.823 139.911V97.031H406.908V139.812C406.908 147.937 413.336 154.504 422.309 154.504C431.283 154.504 437.711 147.937 437.711 139.812V97.031H429.796L429.823 139.911ZM378.756 146.071V128.495H395.809V121.607H378.783V103.875H398.881V97.031H370.881V153.035H398.881V146.129L378.756 146.071ZM353.082 113.803H360.908V109.866C360.908 101.741 354.805 95.4998 345.832 95.4998C336.854 95.4998 330.68 101.656 330.68 109.781V111.835C330.68 131.299 353.832 123.053 353.832 137.294V139.513C353.832 142.357 352.309 144.986 349.836 146.411C347.363 147.83 344.318 147.83 341.845 146.411C339.376 144.986 337.854 142.357 337.854 139.513V134.527H329.939V139.402C329.939 148.027 336.367 154.504 345.841 154.504C355.318 154.504 361.742 148.013 361.742 139.402V137.348C361.742 116.982 338.604 124.536 338.604 111.884V109.705C338.604 105.357 341.238 102.402 345.854 102.402C350.466 102.402 353.104 105.357 353.104 109.705L353.082 113.803ZM313.292 139.973C313.292 144.102 309.93 147.451 305.792 147.451C301.649 147.451 298.292 144.102 298.292 139.973V97.031H290.376V139.812C290.376 147.937 296.805 154.504 305.778 154.504C314.751 154.504 321.18 147.937 321.18 139.812V97.031H313.26L313.287 139.977L313.292 139.973ZM521.528 177.607C531.006 177.607 537.18 184.263 537.18 192.638V197.736H529.265V192.477C529.381 189.643 527.93 186.977 525.488 185.527C523.041 184.076 519.997 184.076 517.559 185.527C515.113 186.977 513.662 189.643 513.778 192.477V221.723C513.662 224.553 515.117 227.223 517.559 228.674C520.001 230.12 523.041 230.12 525.488 228.674C527.93 227.223 529.381 224.553 529.265 221.723V216.388H537.14L537.18 221.647C537.18 230.035 531.006 236.602 521.528 236.602C512.05 236.602 505.876 230.022 505.876 221.647V192.638C505.876 184.263 512.05 177.607 521.528 177.607ZM256.975 177.598C266.537 177.598 272.876 184.25 272.876 192.875V195.915H264.957L264.943 192.714C264.943 188.312 261.372 184.75 256.957 184.75C252.546 184.75 248.966 188.312 248.966 192.714V221.486C248.966 225.884 252.546 229.451 256.957 229.451C261.367 229.451 264.948 225.884 264.948 221.486V210.732H256.957V203.839H272.872V221.286C272.872 229.911 266.533 236.567 256.97 236.567C247.408 236.567 241.073 229.911 241.073 221.29V192.879C241.073 184.254 247.412 177.598 256.975 177.598ZM350.778 179.094V185.982H330.68V203.727H347.707V210.62H330.653V228.192L350.778 228.205V235.094H322.778V179.098L350.778 179.094ZM387.256 179.094V185.982H367.167V203.727H384.193V210.62H367.14V228.192L387.256 228.205V235.094H359.256V179.098L387.256 179.094ZM404.546 179.094L417.309 216.701H417.635L417.546 179.094H425.461V235.08L416.711 235.094L403.943 197.486H403.622L403.711 235.094H395.796V179.098L404.546 179.094ZM554.233 179.094V203.803H567.983V179.094H575.894V235.08H567.979V210.696H554.229V235.094H546.318V179.098H554.229L554.233 179.094ZM298.225 179.031C302.028 178.933 305.716 180.352 308.47 182.969C311.22 185.589 312.809 189.196 312.89 192.986V201.245C312.858 206.893 309.403 211.951 304.153 214.058L312.14 235.085H303.577L296.001 215.219H290.653V235.031H282.738V179.036L298.225 179.031ZM442.698 179.076L447.698 217.71H448.024L453.024 194.031H460.434L465.434 217.71H465.76L470.76 179.08H478.751L470.1 235.08H462.1L456.912 209.053H456.586L451.399 235.08H443.408L434.76 179.08L442.698 179.076ZM496.015 179.094V235.08H488.05L488.1 179.094H496.015ZM298.225 185.982H290.653V208.312L298.225 208.326C300.068 208.299 301.818 207.531 303.091 206.205C304.358 204.875 305.037 203.094 304.979 201.263V193.049C305.037 191.219 304.354 189.433 303.086 188.107C301.818 186.777 300.068 186.009 298.225 185.982ZM249.747 97.0355L260.997 122.08L272.247 97.0355H280.149V153.027H272.247V115.915H272.024L264.613 133.576H257.363L249.908 115.866H249.747V153.04H241.836V97.0355H249.747ZM297.153 13.3926C306.542 13.3926 313.216 20.0355 313.216 28.906V56.9105C313.216 65.781 306.542 72.348 297.153 72.348C287.765 72.348 281.086 65.7855 281.086 56.9105V28.906C281.086 20.0489 287.769 13.3926 297.153 13.3926ZM257.323 14.8659C261.126 14.7676 264.814 16.1828 267.564 18.8034C270.318 21.4239 271.908 25.0266 271.984 28.8212V37.0355H272.05C272.006 42.6739 268.55 47.7319 263.3 49.8435L271.287 70.8703H262.725L255.1 51.0043H249.747V70.8703H241.885V14.8569L257.323 14.8659ZM326.14 14.8659L334.381 37.8569H334.881L343.131 14.8659H351.693L338.591 46.7275V70.8659H330.68V46.7275L317.577 14.8659H326.14ZM373.43 14.8659L386.582 70.8659H378.506L376.483 62.1426H361.564L359.51 70.8659H351.439L364.756 14.8659H373.43ZM402.671 14.8659V63.973H421.287V70.8659H394.756V14.8659H402.671ZM301.492 21.0489C298.858 19.415 295.519 19.415 292.885 21.0489C290.247 22.6784 288.765 25.6605 289.064 28.7409V57.0668C288.765 60.1471 290.247 63.1293 292.885 64.7587C295.519 66.3926 298.858 66.3926 301.492 64.7587C304.131 63.1293 305.613 60.1471 305.314 57.0668V28.7453C305.613 25.665 304.131 22.6784 301.492 21.0489ZM369.216 28.5801H368.894L363.131 55.1873H374.908L369.216 28.5801ZM257.323 21.7676H249.747V44.098L257.323 44.1114C259.162 44.0801 260.917 43.3168 262.189 41.9864C263.452 40.6605 264.135 38.8793 264.073 37.0444V28.8301C264.135 26.9998 263.452 25.2141 262.184 23.8882C260.917 22.5623 259.162 21.7944 257.323 21.7676ZM108.823 109.196H191.555C188.559 154.402 153.175 190.469 108.823 193.562V109.196ZM193.689 55.9596C171.01 11.5935 119.97 -10.0716 72.5192 4.52211C25.0683 19.1203 -5.16827 65.7855 0.733517 115.312C6.63977 164.844 46.988 203.009 96.5281 205.919V250H108.823V205.919C163.019 202.696 205.332 157.589 205.359 103.018C205.359 100.924 205.171 98.8926 205.046 96.8391H96.5281V193.562C50.104 190.33 13.4791 151.085 13.4791 103.027C13.4791 52.848 53.4165 12.223 102.675 12.223C137.408 12.223 167.354 32.5176 182.073 62.0266L193.689 55.9596Z" fill="white"/>
</g>
<defs>
<clipPath id="clip0_777_2462">
<rect width="575.893" height="250" fill="white"/>
</clipPath>
</defs>
</svg>
