<svg width="103" height="51" viewBox="0 0 103 51" fill="none" xmlns="http://www.w3.org/2000/svg">
<g clip-path="url(#clip0_120_1205)">
<path d="M1.17407 32.5701V50.3666H10.7924V47.6181H4.44838V32.5701H1.17407ZM14.2713 35.5934C13.1799 35.5934 12.2931 34.7002 12.2931 33.6008C12.2931 32.5701 13.1799 31.6768 14.2713 31.6768C15.431 31.6768 16.2495 32.5701 16.2495 33.6008C16.3178 34.7002 15.431 35.5934 14.2713 35.5934ZM12.6342 37.5861H15.8402V50.3666H12.6342V37.5861ZM26.2771 34.1505C25.7314 33.9444 25.1857 33.8069 24.64 33.8069C23.6167 33.8069 23.1392 34.4253 23.1392 35.5247V37.5861H26.4818L25.6632 40.0597H23.1392V50.3666H19.9331V40.0597H18.0913V37.5861H19.9331V35.7996C19.9331 32.0204 22.6617 31.1959 24.4353 31.1959C25.1175 31.1959 26.0725 31.3333 26.9593 31.7456L26.2771 34.1505ZM34.804 42.5334H29.8243C29.8243 41.1591 30.7793 39.7162 32.3482 39.7162C34.0536 39.7162 34.804 41.1591 34.804 42.5334ZM38.1465 44.8009V43.8389C38.1465 39.8536 35.8954 37.2425 32.4164 37.2425C28.8011 37.2425 26.6182 40.2659 26.6182 43.9076C26.6182 47.3433 28.5282 50.5727 32.9622 50.5727C34.4629 50.5727 36.1683 50.1605 37.6008 49.1298L36.8504 47.0684C35.759 47.6868 34.7357 47.9617 33.5761 47.9617C31.5979 47.9617 30.0289 46.6561 30.0289 44.7322L38.1465 44.8009ZM48.788 43.7702C48.788 46.1751 47.219 47.9617 45.0362 47.9617C44.4222 47.9617 43.9447 47.893 43.4672 47.6868V40.4033C43.9447 40.1972 44.4904 39.991 45.2408 39.991C47.4237 39.991 48.788 41.7776 48.788 43.7702ZM51.9941 43.4954C51.9941 39.3039 49.0608 37.2425 45.923 37.2425C44.968 37.2425 44.2176 37.38 43.4672 37.6548V31.1959H40.2611V49.6795C41.2844 50.2979 42.7169 50.5727 44.4905 50.5727C48.5151 50.6414 51.9941 47.9617 51.9941 43.4954ZM63.1813 43.9763C63.1813 46.3813 62.1581 48.0991 60.1116 48.0991C58.1334 48.0991 56.9738 46.45 56.9738 43.9763C56.9738 41.5714 57.997 39.8536 60.0434 39.8536C62.0216 39.8536 63.1813 41.5027 63.1813 43.9763ZM66.4556 43.9076C66.4556 41.9837 65.9099 40.2659 64.7502 39.0978C63.6588 37.9297 62.0216 37.2425 60.0434 37.2425C58.2016 37.2425 56.6327 37.9297 55.5412 39.0291C54.3816 40.3346 53.6994 42.0524 53.6994 44.0451C53.6994 46.1064 54.3816 47.893 55.6777 49.0611C56.7691 50.0917 58.2698 50.6414 60.0434 50.6414C61.9534 50.6414 63.5224 49.9543 64.682 48.7862C65.8417 47.6181 66.4556 45.9003 66.4556 43.9076ZM75.6646 47.2745C75.2553 47.6868 74.505 48.0991 73.4135 48.0991C72.0492 48.0991 71.3671 47.3433 71.3671 46.3126C71.3671 45.2132 72.1174 44.6635 73.891 44.5948L75.7328 44.526L75.6646 47.2745ZM79.2118 50.3666C79.0071 49.7482 78.9389 48.7862 78.9389 46.9997V41.915C78.9389 38.5481 77.0289 37.2425 73.891 37.2425C72.1856 37.2425 70.6167 37.5174 68.9113 38.6168L69.9346 40.6782C70.7531 40.1972 71.8446 39.7162 73.2089 39.7162C74.5732 39.7162 75.5964 40.3346 75.5964 41.8463V42.1898L73.3453 42.2585C70.071 42.396 68.0245 43.7702 68.0245 46.45C68.0245 48.9924 69.8663 50.5727 72.1856 50.5727C73.891 50.5727 75.0507 49.8856 75.8692 49.1298L76.415 50.2979H79.2118V50.3666ZM86.1015 50.6414C83.8504 50.6414 82.9636 49.3359 82.9636 47.6181V39.991H80.7125V37.5861H82.9636V34.6315L86.1697 33.6695V37.5861H90.1261L89.1711 39.991H86.1697V46.45C86.1697 47.4807 86.579 47.893 87.3975 47.893C88.2161 47.893 89.0347 47.4807 89.5122 47.2058L90.399 49.2672C89.0347 50.2292 87.3293 50.6414 86.1015 50.6414ZM95.7197 50.6414C93.6051 50.6414 92.0361 50.0918 91.0129 49.4733L92.0361 47.0684C92.9911 47.6868 94.219 48.1678 95.4469 48.1678C96.743 48.1678 97.6298 47.6868 97.6298 46.7936C97.6298 44.5261 91.7633 45.3506 91.7633 41.0217C91.7633 38.8229 93.5369 37.2425 96.5383 37.2425C98.1073 37.2425 99.2669 37.5174 100.222 37.861V40.6094C99.1305 40.1972 97.9708 39.7849 96.6065 39.7849C95.5151 39.7849 94.833 40.1285 94.833 40.8843C94.833 42.877 100.836 42.2585 100.836 46.6561C100.904 49.542 98.4483 50.6414 95.7197 50.6414ZM90.8083 3.22994C92.9911 6.87169 92.7183 8.17723 94.3555 11.819C94.9694 13.1932 96.3337 14.1552 97.0158 16.2853C97.7662 18.6902 97.698 21.5761 102.132 26.9357C98.7894 28.1725 99.1305 27.2793 95.9244 27.2793C93.4004 27.2793 92.0361 28.1725 90.2626 28.1725C88.8983 28.1725 87.6022 27.6228 86.2379 27.6915C84.1232 27.829 82.9636 29.2032 80.8489 29.2719C78.5296 29.3406 78.0521 28.6535 76.415 28.6535C74.1639 28.6535 73.1407 30.0965 68.9796 30.3026C66.8649 30.3713 65.5006 29.2032 62.9084 29.0658C62.2263 29.0658 61.2713 29.0658 60.4527 29.5468C59.7023 28.3787 59.2248 26.4547 59.2248 25.0117C59.2248 23.7749 59.4977 21.7823 59.2248 19.9957C58.8838 18.0031 57.5195 16.6288 56.8373 13.4681C55.8823 9.27662 58.0652 8.31465 54.3816 0.893719C56.1552 0.481445 58.2016 0.481445 58.8156 0.481445C61.817 0.481445 62.7038 1.85569 64.9549 1.85569C66.6602 1.85569 67.2742 0.962432 69.5935 0.962432C71.7081 0.962432 72.5267 3.0238 75.5964 3.0238C77.0971 3.0238 78.6661 2.19925 79.8257 2.19925C80.6443 2.19925 81.5311 2.74895 82.9636 2.74895C84.3961 2.74895 85.624 2.13054 86.9883 2.13054C88.5572 2.13054 89.5122 3.22994 90.4672 3.22994C90.5354 3.29865 90.6718 3.29865 90.8083 3.22994Z" fill="white"/>
<path d="M55.6777 1.9244C56.2917 1.78697 57.997 1.71826 58.6792 1.71826C61.2713 1.71826 62.9085 2.81766 64.6139 2.81766C66.0464 2.81766 67.1378 1.71826 68.775 1.71826C69.3889 1.71826 69.7982 1.9244 70.0711 2.06182C70.8896 4.67289 72.0493 9.82631 72.0493 9.82631C71.8446 9.7576 71.4353 9.82631 71.2307 9.82631C69.5935 9.82631 66.865 11.338 64.8185 11.338C63.0449 11.338 60.9985 10.5134 59.0203 10.5134C58.1335 10.5134 57.5877 10.7196 57.3831 10.7883C57.5195 5.77229 56.2235 3.09251 55.6777 1.9244ZM93.5369 11.338C93.4005 11.4067 93.1277 11.4067 92.9912 11.4067C91.3541 11.4067 91.4905 10.5134 89.5123 10.5134C88.0798 10.5134 86.3744 11.2006 85.0101 11.2006C84.3279 11.2006 83.6458 11.1318 82.5544 10.857C81.804 8.79563 81.3947 6.11585 80.2351 3.0238C80.6443 3.09251 81.3265 3.36736 82.0769 3.36736C84.2597 3.36736 85.1465 2.68023 86.4426 2.68023C88.148 2.68023 88.7619 3.77963 90.058 3.77963H90.4673C91.4905 5.56615 92.0362 7.07782 92.7866 9.27662C93.0594 9.96374 93.2641 10.6509 93.5369 11.338ZM100.29 25.9737C98.312 23.3626 97.1523 21.0264 96.402 17.4534C96.1973 17.5221 95.7198 17.7282 95.1059 17.6595C93.4005 17.5221 93.3323 17.0411 91.8998 16.9724C90.2626 16.9037 88.8983 17.5908 87.3294 17.6595C86.4426 17.7282 85.4876 17.5908 84.669 17.5221C85.5558 21.1638 86.0333 23.1565 87.4658 26.7983C90.9448 27.1418 92.8548 25.905 94.833 25.905C96.8795 25.905 96.6748 26.1798 98.1755 26.1798C98.9259 26.3173 99.6081 26.1798 100.29 25.9737ZM73.8229 17.2472C74.3004 19.7209 75.46 25.0117 76.2104 27.4167H75.7329C72.7314 27.4167 70.7532 29.0658 67.4789 29.0658C65.7053 29.0658 64.6821 28.3786 62.8403 28.3786C62.2264 28.3786 61.5442 28.4474 60.8621 28.6535C60.2481 27.7602 59.7706 25.905 59.7706 24.8743C59.7706 22.5381 59.9753 21.7135 59.7706 19.7209C59.7706 19.5835 59.7024 19.1712 59.566 18.6215C59.8388 18.5528 60.3163 18.4841 60.6574 18.4841C62.2946 18.4841 63.9317 18.8276 65.8417 18.8963C69.1843 18.8963 70.6168 17.1098 73.8229 17.2472Z" fill="white"/>
<path d="M91.4905 18.278C91.4905 18.278 92.7184 22.8817 93.9463 24.6682C93.9463 24.6682 92.6502 24.8056 92.1045 25.0118C92.0362 25.0118 90.9448 23.3627 89.7851 18.5528C89.7851 18.6215 90.6719 18.3467 91.4905 18.278ZM67.82 25.8363C67.4107 24.1185 67.4789 21.9197 66.9332 20.1332C66.4557 20.2019 65.5689 20.2019 65.0232 20.1332C65.7736 22.9504 65.5007 25.5615 66.2511 27.4854C66.5921 27.5541 67.4789 27.6228 68.0246 27.5541C68.2975 27.5541 69.7982 27.4854 71.4354 26.7296C71.299 26.1799 71.2307 25.7676 71.1625 25.1492C70.6168 25.3553 68.8432 25.8363 67.82 25.8363ZM87.9434 4.05451C87.6705 3.77967 86.8519 3.71095 86.3744 3.77967C86.3744 3.77967 87.2612 5.42876 87.6023 6.45945C87.6023 6.45945 85.8969 4.67293 84.8737 4.12323C84.8737 4.12323 84.328 4.32936 83.6458 4.39808C83.6458 4.39808 84.1915 5.29134 85.3512 9.96377C85.3512 9.96377 85.9651 9.96377 86.9201 9.68892C86.9201 9.68892 86.3744 7.62755 86.1016 6.94043C86.1016 6.94043 86.9883 7.42142 88.6255 9.41407C88.6255 9.41407 89.4441 9.34536 90.1262 9.41407C90.1262 9.48279 89.3076 6.52816 87.9434 4.05451Z" fill="white"/>
<path d="M86.238 26.8671C84.2597 26.8671 82.4861 28.5161 80.7126 28.5161C79.6893 28.5161 78.5979 28.0352 77.6429 27.7603C76.6879 24.5308 75.3918 18.5529 74.9825 16.3541C74.2322 16.1479 73.8911 16.0792 73.0043 16.0792C70.8214 16.0792 67.9564 17.6596 65.8417 17.6596C64.341 17.6596 63.3178 17.2473 61.476 17.2473C61.0667 17.2473 60.3846 17.1786 59.0885 17.3848C58.6792 16.6289 57.8606 15.3234 57.5195 12.0252C57.8606 11.8878 58.611 11.7503 59.2931 11.7503C61.3396 11.7503 63.3178 12.5749 65.1596 12.5749C67.5471 12.5749 68.9796 10.9258 71.8446 10.9258C72.5268 10.9258 73.0043 10.9258 73.55 11.1319C72.7996 8.31472 72.1175 5.01653 71.5036 2.74902C72.7996 3.50486 73.8911 3.77971 75.0507 3.77971C76.8243 3.77971 78.5297 2.88645 79.0072 2.88645C80.3715 6.66563 80.5761 8.93313 81.6676 11.6816C82.8272 12.0939 84.1915 12.2313 85.0101 12.2313C86.4426 12.2313 88.2844 11.5442 89.5123 11.5442C91.4905 11.5442 91.5587 12.3687 92.8548 12.3687C93.1959 12.3687 93.6052 12.3 93.8098 12.2313C94.5602 13.9491 95.7198 14.9111 96.1291 16.4228C95.8562 16.5602 95.3105 16.6289 94.9694 16.6289C93.5369 16.6289 92.8548 15.8731 91.5587 15.8731C89.8533 15.8731 88.2844 16.6289 86.8519 16.6289C86.1697 16.6289 83.9869 16.3541 83.2365 16.2854C83.3729 16.6289 84.5326 22.813 86.238 26.8671Z" fill="#333333"/>
<path d="M80.4396 12.9184C79.8939 13.0558 79.2117 13.262 77.7792 13.3994C76.0738 13.5368 75.187 13.0558 75.187 13.0558C75.1188 12.9871 74.846 12.8497 74.9142 12.7123C74.9824 12.5749 75.187 12.6436 75.4599 12.781C75.9374 12.9871 76.9606 13.0558 77.8474 12.9184C79.2117 12.781 79.8939 12.5061 80.3031 12.4374C80.5078 12.4374 80.6442 12.3687 80.7124 12.6436C80.7124 12.8497 80.6442 12.9184 80.4396 12.9184ZM76.9606 7.69627C76.8242 7.97112 76.4149 8.03984 76.0738 7.90241C75.7328 7.76499 75.5963 7.35271 75.7328 7.07786C75.8692 6.80301 76.2785 6.7343 76.6195 6.87173C76.9606 7.07786 77.097 7.42143 76.9606 7.69627ZM76.6195 6.52816C76.4149 6.32203 76.2103 5.97847 76.2103 5.97847C76.2103 5.97847 76.5513 6.11589 76.8242 6.25331C76.6878 5.6349 76.5513 5.29134 76.5513 5.29134C76.4149 5.49748 76.142 5.56619 76.142 5.56619C76.142 5.56619 76.142 5.22263 76.2103 5.08521C75.801 5.15392 75.2553 5.15392 75.2553 5.15392C75.4599 5.36005 75.6645 5.6349 75.6645 5.6349C75.6645 5.6349 75.3235 5.56619 75.1188 5.42877C75.1188 5.42877 75.2553 5.77233 75.3917 6.39074C75.5281 6.1846 75.801 6.11589 75.801 6.11589C75.801 6.11589 75.801 6.45945 75.6645 6.66559C75.6645 6.59688 76.0738 6.52816 76.6195 6.52816Z" fill="white"/>
<path d="M76.6196 8.65821C77.5746 7.35268 79.0071 7.07783 79.7574 7.76495C80.4396 8.38336 80.576 9.75761 79.9621 10.6509C80.0985 11.2693 80.3032 11.7503 80.4396 11.9564C80.4396 12.0251 80.4396 12.0251 80.3714 12.0938C79.5528 12.3 78.1203 12.5061 77.6428 12.5748C76.0056 12.7122 75.1188 12.2313 75.1188 12.2313C75.0506 12.1625 74.9824 12.0251 74.9824 12.0251L74.6413 10.857C74.5731 10.7883 74.232 10.3073 74.1638 10.2386C73.3452 9.20791 73.0042 8.0398 73.4817 7.55881C73.9592 7.21525 75.1188 7.28396 76.6196 8.65821ZM77.8474 9.82632C77.9156 10.0325 78.0521 10.376 78.1885 10.857C78.1885 10.857 77.711 10.6509 77.5064 10.7196C77.5064 10.7196 77.6428 11.4067 78.4614 11.338C79.2799 11.2693 79.2799 10.7883 79.2117 10.6509C79.1435 10.5134 78.8706 10.3073 78.666 10.7196C78.666 10.7196 78.3931 10.5134 78.5296 10.2386C78.666 9.96374 78.9389 9.89503 79.0753 9.96374C79.0753 9.96374 79.0071 9.27662 79.2117 9.1392C79.2117 9.1392 79.4164 9.1392 79.6892 9.6889C79.6892 9.6889 79.8256 9.27662 79.7574 8.72692C79.6892 8.24594 79.2799 7.76495 78.4614 7.90237C77.5746 8.10851 76.8242 9.27662 76.8242 9.27662C75.8692 8.45207 74.1638 7.35268 73.891 8.10851C73.6181 8.72692 74.4367 9.55147 74.4367 9.55147C74.4367 9.20791 74.5731 9.20791 74.5731 9.20791C74.846 9.48276 74.9824 10.0325 74.9824 10.0325C75.187 10.0325 75.3917 10.1012 75.5281 10.2386C75.8692 10.5134 75.7328 10.857 75.7328 10.857C75.6646 10.6509 75.5281 10.5822 75.3917 10.5822C75.3235 10.5822 75.1871 10.7196 75.3917 11.0631C75.5963 11.338 76.0738 11.5441 76.4149 11.5441C77.1653 11.4754 76.8924 10.7883 76.8924 10.7883C76.6196 10.857 76.4149 11.0631 76.4149 11.0631C76.2785 10.4447 76.1421 10.1699 76.0738 9.96374C76.2103 10.1012 76.4149 10.1699 76.6878 10.2386C76.5513 9.96374 76.2785 9.6889 76.2785 9.6889C76.2785 9.6889 77.0288 9.6889 77.4381 9.62018C77.4381 9.62018 77.3017 9.89503 77.3017 10.1699C77.5746 10.1012 77.711 9.96375 77.8474 9.82632Z" fill="white"/>
<path d="M64.8186 4.12324C66.2511 4.32938 66.7286 5.29135 66.7286 6.1159C66.7286 6.94045 65.9782 7.28401 65.9782 7.28401C66.1829 7.49015 67.9564 9.34538 67.9564 9.34538C66.865 9.75765 66.0464 9.96379 66.0464 9.96379L64.2728 7.42143L63.6589 7.28401C63.9318 8.58954 64.1364 10.0325 64.1364 10.0325C62.9768 9.89508 62.1582 9.55152 62.1582 9.55152C61.8853 6.94045 60.9985 3.22998 60.9985 3.22998C60.9985 3.22998 63.4543 3.9171 64.8186 4.12324ZM64.3411 6.25332C64.7503 6.32204 65.0914 6.18461 65.0232 5.90976C64.955 5.22264 64.0682 5.15393 63.8636 5.08521C63.6589 5.0165 63.1814 4.94779 63.1814 4.94779L63.4543 6.1159C63.3861 6.04719 63.9318 6.18461 64.3411 6.25332Z" fill="white"/>
<path d="M83.6457 21.2325C83.5775 20.7515 83.5093 20.3392 83.4411 19.8582C83.1682 20.2018 82.8271 20.5454 82.4861 20.8889L82.4178 20.9576V21.0951C82.4861 21.2325 82.5543 21.3012 82.6225 21.5073C82.4861 21.9196 82.0086 22.4693 81.5993 22.6754C81.3264 22.8816 81.19 22.9503 81.0535 22.8816C80.9171 22.8129 80.8489 22.6067 80.8489 22.6067C80.4396 21.2325 80.0985 19.7895 79.7575 18.2091C80.4396 18.0717 81.5993 17.3159 82.0768 17.041L81.9403 16.4226C81.4628 16.56 80.1668 17.1785 79.5528 17.2472C79.4846 16.9723 79.4164 16.7662 79.4164 16.4913C79.7575 16.2165 79.8257 15.6668 79.4846 15.2545C79.1435 14.8422 78.5296 14.7048 78.1203 14.9797C77.711 15.2545 77.6428 15.8042 77.9839 16.2852C78.1203 16.4226 78.2567 16.56 78.4614 16.6288C78.5296 16.9036 78.5296 17.041 78.5978 17.3159C78.5978 17.3159 77.8475 17.3159 76.1421 16.6975L76.2785 17.3846C76.2785 17.3846 77.37 18.003 78.7342 18.2779C79.0071 19.5147 79.3482 21.0264 79.8939 22.7442C79.8939 22.7442 79.9621 22.9503 79.8257 23.0877C79.6893 23.1564 79.5528 23.1564 79.28 23.019C78.5296 22.6754 78.1885 22.1257 77.8475 21.7822L77.9157 21.3699V21.2325L77.8475 21.1638C76.9607 20.8889 76.5514 20.6141 76.5514 20.6141L76.8925 22.057C76.8925 22.057 76.8925 22.1257 76.9607 22.1257H77.5064C77.5064 22.1257 78.3932 23.7061 80.9171 24.3245C80.9171 24.3245 82.8271 22.9503 83.2364 21.5073C83.3729 21.4386 83.4411 21.3699 83.5775 21.3012L83.6457 21.2325ZM78.4614 15.4606C78.666 15.3232 78.8707 15.3919 79.0071 15.5981C79.1435 15.8042 79.1435 16.0103 78.9389 16.1478C78.7342 16.2852 78.5296 16.2165 78.3932 16.0103C78.2567 15.8042 78.325 15.5981 78.4614 15.4606Z" fill="white"/>
</g>
<defs>
<clipPath id="clip0_120_1205">
<rect width="101.64" height="50.16" fill="white" transform="translate(0.560059 0.47998)"/>
</clipPath>
</defs>
</svg>
