<svg width="142" height="22" viewBox="0 0 142 22" fill="none" xmlns="http://www.w3.org/2000/svg">
<path d="M10.0972 15.5741C10.2907 16.0546 10.2294 16.6705 10.135 17.0437C9.96975 17.7062 9.51658 18.3827 8.17595 18.3827C6.92029 18.3827 6.15557 17.6642 6.15557 16.5818V14.655H0.76001V16.1853C0.76001 20.6174 4.28624 21.9564 8.06738 21.9564C11.7022 21.9564 14.695 20.7341 15.1718 17.4169C15.4172 15.7 15.2379 14.5757 15.1529 14.1604C14.3032 9.99885 6.67483 8.75783 6.10364 6.42977C6.02433 6.08645 6.0179 5.7306 6.08476 5.3847C6.22638 4.74553 6.66538 4.05038 7.92104 4.05038C9.10118 4.05038 9.78565 4.76886 9.78565 5.85125V7.08293H14.8036V5.68329C14.8036 1.35374 10.8714 0.677246 8.02962 0.677246C4.45146 0.677246 1.52946 1.84828 0.996036 5.09078C0.85442 5.97722 0.830818 6.77034 1.04324 7.76875C1.91654 11.8277 9.05869 13.0034 10.0972 15.5741Z" fill="white"/>
<path d="M22.2856 1.31155L18.5564 21.1818H23.9897L26.7418 3.14974H26.8551L29.5316 21.1818H34.9366L31.231 1.30688L22.2856 1.31155ZM52.6622 1.31155L50.1839 16.5023H50.0659L47.5923 1.31155H39.3928L38.9491 21.1818H43.9811L44.1039 3.3177H44.2172L47.5735 21.1818H52.6763L56.0374 3.32237H56.1459L56.2734 21.1818H61.3007L60.857 1.30688L52.6622 1.31155Z" fill="white"/>
<path d="M75.4624 15.5367C75.656 16.0173 75.5946 16.6331 75.5002 17.0063C75.335 17.6688 74.8818 18.3453 73.5412 18.3453C72.2855 18.3453 71.5208 17.6269 71.5208 16.5445V14.6176H66.1252V16.1479C66.1252 20.5801 69.6515 21.9191 73.4326 21.9191C77.0674 21.9191 80.0602 20.6967 80.537 17.3796C80.7825 15.6627 80.6031 14.5383 80.5181 14.1231C79.6684 9.96149 72.0401 8.72048 71.4689 6.39241C71.3896 6.04909 71.3831 5.69325 71.45 5.34735C71.5916 4.70818 72.0306 4.01302 73.2863 4.01302C74.4664 4.01302 75.1509 4.73151 75.1509 5.81389V7.04558H80.1688V5.64594C80.1688 1.31639 76.2366 0.639893 73.3949 0.639893C69.8167 0.639893 66.8947 1.81092 66.3613 5.05342C66.2197 5.93986 66.1961 6.73299 66.4085 7.7314C67.2818 11.7904 74.4239 12.9661 75.4624 15.5367Z" fill="white"/>
<path d="M92.3383 18.2056C93.7355 18.2056 94.1651 17.2538 94.2642 16.7686C94.3067 16.554 94.3114 16.2648 94.3114 16.0082V1.31195H99.4002V15.5556C99.4011 15.9915 99.3854 16.4272 99.353 16.8619C98.9989 20.571 96.0344 21.7747 92.3383 21.7747C88.6374 21.7747 85.6729 20.571 85.3189 16.8619C85.3047 16.666 85.2669 15.9195 85.2716 15.5556V1.30728H90.3604V16.0035C90.3556 16.2648 90.3651 16.554 90.4076 16.7686C90.502 17.2538 90.9363 18.2056 92.3383 18.2056ZM116.923 1.31195L117.197 16.9086H117.088L112.462 1.31195H105.003V20.9722H109.946L109.672 4.83437H109.781L114.742 20.9722H121.903V1.31195H116.923ZM134.271 18.0003C135.725 18.0003 136.234 17.0906 136.324 16.554C136.367 16.3347 136.371 16.0548 136.371 15.8075V12.915H134.308V10.0224H141.432V15.3503C141.432 15.7236 141.422 15.9942 141.361 16.6567C141.03 20.2771 137.854 21.5694 134.29 21.5694C130.726 21.5694 127.553 20.2771 127.218 16.6567C127.162 15.9942 127.147 15.7236 127.147 15.3503V6.98982C127.147 6.63524 127.195 6.01007 127.232 5.68349C127.681 1.96511 130.726 0.770752 134.29 0.770752C137.854 0.770752 140.979 1.95578 141.347 5.67882C141.413 6.31333 141.394 6.98515 141.394 6.98515V7.65231H136.324V6.53727C136.324 6.53727 136.324 6.07072 136.263 5.78146C136.168 5.34291 135.791 4.33517 134.252 4.33517C132.788 4.33517 132.359 5.29159 132.25 5.78146C132.189 6.04273 132.165 6.3973 132.165 6.71922V15.8029C132.165 16.0548 132.175 16.3347 132.213 16.5587C132.307 17.0906 132.817 18.0003 134.271 18.0003Z" fill="white"/>
</svg>
