<svg width="575" height="142" fill="none" xmlns="http://www.w3.org/2000/svg"><path d="M16.38 5.39H0V.84h37.87v4.55H21.56v45.92h-5.18V5.39zM41.482.14h4.69v21c1.26-1.96 2.963-3.593 5.11-4.9 2.146-1.307 4.503-1.96 7.07-1.96 4.06 0 7.303 1.143 9.73 3.43 2.473 2.287 3.71 5.367 3.71 9.24v24.36h-4.76V27.93c0-2.893-.84-5.157-2.52-6.79-1.634-1.68-3.897-2.52-6.79-2.52-2.707 0-5.134.957-7.28 2.87-2.1 1.913-3.524 4.293-4.27 7.14v22.68h-4.69V.14zM76.741 33.11c0-3.64.724-6.883 2.17-9.73 1.447-2.893 3.454-5.133 6.02-6.72 2.614-1.587 5.6-2.38 8.96-2.38 3.874 0 7 .863 9.38 2.59 2.427 1.727 4.154 3.873 5.18 6.44 1.027 2.567 1.54 5.157 1.54 7.77 0 .56-.046 1.307-.14 2.24h-28.28c.047 4.433 1.214 7.957 3.5 10.57 2.334 2.567 5.367 3.85 9.1 3.85 2.94 0 5.297-.653 7.07-1.96 1.82-1.307 3.104-3.337 3.85-6.09l4.83 1.68c-1.026 3.313-2.916 5.927-5.67 7.84-2.753 1.867-6.136 2.8-10.15 2.8-3.36 0-6.37-.793-9.03-2.38-2.613-1.633-4.666-3.873-6.16-6.72-1.446-2.893-2.17-6.16-2.17-9.8zm28.21-3.64c-.233-3.407-1.33-6.113-3.29-8.12-1.96-2.007-4.55-3.01-7.77-3.01-3.266 0-5.95 1.003-8.05 3.01-2.1 2.007-3.43 4.713-3.99 8.12h23.1zM186.979 51.039c.006.003.013-.002.013-.008v-1.099c0-12.433-.007-24.866 0-37.303 0-6.553-4.721-11.797-11.234-12.436a25.09 25.09 0 00-2.291-.114C161.148.075 162.944.075 150.625.075h-1.893c-7.671 0-13.737 6.001-13.737 13.672 0 13.018-.007 13.403 0 26.42.004 5.524 4.211 10.592 9.657 11.647.776.15 1.574.242 2.361.246 5.027.022 10.05-.004 15.077.015 2.419.01 4.589-.754 6.527-2.12 4.045-2.849 4.806-9.027 1.614-13.01-2.342-2.926-5.42-4.764-9.057-5.543-2.515-.537-4.887.235-6.994 1.584-2.39 1.536-4.674 3.238-7.005 4.87-.112.08-.222.163-.344.238-.176.108-.336-.09-.219-.26 1.824-2.64 3.799-5.19 5.439-7.939 2.048-3.425 1.831-7.012-.247-10.364-1.559-2.517-3.368-4.877-5.067-7.31-.185-.264.08-.441.343-.255l.028.02c2.402 1.687 4.737 3.484 7.226 5.028 3.501 2.172 7.193 2.223 10.709.077 2.629-1.606 5.074-3.517 7.6-5.289a.037.037 0 00.007-.004c.219-.15.377.078.229.298-1.846 2.698-3.825 5.318-5.501 8.115-1.795 2.995-1.67 6.16-.148 9.31 1.468 3.028 3.608 5.516 5.969 7.857 4.346 4.31 8.671 8.648 13.01 12.973.184.184.386.345.768.687l.002.001zM222.872 52.15c-10.71 0-19.11-6.93-19.88-15.96l8.19-1.47h.28c.56 5.67 5.46 9.8 11.41 9.8 5.74 0 9.59-2.73 9.59-6.86 0-3.71-2.66-5.88-6.37-7l-8.47-2.38c-6.93-1.96-12.6-5.6-12.6-13.93 0-8.47 7.49-14.07 17.36-14.07 9.66 0 17.64 5.39 18.41 13.37l-8.12 1.54h-.28c-.77-4.13-4.48-7.28-10.01-7.28-5.32 0-8.47 2.24-8.47 6.02 0 3.29 2.38 4.97 5.95 6.02l8.61 2.45c7 1.96 12.88 5.53 12.88 14.63 0 9.1-7.56 15.12-18.48 15.12zM243.991 33.25c0-10.99 7.35-18.83 17.71-18.83 14.91 0 17.99 12.04 17.08 20.37h-26.74c.56 6.58 4.48 10.43 10.22 10.43 4.48 0 7.35-1.89 8.54-5.95l7.98 2.17c-1.89 6.51-7.7 10.71-16.73 10.71-10.5 0-18.06-7.84-18.06-18.9zm8.4-4.34h17.92c-.42-4.83-3.5-8.26-8.61-8.26-4.97 0-8.26 3.08-9.31 8.26zM294.156 52.15c-7.35 0-12.67-4.48-12.67-10.57 0-6.37 4.76-10.22 12.74-11.34l10.57-1.54v-1.26c0-4.34-3.01-6.72-7.07-6.72-4.76 0-7.42 2.66-8.26 6.37l-7.49-1.96c1.61-5.6 6.72-10.71 15.75-10.71 9.03 0 15.19 5.04 15.19 13.51v23.52h-8.12v-4.76c-2.66 3.99-6.72 5.46-10.64 5.46zm-4.34-10.92c0 2.73 2.24 4.83 5.74 4.83 4.9 0 7.98-3.43 9.24-7.21v-4.41l-9.24 1.61c-3.71.63-5.74 2.24-5.74 5.18zM318.752 51.45V15.12h8.19v5.53c2.17-3.78 6.23-6.23 10.29-6.23.98 0 1.61 0 2.24.14v7.84c-7.63-1.4-11.2 3.71-12.53 8.19v20.86h-8.19zM357.041 52.15c-10.64 0-18.06-7.77-18.06-18.9 0-11.13 7.42-18.83 18.06-18.83 8.82 0 15.05 4.76 16.31 12.32l-7.84 1.26h-.28c-.77-3.78-3.78-6.51-8.05-6.51-5.95 0-9.87 4.76-9.87 11.76 0 7.07 3.92 11.83 9.87 11.83 4.41 0 7.56-2.66 8.33-7.07l8.12 1.26c-1.47 8.12-7.84 12.88-16.59 12.88zM377.475 51.45V.28h8.19v19.67c2.24-3.15 6.02-5.53 10.64-5.53 7.77 0 13.65 4.9 13.65 12.88v24.15h-8.12V29.26c0-4.9-2.8-7.77-7.42-7.77-4.34 0-7.84 3.71-8.75 8.4v21.56h-8.19zM414.741 36.75v-7.07h22.61v7.07h-22.61zM442.77 51.45V.98h33.88v7.63h-25.2v12.46h20.23v7.63h-20.23v22.75h-8.68zM487.901 51.45h-8.19V15.12h8.19v36.33zm-4.2-41.3c-2.87 0-5.04-2.24-5.04-5.11 0-2.8 2.17-5.04 5.04-5.04 3.01 0 5.25 2.24 5.25 5.04 0 2.87-2.24 5.11-5.25 5.11zM494.034 51.45V15.12h8.19v5.53c2.17-3.78 6.23-6.23 10.29-6.23.98 0 1.61 0 2.24.14v7.84c-7.63-1.4-11.2 3.71-12.53 8.19v20.86h-8.19zM530.615 52.15c-9.38 0-15.12-5.25-15.75-11.13l7.49-2.24h.28c.7 4.27 3.92 6.51 7.98 6.51 3.5 0 5.88-1.75 5.88-4.41 0-2.17-1.54-3.43-4.2-4.13l-6.86-1.61c-4.13-.98-9.45-3.01-9.45-9.73 0-6.16 5.67-10.99 13.72-10.99 7.77 0 13.23 4.13 14.42 9.59l-7.56 2.03h-.28c-.56-3.5-3.36-5.25-6.58-5.25-3.29 0-5.39 1.89-5.39 3.92 0 1.96 1.54 3.01 4.2 3.64l5.81 1.47c5.67 1.33 10.57 3.36 10.57 10.92 0 6.3-5.88 11.41-14.28 11.41zM563.009 52.15c-6.58 0-11.41-3.85-11.41-11.76V21.98h-6.23v-6.86c6.09 0 6.72-.91 6.65-8.54h7.77v8.54h8.96v6.86h-8.96v17.71c0 3.99 2.24 5.39 4.97 5.39 1.12 0 2.38-.14 3.71-.98v6.86c-.98.7-3.29 1.19-5.46 1.19zM83.571 128.72c-3.22 0-6.23-.63-9.03-1.89-2.8-1.26-5.086-3.01-6.86-5.25-1.773-2.287-2.823-4.853-3.15-7.7l4.69-1.61h.28c.187 2.287.934 4.34 2.24 6.16 1.307 1.82 2.987 3.243 5.04 4.27 2.1.98 4.364 1.47 6.79 1.47 3.827 0 6.86-.84 9.1-2.52 2.287-1.727 3.43-3.99 3.43-6.79 0-4.573-2.636-7.653-7.91-9.24l-10.01-2.94c-3.593-1.027-6.44-2.52-8.54-4.48-2.053-2.007-3.08-4.783-3.08-8.33 0-2.567.7-4.83 2.1-6.79 1.4-2.007 3.36-3.547 5.88-4.62 2.567-1.073 5.484-1.61 8.75-1.61 3.034 0 5.787.537 8.26 1.61 2.474 1.027 4.48 2.473 6.02 4.34 1.587 1.82 2.544 3.897 2.87 6.23l-4.55 1.61h-.28c-.513-2.893-1.866-5.157-4.06-6.79-2.193-1.633-4.946-2.45-8.26-2.45-3.593 0-6.393.747-8.4 2.24-1.96 1.493-2.94 3.523-2.94 6.09 0 2.1.654 3.78 1.96 5.04 1.354 1.213 3.244 2.193 5.67 2.94l10.15 3.01c3.64 1.027 6.51 2.66 8.61 4.9 2.1 2.193 3.15 5.227 3.15 9.1 0 2.8-.746 5.25-2.24 7.35-1.493 2.1-3.593 3.733-6.3 4.9-2.706 1.167-5.833 1.75-9.38 1.75zM106.542 76.85h4.69v21c1.26-1.96 2.963-3.593 5.11-4.9 2.146-1.307 4.503-1.96 7.07-1.96 4.06 0 7.303 1.143 9.73 3.43 2.473 2.287 3.71 5.367 3.71 9.24v24.36h-4.76v-23.38c0-2.893-.84-5.157-2.52-6.79-1.634-1.68-3.897-2.52-6.79-2.52-2.707 0-5.134.957-7.28 2.87-2.1 1.913-3.524 4.293-4.27 7.14v22.68h-4.69V76.85zM159.371 128.72c-3.36 0-6.393-.817-9.1-2.45-2.66-1.633-4.76-3.873-6.3-6.72-1.493-2.893-2.24-6.137-2.24-9.73 0-3.593.747-6.813 2.24-9.66 1.54-2.847 3.64-5.087 6.3-6.72 2.707-1.633 5.74-2.45 9.1-2.45 3.36 0 6.37.817 9.03 2.45 2.707 1.633 4.807 3.897 6.3 6.79 1.54 2.847 2.31 6.043 2.31 9.59 0 3.593-.77 6.837-2.31 9.73-1.493 2.847-3.593 5.087-6.3 6.72-2.66 1.633-5.67 2.45-9.03 2.45zm0-4.34c2.427 0 4.597-.63 6.51-1.89 1.914-1.26 3.407-2.987 4.48-5.18 1.12-2.24 1.68-4.737 1.68-7.49s-.56-5.227-1.68-7.42c-1.073-2.24-2.566-3.967-4.48-5.18-1.913-1.26-4.083-1.89-6.51-1.89-2.426 0-4.596.63-6.51 1.89-1.913 1.213-3.406 2.94-4.48 5.18-1.073 2.193-1.61 4.667-1.61 7.42s.537 5.25 1.61 7.49c1.074 2.193 2.567 3.92 4.48 5.18 1.914 1.26 4.084 1.89 6.51 1.89zM182.355 91.69h4.69v6.16c1.12-2.053 2.847-3.71 5.18-4.97a16.067 16.067 0 017.63-1.89c3.127 0 5.973.817 8.54 2.45 2.567 1.633 4.573 3.897 6.02 6.79 1.493 2.847 2.24 6.067 2.24 9.66s-.747 6.837-2.24 9.73c-1.447 2.847-3.477 5.087-6.09 6.72-2.613 1.587-5.53 2.38-8.75 2.38-2.567 0-5.017-.63-7.35-1.89-2.333-1.307-4.06-2.963-5.18-4.97v19.25h-4.69V91.69zm16.8 32.69c2.427 0 4.573-.583 6.44-1.75 1.913-1.213 3.407-2.917 4.48-5.11 1.073-2.193 1.61-4.737 1.61-7.63s-.537-5.437-1.61-7.63c-1.027-2.193-2.473-3.897-4.34-5.11-1.867-1.213-3.967-1.82-6.3-1.82-3.453 0-6.323 1.143-8.61 3.43-2.287 2.24-3.547 5.11-3.78 8.61v4.97c.233 3.547 1.47 6.44 3.71 8.68 2.24 2.24 5.04 3.36 8.4 3.36zM221.971 128.02V91.69h4.69v36.33h-4.69zm2.31-43.19c-.98 0-1.797-.327-2.45-.98-.654-.7-.98-1.54-.98-2.52 0-.933.326-1.727.98-2.38.653-.7 1.47-1.05 2.45-1.05.98 0 1.796.35 2.45 1.05.7.653 1.05 1.447 1.05 2.38 0 .98-.35 1.82-1.05 2.52-.654.653-1.47.98-2.45.98zM237.116 95.82h-6.86v-4.13h6.86v-5.25c0-3.36.863-5.903 2.59-7.63 1.773-1.773 4.083-2.66 6.93-2.66 1.913 0 3.523.397 4.83 1.19v4.34h-.28c-.98-.793-2.357-1.19-4.13-1.19-1.494 0-2.73.513-3.71 1.54-.98.98-1.47 2.45-1.47 4.41v5.25h9.59v4.13h-9.59v32.2h-4.76v-32.2z" fill="#fff"/><path d="M256.812 141.81c-1.166 0-2.263-.14-3.289-.42-.98-.233-1.75-.56-2.31-.98l1.54-3.99c.933.653 2.31.98 4.13.98 1.493 0 2.87-.537 4.13-1.61 1.26-1.027 2.263-2.637 3.01-4.83l.77-2.24-13.58-36.75v-.28h4.83l.07.28 1.4 3.99 9.59 26.74 9.45-26.74 1.33-3.99.14-.28h4.97v.28l-1.54 3.99-13.16 36.4c-1.167 3.173-2.684 5.53-4.55 7.07-1.867 1.587-4.177 2.38-6.931 2.38zM291.673 127.74l1.68-4.2 18.55-45.99h4.969l18.481 45.99 1.82 4.2v.28h-5.6l-.141-.28-1.679-4.2-3.64-9.24h-23.661l-3.64 9.24-1.679 4.2-.14.28h-5.32v-.28zm32.62-18.06l-9.94-25.34-10.08 25.34h20.02zM353.922 141.81c-4.947 0-8.89-.887-11.83-2.66-2.94-1.773-4.41-4.48-4.41-8.12 0-1.447.35-2.87 1.05-4.27.746-1.447 1.703-2.613 2.87-3.5-1.914-1.12-2.87-2.847-2.87-5.18 0-1.447.49-2.777 1.47-3.99.98-1.26 2.17-2.333 3.57-3.22-2.054-2.147-3.08-4.807-3.08-7.98 0-3.547 1.19-6.417 3.57-8.61 2.426-2.193 5.6-3.29 9.52-3.29 2.333 0 4.433.397 6.3 1.19l10.43-.63v4.27h-5.74c1.493 1.913 2.24 4.27 2.24 7.07 0 3.5-1.214 6.347-3.64 8.54-2.427 2.193-5.624 3.29-9.59 3.29-2.567 0-4.877-.513-6.93-1.54-2.194 1.26-3.29 2.753-3.29 4.48 0 1.12.42 1.913 1.26 2.38.886.467 2.263.7 4.13.7h10.78c3.406 0 6.183.817 8.33 2.45 2.193 1.587 3.29 3.873 3.29 6.86 0 3.64-1.54 6.51-4.62 8.61-3.034 2.1-7.304 3.15-12.81 3.15zm-.14-31.22c2.566 0 4.596-.7 6.09-2.1 1.54-1.447 2.31-3.313 2.31-5.6 0-2.333-.77-4.2-2.31-5.6-1.494-1.447-3.524-2.17-6.09-2.17-2.52 0-4.527.723-6.02 2.17-1.494 1.4-2.24 3.267-2.24 5.6 0 2.287.746 4.153 2.24 5.6 1.493 1.4 3.5 2.1 6.02 2.1zm-11.2 20.23c0 2.333 1.026 4.037 3.08 5.11 2.1 1.12 4.853 1.68 8.26 1.68 4.06 0 7.163-.653 9.31-1.96 2.146-1.307 3.22-3.127 3.22-5.46 0-1.867-.584-3.22-1.75-4.06-1.167-.887-2.917-1.33-5.25-1.33h-10.36c-.747 0-1.727-.047-2.94-.14-1.26.653-2.17 1.54-2.73 2.66a7.732 7.732 0 00-.84 3.5zM371.978 109.82c0-3.64.724-6.883 2.17-9.73 1.447-2.893 3.454-5.133 6.02-6.72 2.614-1.587 5.6-2.38 8.96-2.38 3.874 0 7 .863 9.38 2.59 2.427 1.727 4.154 3.873 5.18 6.44 1.027 2.567 1.54 5.157 1.54 7.77 0 .56-.046 1.307-.14 2.24h-28.28c.047 4.433 1.214 7.957 3.5 10.57 2.334 2.567 5.367 3.85 9.1 3.85 2.94 0 5.297-.653 7.07-1.96 1.82-1.307 3.104-3.337 3.85-6.09l4.83 1.68c-1.026 3.313-2.916 5.927-5.67 7.84-2.753 1.867-6.136 2.8-10.15 2.8-3.36 0-6.37-.793-9.03-2.38-2.613-1.633-4.666-3.873-6.16-6.72-1.446-2.893-2.17-6.16-2.17-9.8zm28.21-3.64c-.233-3.407-1.33-6.113-3.29-8.12-1.96-2.007-4.55-3.01-7.77-3.01-3.266 0-5.95 1.003-8.05 3.01-2.1 2.007-3.43 4.713-3.99 8.12h23.1zM410.549 91.69h4.69v6.16c1.26-1.96 2.964-3.593 5.11-4.9 2.147-1.307 4.504-1.96 7.07-1.96 4.06 0 7.304 1.143 9.73 3.43 2.474 2.287 3.71 5.367 3.71 9.24v24.36h-4.76v-23.38c0-2.893-.84-5.157-2.52-6.79-1.633-1.68-3.896-2.52-6.79-2.52-2.706 0-5.133.957-7.28 2.87-2.1 1.913-3.523 4.293-4.27 7.14v22.68h-4.69V91.69zM463.379 128.72c-3.453 0-6.51-.77-9.17-2.31-2.66-1.587-4.736-3.803-6.23-6.65-1.446-2.893-2.17-6.207-2.17-9.94 0-3.733.724-7.023 2.17-9.87 1.494-2.847 3.57-5.04 6.23-6.58 2.66-1.587 5.717-2.38 9.17-2.38 3.874 0 7.187 1.073 9.94 3.22 2.754 2.1 4.457 4.877 5.11 8.33l-4.48 1.19h-.28c-.513-2.52-1.703-4.55-3.57-6.09-1.866-1.54-4.13-2.31-6.79-2.31-3.733 0-6.743 1.33-9.03 3.99-2.286 2.66-3.43 6.16-3.43 10.5 0 4.387 1.12 7.91 3.36 10.57 2.287 2.66 5.32 3.99 9.1 3.99 2.8 0 5.134-.77 7-2.31 1.867-1.54 3.057-3.78 3.57-6.72l4.69 1.12c-.793 3.827-2.566 6.837-5.32 9.03-2.706 2.147-5.996 3.22-9.87 3.22zM484.288 141.81c-1.167 0-2.263-.14-3.29-.42-.98-.233-1.75-.56-2.31-.98l1.54-3.99c.933.653 2.31.98 4.13.98 1.493 0 2.87-.537 4.13-1.61 1.26-1.027 2.263-2.637 3.01-4.83l.77-2.24-13.58-36.75v-.28h4.83l.07.28 1.4 3.99 9.59 26.74 9.45-26.74 1.33-3.99.14-.28h4.97v.28l-1.54 3.99-13.16 36.4c-1.167 3.173-2.683 5.53-4.55 7.07-1.867 1.587-4.177 2.38-6.93 2.38z" fill="#fff"/></svg>