<svg width="471" height="32" viewBox="0 0 471 32" fill="none" xmlns="http://www.w3.org/2000/svg">
<path d="M91.5233 31.3625C91.5269 31.3644 91.5313 31.3615 91.5313 31.3573C91.5313 31.0375 91.5313 30.8606 91.5313 30.6814C91.5313 23.0303 91.5269 15.3792 91.5313 7.72576C91.5313 3.69326 88.626 0.465898 84.618 0.0723722C84.1497 0.0271396 83.679 0.00452326 83.2082 0.0022616C75.6273 -2.56114e-09 76.7325 0 69.1516 0C69.0925 0 68.6507 0 67.9867 0C63.2661 0 59.5332 3.69322 59.5332 8.41376C59.5332 16.4245 59.5289 16.6615 59.5332 24.6722C59.5356 28.0715 62.1245 31.1903 65.4759 31.8394C65.9535 31.9321 66.4445 31.9887 66.9288 31.9909C70.0224 32.0045 73.1134 31.9887 76.207 31.9999C77.6956 32.0068 79.031 31.5363 80.2236 30.695C82.7128 28.9422 83.1811 25.1404 81.2168 22.6888C79.7756 20.8885 77.8814 19.7577 75.6433 19.2782C74.0956 18.948 72.6359 19.423 71.3393 20.253C69.8685 21.1984 68.463 22.2455 67.0285 23.2496C66.9596 23.2988 66.8919 23.3503 66.8168 23.3961C66.7085 23.4625 66.6101 23.3412 66.6821 23.2361C67.8045 21.6122 69.0199 20.0426 70.0291 18.3509C71.2894 16.2431 71.1559 14.0357 69.8771 11.9731C68.9178 10.4239 67.8045 8.97191 66.759 7.47474C66.6452 7.31216 66.8082 7.2028 66.9701 7.3177C66.9762 7.32176 66.9818 7.32588 66.9873 7.33C68.4655 8.3681 69.9024 9.474 71.4341 10.4239C73.5885 11.7605 75.8605 11.7922 78.0242 10.4714C79.642 9.48305 81.1467 8.30699 82.7011 7.2169C82.703 7.21603 82.7054 7.21425 82.7054 7.21425C82.8402 7.12145 82.9374 7.262 82.8463 7.39782C81.7103 9.05788 80.4925 10.6704 79.4611 12.3915C78.3565 14.2347 78.4334 16.182 79.37 18.1203C80.2734 19.9839 81.5904 21.515 83.0433 22.9557C85.7177 25.6085 88.3793 28.2773 91.0494 30.9392C91.1626 31.0522 91.2869 31.1517 91.522 31.3617L91.5233 31.3625Z" fill="black"/>
<path d="M34.0898 18.2C34.0898 13.46 37.0898 10.13 41.4398 10.13C47.3798 10.13 48.6398 15.35 48.2798 18.29H36.1598C36.2198 22.13 38.3798 24.47 41.5598 24.47C44.0798 24.47 45.5798 23.39 46.2398 21.02L48.3098 21.74C47.4398 24.53 45.0398 26.3 41.5298 26.3C37.1798 26.3 34.0898 22.97 34.0898 18.2ZM36.2798 16.64H46.1798C45.9998 13.76 44.2298 11.87 41.4398 11.87C38.5898 11.87 36.7598 13.79 36.2798 16.64Z" fill="black"/>
<path d="M18.3789 26V4.07001H20.3889V13.07C21.3789 11.57 23.2389 10.13 25.6089 10.13C29.0589 10.13 31.3689 12.2 31.3689 15.56V26H29.3289V15.98C29.3289 13.49 27.7989 11.99 25.3389 11.99C22.9389 11.99 21.0189 13.94 20.3889 16.28V26H18.3789Z" fill="black"/>
<path d="M7.02 26V6.32H0V4.37H16.23V6.32H9.24V26H7.02Z" fill="black"/>
<path d="M459.775 31.91C459.275 31.91 458.805 31.85 458.365 31.73C457.945 31.63 457.615 31.49 457.375 31.31L458.035 29.6C458.435 29.88 459.025 30.02 459.805 30.02C460.445 30.02 461.035 29.79 461.575 29.33C462.115 28.89 462.545 28.2 462.865 27.26L463.195 26.3L457.375 10.55V10.43H459.445L459.475 10.55L460.075 12.26L464.185 23.72L468.235 12.26L468.805 10.55L468.865 10.43H470.995V10.55L470.335 12.26L464.695 27.86C464.195 29.22 463.545 30.23 462.745 30.89C461.945 31.57 460.955 31.91 459.775 31.91Z" fill="black"/>
<path d="M450.214 26.3C448.734 26.3 447.424 25.97 446.284 25.31C445.144 24.63 444.254 23.68 443.614 22.46C442.994 21.22 442.684 19.8 442.684 18.2C442.684 16.6 442.994 15.19 443.614 13.97C444.254 12.75 445.144 11.81 446.284 11.15C447.424 10.47 448.734 10.13 450.214 10.13C451.874 10.13 453.294 10.59 454.474 11.51C455.654 12.41 456.384 13.6 456.664 15.08L454.744 15.59H454.624C454.404 14.51 453.894 13.64 453.094 12.98C452.294 12.32 451.324 11.99 450.184 11.99C448.584 11.99 447.294 12.56 446.314 13.7C445.334 14.84 444.844 16.34 444.844 18.2C444.844 20.08 445.324 21.59 446.284 22.73C447.264 23.87 448.564 24.44 450.184 24.44C451.384 24.44 452.384 24.11 453.184 23.45C453.984 22.79 454.494 21.83 454.714 20.57L456.724 21.05C456.384 22.69 455.624 23.98 454.444 24.92C453.284 25.84 451.874 26.3 450.214 26.3Z" fill="black"/>
<path d="M426.973 10.43H428.983V13.07C429.523 12.23 430.253 11.53 431.173 10.97C432.093 10.41 433.103 10.13 434.203 10.13C435.943 10.13 437.333 10.62 438.373 11.6C439.433 12.58 439.963 13.9 439.963 15.56V26H437.923V15.98C437.923 14.74 437.563 13.77 436.843 13.07C436.143 12.35 435.173 11.99 433.933 11.99C432.773 11.99 431.733 12.4 430.813 13.22C429.913 14.04 429.303 15.06 428.983 16.28V26H426.973V10.43Z" fill="black"/>
<path d="M409.844 18.2C409.844 16.64 410.154 15.25 410.774 14.03C411.394 12.79 412.254 11.83 413.354 11.15C414.474 10.47 415.754 10.13 417.194 10.13C418.854 10.13 420.194 10.5 421.214 11.24C422.254 11.98 422.994 12.9 423.434 14C423.874 15.1 424.094 16.21 424.094 17.33C424.094 17.57 424.074 17.89 424.034 18.29H411.914C411.934 20.19 412.434 21.7 413.414 22.82C414.414 23.92 415.714 24.47 417.314 24.47C418.574 24.47 419.584 24.19 420.344 23.63C421.124 23.07 421.674 22.2 421.994 21.02L424.064 21.74C423.624 23.16 422.814 24.28 421.634 25.1C420.454 25.9 419.004 26.3 417.284 26.3C415.844 26.3 414.554 25.96 413.414 25.28C412.294 24.58 411.414 23.62 410.774 22.4C410.154 21.16 409.844 19.76 409.844 18.2ZM421.934 16.64C421.834 15.18 421.364 14.02 420.524 13.16C419.684 12.3 418.574 11.87 417.194 11.87C415.794 11.87 414.644 12.3 413.744 13.16C412.844 14.02 412.274 15.18 412.034 16.64H421.934Z" fill="black"/>
<path d="M401.507 31.91C399.387 31.91 397.697 31.53 396.437 30.77C395.177 30.01 394.547 28.85 394.547 27.29C394.547 26.67 394.697 26.06 394.997 25.46C395.317 24.84 395.727 24.34 396.227 23.96C395.407 23.48 394.997 22.74 394.997 21.74C394.997 21.12 395.207 20.55 395.627 20.03C396.047 19.49 396.557 19.03 397.157 18.65C396.277 17.73 395.837 16.59 395.837 15.23C395.837 13.71 396.347 12.48 397.367 11.54C398.407 10.6 399.767 10.13 401.447 10.13C402.447 10.13 403.347 10.3 404.147 10.64L408.617 10.37V12.2H406.157C406.797 13.02 407.117 14.03 407.117 15.23C407.117 16.73 406.597 17.95 405.557 18.89C404.517 19.83 403.147 20.3 401.447 20.3C400.347 20.3 399.357 20.08 398.477 19.64C397.537 20.18 397.067 20.82 397.067 21.56C397.067 22.04 397.247 22.38 397.607 22.58C397.987 22.78 398.577 22.88 399.377 22.88H403.997C405.457 22.88 406.647 23.23 407.567 23.93C408.507 24.61 408.977 25.59 408.977 26.87C408.977 28.43 408.317 29.66 406.997 30.56C405.697 31.46 403.867 31.91 401.507 31.91ZM401.447 18.53C402.547 18.53 403.417 18.23 404.057 17.63C404.717 17.01 405.047 16.21 405.047 15.23C405.047 14.23 404.717 13.43 404.057 12.83C403.417 12.21 402.547 11.9 401.447 11.9C400.367 11.9 399.507 12.21 398.867 12.83C398.227 13.43 397.907 14.23 397.907 15.23C397.907 16.21 398.227 17.01 398.867 17.63C399.507 18.23 400.367 18.53 401.447 18.53ZM396.647 27.2C396.647 28.2 397.087 28.93 397.967 29.39C398.867 29.87 400.047 30.11 401.507 30.11C403.247 30.11 404.577 29.83 405.497 29.27C406.417 28.71 406.877 27.93 406.877 26.93C406.877 26.13 406.627 25.55 406.127 25.19C405.627 24.81 404.877 24.62 403.877 24.62H399.437C399.117 24.62 398.697 24.6 398.177 24.56C397.637 24.84 397.247 25.22 397.007 25.7C396.767 26.18 396.647 26.68 396.647 27.2Z" fill="black"/>
<path d="M374.227 25.88L374.947 24.08L382.897 4.37H385.027L392.947 24.08L393.727 25.88V26H391.327L391.267 25.88L390.547 24.08L388.987 20.12H378.847L377.287 24.08L376.567 25.88L376.507 26H374.227V25.88ZM388.207 18.14L383.947 7.28L379.627 18.14H388.207Z" fill="black"/>
<path d="M358.088 31.91C357.588 31.91 357.117 31.85 356.677 31.73C356.257 31.63 355.928 31.49 355.688 31.31L356.348 29.6C356.748 29.88 357.338 30.02 358.118 30.02C358.758 30.02 359.347 29.79 359.887 29.33C360.427 28.89 360.858 28.2 361.178 27.26L361.507 26.3L355.688 10.55V10.43H357.757L357.787 10.55L358.387 12.26L362.497 23.72L366.548 12.26L367.118 10.55L367.178 10.43H369.308V10.55L368.648 12.26L363.007 27.86C362.507 29.22 361.858 30.23 361.058 30.89C360.258 31.57 359.268 31.91 358.088 31.91Z" fill="black"/>
<path d="M349.045 12.2H346.105V10.43H349.045V8.18002C349.045 6.74002 349.415 5.65002 350.155 4.91002C350.915 4.15002 351.905 3.77002 353.125 3.77002C353.945 3.77002 354.635 3.94002 355.195 4.28002V6.14002H355.075C354.655 5.80002 354.065 5.63002 353.305 5.63002C352.665 5.63002 352.135 5.85002 351.715 6.29002C351.295 6.71002 351.085 7.34002 351.085 8.18002V10.43H355.195V12.2H351.085V26H349.045V12.2Z" fill="black"/>
<path d="M341.953 26V10.43H343.963V26H341.953ZM342.943 7.49002C342.523 7.49002 342.173 7.35002 341.893 7.07002C341.613 6.77002 341.473 6.41002 341.473 5.99002C341.473 5.59002 341.613 5.25002 341.893 4.97002C342.173 4.67002 342.523 4.52002 342.943 4.52002C343.363 4.52002 343.713 4.67002 343.993 4.97002C344.293 5.25002 344.443 5.59002 344.443 5.99002C344.443 6.41002 344.293 6.77002 343.993 7.07002C343.713 7.35002 343.363 7.49002 342.943 7.49002Z" fill="black"/>
<path d="M324.375 10.43H326.385V13.07C326.865 12.19 327.605 11.48 328.605 10.94C329.625 10.4 330.715 10.13 331.875 10.13C333.215 10.13 334.435 10.48 335.535 11.18C336.635 11.88 337.495 12.85 338.115 14.09C338.755 15.31 339.075 16.69 339.075 18.23C339.075 19.77 338.755 21.16 338.115 22.4C337.495 23.62 336.625 24.58 335.505 25.28C334.385 25.96 333.135 26.3 331.755 26.3C330.655 26.3 329.605 26.03 328.605 25.49C327.605 24.93 326.865 24.22 326.385 23.36V31.61H324.375V10.43ZM331.575 24.44C332.615 24.44 333.535 24.19 334.335 23.69C335.155 23.17 335.795 22.44 336.255 21.5C336.715 20.56 336.945 19.47 336.945 18.23C336.945 16.99 336.715 15.9 336.255 14.96C335.815 14.02 335.195 13.29 334.395 12.77C333.595 12.25 332.695 11.99 331.695 11.99C330.215 11.99 328.985 12.48 328.005 13.46C327.025 14.42 326.485 15.65 326.385 17.15V19.28C326.485 20.8 327.015 22.04 327.975 23C328.935 23.96 330.135 24.44 331.575 24.44Z" fill="black"/>
<path d="M313.927 26.3C312.487 26.3 311.187 25.95 310.027 25.25C308.887 24.55 307.987 23.59 307.327 22.37C306.687 21.13 306.367 19.74 306.367 18.2C306.367 16.66 306.687 15.28 307.327 14.06C307.987 12.84 308.887 11.88 310.027 11.18C311.187 10.48 312.487 10.13 313.927 10.13C315.367 10.13 316.657 10.48 317.797 11.18C318.957 11.88 319.857 12.85 320.497 14.09C321.157 15.31 321.487 16.68 321.487 18.2C321.487 19.74 321.157 21.13 320.497 22.37C319.857 23.59 318.957 24.55 317.797 25.25C316.657 25.95 315.367 26.3 313.927 26.3ZM313.927 24.44C314.967 24.44 315.897 24.17 316.717 23.63C317.537 23.09 318.177 22.35 318.637 21.41C319.117 20.45 319.357 19.38 319.357 18.2C319.357 17.02 319.117 15.96 318.637 15.02C318.177 14.06 317.537 13.32 316.717 12.8C315.897 12.26 314.967 11.99 313.927 11.99C312.887 11.99 311.957 12.26 311.137 12.8C310.317 13.32 309.677 14.06 309.217 15.02C308.757 15.96 308.527 17.02 308.527 18.2C308.527 19.38 308.757 20.45 309.217 21.41C309.677 22.35 310.317 23.09 311.137 23.63C311.957 24.17 312.887 24.44 313.927 24.44Z" fill="black"/>
<path d="M290.684 4.07001H292.694V13.07C293.234 12.23 293.964 11.53 294.884 10.97C295.804 10.41 296.814 10.13 297.914 10.13C299.654 10.13 301.044 10.62 302.084 11.6C303.144 12.58 303.674 13.9 303.674 15.56V26H301.634V15.98C301.634 14.74 301.274 13.77 300.554 13.07C299.854 12.35 298.884 11.99 297.644 11.99C296.484 11.99 295.444 12.4 294.524 13.22C293.624 14.04 293.014 15.06 292.694 16.28V26H290.684V4.07001Z" fill="black"/>
<path d="M280.242 26.3C278.862 26.3 277.572 26.03 276.372 25.49C275.172 24.95 274.192 24.2 273.432 23.24C272.672 22.26 272.222 21.16 272.082 19.94L274.092 19.25H274.212C274.292 20.23 274.612 21.11 275.172 21.89C275.732 22.67 276.452 23.28 277.332 23.72C278.232 24.14 279.202 24.35 280.242 24.35C281.882 24.35 283.182 23.99 284.142 23.27C285.122 22.53 285.612 21.56 285.612 20.36C285.612 18.4 284.482 17.08 282.222 16.4L277.932 15.14C276.392 14.7 275.172 14.06 274.272 13.22C273.392 12.36 272.952 11.17 272.952 9.65001C272.952 8.55001 273.252 7.58001 273.852 6.74001C274.452 5.88001 275.292 5.22001 276.372 4.76001C277.472 4.30001 278.722 4.07001 280.122 4.07001C281.422 4.07001 282.602 4.30001 283.662 4.76001C284.722 5.20001 285.582 5.82001 286.242 6.62001C286.922 7.40001 287.332 8.29001 287.472 9.29001L285.522 9.98001H285.402C285.182 8.74001 284.602 7.77001 283.662 7.07001C282.722 6.37001 281.542 6.02001 280.122 6.02001C278.582 6.02001 277.382 6.34001 276.522 6.98001C275.682 7.62001 275.262 8.49001 275.262 9.59001C275.262 10.49 275.542 11.21 276.102 11.75C276.682 12.27 277.492 12.69 278.532 13.01L282.882 14.3C284.442 14.74 285.672 15.44 286.572 16.4C287.472 17.34 287.922 18.64 287.922 20.3C287.922 21.5 287.602 22.55 286.962 23.45C286.322 24.35 285.422 25.05 284.262 25.55C283.102 26.05 281.762 26.3 280.242 26.3Z" fill="black"/>
<path d="M262.552 26.3C261.092 26.3 259.912 25.87 259.012 25.01C258.112 24.15 257.662 22.9 257.662 21.26V13.37H254.992V10.43C255.912 10.43 256.562 10.35 256.942 10.19C257.322 10.03 257.572 9.71002 257.692 9.23002C257.812 8.75002 257.862 7.93002 257.842 6.77002H261.172V10.43H265.012V13.37H261.172V20.96C261.172 21.76 261.362 22.35 261.742 22.73C262.142 23.09 262.662 23.27 263.302 23.27C263.922 23.27 264.452 23.13 264.892 22.85V25.79C264.692 25.93 264.362 26.05 263.902 26.15C263.462 26.25 263.012 26.3 262.552 26.3Z" fill="black"/>
<path d="M248.07 26.3C246.77 26.3 245.62 26.08 244.62 25.64C243.64 25.2 242.87 24.62 242.31 23.9C241.75 23.18 241.42 22.39 241.32 21.53L244.53 20.57H244.65C244.79 21.47 245.17 22.16 245.79 22.64C246.41 23.12 247.17 23.36 248.07 23.36C248.83 23.36 249.44 23.19 249.9 22.85C250.36 22.49 250.59 22.03 250.59 21.47C250.59 20.61 249.99 20.02 248.79 19.7L245.85 19.01C244.69 18.73 243.72 18.29 242.94 17.69C242.18 17.07 241.8 16.12 241.8 14.84C241.8 13.96 242.05 13.17 242.55 12.47C243.05 11.75 243.75 11.18 244.65 10.76C245.55 10.34 246.56 10.13 247.68 10.13C249.3 10.13 250.67 10.52 251.79 11.3C252.91 12.06 253.6 13.04 253.86 14.24L250.62 15.11H250.5C250.38 14.39 250.06 13.84 249.54 13.46C249.02 13.06 248.4 12.86 247.68 12.86C247 12.86 246.44 13.03 246 13.37C245.58 13.69 245.37 14.08 245.37 14.54C245.37 14.94 245.52 15.27 245.82 15.53C246.12 15.77 246.57 15.96 247.17 16.1L249.66 16.73C251.12 17.07 252.24 17.57 253.02 18.23C253.8 18.87 254.19 19.93 254.19 21.41C254.19 22.31 253.93 23.13 253.41 23.87C252.89 24.61 252.16 25.2 251.22 25.64C250.3 26.08 249.25 26.3 248.07 26.3Z" fill="black"/>
<path d="M231.793 10.43H235.303V12.8C235.763 12 236.393 11.36 237.193 10.88C237.993 10.38 238.833 10.13 239.713 10.13C240.173 10.13 240.493 10.15 240.673 10.19V13.55C240.293 13.49 239.943 13.46 239.623 13.46C238.463 13.46 237.523 13.81 236.803 14.51C236.103 15.21 235.603 16.06 235.303 17.06V26H231.793V10.43Z" fill="black"/>
<path d="M225.055 26V10.43H228.565V26H225.055ZM226.765 8.30001C226.145 8.30001 225.625 8.09001 225.205 7.67001C224.805 7.25001 224.605 6.73001 224.605 6.11001C224.605 5.51001 224.805 5.00001 225.205 4.58001C225.625 4.16001 226.145 3.95001 226.765 3.95001C227.405 3.95001 227.935 4.16001 228.355 4.58001C228.795 5.00001 229.015 5.51001 229.015 6.11001C229.015 6.73001 228.795 7.25001 228.355 7.67001C227.935 8.09001 227.405 8.30001 226.765 8.30001Z" fill="black"/>
<path d="M208.621 4.37H223.141V7.63999H212.341V12.98H221.011V16.25H212.341V26H208.621V4.37Z" fill="black"/>
<path d="M196.008 16.67H205.698V19.7H196.008V16.67Z" fill="black"/>
<path d="M179.438 4.07001H182.947V12.5C183.447 11.78 184.088 11.21 184.868 10.79C185.668 10.35 186.547 10.13 187.507 10.13C188.627 10.13 189.627 10.36 190.507 10.82C191.387 11.26 192.077 11.9 192.577 12.74C193.097 13.56 193.357 14.53 193.357 15.65V26H189.877V16.49C189.877 15.45 189.597 14.64 189.037 14.06C188.477 13.46 187.697 13.16 186.697 13.16C185.777 13.16 184.967 13.51 184.267 14.21C183.587 14.89 183.147 15.74 182.947 16.76V26H179.438V4.07001Z" fill="black"/>
<path d="M170.08 26.3C168.58 26.3 167.24 25.96 166.06 25.28C164.9 24.58 163.99 23.62 163.33 22.4C162.67 21.18 162.34 19.78 162.34 18.2C162.34 16.62 162.66 15.22 163.3 14C163.96 12.78 164.88 11.83 166.06 11.15C167.24 10.47 168.58 10.13 170.08 10.13C171.96 10.13 173.52 10.61 174.76 11.57C176.02 12.51 176.79 13.79 177.07 15.41L173.71 15.95H173.59C173.43 15.13 173.04 14.46 172.42 13.94C171.8 13.42 171.04 13.16 170.14 13.16C168.86 13.16 167.83 13.63 167.05 14.57C166.29 15.49 165.91 16.7 165.91 18.2C165.91 19.72 166.29 20.95 167.05 21.89C167.83 22.81 168.86 23.27 170.14 23.27C171.08 23.27 171.87 23 172.51 22.46C173.15 21.92 173.55 21.18 173.71 20.24L177.19 20.78C176.87 22.5 176.07 23.85 174.79 24.83C173.53 25.81 171.96 26.3 170.08 26.3Z" fill="black"/>
<path d="M153.07 10.43H156.58V12.8C157.04 12 157.67 11.36 158.47 10.88C159.27 10.38 160.11 10.13 160.99 10.13C161.45 10.13 161.77 10.15 161.95 10.19V13.55C161.57 13.49 161.22 13.46 160.9 13.46C159.74 13.46 158.8 13.81 158.08 14.51C157.38 15.21 156.88 16.06 156.58 17.06V26H153.07V10.43Z" fill="black"/>
<path d="M141.93 26.3C140.89 26.3 139.96 26.11 139.14 25.73C138.32 25.33 137.67 24.79 137.19 24.11C136.73 23.41 136.5 22.63 136.5 21.77C136.5 20.43 136.97 19.35 137.91 18.53C138.87 17.69 140.22 17.15 141.96 16.91L146.49 16.25V15.71C146.49 14.81 146.21 14.11 145.65 13.61C145.09 13.09 144.36 12.83 143.46 12.83C142.48 12.83 141.69 13.08 141.09 13.58C140.49 14.06 140.1 14.72 139.92 15.56L136.71 14.72C137.09 13.4 137.85 12.31 138.99 11.45C140.15 10.57 141.64 10.13 143.46 10.13C145.42 10.13 146.99 10.65 148.17 11.69C149.37 12.71 149.97 14.12 149.97 15.92V26H146.49V23.96C145.95 24.76 145.28 25.35 144.48 25.73C143.68 26.11 142.83 26.3 141.93 26.3ZM140.07 21.62C140.07 22.22 140.29 22.72 140.73 23.12C141.19 23.5 141.79 23.69 142.53 23.69C143.51 23.69 144.34 23.4 145.02 22.82C145.7 22.22 146.19 21.48 146.49 20.6V18.71L142.53 19.4C140.89 19.68 140.07 20.42 140.07 21.62Z" fill="black"/>
<path d="M119.832 18.2C119.832 16.64 120.152 15.25 120.792 14.03C121.452 12.81 122.352 11.86 123.492 11.18C124.652 10.48 125.962 10.13 127.422 10.13C129.222 10.13 130.672 10.51 131.772 11.27C132.872 12.01 133.652 12.95 134.112 14.09C134.572 15.23 134.802 16.44 134.802 17.72C134.802 18 134.782 18.38 134.742 18.86H123.282C123.402 20.26 123.852 21.36 124.632 22.16C125.412 22.94 126.422 23.33 127.662 23.33C129.602 23.33 130.822 22.48 131.322 20.78L134.742 21.71C134.322 23.13 133.492 24.25 132.252 25.07C131.032 25.89 129.472 26.3 127.572 26.3C126.092 26.3 124.762 25.96 123.582 25.28C122.402 24.58 121.482 23.62 120.822 22.4C120.162 21.16 119.832 19.76 119.832 18.2ZM131.112 16.34C131.012 15.28 130.642 14.43 130.002 13.79C129.362 13.13 128.502 12.8 127.422 12.8C126.362 12.8 125.482 13.11 124.782 13.73C124.102 14.35 123.652 15.22 123.432 16.34H131.112Z" fill="black"/>
<path d="M110.18 26.3C108.68 26.3 107.3 26 106.04 25.4C104.78 24.8 103.76 23.98 102.98 22.94C102.2 21.9 101.76 20.74 101.66 19.46L105.17 18.83H105.29C105.41 20.05 105.93 21.06 106.85 21.86C107.79 22.64 108.9 23.03 110.18 23.03C111.42 23.03 112.41 22.76 113.15 22.22C113.91 21.68 114.29 20.97 114.29 20.09C114.29 18.63 113.38 17.63 111.56 17.09L107.93 16.07C106.25 15.59 104.93 14.89 103.97 13.97C103.01 13.05 102.53 11.76 102.53 10.1C102.53 8.92001 102.85 7.87001 103.49 6.95001C104.15 6.03001 105.04 5.32001 106.16 4.82001C107.3 4.32001 108.57 4.07001 109.97 4.07001C111.35 4.07001 112.62 4.31001 113.78 4.79001C114.94 5.27001 115.88 5.95001 116.6 6.83001C117.34 7.69001 117.76 8.68001 117.86 9.80001L114.38 10.46H114.26C114.08 9.54001 113.61 8.79001 112.85 8.21001C112.09 7.63001 111.13 7.34001 109.97 7.34001C108.83 7.34001 107.94 7.57001 107.3 8.03001C106.66 8.47001 106.34 9.10001 106.34 9.92001C106.34 10.58 106.56 11.12 107 11.54C107.44 11.94 108.07 12.26 108.89 12.5L112.58 13.55C114.3 14.03 115.65 14.75 116.63 15.71C117.61 16.65 118.1 18.02 118.1 19.82C118.1 21.1 117.76 22.23 117.08 23.21C116.42 24.19 115.49 24.95 114.29 25.49C113.09 26.03 111.72 26.3 110.18 26.3Z" fill="black"/>
</svg>
