<svg width="136" height="36" viewBox="0 0 136 36" fill="none" xmlns="http://www.w3.org/2000/svg">
<g clip-path="url(#clip0_775_2213)">
<path d="M36.1241 4.49023L33.6211 16.1581L28.7091 16.7008L31.3187 4.49023H24.7472L18.8442 32.0942H25.4173L27.7438 21.1415H32.5491L30.2225 32.0942H36.7942L42.6954 4.49023H36.1241Z" fill="white"/>
<path d="M60.6703 11.4295C60.5272 9.11618 59.8061 7.32149 58.5048 6.0469C57.2039 4.77232 55.4451 4.13428 53.233 4.13428C51.1367 4.13428 49.2349 4.81769 47.5272 6.18451C45.8213 7.5513 44.478 9.29311 43.5022 11.4098C42.5248 13.5266 41.7991 15.787 41.32 18.1925C40.8412 20.5981 40.6727 22.931 40.8112 25.1914C40.9543 27.5047 41.6754 29.2919 42.9767 30.5544C44.2777 31.8169 46.0333 32.4473 48.247 32.4473C50.3433 32.4473 52.2467 31.7716 53.9544 30.4168C55.6618 29.0636 57.0113 27.3278 58.0019 25.2111C58.9929 23.0958 59.7202 20.8339 60.1841 18.4284C60.6477 16.0229 60.8103 13.6899 60.6703 11.4295ZM53.5328 16.8514C53.0311 19.4671 52.331 21.918 51.4288 24.2056C50.5269 26.4932 49.6416 27.6363 48.7712 27.6363C48.3224 27.6363 47.9775 27.4926 47.7379 27.2023C47.4972 26.9136 47.3556 26.3738 47.312 25.5861C47.2381 24.2722 47.44 22.3202 47.9157 19.7302C48.3917 17.1417 49.0859 14.6969 49.9999 12.3957C50.9139 10.0959 51.8461 8.94534 52.7962 8.94534C53.641 8.94534 54.1003 9.63027 54.1772 10.9956C54.2496 12.2838 54.0341 14.2357 53.534 16.8514H53.5328Z" fill="white"/>
<path d="M78.0618 6.50018C76.4067 5.15905 73.6286 4.48623 70.4842 4.48927H64.7694L58.8679 32.0932H65.4395L67.3685 22.9867C67.3685 22.9867 73.3739 23.2891 77.3253 19.7571C79.4456 17.8626 80.7015 14.6104 80.6774 11.8616C80.6595 9.64959 79.7167 7.84127 78.0618 6.50167V6.50018ZM73.1331 16.2009C71.6559 18.2814 68.4497 18.0198 68.4497 18.0198L70.3037 9.41525C70.3037 9.41525 72.1814 9.23531 73.3408 10.1319C74.4582 10.9952 75.029 13.5308 73.1331 16.2009Z" fill="white"/>
<path d="M90.3822 4.49023H83.8109L77.9094 32.0942H92.1261L93.2524 26.7509L85.4444 27.6157L90.3822 4.49023Z" fill="white"/>
<path d="M99.5829 4.49023L93.6799 32.0942H100.253L106.155 4.49023H99.5829Z" fill="white"/>
<path d="M122.488 4.49023H119.314H107.878L101.977 32.0942H108.548L110.614 22.4085H117.124L118.241 17.1091L111.587 17.8394L113.32 9.8335H118.187H121.361H123.146L118.373 32.0942H124.944L129.718 9.8335H134.83L135.956 4.49023H122.488Z" fill="white"/>
<path d="M19.1082 21.7382C18.9335 20.7766 18.5766 19.9193 18.0345 19.1663C17.4939 18.4134 16.8509 17.7375 16.1085 17.1373C15.3646 16.5385 14.5801 15.973 13.7549 15.4424C13.1269 15.081 12.5321 14.6894 11.9674 14.2706C11.4027 13.8518 10.9796 13.3649 10.6995 12.807C10.4179 12.2491 10.3652 11.5808 10.5369 10.7991C10.6483 10.2971 10.8184 9.87226 11.0458 9.523C11.2747 9.17525 11.5774 8.91065 11.9539 8.72771C12.3303 8.54628 12.7219 8.45556 13.1254 8.45556C13.7323 8.45556 14.184 8.61583 14.4852 8.93635C14.7849 9.25691 14.9581 9.68931 15.0063 10.2336C15.0544 10.7779 15.0153 11.3706 14.8903 12.0117C14.7653 12.6528 14.5816 13.2938 14.3376 13.9364L20.8128 13.2258C21.5025 11.3298 21.7133 9.69083 21.4453 8.31191C21.1773 6.93149 20.4364 5.86406 19.2226 5.1111C18.8657 4.89035 18.4667 4.70284 18.0255 4.54711L18.5044 2.38199L15.2351 0.136719L11.4494 2.38199L11.0278 4.28403C10.3245 4.4307 9.66043 4.62724 9.04003 4.88126C7.57484 5.48153 6.37316 6.31009 5.43201 7.36998C4.48934 8.42987 3.86439 9.65607 3.5557 11.0501C3.31477 12.1372 3.28917 13.0867 3.48192 13.8941C3.67316 14.703 4.00895 15.4287 4.49083 16.0698C4.97122 16.7109 5.53441 17.29 6.1789 17.8055C6.8219 18.3226 7.46641 18.8035 8.1079 19.248C8.84428 19.7227 9.53998 20.2383 10.192 20.7962C10.8426 21.3541 11.3455 22.0164 11.6979 22.7829C12.0502 23.551 12.1029 24.4915 11.856 25.6058C11.7205 26.2196 11.5247 26.7216 11.2702 27.1117C11.0157 27.5018 10.698 27.7951 10.3185 27.9902C9.93753 28.1852 9.51287 28.2835 9.04003 28.2835C8.1305 28.2835 7.49049 27.8027 7.2315 27.148C6.97249 26.4933 6.99508 25.8024 7.18934 24.7697C7.38358 23.7385 7.8775 22.6514 8.36692 21.5068H1.95497C1.95497 21.5068 0.473207 24.0968 0.20366 26.4238C0.0560857 27.6938 0.253353 28.787 0.790943 29.7078C1.32854 30.6286 2.18989 31.3393 3.37649 31.8411C3.81321 32.0254 4.29959 32.1769 4.83117 32.2933L4.04812 35.8281H11.1241L11.9343 32.1676C12.5155 32.0242 13.0562 31.8473 13.5561 31.6326C15.0454 30.9914 16.238 30.0918 17.1355 28.9351C18.0315 27.7785 18.6338 26.5024 18.9426 25.1084C19.2257 23.8262 19.2799 22.7028 19.1067 21.7412L19.1082 21.7382Z" fill="white"/>
</g>
<defs>
<clipPath id="clip0_775_2213">
<rect width="136" height="36" fill="white"/>
</clipPath>
</defs>
</svg>
