<svg width="127" height="36" viewBox="0 0 127 36" fill="none" xmlns="http://www.w3.org/2000/svg">
<g id="shopify_monotone_black 1" clip-path="url(#clip0_465_638)">
<g id="Group">
<g id="Group_2">
<path id="s_5_" d="M43.9365 20.0191C42.8552 19.4262 42.2861 18.9462 42.2861 18.2685C42.2861 17.3932 43.0544 16.8568 44.278 16.8568C45.7008 16.8568 46.9529 17.4497 46.9529 17.4497L47.9489 14.4285C47.9489 14.4285 47.0383 13.7227 44.3349 13.7227C40.5787 13.7227 37.9607 15.8685 37.9607 18.8615C37.9607 20.5556 39.1844 21.8544 40.8064 22.7862C42.1153 23.5203 42.5706 24.0568 42.5706 24.8191C42.5706 25.638 41.9161 26.2874 40.6925 26.2874C38.8713 26.2874 37.164 25.3556 37.164 25.3556L36.1111 28.3768C36.1111 28.3768 37.7046 29.4215 40.3511 29.4215C44.2211 29.4215 46.9814 27.5297 46.9814 24.1415C47.0383 22.278 45.6155 20.9791 43.9365 20.0191Z" fill="white"/>
<path id="h_5_" d="M59.3597 13.6659C57.4531 13.6659 55.9734 14.5695 54.8067 15.9248L54.7498 15.8965L56.4002 7.31299H52.0749L47.8918 29.1389H52.1887L53.6115 21.6848C54.1807 18.8612 55.6319 17.1389 56.9978 17.1389C57.9653 17.1389 58.3353 17.7883 58.3353 18.72C58.3353 19.313 58.2784 20.0189 58.1361 20.6118L56.5141 29.1671H60.811L62.4899 20.3577C62.6891 19.4259 62.8029 18.3248 62.8029 17.5624C62.8598 15.1059 61.6077 13.6659 59.3597 13.6659Z" fill="white"/>
<path id="o_5_" d="M72.592 13.666C67.4129 13.666 63.9697 18.2966 63.9697 23.4637C63.9697 26.7672 66.0186 29.4495 69.8886 29.4495C74.9823 29.4495 78.397 24.9319 78.397 19.6519C78.4255 16.5743 76.6327 13.666 72.592 13.666ZM70.4862 26.146C69.0065 26.146 68.4089 24.9037 68.4089 23.3507C68.4089 20.8942 69.6894 16.9131 72.0228 16.9131C73.5595 16.9131 74.0432 18.2119 74.0432 19.4825C74.0432 22.1366 72.7627 26.146 70.4862 26.146Z" fill="white"/>
<path id="p_5_" d="M89.4381 13.666C86.5356 13.666 84.8851 16.2072 84.8851 16.2072H84.8282L85.0843 13.9201H81.2712C81.072 15.4731 80.7305 17.8166 80.389 19.5954L77.4011 35.1813H81.698L82.8932 28.8566H82.9785C82.9785 28.8566 83.8607 29.4213 85.5111 29.4213C90.5763 29.4213 93.8773 24.2825 93.8773 19.0872C93.8773 16.2354 92.5967 13.666 89.4381 13.666ZM85.3404 26.2307C84.2306 26.2307 83.5761 25.6095 83.5761 25.6095L84.2875 21.6284C84.7997 18.9743 86.1941 17.1954 87.6738 17.1954C88.9828 17.1954 89.3812 18.4095 89.3812 19.539C89.3812 22.2778 87.7307 26.2307 85.3404 26.2307Z" fill="white"/>
<path id="dot_5_" d="M100.024 7.53906C98.6579 7.53906 97.5481 8.612 97.5481 10.0238C97.5481 11.2944 98.3449 12.1697 99.5685 12.1697H99.6254C100.963 12.1697 102.13 11.2661 102.158 9.68494C102.186 8.41436 101.333 7.53906 100.024 7.53906Z" fill="white"/>
<path id="i_5_" d="M93.991 29.139H98.3163L101.247 14.0049H96.8935L93.991 29.139Z" fill="white"/>
<path id="f_5_" d="M112.175 13.9766H109.187L109.329 13.2708C109.585 11.8025 110.439 10.5037 111.89 10.5037C112.658 10.5037 113.256 10.7296 113.256 10.7296L114.11 7.39782C114.11 7.39782 113.37 7.03076 111.776 7.03076C110.24 7.03076 108.731 7.45429 107.565 8.44253C106.085 9.68488 105.402 11.4637 105.061 13.2708L104.947 13.9766H102.955L102.329 17.1955H104.321L102.044 29.139H106.341L108.618 17.1955H111.577L112.175 13.9766Z" fill="white"/>
<path id="y_5_" d="M122.533 14.0049C122.533 14.0049 119.829 20.7249 118.634 24.3955H118.577C118.492 23.2096 117.524 14.0049 117.524 14.0049H113L115.589 27.8966C115.646 28.2072 115.618 28.4049 115.504 28.6025C114.992 29.5625 114.166 30.4943 113.17 31.1719C112.374 31.7649 111.463 32.1319 110.752 32.3861L111.947 36.0002C112.829 35.8025 114.622 35.0966 116.158 33.6849C118.122 31.8496 119.943 29.0543 121.793 25.2143L127.057 14.0049H122.533Z" fill="white"/>
</g>
<g id="Group_3">
<path id="Vector" d="M21.2853 4.17905C21.2853 4.17905 20.8869 4.29199 20.2324 4.48964C20.1186 4.12258 19.9479 3.69905 19.7202 3.24728C18.9804 1.83552 17.8706 1.07317 16.5616 1.07317C16.4762 1.07317 16.3909 1.07317 16.277 1.1014C16.2486 1.04493 16.1917 1.01669 16.1632 0.960224C15.5941 0.339048 14.8542 0.056695 13.9721 0.0849303C12.2647 0.141401 10.5573 1.35552 9.19143 3.52964C8.22392 5.05434 7.48406 6.97434 7.28487 8.47081C5.32139 9.06375 3.95549 9.48728 3.92704 9.51552C2.93107 9.82611 2.90261 9.85434 2.78879 10.7861C2.70342 11.492 0.0854492 31.3696 0.0854492 31.3696L21.5983 35.0685V4.15081C21.4276 4.15081 21.3422 4.17905 21.2853 4.17905ZM16.3055 5.70375C15.1672 6.04258 13.9152 6.43787 12.6915 6.80493C13.033 5.47787 13.716 4.15081 14.5127 3.27552C14.8258 2.96493 15.2526 2.59787 15.7364 2.37199C16.2201 3.38846 16.3339 4.77199 16.3055 5.70375ZM13.9721 1.24258C14.3705 1.24258 14.7119 1.32728 14.9965 1.4967C14.5412 1.72258 14.0859 2.08964 13.6591 2.51317C12.5777 3.67081 11.7525 5.47787 11.411 7.20022C10.3866 7.51081 9.36217 7.8214 8.42311 8.10375C9.04915 5.39317 11.3541 1.29905 13.9721 1.24258ZM10.6712 16.772C10.785 18.579 15.5941 18.9743 15.8786 23.2379C16.0778 26.5979 14.0859 28.8849 11.2118 29.0543C7.74017 29.2802 5.8336 27.2473 5.8336 27.2473L6.57346 24.1414C6.57346 24.1414 8.48003 25.5814 10.0167 25.4685C11.0126 25.412 11.3826 24.5932 11.3541 24.0285C11.2118 21.6567 7.28487 21.7979 7.02876 17.9014C6.80111 14.6261 8.96378 11.3226 13.7444 11.012C15.5941 10.899 16.5331 11.3508 16.5331 11.3508L15.4518 15.4167C15.4518 15.4167 14.2282 14.852 12.7769 14.9649C10.6712 15.1061 10.6427 16.4332 10.6712 16.772ZM17.4437 5.36493C17.4437 4.51787 17.3299 3.30375 16.9315 2.28728C18.2405 2.5414 18.8665 3.9814 19.1511 4.85669C18.6389 4.99787 18.0698 5.16728 17.4437 5.36493Z" fill="white"/>
<path id="Vector_2" d="M22.2529 35.0121L31.1882 32.8097C31.1882 32.8097 27.3466 7.03092 27.3181 6.86151C27.2897 6.6921 27.1474 6.57916 27.0051 6.57916C26.8628 6.57916 24.3587 6.52269 24.3587 6.52269C24.3587 6.52269 22.8221 5.05445 22.2529 4.48975V35.0121Z" fill="white"/>
</g>
</g>
</g>
<defs>
<clipPath id="clip0_465_638">
<rect width="127" height="36" fill="white"/>
</clipPath>
</defs>
</svg>
