<svg width="176" height="36" viewBox="0 0 176 36" fill="none" xmlns="http://www.w3.org/2000/svg">
<g id="Shopify_Plus 1" clip-path="url(#clip0_465_606)">
<path id="Vector" d="M136.707 13.6484C134.474 13.6484 132.643 14.4207 131.341 15.8961L131.594 14.5956C131.673 14.1839 131.391 13.8361 130.977 13.8361C130.563 13.8361 130.144 14.1839 130.065 14.5956L126.209 34.4866C126.129 34.8982 126.412 35.2461 126.826 35.2461C127.24 35.2461 127.659 34.8982 127.738 34.4866L129.169 27.0988C129.697 28.0433 130.919 29.3383 133.665 29.3383C135.813 29.3383 137.614 28.6826 139.021 27.3875C140.472 26.0514 141.461 24.0635 141.963 21.477C142.464 18.8924 142.243 16.9088 141.309 15.582C140.405 14.2997 138.855 13.6484 136.707 13.6484ZM133.936 27.9467C130.67 27.9467 129.377 25.71 130.197 21.4788C131.026 17.2076 133.093 15.0419 136.342 15.0419C139.894 15.0419 141.212 17.1474 140.371 21.4788C139.515 25.8913 137.471 27.9467 133.936 27.9467Z" fill="white"/>
<path id="Vector_2" d="M169.981 20.638C168.045 19.9239 166.214 19.2501 166.563 17.456C166.738 16.5543 167.473 15.0408 170.441 15.0408C172.108 15.0408 173.16 15.4989 174.073 16.6226C174.245 16.8321 174.439 16.8321 174.522 16.8321C174.901 16.8321 175.285 16.5134 175.358 16.1355C175.398 15.9305 175.358 15.8095 175.268 15.6483C175.265 15.6419 175.261 15.6354 175.255 15.6291C174.33 14.314 172.802 13.6475 170.711 13.6475C167.665 13.6475 165.49 15.1064 165.034 17.455C164.489 20.2673 166.995 21.2081 169.205 22.0386C171.115 22.7562 172.921 23.4338 172.587 25.1542C172.116 27.5831 169.552 27.9455 168.065 27.9455C166.017 27.9455 164.751 27.3918 163.834 26.0931C163.831 26.0895 163.827 26.0849 163.825 26.0813C163.711 25.9419 163.559 25.8718 163.377 25.8718C163.038 25.8718 162.621 26.1523 162.541 26.5685C162.5 26.7725 162.539 26.8928 162.63 27.0549C163.24 28.1904 165.076 29.3388 167.796 29.3388C171.246 29.3388 173.608 27.7743 174.116 25.1542C174.659 22.3601 172.173 21.4448 169.981 20.638Z" fill="white"/>
<path id="Vector_3" d="M165.36 9.7203H163.747L164.057 8.11744C164.137 7.70579 163.855 7.35791 163.441 7.35791C163.026 7.35791 162.608 7.70579 162.528 8.11744L162.218 9.7203H160.605C160.191 9.7203 159.773 10.0682 159.693 10.4798C159.613 10.8915 159.896 11.2394 160.31 11.2394H161.923L161.613 12.8423C161.533 13.2539 161.815 13.6017 162.229 13.6017C162.644 13.6017 163.062 13.2539 163.141 12.8423L163.451 11.2394H165.064C165.478 11.2394 165.896 10.8915 165.976 10.4798C166.057 10.0691 165.774 9.7203 165.36 9.7203Z" fill="white"/>
<path id="Vector_4" d="M37.2675 25.1581C38.0513 25.5634 39.4621 26.1235 40.8105 26.0925C42.0334 26.0925 42.6915 25.4377 42.6915 24.629C42.6915 23.8503 42.2213 23.3212 40.9041 22.5735C39.2742 21.6391 38.0513 20.3304 38.0513 18.6174C38.0513 15.5956 40.6537 13.4463 44.447 13.4463C46.1089 13.4463 47.3941 13.7578 48.0834 14.163L47.0805 17.2158C46.4847 16.9353 45.5131 16.6239 44.3847 16.6239C43.1618 16.6239 42.3781 17.1848 42.3781 18.0564C42.3781 18.7412 42.9427 19.2403 44.04 19.8322C45.7331 20.7976 47.1438 22.1063 47.1438 23.9441C47.1438 27.3703 44.3534 29.3019 40.4659 29.2709C38.6784 29.2399 37.0164 28.7718 36.2024 28.2118L37.2675 25.1581Z" fill="white"/>
<path id="Vector_5" d="M48.022 29.1861L52.2231 7.37549H56.5497L54.8879 15.8306L54.9502 15.775C56.1097 14.4044 57.615 13.4582 59.5271 13.4582C61.7848 13.4582 63.0701 14.9008 63.0701 17.3306C63.0701 18.0782 62.9444 19.2867 62.7566 20.222L61.0635 29.1872H56.7368L58.3666 20.4907C58.4913 19.8987 58.5555 19.1328 58.5555 18.5417C58.5555 17.6074 58.1797 16.9289 57.207 16.9289C55.8275 16.9289 54.3535 18.7594 53.7897 21.5944L52.3468 29.1872L48.022 29.1861Z" fill="white"/>
<path id="Vector_6" d="M78.7165 19.4267C78.7165 24.7535 75.2671 29.3017 70.1567 29.3017C66.2691 29.3017 64.2002 26.6223 64.2002 23.2891C64.2002 18.087 67.6496 13.4141 72.8535 13.4141C76.8987 13.415 78.7165 16.343 78.7165 19.4267ZM68.6213 23.1962C68.6213 24.7535 69.2482 25.9993 70.7222 25.9993C73.0102 25.9993 74.2964 21.9494 74.2964 19.302C74.2964 18.0251 73.794 16.7173 72.2586 16.7173C69.9064 16.7164 68.6213 20.7344 68.6213 23.1962Z" fill="white"/>
<path id="Vector_7" d="M77.6826 35.2441L80.692 19.5252C81.0376 17.7494 81.3813 15.4525 81.5702 13.8359H85.3954L85.1442 16.2594H85.2066C86.3662 14.6438 88.0602 13.5591 89.7835 13.5591C92.9496 13.5591 94.2358 16.0718 94.2358 18.9688C94.2358 24.2026 90.9128 29.3572 85.8336 29.3572C84.7675 29.3572 83.7958 29.1851 83.2935 28.7817H83.1991L82.0074 35.2441H77.6826ZM83.86 25.4385C84.3302 25.8119 84.8629 26.0614 85.6475 26.0614C88.062 26.0614 89.7239 22.1053 89.7239 19.333C89.7239 18.181 89.316 16.9661 87.9997 16.9661C86.4945 16.9661 85.0838 18.742 84.5824 21.4204L83.86 25.4385Z" fill="white"/>
<path id="Vector_8" d="M94.3633 29.1859L97.2791 13.8377H101.637L98.6899 29.1859H94.3633ZM99.976 12.2221C98.7531 12.2221 97.9382 11.1829 97.9382 9.90607C97.9382 8.50448 99.0355 7.33057 100.415 7.33057C101.731 7.33057 102.578 8.35967 102.578 9.60553C102.547 11.1938 101.387 12.223 100.039 12.223L99.976 12.2221Z" fill="white"/>
<path id="Vector_9" d="M102.451 29.1864L104.74 17.0694H102.733L103.361 13.8381H105.367L105.493 13.0659C105.838 11.2591 106.527 9.42394 108.001 8.17808C109.16 7.18177 110.697 6.73096 112.234 6.73096C113.3 6.73096 114.084 6.88031 114.585 7.09798L113.739 10.4585C113.363 10.3347 112.924 10.239 112.36 10.239C110.917 10.239 110.038 11.6023 109.788 13.0668L109.632 13.8381H112.641L112.045 17.0694H109.067L106.778 29.1864H102.451Z" fill="white"/>
<path id="Vector_10" d="M118.003 13.8379L118.693 20.7083C118.882 22.2347 119.006 23.5316 119.068 24.3393H119.132C119.477 23.5316 119.79 22.3276 120.418 20.6773L123.051 13.8388H127.566L122.267 25.0752C120.386 28.9375 118.567 31.7525 116.592 33.5904C115.055 35.0229 113.237 35.7296 112.359 35.9164L111.167 32.2662C111.889 32.0167 112.797 31.6406 113.612 31.0495C114.615 30.3646 115.463 29.4284 115.965 28.463C116.089 28.2454 116.12 28.0978 116.058 27.7864L113.456 13.8397L118.003 13.8379Z" fill="white"/>
<path id="Vector_11" d="M161.821 15.2813C161.405 15.2813 160.988 15.6292 160.908 16.0408L159.447 23.5805C158.654 27.421 156.28 27.9455 154.054 27.9455C150.046 27.9455 149.945 25.677 150.375 23.4576L152.093 14.5964C152.172 14.1848 151.89 13.8369 151.476 13.8369C151.062 13.8369 150.644 14.1848 150.563 14.5964L148.846 23.4576C148.5 25.2435 148.623 26.5768 149.224 27.5321C149.978 28.7306 151.512 29.3381 153.784 29.3381C156.056 29.3381 157.825 28.7297 159.044 27.5321C160.016 26.5768 160.656 25.2435 161.002 23.4576L162.439 16.0408C162.517 15.6292 162.235 15.2813 161.821 15.2813Z" fill="white"/>
<path id="Vector_12" d="M148.008 7.3999C147.594 7.3999 147.176 7.7478 147.097 8.15943L143.175 28.3908C143.095 28.8024 143.378 29.1503 143.792 29.1503C144.206 29.1503 144.625 28.8024 144.704 28.3908L148.625 8.15943C148.705 7.7478 148.422 7.3999 148.008 7.3999Z" fill="white"/>
<path id="Vector_13" d="M21.3964 4.20163C21.3937 4.20254 21.0022 4.32276 20.3404 4.52677C20.2304 4.17067 20.0672 3.73262 19.8353 3.29274C19.0873 1.87477 17.991 1.12344 16.6673 1.12161H16.6628C16.571 1.12161 16.4794 1.12981 16.3877 1.138C16.3492 1.09155 16.3099 1.04511 16.2677 1.00139C15.691 0.388485 14.9504 0.0897743 14.065 0.115274C12.3544 0.164453 10.6513 1.39119 9.27077 3.57052C8.29819 5.10415 7.56027 7.03122 7.35036 8.52205C5.38687 9.12586 4.01279 9.54933 3.98346 9.55844C2.99254 9.86718 2.96138 9.89813 2.83121 10.8261C2.73314 11.5283 0.139893 31.4537 0.139893 31.4537L21.6577 35.1512V4.15793C21.5513 4.1652 21.4559 4.18433 21.3964 4.20163ZM16.4281 5.73072C15.2896 6.08135 14.0466 6.46385 12.799 6.84725C13.1501 5.51307 13.8146 4.18433 14.6314 3.31369C14.9348 2.99039 15.3601 2.62885 15.8634 2.42211C16.3373 3.40204 16.439 4.79177 16.4281 5.73072ZM14.0979 1.24638C14.4994 1.23818 14.8377 1.3256 15.1264 1.51412C14.6644 1.75273 14.217 2.09516 13.7981 2.54141C12.7119 3.69893 11.8796 5.49666 11.5477 7.23066C10.5119 7.54941 9.49903 7.86088 8.56769 8.14775C9.15527 5.41835 11.4579 1.32197 14.0979 1.24638ZM10.7704 16.7959C10.8859 18.6145 15.7021 19.0117 15.9725 23.2719C16.1852 26.6233 14.1832 28.9156 11.2984 29.0968C7.8362 29.3136 5.93045 27.2846 5.93045 27.2846L6.66378 24.1835C6.66378 24.1835 8.58236 25.6216 10.1178 25.5251C11.1206 25.4622 11.479 24.6516 11.4432 24.0779C11.293 21.7055 7.37145 21.8449 7.12303 17.947C6.91495 14.6666 9.08285 11.3425 13.8679 11.042C15.7112 10.9263 16.6554 11.3935 16.6554 11.3935L15.561 15.4598C15.561 15.4598 14.3408 14.908 12.8934 14.9981C10.7713 15.1329 10.7484 16.4625 10.7704 16.7959ZM17.5648 5.3801C17.5519 4.51948 17.4483 3.32279 17.045 2.28823C18.343 2.5323 18.9819 3.99126 19.2514 4.86098C18.7519 5.01581 18.1826 5.19068 17.5648 5.3801Z" fill="white"/>
<path id="Vector_14" d="M22.3691 35.0669L31.2957 32.8621C31.2957 32.8621 27.4522 7.04512 27.4282 6.86753C27.4035 6.69085 27.2477 6.59249 27.1193 6.58156C26.9911 6.57063 24.4775 6.53329 24.4775 6.53329C24.4775 6.53329 22.9449 5.0552 22.3691 4.49512V35.0669Z" fill="white"/>
</g>
<defs>
<clipPath id="clip0_465_606">
<rect width="176" height="36" fill="white"/>
</clipPath>
</defs>
</svg>
