<svg width="89" height="34" viewBox="0 0 89 34" fill="none" xmlns="http://www.w3.org/2000/svg">
<g clip-path="url(#clip0_775_2239)">
<path d="M32.1496 22.1816C34.253 20.3927 36.0912 18.8075 37.9602 17.253C38.614 16.7102 38.688 16.1427 38.2378 15.4642C37.88 14.9214 37.4482 14.4218 37.1583 13.8481C36.7203 12.9784 37.1028 12.3122 38.0774 12.2937C40.372 12.2505 42.6666 12.2567 44.9613 12.2937C46.0037 12.3122 46.4108 13.1757 45.7261 13.99C45.2512 14.5513 44.5788 14.9522 43.999 15.421C42.3335 16.7781 40.6681 18.1351 38.9471 19.5353C40.995 22.4653 42.938 25.2287 44.8626 28.0045C45.72 29.2443 46.5835 30.4472 47.8727 31.3231C48.3045 31.6191 48.4032 32.3964 48.6499 32.9577C48.1195 33.1612 47.589 33.5313 47.0523 33.5437C44.2766 33.6054 41.5008 33.593 38.7251 33.5437C38.2994 33.5375 37.6024 33.3278 37.5222 33.0625C37.3927 32.6246 37.4914 31.9091 37.7875 31.5821C38.5893 30.7062 38.4228 30.0154 37.7998 29.1395C36.634 27.4987 35.5607 25.7839 34.4565 24.1061C31.8597 25.4816 31.2305 28.7385 33.0933 30.9159C33.229 31.0702 33.4264 31.2059 33.4881 31.3847C33.6855 31.9337 34.0063 32.5259 33.9199 33.044C33.8767 33.2908 33.0255 33.5437 32.5382 33.5498C29.6267 33.5992 26.7153 33.593 23.8038 33.5498C23.3782 33.5498 22.7182 33.3525 22.601 33.0687C22.4406 32.6863 22.5208 31.9522 22.7983 31.6623C24.2232 30.2004 24.2109 28.4301 24.1986 26.5858C24.1616 20.8307 24.1554 15.0756 24.2047 9.32052C24.2171 7.90797 23.7976 6.81 22.7922 5.84157C21.6325 4.72509 21.7559 4.09592 23.2055 3.40506C25.4014 2.36261 27.5973 1.3325 29.8118 0.327052C31.4217 -0.406982 32.1434 0.0618131 32.1434 1.80746C32.1434 8.14853 32.1434 14.4834 32.1434 20.8245C32.1434 21.1823 32.1434 21.5462 32.1434 22.1754L32.1496 22.1816Z" fill="white"/>
<path d="M88.8491 23.0945C88.7628 28.9174 84.1982 33.5746 78.1162 33.9693C73.7428 34.2531 69.8876 33.0256 67.0378 29.5466C63.0592 24.6859 64.188 17.58 69.388 14.0517C74.7113 10.4432 82.2182 11.3068 86.3016 16.0194C88.0534 18.0426 88.8676 20.4236 88.8491 23.0945ZM72.4475 19.0111C72.7004 23.0205 73.274 26.555 75.1184 29.744C75.8154 30.953 76.7098 32.0448 78.3506 31.8042C79.5843 31.6254 80.3368 30.6261 80.5774 28.7262C81.1264 24.3899 80.1949 20.2941 78.3629 16.3772C78.1224 15.859 77.7523 15.3841 77.3575 14.9646C75.7969 13.3053 73.6256 13.7741 72.9779 15.9577C72.651 17.0557 72.577 18.2338 72.4536 19.0049L72.4475 19.0111Z" fill="white"/>
<path d="M9.47448 33.9875C6.90228 33.8703 4.21904 33.5866 1.8874 31.9828C0.653728 31.1316 -0.111149 29.9904 0.0183866 28.4422C0.104744 27.3812 0.622886 26.5423 1.70235 26.2031C3.00387 25.7959 4.31156 25.7528 5.36019 26.7705C5.85982 27.2578 6.19908 27.924 6.53834 28.547C6.8776 29.1762 7.0935 29.8732 7.42659 30.5086C8.19146 31.9396 9.65337 32.4393 10.9796 31.7793C12.0837 31.2303 12.4846 29.7684 11.9418 28.362C11.51 27.2393 10.591 26.6533 9.56084 26.2462C8.35801 25.7651 7.09966 25.4197 5.87833 24.9694C5.0456 24.6671 4.19437 24.3649 3.42949 23.9269C-0.481251 21.6693 -0.715649 16.3275 3.00387 13.743C5.98319 11.6766 9.35728 11.4422 12.7622 12.1392C14.329 12.4599 15.8156 13.2557 17.2775 13.9589C17.7894 14.2056 18.1965 14.7731 18.5358 15.2789C19.4981 16.7099 19.2267 18.4309 17.9683 19.2945C16.5496 20.2629 14.4832 19.9792 13.5888 18.5666C13.046 17.7154 12.7005 16.7285 12.2996 15.7909C11.6334 14.2426 10.7637 13.6073 9.6657 13.9033C8.61091 14.1871 8.03109 15.3159 8.14829 16.8333C8.25932 18.2952 9.13522 19.2266 10.3689 19.8065C11.5409 20.3554 12.7869 20.7564 13.9897 21.2314C14.7546 21.5336 15.5256 21.8112 16.2597 22.1813C18.3816 23.2484 19.4796 24.9817 19.4796 27.3689C19.4796 29.7375 18.2521 31.3721 16.272 32.4948C14.218 33.6668 11.9542 33.9505 9.48682 33.9875H9.47448Z" fill="white"/>
<path d="M60.0304 20.9354C60.0304 23.2978 60.0613 25.6665 60.0181 28.029C59.9996 29.1948 60.3203 30.1756 61.1284 31.0145C61.3875 31.2859 61.6465 31.5696 61.8316 31.8965C62.3682 32.8341 61.9858 33.5558 60.9063 33.5682C57.7913 33.5928 54.6701 33.5928 51.5551 33.5682C50.4386 33.562 50.0562 32.8526 50.562 31.8472C50.5805 31.8164 50.5805 31.7793 50.6052 31.7547C52.3817 30.1447 52.1843 28.0228 52.1534 25.9256C52.1288 24.3156 52.1041 22.7057 52.1658 21.0957C52.2151 19.7942 51.8573 18.6963 50.9999 17.7031C49.9575 16.4941 50.087 15.9822 51.4934 15.2852C53.5783 14.2489 55.6632 13.2187 57.7543 12.2071C59.4012 11.4114 60.0243 11.8185 60.0304 13.6444C60.0304 16.0747 60.0304 18.5112 60.0304 20.9415V20.9354Z" fill="white"/>
<path d="M56.0333 9.63517C53.3563 9.53648 51.4009 8.02523 51.1357 5.85397C50.7656 2.83764 53.1589 0.549176 56.4589 0.771237C59.1977 0.956288 61.0791 2.60941 61.2086 4.94722C61.3566 7.64896 59.0373 9.7462 56.0333 9.629V9.63517Z" fill="white"/>
</g>
<defs>
<clipPath id="clip0_775_2239">
<rect width="88.8491" height="34" fill="white"/>
</clipPath>
</defs>
</svg>
