<svg width="171" height="34" viewBox="0 0 171 34" fill="none" xmlns="http://www.w3.org/2000/svg">
<g clip-path="url(#clip0_120_1328)">
<path d="M99.3593 3.54406V19.9427H97.5708V0.139342C98.1756 0.139342 98.7648 0.126508 99.3528 0.150892C99.4536 0.154742 99.5712 0.301044 99.641 0.407562C101.912 3.91238 104.176 7.42106 106.442 10.9297C106.522 11.0542 106.606 11.1748 106.711 11.3314C106.803 11.1941 106.872 11.0914 106.94 10.9862C109.18 7.47496 111.423 3.965 113.653 0.447345C113.807 0.204793 113.968 0.120092 114.247 0.131642C114.763 0.153459 115.28 0.138059 115.825 0.138059V19.9414C115.749 19.9478 115.677 19.9606 115.604 19.9606C115.1 19.9619 114.598 19.9606 114.063 19.9606V3.5261C114.042 3.5184 114.023 3.5107 114.002 3.50171C113.932 3.60053 113.861 3.69806 113.794 3.79817C111.615 7.10792 109.436 10.4177 107.258 13.7261C107 14.1176 106.48 14.1214 106.222 13.7338C104.032 10.4318 101.842 7.12974 99.6526 3.82768C99.5841 3.72373 99.5118 3.62106 99.442 3.5184C99.4149 3.52738 99.3877 3.53508 99.3606 3.54406H99.3593Z" fill="white"/>
<path d="M69.9972 15.6422V0.170162H71.7728V19.9376C71.3205 19.9889 70.9574 19.9889 70.6059 19.5487C66.6774 14.6463 62.7205 9.76704 58.7701 4.88133C58.6861 4.77738 58.5995 4.67728 58.4509 4.50274V19.9388H56.6443V0.207379C57.1651 0.0302775 57.4907 0.117545 57.8138 0.520516C61.7642 5.46012 65.7147 10.3984 69.6651 15.338C69.7517 15.4458 69.8396 15.5536 69.9274 15.6615C69.9507 15.655 69.974 15.6486 69.9972 15.6435V15.6422Z" fill="white"/>
<path d="M37.8403 0.14432C38.0962 0.14432 38.3353 0.119936 38.564 0.154587C38.6803 0.172554 38.8031 0.280355 38.8819 0.379173C41.0232 3.04597 43.158 5.71661 45.2941 8.38726C47.155 10.714 49.0158 13.042 50.878 15.37C50.9581 15.4701 51.0408 15.5676 51.1791 15.7357V0.16742H52.9701V19.9053C52.4132 20.0657 52.1754 19.9951 51.8355 19.5742C47.8592 14.6551 43.8829 9.73606 39.9067 4.81827C39.8369 4.731 39.7593 4.64887 39.6301 4.50128V19.9451H37.8416V0.14432H37.8403Z" fill="white"/>
<path d="M94.4961 19.9605C93.8759 19.9605 93.3047 19.9733 92.7361 19.9489C92.6288 19.9438 92.4841 19.8116 92.4311 19.7025C91.7242 18.2626 91.0264 16.8189 90.3402 15.3687C90.2317 15.139 90.1037 15.0709 89.8543 15.0722C86.3769 15.0812 82.8994 15.0812 79.4219 15.0722C79.1841 15.0722 79.064 15.1364 78.9619 15.3571C78.2964 16.7932 77.6076 18.2177 76.9434 19.6538C76.8309 19.8976 76.694 19.9759 76.4342 19.9656C75.9199 19.9464 75.4043 19.9605 74.8447 19.9605C74.9029 19.8193 74.9429 19.7128 74.9908 19.6089C77.8531 13.2422 80.7181 6.87677 83.5714 0.506228C83.7019 0.214908 83.8531 0.10454 84.1697 0.13149C84.5328 0.162291 84.9024 0.152024 85.2668 0.134057C85.4955 0.122507 85.6054 0.202074 85.6997 0.41126C86.7542 2.7739 87.8203 5.13013 88.8838 7.48892C90.6995 11.5135 92.5151 15.5381 94.3294 19.5627C94.3811 19.6782 94.4277 19.7949 94.4961 19.9618V19.9605ZM84.6439 2.54162C83.0247 6.18761 81.4404 9.75403 79.8406 13.3538H89.4486C87.8475 9.75018 86.2619 6.18247 84.6439 2.54162Z" fill="white"/>
<path d="M152.659 3.59283C152.156 3.888 151.67 4.1729 151.168 4.46807C151.019 4.26145 150.89 4.06767 150.746 3.88287C149.931 2.82795 148.827 2.2543 147.531 2.03099C145.674 1.71144 143.842 1.76791 142.077 2.49813C141.049 2.92292 140.238 3.58641 139.975 4.71961C139.677 6.00809 140.015 6.9783 141.181 7.64051C142.167 8.20133 143.265 8.42592 144.359 8.66077C145.86 8.98546 147.368 9.28191 148.862 9.63868C149.754 9.85172 150.596 10.2188 151.347 10.7565C152.665 11.701 153.19 13.0229 153.149 14.595C153.092 16.8062 151.969 18.3334 149.941 19.1201C146.801 20.3379 143.654 20.32 140.592 18.8082C139.245 18.1434 138.213 17.1309 137.512 15.8C137.483 15.7448 137.461 15.6858 137.422 15.5973C137.957 15.3316 138.482 15.0698 138.93 14.8465C139.418 15.4086 139.819 16.0092 140.35 16.4558C142.053 17.888 144.069 18.4027 146.273 18.2564C147.353 18.1845 148.406 17.9933 149.39 17.5107C151.045 16.6997 151.785 14.867 151.093 13.2834C150.814 12.6456 150.313 12.2169 149.719 11.8884C148.622 11.2826 147.406 11.0452 146.199 10.777C144.638 10.4292 143.074 10.0853 141.525 9.68488C140.721 9.47698 139.986 9.07786 139.347 8.53243C138.264 7.60586 137.948 6.38668 138.062 5.03274C138.245 2.8472 139.598 1.58952 141.535 0.829781C143.023 0.247141 144.577 0.086723 146.163 0.15474C147.385 0.206074 148.583 0.370343 149.706 0.895232C150.962 1.48301 151.893 2.41985 152.659 3.59283Z" fill="white"/>
<path d="M0.520264 15.6007C1.07077 15.3274 1.58767 15.0707 2.07485 14.8281C2.42893 15.2824 2.73003 15.7573 3.11642 16.1474C4.29367 17.3345 5.77201 17.9544 7.40673 18.1841C9.16549 18.4318 10.892 18.2675 12.5137 17.4949C14.4612 16.5671 14.7442 14.5792 14.2001 13.2907C13.8642 12.4937 13.1883 12.033 12.4297 11.6852C11.2267 11.1334 9.9331 10.9037 8.646 10.6496C7.10692 10.3454 5.55491 10.09 4.09207 9.4907C3.13192 9.098 2.26999 8.56798 1.70527 7.66322C0.790346 6.19507 0.820068 3.26647 3.02079 1.69822C4.11404 0.920509 5.34169 0.493154 6.65463 0.296802C8.4289 0.0311493 10.1954 0.0580996 11.9309 0.563738C13.6031 1.05013 14.8127 2.12942 15.7638 3.59372C15.2676 3.88504 14.7817 4.16994 14.288 4.45998C14.0373 4.14299 13.8163 3.82729 13.5592 3.54495C12.6507 2.55036 11.4644 2.11531 10.1618 1.95104C8.63954 1.75853 7.13147 1.81885 5.66476 2.31166C4.65033 2.65303 3.74058 3.15867 3.27407 4.17636C2.75071 5.31854 2.77009 6.83546 4.3376 7.67477C5.31714 8.19965 6.38842 8.43066 7.461 8.66166C8.96261 8.98506 10.4746 9.27125 11.9645 9.64214C13.0978 9.92447 14.1627 10.3955 15.0143 11.2335C15.9641 12.169 16.282 13.3343 16.2497 14.6241C16.1889 17.0471 14.7778 18.6102 12.4504 19.3558C9.68627 20.2413 6.92083 20.2285 4.2213 19.0632C2.58788 18.3586 1.32793 17.2383 0.520264 15.6007Z" fill="white"/>
<path d="M159.814 9.71044C163.473 13.1229 167.103 16.5096 170.8 19.9593C169.947 19.9593 169.178 19.9682 168.41 19.949C168.297 19.9464 168.175 19.8155 168.077 19.7231C164.974 16.8497 161.875 13.9737 158.774 11.0977C158.641 10.9745 158.508 10.8539 158.315 10.6781V19.9387H156.501V0.158487H158.295V8.85445C158.464 8.7043 158.566 8.61831 158.664 8.5272C161.573 5.80907 164.483 3.09094 167.388 0.367673C167.567 0.200838 167.741 0.127687 167.985 0.13282C168.639 0.14822 169.293 0.137954 169.986 0.205971C166.606 3.36429 163.226 6.52261 159.816 9.71044H159.814Z" fill="white"/>
<path d="M132.578 0.153442H134.336C134.345 0.25226 134.359 0.335678 134.359 0.417812C134.358 4.53479 134.375 8.65177 134.344 12.7687C134.33 14.6488 133.74 16.3557 132.398 17.725C130.702 19.4537 128.584 20.1121 126.197 19.9221C124.364 19.7758 122.765 19.0597 121.481 17.7302C120.301 16.5084 119.715 15.0172 119.552 13.3514C119.505 12.8624 119.497 12.3696 119.497 11.8781C119.493 8.11404 119.494 4.34999 119.494 0.58593V0.157292H121.293C121.293 0.297177 121.293 0.421662 121.293 0.54743C121.293 4.45009 121.294 8.35403 121.293 12.2567C121.293 13.4528 121.482 14.6052 122.123 15.6383C123.334 17.5903 125.154 18.4014 127.403 18.2461C129.263 18.1177 130.749 17.2733 131.739 15.6653C132.395 14.6001 132.578 13.413 132.578 12.1887C132.581 8.32836 132.578 4.46806 132.578 0.607747V0.153442Z" fill="white"/>
<path d="M19.3038 0.164917H21.0885V0.578155C21.0885 4.459 21.0872 8.33984 21.0885 12.2207C21.0885 13.4232 21.272 14.591 21.9194 15.6344C23.1302 17.5851 24.951 18.3987 27.197 18.2447C29.0682 18.1164 30.562 17.2642 31.5506 15.6408C32.1877 14.5923 32.3777 13.4296 32.3777 12.2258C32.379 8.34498 32.3777 4.46413 32.3777 0.583288V0.172617H34.1493C34.1558 0.289402 34.1674 0.402336 34.1674 0.516554C34.1674 4.42948 34.1674 8.34241 34.1674 12.2553C34.1674 13.7427 33.9193 15.175 33.1453 16.4724C31.9396 18.4898 30.0994 19.5614 27.8018 19.881C25.8905 20.1466 24.093 19.7809 22.4699 18.7157C20.6698 17.535 19.7032 15.8307 19.4008 13.7389C19.3271 13.2332 19.3051 12.7161 19.3051 12.2053C19.2974 8.32444 19.3013 4.4436 19.3013 0.562755V0.164917H19.3038Z" fill="white"/>
<path d="M108.318 26.6659C108.603 26.5761 108.785 26.6595 108.966 26.8828C110.09 28.2752 111.23 29.6561 112.364 31.0408C112.412 31.0986 112.463 31.1538 112.571 31.2795V26.6505H113.38V32.9992C113.128 33.0801 112.947 33.0262 112.77 32.808C111.65 31.4258 110.515 30.0552 109.386 28.6808C109.325 28.6076 109.262 28.5357 109.139 28.3933V33.0069H108.32V26.6659H108.318Z" fill="white"/>
<path d="M78.5401 28.3768V33.0084H77.7544V26.6686C78.009 26.5788 78.1938 26.6404 78.3773 26.8676C79.4938 28.251 80.6258 29.6229 81.7527 30.9987C81.8173 31.0769 81.8896 31.1488 82.0072 31.2784V26.6532H82.7968V32.9955C82.5203 33.0931 82.3484 32.9968 82.1778 32.7864C81.0561 31.4068 79.9228 30.0361 78.7934 28.663C78.7288 28.5847 78.6577 28.5102 78.5401 28.3768Z" fill="white"/>
<path d="M87.3868 26.6006C88.3831 26.6352 89.373 26.5775 90.3305 26.7276C91.659 26.9355 92.4537 27.8018 92.7613 29.1082C93.0572 30.3685 92.5597 31.7558 91.5401 32.4629C90.9637 32.8633 90.3098 33.0148 89.6211 33.0276C88.9543 33.0404 88.2875 33.0276 87.6207 33.0353C87.4397 33.0379 87.3454 33.0006 87.3467 32.7915C87.3532 30.7946 87.3506 28.7964 87.3532 26.7995C87.3532 26.7584 87.3674 26.7174 87.388 26.6019L87.3868 26.6006ZM88.175 32.2165C88.7268 32.2165 89.2424 32.2293 89.7568 32.2139C90.7544 32.1844 91.5233 31.6352 91.8554 30.7368C92.2069 29.7859 91.9678 28.6693 91.2765 28.0418C90.3654 27.2153 89.2528 27.463 88.175 27.4271V32.2165Z" fill="white"/>
<path d="M103.8 29.8281C103.773 31.7891 102.43 33.1443 100.536 33.1199C98.6283 33.0955 97.2843 31.6941 97.3231 29.7729C97.3644 27.7979 98.6955 26.5171 100.674 26.5504C102.535 26.5825 103.824 27.9352 103.799 29.8268L103.8 29.8281ZM100.53 27.3294C99.1193 27.3217 98.1566 28.2996 98.1424 29.755C98.1282 31.277 99.1258 32.3409 100.567 32.3409C101.989 32.3409 103.004 31.2937 103.003 29.8268C103.003 28.333 102.017 27.3371 100.53 27.3281V27.3294Z" fill="white"/>
<path d="M73.1942 29.9309C73.1412 30.8613 72.8414 31.6827 72.1384 32.3308C71.5116 32.9083 70.7505 33.1226 69.9183 33.1187C67.7602 33.1085 66.5997 31.4068 66.7341 29.5472C66.7975 28.6719 67.0869 27.8917 67.7744 27.3154C68.8095 26.4479 70.0074 26.3465 71.2312 26.7764C72.3942 27.1858 72.9758 28.106 73.1554 29.2918C73.1786 29.4496 73.1825 29.6113 73.1929 29.7705C73.1967 29.8231 73.1929 29.877 73.1929 29.9296L73.1942 29.9309ZM72.3839 30.0041C72.3878 28.6411 71.7636 27.7466 70.6975 27.4284C69.4776 27.0639 68.237 27.5811 67.7576 28.6527C67.2161 29.8642 67.6232 31.3875 68.6816 32.0048C69.4737 32.4668 70.315 32.4745 71.1214 32.0677C72.0195 31.6147 72.3451 30.7984 72.3839 30.0041Z" fill="white"/>
<path d="M58.7232 32.2357H62.1464V33.0108H57.9336V26.6621H58.7232V32.2357Z" fill="white"/>
</g>
<defs>
<clipPath id="clip0_120_1328">
<rect width="170.28" height="33" fill="white" transform="translate(0.52002 0.120117)"/>
</clipPath>
</defs>
</svg>
