<svg width="206" height="27" viewBox="0 0 206 27" fill="none" xmlns="http://www.w3.org/2000/svg">
<g id="idd-UjS4C4_1734093435701 1" clip-path="url(#clip0_465_652)">
<g id="Group">
<g id="Group_2">
<path id="Vector" fill-rule="evenodd" clip-rule="evenodd" d="M20.321 20.7474C20.3578 21.0671 20.1001 21.3513 19.7319 21.3513H11.1174C10.7861 21.3513 10.5284 21.1026 10.5284 20.7829V9.13026C10.5284 8.84605 10.3075 8.59737 9.97615 8.52632C8.17225 8.24211 2.31877 6.85658 0.0362844 0.746053C-0.110973 0.390789 0.183542 0 0.551685 0H7.10463C12.5163 0.213158 16.5659 3.55263 18.2226 8.1C19.5847 11.8658 20.1737 18.6868 20.321 20.7474Z" fill="white"/>
<path id="Vector_2" fill-rule="evenodd" clip-rule="evenodd" d="M29.5987 0.675C27.4635 6.6079 23.0826 7.9579 20.5424 8.49079C20.2847 8.52632 20.027 8.38421 19.9534 8.13553C19.1803 5.32895 18.039 3.83684 16.5665 2.52237C16.3088 2.30921 16.3456 1.91842 16.6033 1.74079C18.3336 0.675 20.432 0 23.0826 0H29.1202C29.4883 0 29.746 0.355263 29.5987 0.675Z" fill="white"/>
</g>
<path id="Vector_3" d="M39.9805 4.04989V0.994629H56.7678V4.08542H50.2517V21.2802H46.4598V4.04989H39.9805Z" fill="white"/>
<path id="Vector_4" d="M57.6145 21.2801V6.03933H61.2223V8.5617H61.3696C61.6641 7.67354 62.1427 6.99854 62.8421 6.5367C63.5416 6.03933 64.3515 5.82617 65.2719 5.82617C65.4928 5.82617 65.7137 5.82617 65.9714 5.8617C66.2291 5.8617 66.4499 5.89722 66.634 5.93275V9.2367C66.4868 9.20117 66.2291 9.13012 65.8977 9.09459C65.5664 9.05907 65.2351 9.02354 64.9406 9.02354C64.2779 9.02354 63.6521 9.16565 63.0998 9.44986C62.5844 9.73407 62.1427 10.1249 61.8482 10.6222C61.5536 11.1196 61.3696 11.688 61.3696 12.3275V21.2801H57.6145Z" fill="white"/>
<path id="Vector_5" d="M68.4747 21.2803V6.03947H72.193V21.2447H68.4747V21.2803ZM70.3523 3.90789C69.7632 3.90789 69.2478 3.73026 68.8429 3.33947C68.4011 2.94868 68.217 2.48684 68.217 1.95395C68.217 1.42105 68.4379 0.95921 68.8429 0.568421C69.2847 0.177632 69.7632 0 70.3523 0C70.9413 0 71.4567 0.177632 71.8617 0.568421C72.3034 0.95921 72.4875 1.42105 72.4875 1.95395C72.4875 2.48684 72.2666 2.94868 71.8617 3.33947C71.4567 3.69474 70.9413 3.90789 70.3523 3.90789Z" fill="white"/>
<path id="Vector_6" d="M75.4326 26.9645V6.03945H79.0772V8.56182H79.2981C79.4822 8.20655 79.7767 7.81576 80.108 7.38945C80.4394 6.96313 80.918 6.60787 81.507 6.32366C82.096 6.00392 82.8691 5.86182 83.7895 5.86182C85.0043 5.86182 86.1088 6.14603 87.1028 6.74997C88.0967 7.35392 88.8698 8.24208 89.4589 9.37892C90.0479 10.5513 90.3424 11.9723 90.3424 13.6421C90.3424 15.3473 90.0479 16.7329 89.4957 17.9052C88.9435 19.0776 88.1704 19.9658 87.1764 20.5697C86.1824 21.1737 85.078 21.4934 83.8631 21.4934C82.9427 21.4934 82.2065 21.3513 81.6174 21.0671C81.0284 20.7829 80.5498 20.4276 80.1817 20.0013C79.8135 19.575 79.5558 19.1842 79.3349 18.8289H79.1509V26.9289L75.4326 26.9645ZM79.0772 13.6776C79.0772 14.6723 79.2245 15.525 79.519 16.271C79.8135 17.0171 80.2185 17.5855 80.7707 18.0118C81.3229 18.4381 81.9856 18.6158 82.7955 18.6158C83.6054 18.6158 84.3049 18.4026 84.8571 17.9763C85.4093 17.55 85.8143 16.946 86.1088 16.2355C86.4033 15.4894 86.5505 14.6368 86.5505 13.6776C86.5505 12.7184 86.4033 11.9013 86.1456 11.1552C85.8511 10.4092 85.4461 9.84076 84.8939 9.41445C84.3417 8.98813 83.6422 8.77498 82.8323 8.77498C82.0224 8.77498 81.3597 8.98813 80.8075 9.37892C80.2553 9.76971 79.8135 10.3381 79.5558 11.0842C79.2245 11.8302 79.0772 12.6829 79.0772 13.6776Z" fill="white"/>
<path id="Vector_7" d="M96.6743 0.994629V21.2802H92.9561V0.994629H96.6743Z" fill="white"/>
<path id="Vector_8" d="M106.872 21.5644C105.289 21.5644 103.927 21.2447 102.786 20.6052C101.644 19.9658 100.761 19.0421 100.135 17.9052C99.5091 16.7329 99.2146 15.3473 99.2146 13.7487C99.2146 12.15 99.5091 10.8 100.135 9.62761C100.761 8.45524 101.644 7.49603 102.749 6.85655C103.853 6.18155 105.179 5.86182 106.688 5.86182C107.645 5.86182 108.565 6.00392 109.449 6.32366C110.333 6.60787 111.069 7.06971 111.731 7.70918C112.394 8.34866 112.946 9.13024 113.314 10.125C113.683 11.0842 113.904 12.2566 113.904 13.571V14.6723H100.982V12.2566H110.333C110.333 11.5816 110.185 10.9421 109.854 10.4092C109.559 9.87629 109.118 9.44997 108.602 9.13024C108.05 8.8105 107.461 8.66839 106.725 8.66839C105.952 8.66839 105.289 8.84603 104.737 9.20129C104.148 9.55655 103.706 10.0184 103.375 10.5868C103.043 11.1552 102.896 11.7947 102.896 12.4697V14.5658C102.896 15.4539 103.08 16.2 103.411 16.8394C103.743 17.4789 104.221 17.9408 104.81 18.296C105.399 18.6158 106.136 18.7934 106.909 18.7934C107.461 18.7934 107.94 18.7223 108.381 18.5802C108.823 18.4381 109.191 18.1894 109.523 17.9052C109.854 17.621 110.075 17.2658 110.259 16.8394L113.719 17.2302C113.499 18.1184 113.094 18.9 112.468 19.5394C111.842 20.1789 111.069 20.7118 110.112 21.0671C109.191 21.3868 108.124 21.5644 106.872 21.5644Z" fill="white"/>
<path id="Vector_9" d="M127.635 21.2802L121.708 0.994629H125.794L129.586 15.9157H129.77L133.82 0.994629H137.538L141.588 15.9157H141.772L145.564 0.994629H149.65L143.723 21.2802H139.968L135.771 7.0341H135.624L131.39 21.2802H127.635Z" fill="white"/>
<path id="Vector_10" d="M155.32 12.363V21.2802H151.602V0.994629H155.246V8.66831H155.43C155.798 7.81568 156.387 7.14068 157.161 6.64331C157.934 6.14594 158.928 5.89726 160.142 5.89726C161.247 5.89726 162.204 6.11042 163.014 6.57226C163.824 6.99858 164.45 7.67357 164.892 8.52621C165.333 9.37884 165.554 10.4091 165.554 11.6525V21.3512H161.836V12.1499C161.836 11.1196 161.578 10.338 161.026 9.76963C160.474 9.20121 159.738 8.917 158.744 8.917C158.081 8.917 157.492 9.0591 156.976 9.34331C156.461 9.62752 156.056 10.0183 155.762 10.5157C155.467 11.013 155.32 11.617 155.32 12.363Z" fill="white"/>
<path id="Vector_11" d="M173.285 21.5643C172.291 21.5643 171.371 21.3867 170.598 21.0314C169.788 20.6762 169.162 20.1788 168.72 19.4683C168.278 18.7933 168.021 17.9406 168.021 16.9459C168.021 16.0933 168.168 15.3828 168.499 14.8143C168.83 14.2459 169.272 13.8196 169.861 13.4643C170.413 13.1446 171.076 12.8604 171.776 12.7183C172.512 12.5406 173.248 12.3985 174.021 12.3275C174.942 12.2209 175.678 12.1499 176.267 12.0788C176.856 12.0078 177.261 11.8656 177.519 11.7235C177.776 11.5459 177.924 11.2972 177.924 10.9775V10.9064C177.924 10.1604 177.703 9.59196 177.224 9.16565C176.782 8.73933 176.12 8.5617 175.236 8.5617C174.316 8.5617 173.616 8.73933 173.064 9.13012C172.549 9.52091 172.181 9.98275 171.996 10.4801L168.536 10.0183C168.794 9.09459 169.272 8.31302 169.898 7.70907C170.524 7.06959 171.297 6.60775 172.217 6.28801C173.138 5.96828 174.132 5.82617 175.236 5.82617C176.009 5.82617 176.746 5.89722 177.519 6.07486C178.255 6.25249 178.954 6.5367 179.58 6.92749C180.206 7.31828 180.685 7.85117 181.09 8.52617C181.458 9.20117 181.679 10.0538 181.679 11.0485V21.2446H178.108V19.1841H177.997C177.776 19.6104 177.445 20.0012 177.04 20.3564C176.635 20.7117 176.12 21.0314 175.494 21.2446C174.831 21.4578 174.095 21.5999 173.285 21.5643ZM174.242 18.9354C174.978 18.9354 175.641 18.7933 176.193 18.5091C176.746 18.2249 177.15 17.8341 177.445 17.3722C177.739 16.9104 177.887 16.3775 177.887 15.8091V14.0328C177.776 14.1393 177.555 14.2104 177.298 14.2814C177.04 14.3525 176.709 14.4235 176.377 14.4946C176.046 14.5656 175.678 14.6012 175.347 14.6367C175.015 14.6722 174.721 14.7078 174.463 14.7433C173.911 14.8143 173.395 14.9209 172.99 15.0985C172.549 15.2762 172.217 15.4893 171.96 15.8091C171.702 16.0933 171.592 16.4841 171.592 16.9459C171.592 17.6209 171.849 18.1183 172.328 18.438C172.843 18.7933 173.469 18.9354 174.242 18.9354Z" fill="white"/>
<path id="Vector_12" d="M188.489 0.994629V21.2802H184.771V0.994629H188.489Z" fill="white"/>
<path id="Vector_13" d="M198.724 21.5644C197.141 21.5644 195.779 21.2447 194.637 20.6052C193.496 19.9658 192.613 19.0421 191.987 17.9052C191.361 16.7329 191.066 15.3473 191.066 13.7487C191.066 12.15 191.361 10.8 191.987 9.62761C192.613 8.45524 193.496 7.49603 194.601 6.85655C195.705 6.18155 197.03 5.86182 198.54 5.86182C199.497 5.86182 200.417 6.00392 201.301 6.32366C202.184 6.60787 202.921 7.06971 203.583 7.70918C204.246 8.34866 204.798 9.13024 205.166 10.125C205.534 11.0842 205.755 12.2566 205.755 13.571V14.6723H192.833V12.2566H202.184C202.184 11.5816 202.037 10.9421 201.706 10.4092C201.411 9.87629 200.969 9.44997 200.454 9.13024C199.902 8.8105 199.313 8.66839 198.577 8.66839C197.803 8.66839 197.141 8.84603 196.589 9.20129C196 9.55655 195.558 10.0184 195.226 10.5868C194.895 11.1552 194.748 11.7947 194.748 12.4697V14.5658C194.748 15.4539 194.932 16.2 195.263 16.8394C195.595 17.4789 196.073 17.9408 196.662 18.296C197.251 18.6158 197.988 18.7934 198.761 18.7934C199.313 18.7934 199.791 18.7223 200.233 18.5802C200.675 18.4381 201.043 18.1894 201.374 17.9052C201.706 17.621 201.927 17.2658 202.111 16.8394L205.571 17.2302C205.35 18.1184 204.945 18.9 204.32 19.5394C203.694 20.1789 202.921 20.7118 201.963 21.0671C201.043 21.3868 199.939 21.5644 198.724 21.5644Z" fill="white"/>
</g>
</g>
<defs>
<clipPath id="clip0_465_652">
<rect width="205.792" height="27" fill="white"/>
</clipPath>
</defs>
</svg>
