<svg width="621" height="189" viewBox="0 0 621 189" fill="none" xmlns="http://www.w3.org/2000/svg">
<g clip-path="url(#clip0_777_2467)">
<path d="M461.199 101.72C461.199 90.4802 461.289 80.2202 461.159 69.9702C461.099 65.1002 457.549 61.2002 452.839 61.0302C431.569 60.2902 413.099 51.3602 395.139 41.2202C379.579 32.4402 364.929 22.1202 348.989 13.9602C336.319 7.47019 322.989 2.65019 308.729 2.50019C299.729 2.41019 290.619 4.28019 283.109 10.3102C273.489 18.0302 271.849 34.5702 283.829 41.0402C286.699 42.5902 289.809 43.8202 292.269 46.2402C295.979 49.9002 296.929 54.0302 295.349 58.8102C293.709 63.7702 289.879 66.2502 284.949 66.8902C269.769 68.8502 261.269 57.3602 260.419 44.5502C259.529 31.1902 263.799 20.1502 273.819 11.3002C282.139 3.95019 292.219 1.05019 302.999 0.210188C325.729 -1.56981 344.999 7.91019 363.749 19.0302C379.719 28.4902 394.929 39.2102 411.739 47.2802C428.369 55.2602 445.729 59.7302 464.219 57.8602C474.279 56.8402 484.029 54.0502 493.179 49.5202C494.959 48.6402 496.699 47.6502 499.159 47.8402C499.159 49.7102 499.159 51.5102 499.159 53.3202C499.159 87.5302 499.179 121.74 499.129 155.94C499.129 159.44 499.309 162.88 500.169 166.27C501.109 169.97 503.189 172.41 507.309 172.61C508.539 172.67 510.219 172 510.809 173.67C511.369 175.24 510.239 176.54 509.359 177.71C502.019 187.37 491.769 190.07 480.509 188.25C470.879 186.69 464.599 180.56 462.399 170.76C462.289 170.29 462.069 169.84 461.779 169.05C458.949 171.23 458.299 174.65 456.279 177.16C442.639 194.16 411.039 192.39 397.589 172.96C384.449 153.97 384.189 133.74 393.219 113.09C402.179 92.6002 423.119 84.6802 443.359 88.8302C450.939 90.3802 455.769 95.4702 461.219 101.73L461.199 101.72ZM461.209 132.42C461.209 128.77 461.209 125.12 461.209 121.47C461.209 117.66 460.999 113.83 461.269 110.03C461.549 106.19 459.719 104.21 456.389 102.97C448.679 100.08 437.779 103.4 432.729 111.14C424.049 124.45 422.699 138.99 427.999 153.8C431.389 163.29 438.769 167.88 447.729 167.58C454.919 167.34 461.169 160.97 461.199 153.81C461.229 146.68 461.199 139.55 461.199 132.42H461.209Z" fill="white"/>
<path d="M129.531 99.2998C144.021 97.3298 157.911 94.4598 171.111 88.8698C174.201 87.5598 173.581 89.7698 173.591 91.2298C173.651 97.6998 173.621 104.17 173.621 111.9C175.541 108.44 176.851 105.96 178.281 103.54C186.121 90.3298 199.311 86.2298 214.331 88.1398C227.701 89.8398 236.991 100.13 239.531 114.06C242.691 131.32 241.141 148.74 241.481 166.1C241.621 173.31 240.041 181 249.491 186.18H196.601C196.581 186.04 196.381 185.55 196.491 185.47C202.591 180.91 202.861 174.53 202.691 167.65C202.361 154.38 202.561 141.09 202.601 127.81C202.611 123.93 201.851 120.24 200.091 116.8C195.811 108.45 185.061 105.94 177.521 111.51C174.851 113.48 173.481 115.88 173.541 119.5C173.761 133.94 173.691 148.38 173.611 162.83C173.561 171.31 172.841 179.92 182.271 186.22H129.681C129.661 185.99 129.501 185.5 129.641 185.4C135.371 181.11 135.911 175.17 135.811 168.56C135.521 149.47 135.661 130.38 135.731 111.29C135.751 106.22 135.111 101.64 129.541 99.2998H129.531Z" fill="white"/>
<path d="M377.498 186.12H327.028C334.358 181.33 333.448 174.14 333.408 167.18C333.348 154.9 333.498 142.62 333.338 130.34C333.268 124.88 332.358 119.5 329.368 114.7C324.328 106.57 310.148 106.53 305.148 114.63C304.288 116.03 304.428 117.49 304.428 118.96C304.418 137.05 304.538 155.14 304.348 173.23C304.288 178.65 307.128 182.19 311.488 186.06H258.078C266.888 181.59 266.538 174.24 266.508 166.89C266.418 148.8 266.468 130.71 266.488 112.62C266.488 107.64 265.808 102.98 260.078 99.8199C266.638 97.2899 272.948 97.4999 278.838 95.8899C286.168 93.8899 293.768 92.7199 300.608 89.2199C303.998 87.4799 304.518 88.7499 304.458 91.8599C304.328 98.1299 304.418 104.4 304.418 112.03C307.408 105.69 309.958 100.63 314.148 96.5199C326.658 84.2899 350.738 84.4399 362.308 97.4799C368.818 104.81 370.988 114.2 371.218 123.76C371.568 138.52 371.428 153.3 371.268 168.07C371.198 174.84 370.988 181.46 377.498 186.12Z" fill="white"/>
<path d="M66.7683 99.0799C81.9783 97.1699 96.0783 94.6699 109.308 88.7699C111.358 87.8599 111.628 88.7799 111.678 90.3699C111.718 91.5299 111.698 92.6899 111.698 93.8499C111.698 115.26 111.748 136.66 111.648 158.07C111.638 161.12 112.088 164.05 113.008 166.84C114.088 170.1 115.988 172.8 120.118 172.59C124.498 172.37 123.898 174.18 122.048 176.97C115.338 187.13 105.368 189.85 94.2283 188.26C83.8983 186.79 77.6883 179.88 74.8383 170C74.4683 168.73 74.4283 167.39 73.0883 166.09C71.0383 171.7 67.9283 176.43 63.5183 180.29C52.8083 189.66 40.3083 190.6 27.5683 186.65C14.6083 182.63 9.56828 171.94 7.85828 159.35C5.76828 144 7.17828 128.57 6.94828 113.18C6.86828 107.52 5.84828 102.71 -0.0117188 99.1499C12.3183 97.3899 23.7983 95.5399 34.8383 91.7399C35.7783 91.4199 36.7283 91.1199 37.6683 90.7799C42.4216 89.0599 44.7983 90.6866 44.7983 95.6599C44.7983 111.26 44.8683 126.86 44.7583 142.45C44.7183 147.8 45.5683 153.01 46.9283 158.09C48.3183 163.3 52.0383 166.63 57.4183 167.46C63.5283 168.41 68.9783 167 72.9583 161.81C74.0783 160.34 73.7383 158.64 73.7383 157.01C73.7583 141.91 73.6583 126.81 73.7983 111.71C73.8483 106.41 72.7483 101.93 66.7483 99.0699L66.7683 99.0799Z" fill="white"/>
<path d="M566.622 108.13C568.052 106.85 569.592 105.82 571.292 105.12C574.792 103.67 578.332 102.36 581.322 105.77C584.442 109.32 582.262 112.15 579.562 114.74C577.502 116.72 577.692 118.26 580.182 119.86C590.092 126.21 600.612 126.81 610.972 121.93C621.052 117.17 624.522 102.19 614.462 93.7901C608.002 88.3801 600.452 87.2501 592.502 87.9201C582.402 88.7801 568.672 95.2001 564.092 105.79C564.052 105.36 564.062 104.9 564.062 104.44C564.062 100.46 563.962 96.4701 564.082 92.5001C564.192 89.0801 563.062 88.5201 559.932 89.8401C553.052 92.7301 545.802 94.4701 538.492 95.9201C532.622 97.0801 526.732 98.0701 519.642 99.3501C525.512 102.12 526.232 106.19 526.192 111C526.022 128.91 526.152 146.84 526.112 164.76C526.092 172.39 527.982 180.61 518.422 186.14H572.642C563.812 180.22 563.932 172.26 564.022 164.17C564.172 149.9 564.112 135.63 564.032 121.36C564.032 121.36 565.112 109.48 566.622 108.13Z" fill="white"/>
</g>
<defs>
<clipPath id="clip0_777_2467">
<rect width="620.49" height="188.86" fill="white"/>
</clipPath>
</defs>
</svg>
