<svg width="166" height="30" viewBox="0 0 166 30" fill="none" xmlns="http://www.w3.org/2000/svg">
<g clip-path="url(#clip0_775_2221)">
<path d="M19.9049 17.8213C17.9409 16.6998 16.2777 15.0701 15.1276 13.125C13.9421 11.1273 13.3228 8.8493 13.3228 6.51869C13.3228 2.9264 10.3857 0 6.74074 0C3.60895 0.0175234 0.99027 2.19042 0.317908 5.08178C-0.796799 9.23481 1.16721 15.5257 3.78588 19.7664C4.06898 20.257 4.38747 20.7301 4.70596 21.2033C7.04154 24.7079 10.1203 28.16 14.2429 29.5619C14.5791 29.6846 14.9153 29.7897 15.2514 29.8598H15.2691C15.7115 29.9474 16.1538 30 16.5962 30C18.861 30 21.0727 28.8259 22.2936 26.7407C24.1337 23.604 23.0544 19.6262 19.9049 17.8213Z" fill="white"/>
<path d="M26.4874 13.055C30.1225 13.055 33.0694 10.1364 33.0694 6.53627C33.0694 2.9361 30.1225 0.0175781 26.4874 0.0175781C22.8522 0.0175781 19.9053 2.9361 19.9053 6.53627C19.9053 10.1364 22.8522 13.055 26.4874 13.055Z" fill="white"/>
<path d="M73.8179 0.0175781L64.5818 23.569H58.6721L49.5244 0.0175781H55.1156L61.7685 17.4358L68.3683 0.0175781H73.8179Z" fill="white"/>
<path d="M70.8101 15.0174C70.8101 9.95317 74.8619 5.90527 80.1524 5.90527C85.4428 5.90527 89.4947 9.95317 89.4947 15.0174C89.4947 20.0466 85.4428 24.0945 80.1524 24.0945C74.8796 24.0945 70.8101 20.0466 70.8101 15.0174ZM84.8058 15.0174C84.8058 12.3539 82.8772 10.2686 80.1524 10.2686C77.4275 10.2686 75.4989 12.3539 75.4989 15.0174C75.4989 17.6459 77.4275 19.7312 80.1524 19.7312C82.8772 19.7312 84.8058 17.6459 84.8058 15.0174Z" fill="white"/>
<path d="M107.365 6.46625C106.941 14.2992 102.075 29.5796 89.53 29.9826V25.7244C91.8125 25.5141 93.6526 24.6906 95.2274 23.499L88.7515 6.44873H93.865L98.7661 19.3985C101.279 15.1754 102.199 9.79569 102.535 6.44873L107.365 6.46625Z" fill="white"/>
<path d="M125.767 6.46608V23.5864H121.432V21.5712C120.282 23.1308 118.141 23.9194 116.018 23.9194C110.975 23.9194 107.667 20.0116 107.667 14.9824C107.667 9.98828 110.993 6.08057 116.018 6.08057C118.159 6.08057 120.282 6.86912 121.432 8.4287V6.46608H125.767ZM121.432 14.9824C121.432 12.424 119.574 10.3387 116.85 10.3387C114.125 10.3387 112.267 12.424 112.267 14.9824C112.267 17.5759 114.125 19.6261 116.85 19.6261C119.574 19.6261 121.432 17.5759 121.432 14.9824Z" fill="white"/>
<path d="M145.354 0.0175781V23.569H141.019V21.5713C139.869 23.1309 137.728 23.9545 135.64 23.9545C130.527 23.9545 127.183 20.0117 127.183 15.0176C127.183 9.98837 130.544 6.08066 135.64 6.08066C137.569 6.08066 139.551 6.7816 140.754 8.09585V0.0175781H145.354ZM141.019 15.0176C141.019 12.4241 139.197 10.3739 136.436 10.3739C133.712 10.3739 131.854 12.4241 131.854 15.0176C131.854 17.611 133.712 19.6613 136.436 19.6613C139.197 19.6613 141.019 17.611 141.019 15.0176Z" fill="white"/>
<path d="M146.681 15.0174C146.681 9.95317 150.733 5.90527 156.023 5.90527C161.314 5.90527 165.366 9.95317 165.366 15.0174C165.366 20.0466 161.314 24.0945 156.023 24.0945C150.751 24.0945 146.681 20.0466 146.681 15.0174ZM160.677 15.0174C160.677 12.3539 158.748 10.2686 156.023 10.2686C153.299 10.2686 151.37 12.3539 151.37 15.0174C151.37 17.6459 153.299 19.7312 156.023 19.7312C158.748 19.7312 160.677 17.6459 160.677 15.0174Z" fill="white"/>
</g>
<defs>
<clipPath id="clip0_775_2221">
<rect width="165.366" height="30" fill="white"/>
</clipPath>
</defs>
</svg>
