<svg width="112" height="32" viewBox="0 0 112 32" fill="none" xmlns="http://www.w3.org/2000/svg">
<g id="yotpo-dark 2" clip-path="url(#clip0_465_681)">
<g id="Clip path group">
<mask id="mask0_465_681" style="mask-type:luminance" maskUnits="userSpaceOnUse" x="0" y="0" width="112" height="32">
<g id="clip0_1090_1783">
<path id="Vector" d="M112 0H0V32H112V0Z" fill="white"/>
</g>
</mask>
<g mask="url(#mask0_465_681)">
<g id="Group">
<path id="Vector_2" fill-rule="evenodd" clip-rule="evenodd" d="M6.62015 4.88078L10.7057 16.2458L14.9864 4.88078H21.0632L10.672 31.1987H4.66163L7.73519 23.0438L0.348145 4.88078H6.62015ZM70.8041 4.47778C76.2911 4.47778 80.2924 8.77378 80.2924 14.6538C80.2924 20.5338 76.2911 24.8307 70.8041 24.8307C68.7791 24.8307 67.0743 24.2898 65.773 23.2467L65.6887 23.1778L65.6164 23.1178V31.1928H59.7606V4.88078H64.9385V6.84778L64.9682 6.81378C66.2438 5.34578 68.1735 4.53378 70.5583 4.48078L70.6842 4.47878L70.8041 4.47778ZM31.729 4.47778C37.771 4.47778 42.0538 8.68978 42.0538 14.6538C42.0538 20.5928 37.7572 24.8307 31.729 24.8307C25.6671 24.8307 21.3635 20.5987 21.3635 14.6538C21.3635 8.68378 25.6523 4.47778 31.729 4.47778ZM51.8097 0.550781V4.88078H56.6267V9.98378H51.8097V17.0278C51.8097 18.6038 52.5679 19.4707 53.9495 19.5238L54.017 19.5248L54.0853 19.5258C55.022 19.5258 55.7317 19.2778 56.367 18.6618L56.4265 18.6027L56.5841 18.4398H56.6277V24.0688L56.4483 24.1558C55.4838 24.6208 54.8902 24.8307 53.2468 24.8307C48.6043 24.8307 46.055 22.2808 45.9559 17.5187L45.954 17.3738V17.2288L45.953 9.98378H43.8339V4.88078H46.1125V0.550781H51.8097ZM93.0882 4.47778C99.1302 4.47778 103.413 8.68978 103.413 14.6538C103.413 20.5928 99.1163 24.8307 93.0882 24.8307C87.0262 24.8307 82.7227 20.5987 82.7227 14.6538C82.7227 8.68378 87.0124 4.47778 93.0882 4.47778ZM108.186 18.3558C109.958 18.3558 111.395 19.8058 111.395 21.5928C111.395 23.3808 109.958 24.8307 108.186 24.8307C106.414 24.8307 104.978 23.3808 104.978 21.5928C104.978 19.8048 106.415 18.3558 108.186 18.3558ZM69.9269 9.78278C67.2885 9.78278 65.4965 11.7528 65.4965 14.6538C65.4965 17.5558 67.2885 19.5258 69.9269 19.5258C72.599 19.5258 74.397 17.5618 74.397 14.6538C74.397 11.7467 72.599 9.78278 69.9269 9.78278ZM31.7279 9.78278C29.0816 9.78278 27.2589 11.7627 27.2589 14.6538C27.2589 17.5458 29.0816 19.5258 31.729 19.5258C34.3416 19.5258 36.1594 17.5398 36.1594 14.6538C36.1594 11.7688 34.3406 9.78278 31.7279 9.78278ZM93.0882 9.78278C90.4418 9.78278 88.618 11.7627 88.618 14.6538C88.618 17.5458 90.4418 19.5258 93.0882 19.5258C95.7007 19.5258 97.5186 17.5398 97.5186 14.6538C97.5186 11.7688 95.7007 9.78278 93.0882 9.78278Z" fill="white"/>
</g>
</g>
</g>
</g>
<defs>
<clipPath id="clip0_465_681">
<rect width="112" height="32" fill="white"/>
</clipPath>
</defs>
</svg>
